<mxfile host="app.diagrams.net" modified="2024-03-07T14:29:21.900Z" agent="Mozilla/5.0 (Macintosh; Intel Mac OS X 10_15_7) AppleWebKit/605.1.15 (KHTML, like Gecko) Version/16.6.1 Safari/605.1.15" etag="jhTwSut3VgZ5s7dTqmzD" version="24.0.2" type="github">
  <diagram name="Page-1" id="b6k9Bk8o7D5ivuApvS1p">
    <mxGraphModel dx="838" dy="744" grid="1" gridSize="10" guides="1" tooltips="1" connect="1" arrows="1" fold="1" page="1" pageScale="1" pageWidth="827" pageHeight="1169" math="0" shadow="0">
      <root>
        <mxCell id="0" />
        <mxCell id="1" parent="0" />
        <mxCell id="b2_v_rB7HseoIvOAP7tp-1" value="" style="shape=image;verticalLabelPosition=bottom;labelBackgroundColor=default;verticalAlign=top;aspect=fixed;imageAspect=0;image=data:image/png,iVBORw0KGgoAAAANSUhEUgAAAvgAAAIeCAYAAADOP3t8AAABYWlDQ1BrQ0dDb2xvclNwYWNlRGlzcGxheVAzAAAokWNgYFJJLCjIYWFgYMjNKykKcndSiIiMUmB/yMAOhLwMYgwKicnFBY4BAT5AJQwwGhV8u8bACKIv64LMOiU1tUm1XsDXYqbw1YuvRJsw1aMArpTU4mQg/QeIU5MLikoYGBhTgGzl8pICELsDyBYpAjoKyJ4DYqdD2BtA7CQI+whYTUiQM5B9A8hWSM5IBJrB+API1klCEk9HYkPtBQFul8zigpzESoUAYwKuJQOUpFaUgGjn/ILKosz0jBIFR2AopSp45iXr6SgYGRiaMzCAwhyi+nMgOCwZxc4gxJrvMzDY7v////9uhJjXfgaGjUCdXDsRYhoWDAyC3AwMJ3YWJBYlgoWYgZgpLY2B4dNyBgbeSAYG4QtAPdHFacZGYHlGHicGBtZ7//9/VmNgYJ/MwPB3wv//vxf9//93MVDzHQaGA3kAFSFl7jXH0fsAAABsZVhJZk1NACoAAAAIAAQBGgAFAAAAAQAAAD4BGwAFAAAAAQAAAEYBKAADAAAAAQACAACHaQAEAAAAAQAAAE4AAAAAAAAAkAAAAAEAAACQAAAAAQACoAIABAAAAAEAAAL4oAMABAAAAAEAAAIeAAAAAIYqP2UAAAAJcEhZcwAAFiUAABYlAUlSJPAAAEAASURBVHgB7L1pe9xGdr9d3c2dlCjJsiXvkj2JZ0syGU+ST/B85iev8ybXlSvJrJl9xvsi2drFnd39P3ehjwRzKMk2xBZE32WDQAN1Tp26q0X+qlAoDKaRikkCEpCABCQgAQlIQAISOBUEhqeiFlZCAhKQgAQkIAEJSEACEqgEFPh+ESQgAQlIQAISkIAEJHCKCCjwT1FjWhUJSEACEpCABCQgAQko8P0OSEACEpCABCQgAQlI4BQRUOCfosa0KhKQgAQkIAEJSEACElDg+x2QgAQkIAEJSEACEpDAKSKgwD9FjWlVJCABCUhAAhKQgAQkoMD3OyABCUhAAhKQgAQkIIFTRECBf4oa06pIQAISkIAEJCABCUhAge93QAISkIAEJCABCUhAAqeIgAL/FDWmVZGABCQgAQlIQAISkIAC3++ABCQgAQlIQAISkIAEThEBBf4pakyrIgEJSEACEpCABCQgAQW+3wEJSEACEpCABCQgAQmcIgIK/FPUmFZFAhKQgAQkIAEJSEACCny/AxKQgAQkIAEJSEACEjhFBBT4p6gxrYoEJCABCUhAAhKQgAQU+H4HJCABCUhAAhKQgAQkcIoILPShLtPptIbBfjAYPAipffzgZOvgOLsn2bTMT8UhDJLDoyoEk8dxSfvct/Medy6v5zXKzeMnlfWoGD0vAQlIQAISkIAEJPB0CDxTgT8ej8vBwUG5f/9+2d/fr8ej0aisrq6W5eXluudzOyEk2XZ3d8v29na129vbK0tLS2VhYaGsr69Xu+Fw+FhRi0/KnEwmdaMc7BGo2LbT4eFhIVY2yiZf5m/ne9QxdcQHtvheXFw8tpzj7LHBnrJTPGOPP7atra16PeuRPrAjP3lhuba2Vvecy4TNzs7OAx+UkdzIhw/ycMx5fKysrFTWnIN/th+xcI52oA0yH2VlrPiHW5tBOxaus5HIhz9Ymx5PAL58l2kvNtoAxrJ7PDevSkACEpCABE4rgWemnhDld+7cKbdv3y4fffRRFZmITQTpxYsXy+bmZnnllVfKhQsXHohOGgEhg7D87LPPyqefflrtELmITzoG2Lz88svlzJkzVdA+quEQknfv3q32dBYQwZSLOGJrJ+Ii771796oAPXv2bI2PMhChj0qILcqhnmwIMer30ksvPRDej7LlPOIaAX3r1q1aNoKNOM+dO1cZwO6vf/1rvYZvEsI4xT75ifWFF14ob7zxRhV8KfqIDZZffvllef/992v94IBtJupGPnxS11dffbUywidxffzxx7Vs2gFf5Efcv/baa7WO58+fr20CP2K9du1aFf601Ysvvlg2NjYe8MOedmSjLpRBOzyJccb6Xdnnd4r65nePfw83btwo/JuCI99/vicwNElAAhKQgAQk8N0j8EwEforrFOm///3vq8BEqCDqECgIQBKindFghCl25Pniiy/Kn/70p/Lee+9V4YzwRiwiLhHiKXwQpilo202bIgnhjC/EJ2KIsrBtC3zyIlDJh0BF2F66dKmK3rZAbfvPY2wRq5SDGEaAUQZ27BFhj0vYY3P9+vVadgpeOgk3b96sPv/nf/6n+s/OA/XN+pGfzsTrr79eENvUMXmQJzsPf/nLX2oZcKA8fHE9R9rhT51hwzk2OizYEQedDOy4ThvACx/wJwbah07Ar371qyrY6bRRB4Q+ebKelA9n7OkkZJuSx9RMg6IDBmv+LcAF5nSKPvnkk8oZdrQXba3A91sjAQlIQAIS+G4SmLvAR/ghCn/3u9/VkXtEM1N0EHyMNCNguM45NsTf5cuX66g14p3RfgQlW4parjNyyfbnP/+5CiBGrN98883aWcA3QqidMg6E9+eff147FPg5KrpTCCOcKJ8yEE4ILITu4xK2WQ6j5Agx7kwguLFldPpxiTIYVUf0IqYRzzBiBB9GdJCIH6GHqEM403GAYQpAysMOoX2UATHkSC/1Il6EOB0KxD++GLVnT7lwRKwT0wcffFDzwiWFZIpP2gh/5P3+979f7xLg9z//8z9rrHQ6KJs7JsRNIj8Cn3xwpkwSeRT4FUVtP9qFdqeDRbvSCaKtaQc6v9k+ya+x9KcEJCABCUhAAt8lAnMV+AgRRC7ikFF7RAni7Wc/+1kVcohRxCMiHQGDWEHcIk4RhIzYY4uoRcB873vfq8KT0X7yIQwR0tgiUhGPCERGrY+K2xTfjIbmhkDl/NFE+QgpBDQCC2FFPMSPDRsCFT/YUx75yZM+seM6e2Jh4zM+sCEvdTraGeEavrGDDfk5ZiMhlhntpp5Xr16tnQZsYE0idjjQmcjRe85TPuKeKU3ESiy0zW9+85vyhz/8oYpFRv1/+tOf1tF/OkuUyZQeOmW0Eb7pbLz77rvVP3XlOgKfYzohiPbkxJ5OG0KUDt5bb71V7fGRrKgr+egYZR2I97hEXnwRF/HzXYJfTtfKNucaG/ywIW428rEnVjauUSYb+dknJ9oc/2yUR3wZI3mxJ2+2IczJm4k42dIO9hkDMWeiTOIgVvJnmeTnGjx//etflw8//LB+97nbxUYb4odyOWZPwhfxwZRj8vA94PvAMTFnmVkfyqY+JPJQd/ZsJglIQAISkIAE+k9g7gIfsYEQR+iREFlM/0CoIqARNQh0EoIE0YGgQnSk6OeY0XZs0hbxgbhKUZkiN4VKdXjkB3naG5f5fDQhPhFFlIHgSqGTQpQYOUYgk8iLDQLuqP8UncRFPejEkAe/5Mc282QcXCf/UV9czxF42MED4Zb5ud6OneN24jPMKBeRB/ucDkQdEd7wxTedKGKFL21IXuzIx+g+nQHK5XOKeGKm7bINKA9W1BuhyvcAH3kHgNjadeT4UYlrfD/wgT/KhAXClnI4Zg9L4iV28tJOCFbqDWs26k5c1CkFMTYc44PvKPmoG5/z+5h5sMMHZcGMssmbAp/6Uy5TtfDJhgjHL/nabY4f8hIrjPJ7QbtyLduATi4xU1/444NEnnbZlAUb/BEn+WHOhm/qk3XP+lA+52CcPPHdjpPPJglIQAISkIAE+klgrgIfoYFAZBoGYoLRY0Zx33nnnQeCC+GDUCIvgihFCHaMWiKiyfMP//AP5e23334wcongR2RyjVFkRE6Ouj4KPeImtxRjR8V125ZrbAg8hBYj1dw5yFh50BExR9n//M//XOuH+KIMBFUKUPIkC54loGzuXvzTP/1TFdPkbyfKbMeZn7HDVwpOYkqBzPmjQu6oT/yQJxNxIyRhSOIYwcpnxB2iOAUi5SCsEY2IR/xwjTsJCFfaiescIzq5xp0GPhMbrLiLQ7vhn1ioT1ucZlxH9/jDN3d0fvnLX9b2Zg46scKb7wZTgygLv0xvymldtFd2DP/xH/+xfof4LlIH7kpkx4M9PImJzg13mdI/U7rYuJOBXQp36sVdJRjgm3IQyrDgjgV3R+ik4hsW1P3HP/5xuXLlSq03sdLB4ntOzNjAnHYgDwyxxQ8b9nyP+J6z5XcEP2yIe3xRL/wxtQc+fNf+9V//tfqk3YiJuzawyfrDl+8VdaYu/FvlDhEx4NskAQlIQAISkEB/CcxV4KcYRJQgGBEujA4jYhBSmVJUskekIKIQ+AguEnaIqByF5Rz+EDiIHq4jQjiXI7nkyZTXUhCxf1RCyCIAEUEIIEQPHQnOvR/TgRCWiCHiR/wg8hgBzQdPOSYvsSBeYcDoK34RubCgngi0rMPRWIi3HWuygg2+6NAgZn/729/WPfb4R8wxAo84Y4PFk8QZdtSBfXvDJ+VSd54hoN4IRjpr//7v/17bgjpQHtezjagzfKgbwpK64h+O1J+ED/ySEJxZ1+NiRTAjQhHXf/zjH+sxvvgeUQbH+KN8yiY/bZGdL+4WEA9CGgGNDfHw3ULk8l3jOnHCi84E7Y5I5hz+Ec20PfXHnnx8FxHytAdtSjnwo3w+k5d6ERdthR3fBaacYYsP8hMreYmX85mXz+TBF1yIBWZZDt9PyuL7RseC7xw2dKL4flAP8hI//Kg7fvDPZ7471BMOtCHtQIz4SC58v3M1ptpY/pCABCQgAQlIoJcE5irwESAIDIQpYgcBhmjguC3mOI+4YCMvoiVFIefSDsGZduz5jChij1jiHBs+sKd8yiIheDhHynzsj0vkRTAhrvCB0KIMxCAb1xFbjPRyHUGF2EM4UT/iJR7KyxV1iIO4uI7oY0NUPSqG4+LEJ2zYKA//1L+d+Iz4Je/XSfjIWHOfdsSMP+rKvG9EJYIQYUiCC59pI/ywzzpRL44ZrccPPMmDyM07LrAjH9fZH8cC1pSBQMeOPPhEqOKPz8mF9sI/7cA5BC4xYE9exCsbCYbUhz15EdDZ7nQuaTdsqDv2udGJ4hx15TvBecrFhg4Nbcx3BN/UC0bk5TwdCe4E0D7ET4Il9uRFqMObY2LCP98lOlLEx0adOEf744899umf+sEVRpRDfPkdhR++yA8jruGDvMRJyu8xZVAPGJgkIAEJSEACEug3gWci8FOIIVjYjksINUQFYogNgYPg4hjBw/44Aci5FCfYIF4QOQgXRFYKLIQ1IpM8+CNhe5xPxBJCEYGDOEof+CQ/goipGUw1ogPDtBtGfLNshBXCEXtGShkBRtAzxQgb7jqQBz/HlU9sxNneOEeCAwypD/Yp8PHDOQTtoxg3Hpqf+KZdju45l6IOPwhKYuccvhGyOUJOfRlZ5xwP5TLaSx3hRH5iRRCngGS0O3nBNTfanfjZiCcTx7QDopgyEajwgx1TvbhGWyFK+a7QCSAv5dMhyWkxtA3XuAvBNCviIj8xJkem+aSo5aFW2o48iHnKIVauc7eCaTYIdNr15z//efXDd47rKZ4pi5FxBDXCn1F6fCKs4cp5vocwIQbi/cEPflAZExffXcqnbnCgPL431Ik2oTy+Y/iDP+zYcx5fTK/hLs77ceeBzgrfQ2LCD35pB+Ll+/OjH/2oxogP2MEQP2zEYpKABCQgAQlIoN8E5irwEYSIYwRNjuQjII4mBAwbeRDhiDbEDwKExPkUjUdtESBcR7QgwhA8CG72iBtGPRFTiB18UA7x4Jt9iv30yzkEIBvx4588fEaIMWqPwEJAsaQkPhFQCF3yp78U+EwfQfQxxeiHP/xhHaV9krgnFsQWiXipG3v8I6ARmcRBDIjnzAPrZJ7Cvzr5Bj8oN8umXDYYEDPzuPnMyC9iEcHNXG/qyPQZRCx5iYc2ZA9P+BMzx4hQ8tJmfKYs2MIt2WW42COuKY+Nz9SbtkTo8pmN7wxCGRGPIMYv7X4l5rEjsomFMmgnrmd5iHc40QkhPmKhjakrNvghkR+RjjjOjgz5aHt88L0jDkQ53zu4EAusyJfCnu8EG/nYk6gfsaYop/2IA1uuwYu6Ezcc2YgDv1kv8lE+3zNiJX7qw/eT2MhLJ4cyaR/yEDf1y7Zhjw/4Ulb+2+McW34natD+kIAEJCABCUigVwTmKvARnIgRxAOiAYGBWEGQIWRSQCFQEEsIH0QLG2IPYYJAIT/CCSGEDRuig2uIGgRVCvEUmFDHR1uYpFDhPD7Ysx2XsDu6YcO5FNKIIIRYxpS+KAcRRT5iRhwixKkjYi9FWuY/rvyj5ygXnylImc7BiC4cSZSJP/J9E79Hy2l/RoTTXjDGP/Wgzohm4iCGnGpE+9DGjPqSp90O8KH+2HHMyDcCGJ98xg/HJOJvJ87jK/3BIDfycZ0NO/Jke8CAODIv5XAufSVP+PE9Ix/X2ZOXjTzpm88k8h/1ST5s27HmOfLyPaD+lAMvvhPEwfeaeNuxkD8/cz3L5RxbxkV5eY64KBtf7LMe+CJeOJA3607+vEZsbORps8OHSQISkIAEJCCB54PAXAU+ggYxm6ODCEBGURH0JIQFggQBiUBkJJjPiEeECaIoOwSMZCIEUzCl8Efc8+Bi+mM0Fls6Fjm9BH8pcvCP0CFx3P6c5+rF+IEoelRqX8NHO+Gf8igXUcuIKnWl3ghbYkPoUZdvmhB41A+2bCkAv6mfdv7kcPQcHS3ahXniiH3qRZswygtn6sBn6sVIPu3IRlzJJ1kTMxwoC4HLVBk6PKT8fmCTdpznGKGZG5/xx4YYJXFMnClu68n4QTmcY0sb9umTfXvDLj8fPW5/JhbykfDXTlyjPWh72pv2Z4MR9c/vCexyNB1f+OH7zEZK/9nZzfNcy7bChmPyZkxpl/Vu1z3zkie3LCs/Z3ycJ6W/5pM/JSABCUhAAhLoK4Fvrig71AQhi6hjbjYCndFr5gIjXDifI5mIPYQkYj2nXyCCmI7CaC/TQX7xi19U8cjUAjY6CwhLruObc9jmiDmiCHtEdAqvnKZAOXQcEJbEQUcAMUM+8hMnQhX/iKQUWghSPiPeOEcZ7WuILuzJh1hC1P393/99na+PXa4Eg3825vEjktsiHTt8IgCJh2P8IrCJh04QZeR0ExhjQx7qkOKf0Xbq1/Z9XFPilzIYLc4R5fRFfuJA4NOJYh485VEnhCvlYYsPmMA+WeIr79qkX66Tj7nmrPZCXRjxJ0bmtee0kXaciGO+C0xxov7vz+aUc7eHcpML9SYeyqBcpgvBnPblO8L3i7owFYZ82MGQY87DkHPJPtuQz7QzebjOnnPYUa/8jsCDtiQOGJGH2LMj1m4jzrORn3rggw4Secif3GkHrhEn8dNxYKNt884KcVIeDLHne8X3jGU12fNvh3MZD98JEh1N6oMd1/hOwYvy8EnZ7Y5FNfKHBCQgAQlIQAK9JDBXgY94QLAgzhjJTmGdoiNHbhEwKTIQLykUGbFHbCCqyIMgzI4A4gobhA6iCrGEHcIJYYxA4RzHiDHECyKMmDjGX3YsUggjchBL2JDIjwhClKZwRvQgsjIPvrEjTwowPlNvysIfU2lSMFEHRBSdEuqQZee3BX9ZFj7Z8INv9tggzuBCLNjjm41E/eFA/qxv+j5uTz7KwFfGnHVLHjk1B6GIeCZG8rKHD+eJGfFMO+c58mTciE/i5xx3AJgfji/qgx+2bKuMk3P4pXwY0tZpw3eCdky/lEt7EzN88JvPCdDWyYrOAjbY07kgP3GRMobkzp7yqQNxk5dj8pGyXYib83Ru8E0bUCb5KDc7I9ikT/bk4ztOvdgQ+ZSDP9oTf/m9JY7kmvESD22MH66z8W+MMnlQlhhoG+xgQ935vsCGcpIv+6wTPjJG6mSSgAQkIAEJSKD/BOYq8BEqiAUEPg8nIiIQGwirHJEkD6IIYZEdAUZdES1cQ6wgSBB22LGRl4Q/RAjCEqGEfdodbQrKRWwjiBBGlI8AJL48h1/EMX4QUfhCaLFHEOVnxBJ25MEXfjlHLPhiQ5ixIdIQtNSRz5SLT+qDSOd8O1Fn7BG17CmTuCifz9QZH2nPOfzBiViIH7+MhqfQb/tvH1MWflPAUwfKagtIzhE/o8GMilMuL5yiLBJlIxoRj+Tj4VfEKnFS92RH3mwv+F65cqW2K/aUD8/0Sd5MMKUuKW7pIOE/l+okXsqGA3VJzlxH7GYHguuUS0chfREfNtmpy/iIGTt8c40YSbQfccKNvNimCIcTcVIH/FM2AptOKB068qc/YsGOuiHA+R5SJ+40kCe/R3ChDPzSScAHHRNiIg9xsMcXPmlvyqXulE25+R2lQ8W/E2zxhQ0pfSV76p7fB3xSpkkCEpCABCQggX4TmKvABwUCA4HCUnyIcIQiL91BZOR8bUQh4pClDxmJRbRgxx5BhTBD9DPCibjFFhGCGLkaK8kwFQdxgyBB9ByXEDCUn8INkYooRhByDvGGmGGPYKW8FDf4RXghihB7xJTimTzEjH+OiZm8CDHyItDIS1wZH+XxmXxZRrJCcMGDPdeJBXt4kBchyOg/wpHEnnKIm7ogLqlXitKa6RE/8AkT/GJHfAhV6keifNqF9uM8U3QQjkzXoX7YESdtwDQspkiRD9FK3NQ924lj8rPRbrwtFcHJ1BzYUWdsj6b8/uAPtuSl/oxQJxumDPEd4DNcKSuPEbx8f6gHU4MQuvCHI/nwSV7qDj/i5XsIF8riM/nzO0JbY8c1Oha8QRfW2NN5wB+f6WTlC6PoFNGGcMQ3dSU/Pqgf9eYzqz8RP/GwCg7/ZmgD2gZm/HshDnyRJ78TlEtMbNjTPmzcyci2+8lPflLbhzL5HmNLoq3xRTnETXzw4joMqA9tZpKABCQgAQlIoL8EBiFivjpkPKdYU/QgDBkJZo8IQkAgWBAwCAuERgpBQsMOgYOwZ2QSO0YmEZaIE0QWG34QN48TIwgtRFKK5BTCIMEO8YNf/KX44jxiB9+IafLyGUGWooh6ILzImzEQNxt5qRvX+EznhHJJCDvKw4aEb4Q6cVIWtmzk4TP1RrRxHSYZN3s2/CDyEGyIM4Qc9XhUwgZfMCU28qZwhGcm8lE+wpq8tAOfSbQBZSGEqQ8+YAETNhhxLgVt+sz2Jw8JRpRJ/Mcl4iNWOojYwpGyYZOdEFiRaF++L2y0N3FRL8Q5+eFP/PiBGeUSH20Ef85zPa9Rf84TA/bESF7qiX9Smx2fYUXngvqRBzs2vlt0HokVH5ST8dK2nIMZwjw7GfhL5sTO9RTz5Icd/jifvuiIcUy9qVuO3h+NG7u0pxxiJSbyYYc9xyYJSEACEpCABPpL4JkJfJAgkhAoCA9EBCIVgYGQyJHE48QEAguhlMIXW0RZiqqvK0Iojw17RByx4JuNctnwixDDNwIvzxM/Ao/EOeJmS/FH3fIa1zmfCeGVCVGYeSmLjfykjIW4sixiIJZkh8gnfj5nnrTFD3nxCZMUgdX5I37AA1/JAPus31ETyiY/IjDrAAMENGVlPTNW4iN+NvKxz8Q18mXZWS77RyW4UDYx0H7JL+uaHOHD94UN3ny32FLIUjYbfogpuVFutifXSVzPduEz8aVN1pPz+Mj6c0x8fF+JmRi41m6XjBXf+X2kbiTK4N8EXMnHxrX8XlA+/vJasoMxeag3bcWeduF6jtpjQ9zUPds8v4Nc43zWHX9cM0lAAhKQgAQk0G8Cz1Tg9xuN0UlAAhKQgAQkIAEJSOD5I/BwCPX5i92IJSABCUhAAhKQgAQkIIEjBBT4R4D4UQISkIAEJCABCUhAAs8zAQX+89x6xi4BCUhAAhKQgAQkIIEjBBT4R4D4UQISkIAEJCABCUhAAs8zAQX+89x6xi4BCUhAAhKQgAQkIIEjBBT4R4D4UQISkIAEJCABCUhAAs8zAQX+89x6xi4BCUhAAhKQgAQkIIEjBBT4R4D4UQISkIAEJCABCUhAAs8zAQX+89x6xi4BCUhAAhKQgAQkIIEjBBT4R4D4UQISkIAEJCABCUhAAs8zAQX+89x6xi4BCUhAAhKQgAQkIIEjBBT4R4D4UQISkIAEJCABCUhAAs8zAQX+89x6xi4BCUhAAhKQgAQkIIEjBBT4R4D4UQISkIAEJCABCUhAAs8zAQX+89x6xi4BCUhAAhKQgAQkIIEjBBT4R4D4UQISkIAEJCABCUhAAs8zAQX+89x6xi4BCUhAAhKQgAQkIIEjBBaOfD6xj9PptEwmk8J+PB7Xcjg+Nj3q/LGZu598RBTdHeuhDIfDr2yDwUAqEpCABCQgAQlIQAInSGBuAp86HB4e1m1/f7+K/WPrhbhPgT+JHCesBxH3tTjKOeGyjq3vKT+5sLBQFhcX67a0tHTKa2v1JCABCUhAAhKQwLMnMDeBj7i/fv16uXXrVvn444/L1tZWHc0HwXA0mykUSntyOC7TgxjhnzRCf8SIb/yPEH/a+hthP6HM+t+gDBYjjijv644yc0eiSWFDfLPRafbTGvHscnsXZY4puG5hM2zKa2yp5aMTJpCYwAYsUc5wVuajrZor2DR3TKYzuxnzJ0CdzuwomqKoaY21lnt8vOPxpOYh3+bmZrl48WK5fPlyee2118poNHpSqF6XgAQkIAEJSEACEuhAYC4CP6flXL9+rXz44YflF7/4Zblx40aZzgTywtJiFbzT6aQc7h2EwD+sAn8Q+nFxYVSmiNDjteQ3qvq0OmpMBjgPp4jRw4hjHHp3GGXR2RjEtJJHpyYYxPbhYcQaGr8KbaaiYBuilv/oNvxNqkVOy2GUWQ+j3GEIfOyGQ4QvZx+d6hSnENzYU85oxPZkwUysTIuaTKLzFMdMm1kIu6rR64+jZT5U/ZPxYdhFc8QPso4iTuzjRxjVWhwxHpTDg+ASl4jxlVdeKVffert+fvnll6st500SkIAEJCABCUhAAidDYC4Cn9AR+Qch3Pf29sv9+/dju1fFNSPQoxDWoYnryPQ4rk9itB9FGHK5MMUDQYhg7JSq/cxJ1Zf8CGEfwheRPw7BP1xYrOJ+tPAEgR/B0Bk5iDgfCPwQzAv1TkQzwn2swKcCIZQPxs1o+jQEN2IZkT6M7esIfIT2YdzhaDoFIdRh9zXSYdwZaZ59iHpWgR91DK6DwaPq2ohw7rzQdpPaqWgE/oh6PuiQtBumsTmoAj/KCd+09e7OTrT9wdeI0iwSkIAEJCABCUhAAl0JzE3gI0wPDvbL7u5O2dnZKlv3t0I0xlSc0ITMzUZEVtEcnQCELxcY1V5sNOOsnm0x+Q2qPjOb1lF77ELYxrkosYwRzMQRSn0Ux3Vk/PDRornpbDwU+BF09YdoHkdnpHqvHZLjY6WeiG32Ma4eGx2D5s5BNX7MD2Idhy2j6ghzOgWLi1+vCfdrZ6S5q4Bt0zFgis/fFtgeYU+xzt2WKZ2xEPc5it/U4av22O7vh5infuF8Z3s7OnW7zd2OWuev5veTBCQgAQlIQAISkMDTJfD11OFTK7MZ3Ua4M2CNGAyJWQUuYnE8QTyGiEX1x/+jxcg3G8EnhOME5WNDm2nswRCxGSPKoxDwMfjMVJ3JYQhybhTEj4VQ++OYo7MQYpnYHjevPQU+c9qZv88cdc5xpwGRX+sUn4+PlY5BM7sF+/EYu6Yj00zReWxtypAR/+ByEBtlMX1pNHpyExLLYsQ05s5IdGrqHYNhc2fkeIH/MA7qU+8aVNtmSlDtkET5x9UxQot5VdwZaaYhjYIpU57CjUkCEpCABCQgAQlIYA4EnqwOn2IQjfhF7DHnnKKR8iFwY1S4PswZU2bqVBUEeaThgPnezBVPdXjMvPaa85gfuJjNuR8uhLAPcT9aoVNRZ8mU8Q5KPz7UfPQn4nrERVmPm9fOdYTtYBCP5k6b5wPwWae91OkyjZg9TvwSJecpchj2pEFwoP6Mij8pwYpIGclnJH1QO0pPtqPECZ2Z6FVx52IUqr5OJ4p947MpmWPy0gmiHNI0DHkQOKpa0yjEek4PqhVpTj/4iVWND88zLjXWxumDfB5IQAISkIAEJCABCZwMgbkL/PpQaQhGRCLqOiRnFceN7A3xHQKyrqAT6rAZ6a9qs9Z+On14/PVwhMJEZC4wv35QFlcQ5uGeGTkxDD6ahHBFvCLUw+GAqTK13MeUg4MQ6fF8a4xsI/AR6k0dHozCR55B5DkuIfCHTHeJOxf1/1l5dBCemMIlnHKKzBNjbTkc02nigQFKpoNV+SPCoyKkupvFTfzN2dqRYNWfYa1PU8+mIzTryMzytXfUhb4TDzLjnyKymHY+jyUgAQlIQAISkIAEnj6BuQp8wm90LwIS4deI2iqFEYII7BC/kypEZ5kbg6bm7ePmzKN/hsKsnQZsYqsj5+wR9TGaXUV+TJOpRbGv+RrhXY+P8ZyiF/Gey05y5wE1nP4zTy3zGB9NvoZDHrPgzsPnA44xmp1iOc8sp7Fpyn20xcMrD8qKU/XGBfWtbVDpz7R/PAg9m8YTuaoxD9lSRerDNCRsqmW0V1CreWDAA7x1VaTItx/PWlQb8gbghlXN6g8JSEACEpCABCQggRMmMHeBnyO5SMNmDfqYMsKqMvGZn5xr1GZK5UZEVg556utAYfSYfGE+ibn9gxix37/PmdhQuCH0kah1uUzmrbSKeZR7suDhcVm/Tp5H+T/R8zVooo86NLs44rmH+FnvKMCpEeqVf+0AxFKgZMhEJ4wbD3mzYdZu9eFffITNNPIfznxSDg/c0kloVvBJR+4lIAEJSEACEpCABE6KwNwFftXv8YMVdFiXHcnMiH1zPkZ7GQkOMfpQhD6Fqoc/5P70YDaRfCZ2cwT6KZTQcxdUuBKIPeq+2ZI5Ap1eC7mqdn+g4KPzFQ1BvuYHdjH9Bvs4WR8yZh/2zVQcOgDNdKfGJx0obJrOQ959yHP1gj8kIAEJSEACEpCABJ4qgbkJfERdsxrLQdneul/u3r2D6qvTPiaLS1Xks8oLa+UvxOeFxcWHS0BWhRn1Rmh+izSlHxGidMKofaNtY99y1mjQb+H5+TGpVeSh2gDAQ8SM1tMeO7Fs6SSG3Dm3vLxUNs+fK+tr67N3E/DSqmb0fXtnO0bj92sTTGMYn+VO93Z2Q+dPy3Isc3r+/PmyurZW1tfX65KYtCOj9s3qQqM4btbTf36IGakEJCABCUhAAhJ4PgnMTeDXBy9DDDJdYytecrUVAn9xIYT8WvOCKF6Atbu7Hdd2yvrGRqU5XV4uk3ipU478Mp+7Dj43P74B8ZmCT00/E/l1YDqEbs6j/wYOn8Osddw9yMWDsnUFnhiZZ359IN2OF1Gtrq2WMysr5c03r5QrV98sq6urwX1Q7ty5U7a2tsrHn3xSvvzyy9p+tMdBTL25H+fpJCyeO1cux1tqL1++XF577bU4Ny7b27zvYKe+sRjRTyKvSQISkIAEJCABCUjgZAnMR+AzbF63GIQPkbe/t1f2d/fKaDXW0InpIIvx8ObeHuu0N9eWlldi5Bfx2QhCBCVDx1Xgw6MOw3cEEyHhtpnzHwezVWU6eu2neWXX9I1Y8pJR9YXoXPESK4Q4U6RgTSfswgsvlDfeeLNsnDlT+Vy7dq3cvn273Lh5s1laM55nqG/gpbMWI/pMxeEFWJtnN8ully6Vq1evVl90Cu7du1c7BCvRceDOQXbU+gnJqCQgAQlIQAISkMDpIDAfgT9jxbQQ3uKKMGS6x1qMEjO9AwG4HyP4rE5zsB/iP958yijzcuRZmK20M+DBWFQ+u287V2cWR/UQwvSg6TXUpTIXQ/g2nZBaQCvn838Y1OpdCjpTC/FirPX1jbK5ea4K/Ek8FHvv3t0qwBH+ly5dKj/4wQ/LhQsX6ht+l+MuCu3z0UcflaVAsxzLgo5G0Y4xxelWjNQzDad2DC6+UF5/4/Xyox/+qLbR3bt36+g9Qv/htCBH8J//b5M1kIAEJCABCUig7wTmKvDbMOrSiiGyx4hE5oMz/YYh9UiIRqbyHMa1QQh9RCkvS8r0bR+OTelOKZQ73d2N0Wam6DCAH/6jfMQo+ZpIssTneB8VYeScaTNLy4tlbWOtXLr8cnk9ptLQyYLttevXar3JR/0z8cbaOFE3li/diG01HmhYixeUIfLvLC2U7XiHAM9LDOKlZDyAW7MHS+b002FgX5m2/KZ/9xKQgAQkIAEJSEACT5/AfAQ+ajk2nmtloJx1FmPCRh3J37l/v75Bdi8e2hzz1tSqEMnOEo7xkOYI8di8YIl9TAhBsX4rEnQRGMVuBG9MSwk/49qxqOHhuUmnROHDsE6LiU4MaSWmPp09c7a8EvPlX3zxxXjmYbdcv3a9zrfnOiPxiP7t7e144Daefwg+O3G8Fw/YDg/3yvrkoKyPD6rAvxvcVkLgx8SeshJ3Yuig7cadlzsxck87MXLPthfTsRajA0CqbVuP/CEBCUhAAhKQgAQkcFIE5iPw29GH+KtLKYba3zvYiwc179cRYuaDH8Yc/AciMDQpo+s11U5B2CH0Od/2902OKTu22kGIPQL2QRlf8XNqFD4Sv4rvgBxTbVbLWebKxzQcpuDcj87VUqycsxTTpEiMuNeHoEOY1+MYsb8fAp+OwOBwv2zE6P369KCsxJvCFmNVnOUYnR8PF8vyTODvIfBjvj4dha2wS4HPZ5MEJCABCUhAAhKQwHwIzF3gI53r2uoh3vf2d8tBzL0fx4osobxDd+d66iEI62dGoBlpbx4CfXhuJvy/KSNE/UzY87BvnZ7zLe8GfNOin1X+erci+A3j1sn6mY1y/sL58vLLl2NUfamO1hMXYp6EEGd6FCP4nBsHm32mMcUo/GosNbpYDstS3GVZiOlT42i7ySTsRoOyHCP0lLMfnTRE/TCEPz445uFdfHL9QeetluYPCUhAAhKQgAQkIIGTIDB3gc9Icp3kziSd2Sg9K7GwuksVgVHL0OB1qxUmU25c6JDaIpPj71pC5PMsw8LCYp0bj6BPAc4xArzOnQ/BPoptGIwWYnSfKTYLi3EtXmJF54x3CNS7HyHcJ4NY7Sjy1Y5b+GBFJGy5E8CdgfQL6+8i8+/ad8z6SkACEpCABCTw7Ak8A4H/sNJfEXzo7SdobvLn9tDL1zxCmFIEwp7tu5Zqp2kYgjtEen0QomGBwGfL0XVG7uvKRiHOGcFPwY7wHy4Ew+ggDGKpzKYH1rCEKUKeh3KXYu4+PphyhcDHb/r+riG3vhKQgAQkIAEJSOBZEHg2Ah99jdoO8dcIxWdR9e9amXGHBDEfc+eZSlNikVAegEWII8AR5Qhy9jyIXNslO0O1QxRtFfPty+JyTMuJlXGWD6KjECP8o1jmNER9FfYI+rQ9Bq9C/xgonpKABCQgAQlIQAJPmcCzEfiIe9J3cCC9qfj8ftZ+VPSmWH3oMKbU7MXzDjuxKs4g3i9wcLD/YNoM8+RZQeduvJzq1s1b9U21B9EZuHXrdtm6c7fs7h+WNYR9iPjhdCFG8+MFWQcxF59nKaKjsBV2d+MB25vxQiwSc/B5iJcHb5eXRmUxVtFciTsAQzp1JglIQAISkIAEJCCBEyPwbAT+E6qD7melnLoPPcg7rup7rtjX899SJGKWPnLfnKrn612F+PzNUzN1qC6oH8tGfns/37zkb2LBVBqm4xyEMGcefnsFoeb8QX3LcO0AxEg8An8nli9FpB/GcUzEqSsgMdmprns/3Y92GtS7AIh8VttB2JN2dnbqdnh4EA/ZRvciymam/jgakOVSTRKQwOkl0P4N/V37517/zMwAtDmc3ta2ZhKQQB8JPDuBz2/9+ptwtj+GDlO9J7FKy2FsrNbC6C8rZ9Z59Mfkf9Ippojggxkn40mIzRhVxl+XX8L4YqNLMo6ABzFthaU867lw3MX3k+rz9a4TAVsj7hmpR3DzoioSTBD3MK1r4MfKN1v3t2r8h3F+eyuWydwJgR+dgkBWRT4X60PRAS9qHevfxwh+CHqW1NwOe6b3IPB3407Bftwx2I+3F+/FKjz396ZlhMwPQE1ETQw1EH9IQALPPQE6/yQe8+F3YP4Lp3t/qhPVa6oeb1+PKY8BIHaxP9W1tnISkECPCTwDgR+/6hmej19+PMDJCi1ra2tVZDLaexACtPnLECIwfmkOIu9wtsGxnvuWfyv4hUu5+ECE4xdXnK4H+YH9E1L+IeMPF9nrHzOEb2yNfH2Cg9bl6gMHrfS05qs38RER8+xjzfp42dVqrFufb5qlyFzphpdbnTlzppyLpTTX19djJZxxuXf3TlmI9e8P+UMVU3imcZywFmO6zko8tLsWeTc2Nqrt5uZm9b3D+voLo3Lrzp1ybz8E/43DcvBhPHi7HA/rxlQffHzbjloYmyQggR4SqL9i40d9jr/+YozBlIjzq7/dehh4h5CoG3dDqTPCfnNlUC6djd+LsfLY+RUVfge0mkpAAh0IzEfg19/6EWXsqxCuE3BiUD4EYH3RUgjLOpUjRoxJDC4vxi/MlcNpWR2MY+31WKFlHMah0KsoZNj9WyREMxui9yDE6yT8M0rN2viD8EmY6ZljUn7mmF/VfOYaS0PW4/iFzl2BhdFCfUA1LkVq4qw+0lFzodZ/dlh3+KhM4qDWjVjiHEtRNmnmgEx0SMgXFyDVXDmSb2b10PZhANS9rnbDg7SUM9vIm8cIf5bCZE9Zw6jXMObr16jizcIBLcpvWPE8bV16Mw5GkWchxD7iPTeW5CTn3uGg3N+JMm5P4hnd+EM4Inoq0rR3E6s/JSCB551A/W0TP9jX3xnxzzzegvG8V+uR8WfNxjH3kNXJeNbocDwsZ0LkL8TvRJMEJCCBZ0VgPgJ/Vjt+GfKwZ133Pn75rcRI8ubmubKxebbsxPSOyeRejIDvhLAv8dbUUl6K0eKz472yPIw3pzLqG8ITcYnw/Fap/uHhTw8xxOh0TC25H0J6OyjsL66UyVKzHn/8pq7u692CBwU1dvzRmoQtfYxJTHVZXokVZGIke2N9o4pkprvsxxt69/d4eVcNueaNIquAH9J7ifqRajVC5Iabeg2Bj2CeRj3LNERzjYPyqDPTYWb5KJxbG9HlqIc4i4QtjB6ksMl+AtwyVREfPImbY1LtXHAQ9sPoAHCeZTIZkeIPV/Udd1em8UZbXjw2jLZB0C9GB6AupUmnIWx4eBePiyH6WTZzGvN6bu9Py/WdafnTh4dltHQ46zA0L7+iSJMEJHA6CDBGw++SGDupI9oMHMx+nVbRfzpq+be12I+xD6bjrMZCY1deaEbvy0Yplzaa369/a+EZCUhAAidLYK4Cn6pUwdn8FagPbPJSpNHCUvw12KsCFv17ISTiS5NR+fvdYbkQK73EK5dCYDajwfHnoxMR5C9/gPhvK9Txl/FL+csQ3J/FH6YxIy7DEKpxZyF+1qKyNIR9tY3YD8N+jMgNAfvCCxfLhQsXymuvvlYfSuXtvDdufF5u3rkeb+nlgdbo0rAqJfZ1RCdEc9SZufDcBRiFMEZoI5KpYz0fZdBRyFQ1O6Pk1Ut0LOJaHSVnxDy2CcI74jmMUaQHQj3yNvPtoxxG3qP85oFX5uCPI5aHc++xyZF9pkttMOUmpuqM4y7HzY2zZRpTc+7Hm28HEWMo/Nq3gMs0+E1o0IhtJab+rK+u1Wk6i4sh+rfjL10wXl5ZKWvRguei/NGZ2Jabuwj1exCdhOQbmU0SkMBzRKD+Pox4c88/5i/vT8vOfinXb8ed16VhWYs7dpfPDsv6CoKfnJEi32n7d38Yv67j12CJGYjlhTOjsh51X45Vw0wSkIAEnhWB+Qp8fsEjVEMYIyhDecbDm6zHvhtTZg7qQ5wLIQ7XQ/BvDpbKhclCORdTdBD9CML2KPS3BZa/cpk6shzxjCOOgxhiuhsC9mBlNX5DL5bFlRjZjmV7yNsWzIhi1pLnLa2j2NgzV51565vnzsXI/X6sOjMq9+KWwOROrDd/GCvL7MRzBXuDshTrx1NvxG/tYMxE9VKI/TMxf5057Kwlz0OqrE1/9+7dKuTbeevoesRbOwbhizXr4UgcbDwkmw/MwicFfo038u/t7VfffG53JshbR9oizyj80eFYhkc8pLAU8e7FRkckKhBO+cpwlyFWx4kWoRtSNT7xRF2azsqoHMZ8/2HUeSnYnlsblo2lQXn5tVEIfmKOkX5sY7lNkwQk8PwSiN/i/DqovytjPKD85ea43Noal9vb03Imfp1e2BiWH768UF4K0cudQH6ncsfytCXGY+JXZ9y1LOVczLt/YT06N/E7zyQBCUjgWRGYj8IKMRuqts5hR0AyWo0YJB3E+uqjmCrDA5389kfkrsfLk85Ml8rZGLM+E6I6f00yDt011T9IM49LMaK+H8J0f2mh3A5xfxBifRrifmE13sYav7Ap928EftQDgYwIZ88DqzycysPCjKIfRN3oxxyEuN/ZvV+2tqLzEqJ/fS3eChuieWlpsYppBDUJWx5MvXjxYjlz9my5eeNG2GzVNeRTsNMxID8vkSKeBVjGcW6IeuLBjuUqSeTnPDGyJz6u4RPhn+czb8bzt58hFluNl338BYsdy2NS3+yAIPKpUZ1iFPv4WG2YNbQZo/ZnNkflH0Pgr6yGwKejEKnNtp7whwQk8FwR4NdC3SLq+BUUv9sH5dO7g/KX6+OyGQL/0plh+XEI/DcuxMAJvz4i32kU+M0vvIYFIn85BjYQ/CYJSEACz4rAfAR+1I7pHCTE6tqZzRB896rA40Fbfuszcj8crpWVGP1YHYcQjmVbBjvM2CcxFYQdI8f1xLf+wahzMz0ERdo8HLu6vFouxsoxk8svxSTKEOsh8gcs2B5C+rjEKD7PETDazsujvvjyy3InXgZ1OI7R+pijfuv2jXL901vl7p0Q+Pe2y/gg7hRcmERnYC22uFc9SwhcBD7i/sqVK+Xiiy+WTz7+OF4udat89NFHdalJxDij4mywIyHYEfcp/MnDspS8ZIqXSyHWuVbfShvHJAQ9eRD52TFB9KdffHL9Rvig7PW4o8CDyJ99/mnZjZVwtrZ3ymrkmcRDtpOoZ11RJybaxqmyF+vf37p9MzpnTDeKr1SUyTMVtaMSjDbjj92ZGM26dCam7iyzlGg2Yu5riP6QgASeZwIh6M/fZjlcFlCIF9vFNJUz8e+dlWReWOUh/Oe5ct8sdn+zfTNe5paABJ4+gbkJfB7M5KHRxRjBXl1bDYG/2cwFD6G6EL/5F2M0HfG+FsPDi3F7d7DLXPEYJQ/x2gjtmENe7wF0gxDj2nUUiSki3BHg/sDSKKbJxEOy5dxmGaytlIWYphMzg5pyj4h8xDPCnLgQ0LzYibsPe7t7dV4+U42YdsQ59vv78WxBrKqAqB7zsqiWP47xwV0ARvFfiLn892JqDiKc8yTypGBH1B+15zOj93UN+4gFgZ/Tht5+++16jIi/HW+ZPRt3CPCbnQM6ARyTEPh0FPLORK1DDLXVfUw9OoyOS8w1CmG/V6bUI541ODyI6U0xYlfvCIQtdcaeOw1NfZv5/g9ipk8VZfnHryL3hwROFYEcmX/wbzzHSPx3f6ra2cpIQALPB4G5CXxEHiKSPXOw62j0TOnVKRv1Ade4rRncpqGuGfDnQVb2Of/+aczBD+/1P4oO1zVR6iJ3EhC/zDdn+hAL5c/uOsyyNXlD4DMHHhHLCDgPkS6GuCXGw3iYdT/WfN/eZb35GM1eif1ezGWPAe8Ry01GvTPBgQ3xzobQZstj9o9KaQtPEnnhyd0A5vLnlJ+rV6/W45WI8eO4M0A+Ymbf9o+/9PNQ/C9EByjqFTGxHEaNJtpjwBb15C4GZkzTCWd1VJ6ReeLAd9aFY7wTKTg5fnTNiMIkAQk8jwT4t824SPNbqfm3Xv/N8++eiyYJSEACEpgbgbkKfEZ1GeE9YEQ4BCICNaRgne7STL1hVD1GhWOEmK2O3ldJiChHFjZj7k+DToraVJ2scNOs9o74RWjHn6kQrA/yRaFEUMVxo2yrmD0fD9cyQr6xth5vdN2JefdbMcXnsOwe3Ij9QlmJOwIHu4NYReJMPLC6VIVvCnPqwTFcGIHfjaku7GFEuW3Rz2fyss9j7DlmVB5hzwo4CGym/Fy6dKm8++67scrPCzHtaaX8+te/Lp999lmNNe1yjw/qhe1KdBJYvnR1fa0sRBwsAzrZWSrbca3eYpn9oQ4TSg8mTflLS2EXzzFwN4K48cnIfjMFi04RHTb/0EPNJIHTSCDFPPua+CURWwr+01hn6yQBCUigrwTmLPCZwoGYDQEb93PrvPxYIqeu8x57ROFhnD84YHoLo/eNrEdZP7VR39kfn9CzVZ5OQsTzDq39EM9RaBnsN3cRBtxvnv2BOtp4xMnSlAjx1RDPywj8mOKDmOVGBEL3zNnzIabXy+aZmPoSq+gMBiy8yT5e/DR7EBYhjLhnWs2XMY8fAc+eOfg5Xx6RnPnYk8iHqKdjwYg8U28Q1oj6l156qU7LyWk/iHsS5WZngvKxzfn4eR3/MB9HTId0NKLsHKkfsnxo2AStmKoT3bKYaz+KuxULnA+GkTH+jzH/sB1HWcSdHZIaQI2BOPKTewlIQAISkIAEJCCBkyAwN4FP8IwQs4IOovggBGQdOQ5ROQqxyEO0yPnFEPZLzJZhigxifCbIa+WfqjgMZ7VMbik3HYtY5zKCDBGNsI/55AP2xyREbxXLIWIZcadeu7HUJ4KZzss4FkUeTOMh12Gs7x/L8YzipVXMZMEddW4n/OADkY8f5vS3OwCVUUsVpz0Cnyk5jNpzzP5c3E1gTX7EPcKf86S20Mb+qPiudyWiDPbZcWA1o+h9VD+H4WsYXAZMMYr2qtN2uMsRvrM2rI7Ei63oOKDiKSPZ4JdE2Rl/PeEPCUhAAhKQgAQkIIGnTmBuAp/R4TqqHCL05VdfLRdiGgnCD1HLCjqMpCNEy53tcubgetk4vB8vm9qpt3fbQvJpEWgkZyM6mS60ux8rzLD2/G4TCwK/KvLjCmyJdDoqiPP79+7XdfCZfnQ3Vs453GG0PURvyGCWex/HHYHaKQjRTL3hQd25C8DqN+wZvUfgpzBGwOcIfmUTHhHI2DIlhxF7puPgD2HNdBzOpbDn7gD58Z2j9ZzDJ+fyOnHgczF80FFgTf+zsbY/XLaCyUKMzG/HCkA8nzAYsxwoVYu31NYnkQkqyo+7FuthQweDNfOzw0Id8N+k7A7MPrqTgAQkIAEJSEACEnjqBOYq8FndBQH41tWrdeQ3xT0PtTIHnzenHnxxs0zvx6j3brzldXArpowwTz/SbBT46RGYSXw0Z7yddTdE+Z1hlB+rwhwy3F5H4ZtyszNA2WTnM4KYl1QhrOsIOnPW9+OlUDHF5348ZDsYIaJZhSaEPe9tD7FPyhHs7NwgspmOg4BH3JMQ4PhF6JMoKxN2PET7anSSrgbHF2NpTV6KhV+m45A385OXjc8p4tln2Rwz0p8P3jIKX1P4wh9xsKxofdg54qTTw9SkUTwfAYjwXrMzD38Q8TPtiik+08hLfdp1bRy3STZn/CkBCUhAAhKQgAQk8HQJzE3gIyoRkohQXuiE6OQzo70IZKboMH97bzcewmXeOG9Cfbp1bXlLoRn7KkhDjEbZBzGnfD8G7vcR+PFEKCvjhByuip74SW3RylQdziPGNzbOxEOyOzGwHfXcjikq0/2yF8tK7u3gN14AEy/vos4LrNZzJOEzN0Q3ic85yp4j8inUGb1ntP7y5ct1/j2j8+TNGLHnGDts2IgxRT7nj26Uhyins3EnOgys838QTO7F+v5bcXeCte5X4uVdA55TqAKfOwnNHRimVu3E1KT70UFhOU7Ko7Ny7969eucg4yemdozEaZKABCQgAQlIQAISeLoE5ibwCTtHjBGbbFXgh6AdxbrzjPxO4gHcYRX3IfhjzvcQUd2skRnWjII/rYQvxp/jhVEh5keh52O4ugwnPCSLkI/rIXDrLroZiHYS4pRR7ZwuwzkeEMYXdWGd+4Mxb5Kdlr3D7bK9Ey97uov4HpS15fV4/oB58WuYfSWlcMcHx1lGCvwUxVwjD9NozsR0GEbyOeb80YQN5+GMeEdkw5/tqLgnL3Wi3N0Q+KzFT2frIM7dvX+v7GzF9KNY934pRvB5kJZXUUKEeflD3l4TbcT1najvnXgpFv7oKOTzBPmg79EY/SwBCUhAAhKQgAQk8PQJzFXg5yh1iskUroPxqD7oylQQRGY+kRq6tIrsp19tJpXgO0ag4yAeCy0bi7yGcbMcxPr18fhvOYwXV01C5BJPI+8xaERzzmNnWcvr16/FfPN7Vdgi8Hmx1c07N8qXn92Oc/fK/bvxttuY0XLhwsV4uDje1BtvskV4Jwu8cpyJY/hQRs6bR5BzLvOlQEespzhnOg/Xec6Bee/kyQ4DtiTyslF+in0+t8tk1J6yWUGnrogTna5JfR4h7BH08dKuYUxjWsJHdIhi9n40VzOdp3IJ23zRFZ8z5qyfewlIQAISkIAEJCCBkyUwd4GP2Dy6VSEY9awj1yHyD0Oo8l8dTJ8NqD9dDDklhpHouJsQwvXleDh15UffK8OzayVWtSw3rn8SD87eLjdufhEj2vHQ7AFLY8aIfWwkXvCEeEWEI5IR03w+iDe+MvK+t49Ab9a2H8f8Ix7GZQSfPOQn5Z5jzqcgZs/G9Rydr2xm7DIL6X7eAABAAElEQVQ/NsmSc+TN/FxD9KevPM78fKaDkstxkp9U76xEB4H9ODoQPHh7GNsw3kA8iGlG01gVaBLrih4MD6LsKJ92ioZajBd5UT+eSxiEHeXCITsh1bk/JCABCUhAAhKQgAROnMBcBX7WBpFJQlSmSK2fY+pHFZoPB7Rrvqf6o9VhoBg2JuvwgiemvSycO1OYZLN7/1Y52NsOscpoesynj8n5iHzWxUHQZkoRXkfZQ/RPYnnMOnUl8jRLS4bojkLI1xb0aZ976p0inj2fUxynHdwqnzSKfftze2SeLOkTsX2UOecohz352LCnrBz9p5Ysfck2jHX8p1GnOnUqKPDMBOI+31VQR/fj+YKFEPjh5MGUoPSZ8bTj5ZxJAhKQgAQkIAEJSODpEpirwEdkIirZGEGuojjOLQyWqlBkisthvOSqitEQnPNMzUuaYng+Rt4PmFMeo887Ma+cFWo++/yTsr0VD//uTWPO+0Zdx5955WysYsMDr6+++lodvedNtp98Pii7hzfLyvqorG2s1CUzN9Z4k+1yFdEpqFPsUt98SDbFOGzocJAH0c2efFwnIf65a8BGXracdpOimvwcZ/70AXvs8MXGXQjykZ+R+9Xo7KxF3Q7izburMcd/Ek8JD0O8T8gTy2MSwWGsMrS7G7ax8hBLgDJ6v7q8Ul+yhcAnZvwRV8ZQA/GHBCQgAQlIQAISkMCJEpibwE9xmaPG7VoNQvAzGswymWwTHuKcve+c0fWnmbLbwAO8wwFr5MSymFHerS+ul93fxTSh1VieMkaq792+GVN07pQvrjfb7s5eFbUxSF8jQggjXPNlU+fPnY+XXe2EoB1WkXtu82xZXlgu66sxer4Xc9WjEzOIl0Mx+o+ohkduCGG4kDgm4Z8t82CTQh+BnhtCHVum2rCCDR0SOh75JlsewkVkky+FNj7xlRufSXwm73LM418Ju8XgsrK0XA5DvBP3NFYWGsdW59xHnDyjMIn+A6P4I6boRLwrYZudhezE4ZeU5dQP/pCABCQgAQlIQAISOBECcxP4j40e/ZfKOzPyObc89zT2rXKyWGaS8wbarVja8WASI/UhWnd2eDNtzKdnRD/2iFVGrRHTbaHK54OwRWDvx7KY5JuECB6GoF9cjBKiRzCuHYlmJJ11/Y9LbZ9cZzS+nRD+5GFjxJ3ytra2qiBnLj1LUn7xxRfVhGU0eattCmtEe9qnzxy9J95MCHPyMo9+OcQ69V2MUfyFEO9EM5lGByweQqADNo44JiHcp7GNYlSf5T95S3F2JOic5HHGkeW4l4AEJCABCUhAAhI4OQJzE/iIPARkTi1hj5hkzvbCsFkHH8E9jnPTyBfqtNY6JG1rDD8lebP/uqP7jaZvKfsZT84QFyPrS/EQ6cb6RpmsL8e0k7gy3g8xvxuj0iF6YxuF6p/GxPNhiFlGq3OUOt8+i8Am0MNYJ/7e1t2yv82Ul1h7PuIfLjYrzSDOEceZKDtFO+eaWJqR9fzMnjyIZabx0KFgpP7TTz+tI/y8ufb69evl448/Lr/4xS/KjRs3yvnz5+sbbd99990q9BnRJw+inmPK4U2zLGmJL87jP+8aVHEeAn0Q02+GzL+n3RixjxV1qB93PLZpo2C2sBDTeGJloOU4hiF+aFs6DhxnnaiHSQISkIAEJCABCUjg5AnMTeBTlRR7uUc4Nlu9ihSOzyFw2UKEMuYd0jh0cyjnWNKykeiI+8ZXPfgaP6odr8qNxM/qKUbSeWPtILalKO/FFy+V9XfeKcPNjbIbJV377K/l1q3lMljaiaJjCsx2jODvxzKUi5shkptVZhgVZ0oM4v7mzZtV0FJG6PEQ8iyvGaVFPWK+EafDa/Mga/1w5Acc2on6I+xJHCOacxQecf7ZZ59VEU25n3zySf380UcflWvXrlUxj6BnHXqm6CC0Ge1nVJ9yGPFH2NMZYCN+yiIP/j4N3+ushR9C/osvrpWd27fieYR49Dg4HURnjGVEtwbLZSde5sWUHRjgh5F/HlamDHwRJxuJjgn1MElAAhKQgAQkIAEJnCyBuQl8BCQij9FippggOvPceDp7yDau7cd0mPFevC01RquHkR9R28jCGEGuIjhEL/+HP+bto4GRwW3pyOea4mTtJFRhSaehyVcFfszxx8NkwmoyIcBjXwV0lMd6/Ic8CxDHoyhzbX019jFlJTTuQghbBCw2PBRMHCRGrLkjQQnEwtlYkyYLjE9NIj8MavzhH18cHyeA03cKY/KwMZKPqMYP4py7CLdu3aqf8ZfnP/jgg9ox4Bw+qA/cP//885ofG0bxme5DWcT/3nvv1bfYMpce8X7jy+vlYHur7EZ5i/vxMHBUbC9wbUX+bdoq9l/E8wsfvL9etmaCnrJyGhH+SRcvXqwxZF0aGv6UgAQkIAEJSEACEnjaBOYq8BGYiM9mnnqI/RCUCM6D2eLyvFhpfzfmsLNqS0wFGdEhiHnfvMw2hvWZzh4JUR8iOWwO4gTH8f9MVjd4yJ5pFKPOCyFweah2FD4Q31V9I+7DsOl0xLSTmHM/iTe2DuLNV1tR7tb97Ri158HaEL6x/jtvw4qZNtEPaAR5M13mocBHuOZ8do6/jpCFB/lg8qSUHYFa98jP6Dwj8Yy4I/b5TB4eriXhk1F88pMYyT97Nh78jRF2pvcgvOkcMMKOHziQ3n///fosAg/MYroVL/Ga0tna3Y6HbqM9Is9+XNiJ1Y724tkDXow1HX9ZlqIt8UmngUT5uTIQZX+dOlZDf0hAAhKQgAQkIAEJdCIwN4FPlAjaRlCzHGaM0iO8Y1uMKS8smsMKOochJKcxMs7UnOlizGAfr4YIRqSGNA+xjujEz3aMmG/HKPphGIZUryP1SYLcpNDOZXGyUNaXmec/ilVteFR0dnUmfHdjhZjdyPj5p5+UW3t3yl7Mt78fD8vuxRSTccQ4noaAZbSfKUJhynHju3m5VQr5FLRNhyMjqFnrD86Tl6k2iGyOGTF/wAOhHHlSkD+0bI6wozPEPlfXgQPinI4Fduvr61XIp58U7ZSFyOY8or6K+KgfAhz+2HGNz0z9YboNNtSCDlFto2C3HA/cPmjDOM+c+xFMw/ZGdDQQ+NwdwFfWlU7FSy+9VCuBH5MEJCABCUhAAhKQwMkSmJvAR5giMjc3Nx9MCaFqVQguxYO1oSYnCPwYMZ+8dVDKhfNl8eXLIdAboR4Z6wGj7qxEM43pIYOY6oOI5XMzMQY5+jBhMow54zwE2qzy0lqZZqbBmfM/WhiUs+uxLvzyoCyHrB0dxs/V9SpcBzxUO+tY4Lnx2TwwvBRLSFKvFMdMS+EYEUy9SHxu7xH1cEDskof4EdZsKcirQesHPugUYIvIx45zdCpS4KdtXstyKYctH6DNuLAjTnxwnfxsnGsnyuQ6I/rUtfJnelLcYSFv2mR5aUs55L9w4UJ5/fXX6xQdPmf5mc+9BCQgAQlIQAISkMDTJTAXgY+oY0OkMoWEFzgxHSdO1vO8RCm0ZYzWxxxvBP7FCyUWVC+jjTNlcTqbVhMim8S8+0lMzxmGwB/GyDXHkxhVbwT+ETjhn5H7lRD4o1ifnmUcH6RYEWcaD7+Owu0oBpbPxBScSayesx+dhaV4c208V1t91lVkapwRXxjHYQjeRrwi8BHAiFtG0evUoxC9CN8UzVleCmDys5IN1zlOcd8W+MeJYIQ9+XND0CPO6VRgi//knGWy5xzCGoGfMWHb7ozgk0TcXMNX9RfnRnGtxkpnJurdTGuKTsBsWlXbrt05oFzsEPg83Eun5rh6YW+SgAQkIAEJSEACEnh6BFqK9+k5Pc4TIpI3viLu2eeIc82LeEfgh7BkKcZprD0fT3rWFW4Gob4fiPdmMLzJhxBlYxQZY5T30RTTamLafbyFNURqXMdXk5rpNsz8qXcDQtTvx1z/w3BRBWx8rmo+MrdFaVtEcz5H0/GZgjvz5L4p7+HPFPbYs5EP268I6zh/NGHHlqPg2LEh8tlnasfLubYdn9Mm7chPnrRri3Tycz43PnM9y0sbzue53HOO63TqEPeszc93oG1DHpMEJCABCUhAAhKQwNMlMDeBjzBl9J7Ra8ReWwhmlR6cCxFZE7oVgZkZ2Me5KujrIR/qicjXztTkq2eqPSI1Pn0lT3xAJM/MZt2E+ulBHLNrx+1S9KZgxSY38uf5ti3X0y7zZFlt27zWts3jtv1Rm8zT3mccueda2mXZ7Wtt2/ZxO0/ata8/6jg7Je1OxKPyel4CEpCABCQgAQlIoDuBuQl8QkXkmyQgAQlIQAISkIAEJCCBkyOQc1ZOrgQ9S0ACEpCABCQgAQlIQAJzI6DAnxtqC5KABCQgAQlIQAISkMDJE1DgnzxjS5CABCQgAQlIQAISkMDcCCjw54bagiQgAQlIQAISkIAEJHDyBBT4J8/YEiQgAQlIQAISkIAEJDA3Agr8uaG2IAlIQAISkIAEJCABCZw8AQX+yTO2BAlIQAISkIAEJCABCcyNgAJ/bqgtSAISkIAEJCABCUhAAidPQIF/8owtQQISkIAEJCABCUhAAnMjoMCfG2oLkoAEJCABCUhAAhKQwMkTUOCfPGNLkIAEJCABCUhAAhKQwNwIKPDnhtqCJCABCUhAAhKQgAQkcPIEFPgnz9gSJCABCUhAAhKQgAQkMDcCCvy5obYgCUhAAhKQgAQkIAEJnDwBBf7JM7YECUhAAhKQgAQkIAEJzI2AAn9uqC1IAhKQgAQkIAEJSEACJ09AgX/yjC1BAhKQgAQkIAEJSEACcyOgwJ8baguSgAQkIAEJSEACEpDAyRNQ4J88Y0uQgAQkIAEJSEACEpDA3Ago8OeG2oIkIAEJSEACEpCABCRw8gQU+CfP2BIkIAEJSEACEpCABCQwNwIK/LmhtiAJSEACEpCABCQgAQmcPIGFky/i25cwHo/L/v5+OTw8rBufj6bRaFSWlpbKyspKGQwGZThs+iyTyaSw7e7uVh/YLSwslNXV1ZoHu0cl7ChrOp3WLIuLiw+O8Uc8XD8uHmKgnOXl5UIZfCY/vvIa19uJa5RJvoyfMtsp65Flk4+NelNW2hHTwcFB3ciLX/xn+eQjruRALFlf9iTOtVlyDvu2P3xkPq6bJCABCUhAAhKQgAT6QeCrSrMfMdUoEKpbW1vlo48+Kjdu3Ch37typYj2FKmIUkYnAvXz5cnnrrbfq8draWrXf29sr9+/fL++//365fv16Fafnz58vb7/9diEPx8cl/GN37969akMZFy5cqFkRuMRz69atuiG6jyZE79mzZ8uVK1fK+vp67XwQO/Egml944YXqLwU59aATs729XctE2LORjzzEw3XKvXbtWmWxs7NT/VIPynnttddqnchP7F9++WXdyI9tdkSoC76J73vf+16NDw74o77YZn3pNMCWRAzEf/fu3RonPjc3NytD/FEvkwQkIAEJSEACEpBAPwj0VuAjIhHm//3f/10++eSTKmwRwwhKRDRim5FqhOirr75aR6ER4m+++WYVpHQKPv7442r/+eef1/yIZsQue0b9GcVGnKZAxSei/be//W358MMPqw0+f/KTn9TWosPxv//7vzWeL774opZD+djn6Hd2OBDRxIdg/uUvf1k+++yz6uMHP/hB+dnPflbLxhY7/OLvr3/9axXfdAzOnDlT8xMP9f/Vr35Vfdy8ebOKbRhQFmKezsGLL75YLl68WJn94Q9/KH/6059qHfCP8Kcs6k48GxsbtZ5w+Lu/+7sq7GH16aefVp/f//73q4BPgY8PyoAJbYLQp6PEdfyxmSQgAQlIQAISkIAE+kGgtwIfMYqQRKgjgBlFRsAifhm5zhFlRDkj6ohPRqIZkeYcghlhj0DOUX18MKqN8Ea4I0zpMKRAzZHsP/7xj+XPf/5zbSGELGVhywg38SB2EfUvvfRSFcLYUybn6DjgGxGNCKd8xP3vf//7Wi5Oudtw7ty5KrqxIR7qiG/KYaNM4rl9+3YhHq6RFwbsEd1sCP4PPvig2nOeuwWMxuOPz3Q0csMfHSdiQsxTj2SDH5jR6SEfnDNRDjESC3ngTRzUmVhNEpCABCQgAQlIQAL9IdBrgY9IRVSTEKmMziOeOUYAM5qM6GSEGzFPp+CNN96oAhYhyug2IhchjthG+CJOycceP4jzFPgIXs7/5S9/qSPgiH9GuRGy2CB8iSnjQagjdBH1XEfs4gtxT0cDUUz8xEgHBFsENLExqp7ThLClPohzruOPz4huOiQIeEQ5dWekHvHNZ+pD3RHrfKY+lEecxMxn6v7yyy9XOzpMlIENbNKGePHFNeyIm5jaic/ETx7qw3HWuZ3PYwlIQAISkIAEJCCBZ0ugtwIfsYyARGQzXQUh/S//8i9V5PIZIYoYR9jn6DI2iFeELOIf0cr8fKacMJ0EocxoOAKVKSn4xD8b4p6RdvwhrCkboY0QJ/GZcugoIIixfffdd8ulS5fqSDxls5GwQehTDoKYsrEjUe5vfvObeo157GzkzXLIQ1k5Mo8QR7DTcWHePJ0c/BEL9fu///u/Wl98UAc2jvFLjOS/evVqFfpcIyam7xADAh9edADoUFAuqV2XemJ2Lq/l3YOsb+ZxLwEJSEACEpCABCTw7An0VuAz8s6G+Gb+OKKWY4RyinJEPiPWXEPsIjyZgsLoMgKYfDmCTR7OI/LJxzF5EbX4YQoMYhpBntNnsKEzQRwI8BTp6Z9pN9hQDn4Q1hxjz2g75fCZuwCIbGLEFx0JrvHsAJ0IEnVkugzlcA2BT0yUhS+mCvEwLb4ohzx0NDimo8NnRvbhwTli5W4AdaAM4siNz8SBQE9RT7l5Hft2h4P42gzIRx7OmSQgAQlIQAISkIAE+kWgtwIfTAhINsRrTh1BlLOR2HOehOBM0Un+PIdwbm8I1xS27MmLyGWUnFFs/CGUEciIY8QsNrmRn5Fv8ufdA/Jkh4KyiJmOAXk5RlAzXQaf2aHAHsFPmeRL/xkT5ymHeBiNR8wj2CmLRH7qS2eCMsiXwpvr+OEcccEJX/hs88OOmPCDPz4/LnG9vT0ur9ckIAEJSEACEpCABJ4Ngd4KfIQkwhNRypQbppZwLsUu4pWRa0Qye6ajcA3BS34ELaIVkY4dgpeECE6Rymf8szEvHrGLPTb4wIZz5E9BjV/mvDO6zt2AnMdPPIh7Pv/4xz+uAh8bEvZM5SHReaAuXHs/lvDEhvKyLPZ0AhiJR4xji08Efor76ih+cI06s5GwYzlNRD1Mcr48deNOBp+pF9OEiBefTM+hM0J+yqazwd4kAQlIQAISkIAEJPB8Eui1wEdcI0SZBpPzxxHDnEfYI7YZHX/llVfKO++8U4UuD64iYFOsHm0WhHUKb+wRw2yMqDMVBt+URbkIf0Q0Kf0hspkmg+hmXjw2nMMHe0bZmXqDeEagI5jZcw3fr7/+eu1EUDbTcFitB4GO0KcMymNri2zizfNH69P+nCPxlIdvNjojdCQog/oQD4nlMakHe6YBERsp65n56sn4kRzyczu+POdeAhKQgAQkIAEJSODZE+itwE80KTgR3IhohCZClRFnhClCOuemI2LpACB0sWNEuy1EOW5/RmTnaDkj8ohwhDb+GUHnOuUi+MlH+QhhRrzpWFyNefX5oC7XEeKcR/Szx5byUiwTFx0DOgF0UFKE45f59+QnD2VgR12x5Tz7duzJJ6/ntXY+7PCN4M+64p+yuKNAnNyxIE92etLv0f1Rgc91zh13/qitnyUgAQlIQAISkIAE5kegtwIfwYpoRpAiQtmuXLlSBTx4eCkUS08ihhHmiHvEM58Rqyl8U3jjB5+5cR5Rz3QZVtzBF3cCcnoOnxG+lJsPwyL8EccIdEa/f/rTn9blJ+kUUF4myiJhz3nKYk+cdEiIk6kyTJ157733Hjyoy3VEN/7wQScBYU5eOhzYEX+Kao45Tx0oi/N0eqh/3hXAH50Q6sF1+HAt32TLMfaUhx2x0jFgy4QdW7Jrx8B5kwQkIAEJSEACEpBAfwj0VuAjiBl5RnjmW1r/7d/+rYpThC9zzX/+85/XkXyEN0s/Mj2HOeVcZ2PknZF+pvggmhkxRzAjZBHq+EasIo4Ryu/HVBYEK4KX5SO5RtkIcYR55sWuLd4Rw1zLROwpltuCOc/hi/iYHkPngroQJzGxrCfz9CmXOOiEUD6xYZ93GfBLXejo8LAvZSLmmWqEiIcFnRCWybwSHSOuYU8ifvykOOeYeNjTQWDtffxhzzn4ZmeIY/wQa3amst7uJSABCUhAAhKQgASePYHeCnzQIJrZUpAyco6wRABzHgHMiDuj4LycClGLUEXMkwexm+IeoYqYJnGdvIxqI1KxQewialOsM4UGEY0fyqQcriHsOU9+5rfTCcE+Y0X84hM7BDg+SezTP9fZEPNMlSFGOhR0SOhoEBsbIh8bxDUiHhtiYIoQcVA/HvTFhvpRH8pnIz7iIm7ip1ORgr4GNPtB3MkLvzyIi8DHN59hjqjnuQbuJOCbUf9k1/blsQQkIAEJSEACEpDAsyfQa4GPIEVQkhCiJM4h+BGYTJ1BbCPuEaAIXVaLQVwjaBHpCFZEMTYI1BS9CGhGqBGxCFb2iFpEOSnFfHYEciSb8siH6GUaD8dc4zwxUg7lM2LOOQQ6MedGHuqEWEfAI/AR6Vxn9JwOA3bEw9QahDz+EfnYEh/xcp4OAWvqY0t+8uGXGDhHynLrh2N+cB2Bz/Qf/NLRoCMEq+xMEROdGerKOdiTl/KynGNce0oCEpCABCQgAQlI4BkQ6K3AR6giWnPKTY4Yp+BHxHKNfEy9YTUaxDSj+ohmhDyjz//1X/9Vr+XI909+8pMqnHkwFyFOwo4VcRDNCHdG1uk8IGzpKFyNh2lJdCAQtoymI4IR3fggFnwgwCmXjgNLZSKaEcHM7ccvx4yop+gmLy+wohzOM3KOqKfexE4M+MD/7373u1pPOhV0ADiHMCfWt956q9pRTq4gRBkwww95H5cQ7azuwx473vbLlKH/+I//qJ0R7PEDbzjBjnKJ3yQBCUhAAhKQgAQk0C8CvRb4CFQEJSIe8YkIbotVBC6Cmzw5Ms5nRDmfsUOMIqwR74yqI1IZlccf58nHhl+EM2UglLlGpwARi8gmce5KzGdH7CLCyc+5HMXGD5+5hh2+UhhTPmW0p8pgh2/ENR0X7j4QL/XmGvbsOcfIPZ/pzGRnAd/Ypg2+sSUO6sdnYmnHeNzXj7jIj92VqB8dDu5+0IEhwRGuzOeHDXHCPut9nE/PSUACEpCABCQgAQk8GwK9FvgIcYQvQhKRiqBFbGbiGBGL8OQao+iIYM4hWjnHajGIaMQ6/hgVR8wiUEkpUslPGSn2GZnPkXLsOY9vRsvxw50CpqwcTcSELUIbcc0xfomNunCOsiiXjevEhIBGVPM5xTP52BDV2HON+foIfMqhHtxd4Dp1JS+dGOyJkU4GeSj/cYk4yItPOksk7lZwRyE7MfilI8HdCWLNOymP8+s1CUhAAhKQgAQkIIH5ExiEcH24/Mv8y7dECUhAAhI4BQT2x6X898f75ePb4/L//99eeXFjUF4/Nyr/3zvL5e2Li2Xx8TMFTwEBqyABCUigPwSaJ1j7E4+RSEACEpCABCQgAQlIQAIdCCjwO8DTVAISkIAEJCABCUhAAn0joMDvW4sYjwQkIAEJSEACEpCABDoQUOB3gKepBCQgAQlIQAISkIAE+kZAgd+3FjEeCUhAAhKQgAQkIAEJdCCgwO8AT1MJSEACEpCABCQgAQn0jYACv28tYjwSkIAEJCABCUhAAhLoQECB3wGephKQgAQkIAEJSEACEugbAQV+31rEeCQgAQlIQAISkIAEJNCBgAK/AzxNJSABCUhAAhKQgAQk0DcCCvy+tYjxSEACEpCABCQgAQlIoAMBBX4HeJpKQAISkIAEJCABCUigbwQU+H1rEeORgAQkIAEJSEACEpBABwIK/A7wNJWABCQgAQlIQAISkEDfCCjw+9YixiMBCUhAAhKQgAQkIIEOBBT4HeBpKgEJSEACEpCABCQggb4RUOD3rUWMRwISkIAEJCABCUhAAh0IKPA7wNNUAhKQgAQkIAEJSEACfSOgwO9bixiPBCQgAQlIQAISkIAEOhBQ4HeAp6kEJCABCUhAAhKQgAT6RkCB37cWMR4JSEACEpCABCQgAQl0IKDA7wBPUwlIQAISkIAEJCABCfSNgAK/by1iPBKQgAQkIAEJSEACEuhAQIHfAZ6mEpCABCQgAQlIQAIS6BsBBX7fWsR4JCABCUhAAhKQgAQk0IGAAr8DPE0lIAEJSEACEpCABCTQNwIK/L61iPFIQAISkIAEJCABCUigAwEFfgd4mkpAAhKQgAQkIAEJSKBvBBT4fWsR45GABCQgAQlIQAISkEAHAgr8DvA0lYAEJCABCUhAAhKQQN8IKPD71iLGIwEJSEACEpCABCQggQ4EFPgd4GkqAQlIQAISkIAEJCCBvhFQ4PetRYxHAhKQgAQkIAEJSEACHQgo8DvA01QCEpCABCQgAQlIQAJ9I6DA71uLGI8EJCABCUhAAhKQgAQ6EFDgd4CnqQQkIAEJSEACEpCABPpGQIHftxYxHglIQAISkIAEJCABCXQgoMDvAE9TCUhAAhKQgAQkIAEJ9I2AAr9vLWI8EpCABCQgAQlIQAIS6EBAgd8BnqYSkIAEJCABCUhAAhLoGwEFft9axHgkIAEJSEACEpCABCTQgYACvwM8TSUgAQlIQAISkIAEJNA3Agr8vrWI8UhAAhKQgAQkIAEJSKADAQV+B3iaSkACEpCABCQgAQlIoG8EFPh9axHjkYAEJCABCUhAAhKQQAcCCvwO8DSVgAQkIAEJSEACEpBA3wgo8PvWIsYjAQlIQAISkIAEJCCBDgQU+B3gaSoBCUhAAhKQgAQkIIG+EVDg961FjEcCEpCABCQgAQlIQAIdCCjwO8DTVAISkIAEJCABCUhAAn0joMDvW4sYjwQkIAEJSEACEpCABDoQUOB3gKepBCQgAQlIQAISkIAE+kZAgd+3FjEeCUhAAhKQgAQkIAEJdCCgwO8AT1MJSEACEpCABCQgAQn0jYACv28tYjwSkIAEJCABCUhAAhLoQECB3wGephKQgAQkIAEJSEACEugbAQV+31rEeCQgAQlIQAISkIAEJNCBgAK/AzxNJSABCUhAAhKQgAQk0DcCCvy+tYjxSEACEpCABCQgAQlIoAMBBX4HeJpKQAISkIAEJCABCUigbwQU+H1rEeORgAQkIAEJSEACEpBABwIK/A7wNJWABCQgAQlIQAISkEDfCCjw+9YixiMBCUhAAhKQgAQkIIEOBBT4HeBpKgEJSEACEpCABCQggb4RUOD3rUWMRwISkIAEJCABCUhAAh0IKPA7wNNUAhKQgAQkIAEJSEACfSOgwO9bixiPBCQgAQlIQAISkIAEOhBQ4HeAp6kEJCABCUhAAhKQgAT6RkCB37cWMR4JSEACEpCABCQgAQl0IKDA7wBPUwlIQAISkIAEJCABCfSNgAK/by1iPBKQgAQkIAEJSEACEuhAQIHfAZ6mEpCABCQgAQlIQAIS6BsBBX7fWsR4JCABCUhAAhKQgAQk0IGAAr8DPE0lIAEJSEACEpCABCTQNwIK/L61iPFIQAISkIAEJCABCUigAwEFfgd4mkpAAhKQgAQkIAEJSKBvBBT4fWsR45GABCQgAQlIQAISkEAHAgr8DvA0lYAEJCABCUhAAhKQQN8IKPD71iLGIwEJSEACEpCABCQggQ4EFPgd4GkqAQlIQAISkIAEJCCBvhFQ4PetRYxHAhKQgAQkIAEJSEACHQgo8DvA01QCEpCABCQgAQlIQAJ9I6DA71uLGI8EJCABCUhAAhKQgAQ6EFDgd4CnqQQkIAEJSEACEpCABPpGQIHftxYxHglIQAISkIAEJCABCXQgoMDvAE9TCUhAAhKQgAQkIAEJ9I2AAr9vLWI8EpCABCQgAQlIQAIS6EBAgd8BnqYSkIAEJCABCUhAAhLoGwEFft9axHgkIAEJSEACEpCABCTQgYACvwM8TSUgAQlIQAISkIAEJNA3Agr8vrWI8UhAAhKQgAQkIAEJSKADAQV+B3iaSkACEpCABCQgAQlIoG8EFPh9axHjkYAEJCABCUhAAhKQQAcCCvwO8DSVgAQkIAEJSEACEpBA3wgo8PvWIsYjAQlIQAISkIAEJCCBDgQU+B3gaSoBCUhAAhKQgAQkIIG+EVDg961FjEcCEpCABCQgAQlIQAIdCCjwO8DTVAISkIAEJCABCUhAAn0joMDvW4sYjwQkIAEJSEACEpCABDoQUOB3gKepBCQgAQlIQAISkIAE+kZAgd+3FjEeCUhAAhKQgAQkIAEJdCCgwO8AT1MJSEACEpCABCQgAQn0jYACv28tYjwSkIAEJCABCUhAAhLoQECB3wGephKQgAQkIAEJSEACEugbAQV+31rEeCQgAQlIQAISkIAEJNCBgAK/AzxNJSABCUhAAhKQgAQk0DcCCvy+tYjxSEACEpCABCQgAQlIoAMBBX4HeJpKQAISkIAEJCABCUigbwQU+H1rEeORgAQkIAEJSEACEpBABwIK/A7wNJWABCQgAQlIQAISkEDfCCjw+9YixiMBCUhAAhKQgAQkIIEOBBT4HeBpKgEJSEACEpCABCQggb4RUOD3rUWMRwISkIAEJCABCUhAAh0IKPA7wNNUAhKQgAQkIAEJSEACfSOgwO9bixiPBCQgAQlIQAISkIAEOhBQ4HeAp6kEJCABCUhAAhKQgAT6RkCB37cWMR4JSEACEpCABCQgAQl0IKDA7wBPUwlIQAISkIAEJCABCfSNgAK/by1iPBKQgAQkIAEJSEACEuhAQIHfAZ6mEpCABCQgAQlIQAIS6BsBBX7fWsR4JCABCUhAAhKQgAQk0IGAAr8DPE0lIAEJSEACEpCABCTQNwIK/L61iPFIQAISkIAEJCABCUigAwEFfgd4mkpAAhKQgAQkIAEJSKBvBBT4fWsR45GABCQgAQlIQAISkEAHAgr8DvA0lYAEJCABCUhAAhKQQN8IKPD71iLGIwEJSEACEpCABCQggQ4EFPgd4GkqAQlIQAISkIAEJCCBvhFQ4PetRYxHAhKQgAQkIAEJSEACHQgo8DvA01QCEpCABCQgAQlIQAJ9I6DA71uLGI8EJCABCUhAAhKQgAQ6EFDgd4CnqQQkIAEJSEACEpCABPpGQIHftxYxHglIQAISkIAEJCABCXQgoMDvAE9TCUhAAhKQgAQkIAEJ9I2AAr9vLWI8EpCABCQgAQlIQAIS6EBAgd8BnqYSkIAEJCABCUhAAhLoGwEFft9axHgkIAEJSEACEpCABCTQgYACvwM8TSUgAQlIQAISkIAEJNA3Agr8vrWI8UhAAhKQgAQkIAEJSKADAQV+B3iaSkACEpCABCQgAQlIoG8EFPh9axHjkYAEJCABCUhAAhKQQAcCCvwO8DSVgAQkIAEJSEACEpBA3wgo8PvWIsYjAQlIQAISkIAEJCCBDgQU+B3gaSoBCUhAAhKQgAQkIIG+EVDg961FjEcCEpCABCQgAQlIQAIdCCjwO8DTVAISkIAEJCABCUhAAn0joMDvW4sYjwQkIAEJSEACEpCABDoQUOB3gKepBCQgAQlIQAISkIAE+kZAgd+3FjEeCUhAAhKQgAQkIAEJdCCgwO8AT1MJSEACEpCABCQgAQn0jYACv28tYjwSkIAEJCABCUhAAhLoQECB3wGephKQgAQkIAEJSEACEugbAQV+31rEeCQgAQlIQAISkIAEJNCBgAK/AzxNJSABCUhAAhKQgAQk0DcCCvy+tYjxSEACEpCABCQgAQlIoAMBBX4HeJpKQAISkIAEJCABCUigbwQU+H1rEeORgAQkIAEJSEACEpBABwIK/A7wNJWABCQgAQlIQAISkEDfCCjw+9YixiMBCUhAAhKQgAQkIIEOBBT4HeBpKgEJSEACEpCABCQggb4RUOD3rUWMRwISkIAEJCABCUhAAh0IKPA7wNNUAhKQgAQkIAEJSEACfSOgwO9bixiPBCQgAQlIQAISkIAEOhBQ4HeAp6kEJCABCUhAAhKQgAT6RkCB37cWMR4JSEACEpCABCQgAQl0IKDA7wBPUwlIQAISkIAEJCABCfSNgAK/by1iPBKQgAQkIAEJSEACEuhAQIHfAZ6mEpCABCQgAQlIQAIS6BsBBX7fWsR4JCABCUhAAhKQgAQk0IGAAr8DPE0lIAEJSEACEpCABCTQNwIK/L61iPFIQAISkIAEJCABCUigAwEFfgd4mkpAAhKQgAQkIAEJSKBvBBT4fWsR45GABCQgAQlIQAISkEAHAgr8DvA0lYAEJCABCUhAAhKQQN8IKPD71iLGIwEJSEACEpCABCQggQ4EFPgd4GkqAQlIQAISkIAEJCCBvhFQ4PetRYxHAhKQgAQkIAEJSEACHQgo8DvA01QCEpCABL5KYBofc/vqFT9JQAISkMC8CCjw50XaciQgAQl8BwgMoo5sJIS+SQISkIAE5k9AgT9/5pYoAQlI4FQSmIain8R2OCllHBvHivxT2dRW6v+x965Nkt3ImSbiHnmpG29Ndmu71aMejUa2tmO28///wOrDftjR2oy0NppWq9VsVhWrKq9xj30ex0FEZBZJkd1iZjHTUXXOwQEcDuCNMvKFH4cjEUgEPnAEkuB/4D9QDi8RSAQSgZ8KAhJ6r/W6EnxJvqQ/UyKQCCQCicDdIpAE/27xzt4SgUQgEXiQCOiWMx6UMh2W8vS4lCdH/XIy7ZchZTufnQc585xUIpAIJAIfHgL8pzhTIpAIJAKJQCLw5yHQg+G/OBpgse+V/+Pn2/L0qFc+PoHkT/ql35zy/7wusnUikAgkAonA90QgCf73BCrFEoFEIBFIBL4dATn80aiU00kpP3vaj+czSP5k0EsD/rfDljWJQCKQCPwoCPS2pB9FcypNBBKBRCAR+KAQ8D/3PU3tXfqm//wf1je57/P0/yTz1TY22F4stmWAA+gI95zjUT9cd76Pjh8qc3s+P7R9yicCiUAi8FARSIL/UH/ZnFcikAgkAneMgBtsTUbRcR3hUkKiv19SRPW/2y0J/r8blKkoEUgEHhgCSfAf2A+a00kEEoFE4LEgkAT/sfzSOc9EIBH4oQikD/4PRSzlE4FEIBH4CSMgKfb6rvR93XS+W+6wj2+34R+O5dv0fRuR/zb575pb1iUCiUAi8BgQSAv+Y/iVc46JQCLwqBFopP7i4qLMZrO4lstFGeA/0+t5ScArCTffrgHhb6yPRHm/X2WtHw6HZTQaxWW+6njUMOfkE4FEIBH4YBBIC/4H81PkQBKBRCAR+HEQkOAvl8vy8uVX5Y9//GP58ss/lnfvvi6j8RiSP4irxrrxDpEfEtoSMu81CMKvI30l+C4EbDOdTsrHH39Snj59Wk5PT6OstZlOpz8q4d9scPInOS/HkikRSAQSgUTgJgJJ8G/ikW+JQCKQCDw4BNYcLbtYzCH2X5Z/+If/wfUP5V//9ffl6OioDLHCa4GXuAe5h8gPOLGqj+V+0Ocp0Q9LPwSfsu12A6kelmfPnpVf/vJX5fPPPy+ffPJJGQ1ZLHCqlbq8JN4/hlVfUr9YLILcS/Qnk8mP1teD+4eQE0oEEoFHg0AS/EfzU+dEE4FE4LEioPX+4uKy/P3f/335u7/7v7j+rvzTP/3PMj0+qm42kPPOQQdCD9WH2EvO+7joSPCDqGvJB8AVIXKGo2H56KMX5W/+5m/KX/ziF+WzT3/GibUQexYLEu7f/OY35QX1Y/IuCiTioZ/bwA586/Spe6ff4lYXDep7G8NqtSrnZ+fl97//fSxY5ixaPv/8i/LZZ5/xNeFjvipMH+tPnPNOBBKBROAGAknwb8CRL4lAIpAIPDwEtOBfX1+X169fl1evXpevv35Trq6uy3pdrfFhwZdQdwS7F773vlRSHwScaq3nq/UqyPx8Pgsyr1+/Lj+FPbWj0ThI/buzs/Lpp5+GG4+W/BX9B1/nNuwWD+q2w34j+H4psIwrylxcWE+5Ony6UHn75m35h3/8h5jPfD4vf/u3fxsLhJOTkxhPG+vD+xVzRolAIpAIfH8EkuB/f6xSMhFIBBKBnyQCWr7dXPvy5asg9+fnF2GJ7/dXQfKtrwz89vSClsPda0ScLYHu11vIOuR7ubBNL/QdHx+X9WYdrjljSP6r16+w6n8WFnXde1arNYrrIVuS974k30WEnfJuL2Gll9RD5CXpldTj8gO5dzPvjuC/fRNfIq6ursqcOY3ZR/D8+fNwFdJtKFMikAgkAokAxpQEIRFIBBKBROBhI6DPupZ2Lfjv3r0L67fRcfSll0gbTWdH4rHSB9uXe/MnqD1+95GGvTIp46heQ/Zf8yXg8vIKy/k4rtqix0ber8rR8Qk++UbXKWUGGd+gVyIPU++0dosGy8g2kr8j+J0v/2g4KtOj49gPoP//ErccNwtv+CowGk3KxeVFmTM/v1JkSgQSgUQgEagIJMHPfwmJQCKQCDwCBHSv0Rfep0kLuuRe9xx97S2Pq0f9FmpPWbDzKJeUw81ZCLiR1sWABH+zJjoPlvy+8lriWTRI1WfzZVlite9B5iXeV1eX8Qz9WPq3jGMDWZf0S9rrKsIxab1XQ9Xl14AJfvWnT5+VMURfQQn+ZrMq08lR+dVf/rL85a9/jQ/+p8WvCJkSgUQgEUgEKgJJ8PNfQiKQCCQCDxwBybeWcV1dWoSbpW45JAm1BH8DYTe/2XAj8qSbY223jg2ydVGgDstN274EfxWLBv3y+0vdbpRDF48++m2v+89qsQwXnjVkfsu7OjcQfftEy57gd7prB6UsxrRFZjielDJ24bENV6MJm3zHzMUwnZJ7XXN01bG/TIlAIpAIJALpopP/BhKBRCARePAI6IoznR5BhIlZ/+QUl5cpVvYZ85aQewV3jqcE3QOuZPv+0We+c9DZ1VunU49fAGDpbH6FiGOxH2BldxEwIfymfcq3tdobdae/ZYFBfuUiIQg+WnnSxY2ECOXQfjKDAWOh3nCdRujxC4SLgj66j09OCdP5y/Lrv9SC/1lxk22mRCARSAQSgYpAWvDzX0IikAgkAg8cgfF4VJ5A7L/44vPy2b9Ui/fl5WUZT8fEr4eU66rTkW1J9XBIeEvddsCFPbWQ7UrxI7oNh2BJ/KMOUm9km7VPLgm4C4blakHknGWsGjZY7HXJ0b2nj3vPCJcgWX38oQ/XEqbQFxb9aBbv9qdLkEuMNfrc5KuVfoJFfzqZQvKPw3IfC42qJu+JQCKQCCQCIJAEP/8ZJAKJQCLwwBGQrLuRtm2G1bddq7phLXXbkSBL4iXdQ+UinjzMm7+G0tQKb13owQJvwu2+rLDc66u/4M+qWyDUSok+crTzT/j7Q9TddKtrjfZ/ibr9WifH13IfCwnKm1lf8q9fv25Bfh1wAeFipI+OfuwdoD3yVUP0nLdEIBFIBBIBEEiCn/8MEoFEIBF44Ag0/3s3ourKcvqE6/RJefb8KRZwCD5kWeu4BH40xv1lzIZV2TUsfoMJX/ItCw8LPgsAKbjyHjR1SXz9q6tZ2fBFQDedIOrUDQfV2t7XPQeCPsVt54iFw9HpaYS+dMHhAkP3G0m6vvjqtN9euOYwJvth4WEUIP34l1xbNthOjonlc8QiJTb8IhOSD/xHzOklAolAIvADEEiC/wPAStFEIBFIBH7KCFSreT+s91NOmT3CF9+TZ4eQfOzkYU3XhSY2rDJRCfZqKWmHQhNdJ9xsgowTRQfLvnFtJkTSWS83ZTac46pTXXRcAIxw5akWep6jAX1B8I9OWGBA8OlDH32/IjQrvouHQh+O0Xy/Xwn+hn6Md28c//lwVhbrOWN2jPzvC2t+pkQgEUgEEoH3EUiC/z4mWZIIJAKJwANEIOzh1SrO7Hw7TJJyL5OkXr4deXzoI5wlLXqrvTNMhMjEL94wmJJ/o2tW035nUUdBLCiwyOtF3+NrgBZ6I+jQKFx8Nkss/eQjYo9fBuwTz57aNb776HRT7RpXoLXRd2xney39VPa8YpR5SwQSgUQgEThEIAn+IRqZTwQSgUTgASIgUT68GkEOyzzEXd/3gewaOS3zvivvO7Q6ympBLbNK4r1CbhXyllSqHc24Rcx93XyMualqZD3t1g25leNDzjlJd6VPvYuAtc/osi4EGIALghg3xH7F1cJrrv1qwOX4a7+1b14yJQKJQCKQCIBAEvz8Z5AIJAKJwANHQO5eL63q1d1Gq7skXMKtXX45YAMrz8GQd0Ja6myzcSctJDt4Ogrk0zV2fSXibretl9tmpdosDFwVaGSXhIcW4+G7Qdb+JOYejKVANyjGsIHZb/pY59GwOwSLhUMsQFwNhG40G3cfq/9yOcffH398SX7U5i0RSAQSgUTgEIEk+IdoZD4RSAQSgQeMgK428uUIfQmBlqZL3t2Eq4vNFhK/WZFxESC5N8nDEfKPdDpOnrU4eLduNUa5wfquuGzbPnho2Q+CTlk7/dZFRmzUdbHgC38dU1/yTxvb+kd3nqgMhcpRjx5Pz13gqrPAhWih244bgGNCdpwpEUgEEoFEoCGQBL8hkc9EIBFIBB4oAvBmuXPHv+tLdcOROEvapdXyaK3uZrh2BB+rvk0k2Uhp9Y+FAmVBxEOxZN6G3upl9B3M8uF+ozW/kv390y5M9ozG0OUiI5rHcsJayT1FLjhcBHDph+/lSbgRdUexTIlAIpAIJAI3EEiCfwOOfEkEEoFE4KEiIFNuhBqCjCXcE2j7Eaayc35n6lrKtda35EbZZfBsCDYsfon1XKKvlKfM6rO/cgNsC6fZNQxCjpnfDwVr/e87OX3pe7yrVx3rnht6a+QcHX2ahT8M/IhEdH7cecL/HhcdD9aK/iIkp+PIlAgkAolAInAbgST4txHJ90QgEUgEHhgCEmgvQ1JG3Hk2vkqYr6+uiS2/onx2YIGHdnfy8vxK9mNlEIdZGbaypR6LA31+1OWhV80/v6//TvcFQFcfFw2edLvtLVlYnOunEyqiH92D/EOfLVRnLa9l5nXDkdjPZvOIib8mv2Gh4FcBxxhXG1Q+E4FEIBFIBHKTbf4bSAQSgUTg4SOgpRvfdok74Sj7xKjXd969rhE1BwbeXGwQiWToSomz77W17jE40+BuE640SPX6Enkt+5XkhyTvzX/ftkHc8dH3qSJPvI3NscjVOsfSWfD19Y9+eUa+ljvQsNq7yRbXHBXVP6GyDjjviUAikAgkAjsE0oK/gyIziUAikAg8YATg1x5U5UFWk8m4jDngSjKtT/3SiDQdcbZsaLzKYOca21kIQLB1yzE0ZVjwIerQ8x1YEnTdcOoigaaSfKvVxYFWE06wHbqwoOhaFxtPpsWtx2R/th9o1Tcfz2q95y1cdiTzLiKqe47hMnn3Q4IdxhWq8pYIJAKJQCLQIZAEP/8pJAKJQCLwwBEICzw34817iuxkMi0nx1NoMxZ1XGeWHFgl4TZOjm430GtqqJW46yMfb0rXZE7SLzFHyLe466Nv3sVAbMBloeDXgmMWFMMR597S//L8vCyRCpcd3Gwk9j3ktlj5DZlvn6GTp18K4o2bC4aIhY+vf90g3BYUSmRKBBKBRCAROEQgCf4hGplPBBKBROAhIlB5NzOrZHqANX04Gu4s7m5sNWkU70PSIwKO1BpWjVE9SDc5RdhYCxmXxPOq17zF1sjt27P68PiGPkol8F4uMGITbcjr7gNJR59x8cOS7zgPFfpqcmCyfSPn7Cz2bVLRKMTylggkAolAIlARSIKf/xISgUQgEXgkCMjjtZhL8N1wq63dw6yC3+94MvQ9QulYQIM1F2125nQJP+V9TepdXnbf/PKtDbJPdeRtSiZUWEBnwdF1s4HYc74WZVrw0eFA+KtavwnYribGxHC8qGhFvNfCVtTV5CMRSAQSgUePQBL8R/9PIAFIBBKBh46AVvMg9b0hRJtDqbYDNrviU0/kG/3a10tYNmQ5CDWy+uW3pOV9gGw9mKpS71onueY9SLbBdHTMqUm//Y6rs6F2U+b2oX50xWbZiGGvvL799kqd9S42eNavA1VXJfmN6vOkE8NsSu7X7huITlvP3QDykQgkAonAI0cgCf4j/weQ008EEoFHgABsW/cYN7BKiq8X83Jxfh3k3HCTkvOhkXWo99TZuoGVai35lUHHc4v/u8TdMvh1kGyrzbP/dp/Mc0nh5ywiRtez8MH3xNzFAjcbI/EgootPuPD4NQAlEV2HrNZ+WHy16CPla2thPpSrXaLPs75HRd4SgUQgEUgEQCAJfv4zSAQSgUTggSNQSTlEGXZsrHo31i4WyyDOhqCUjIePPAJGu1nJoqNYIl8JtCQ+0j5TefWu3Nr20kSh3ywgFsbAp7cBG3zD0q8O+ohxVcZem0a+Lh6sU1vdyFv13bhbGQsQnje7vSGWL4lAIpAIPEYEkuA/xl8955wIJAKPCgFJshZ8WfUKd5nry6tyfnZeJkS2GWBVNxk9xzCaPXzzx32IuS43EPE1bN+wlP5xcdDzECuSHD24f2PpkuyO/OtiE3lkN3Pl+2U9HBFRh429ROyJWPbIBnkPcs4N3ZtOdzB/3XWIqkMgTweHDhMytIsDtbr21b4fK4MqkvdEIBFIBBKBtODnv4FEIBFIBB46Ap40a1jK6+urOA12vlzgd08sel3oiU0pyZd0Q51LWWi8PyTxNf69hF09jc9LrIOb86z0mjdkIvkMki9vZ6HAAVVGve/F6bNopy+JetVQyXuQe3361UfdhkVGzw2+dNgj72Jis6ItPv368+ucsxtM7TXviUAikAgkAh0CacHPfwqJQCKQCDxwBNaQ+9lsVi6vrsr17Kos5jMIs4yZCwLtBlqzwdjxsw+iL0MPzu6tcnd5eySfldXXNgfFZq3au9YYNcdFAhtitdDH1wDpuQS/plDb3Srp5+54/JIgwYfoG06zWe/V4Zji6nTkIxFIBBKBRGCPQBL8PRaZSwQSgUTgQSJwheX+9etX5V9+9/vy1R+/CvccCb7+8UGyuQWhZvZGtdlEzMtGvyXswb71l9nR8o6P06Jj2jxai/5AlyAj6UDO1e2iwS8EyHgF+bc83IY6yKlo7SX/0Su+PhFdh3e/BLhIiC8N6uq+BtT+Ox35SAQSgUQgEQgEkuDnP4REIBFIBB4wAgsi5rx7+7Z8+Yc/ln/+538uL796VS4uLsLfPhg1rDqI9Z5d15j1Qc4rUW8kWtqt/7sp7t3NpuFC0wXDN8b+aIzPPQTeuuViBTlnQRGriFrmwVZG0HHRoIu9bYyqo+Zw0VF3rAiiJPSoK/ri7nKgLRgozpQIJAKJQCJwgEAS/AMwMpsIJAKJwENDQBIsKV/jBx/+61q+g6RjJ6dO95kaKafSZy3ufTfcQs7jYuNtbLjFZUarf22rpb9bGEC1Q4cFlfZHf5bhVxMltm9XmPQh5z3HgJWfyPwsKIiwE4sBOnc8arLePM+IwU9Z+O53Y4jyGHvt394zJQKJQCKQCFQEkuDnv4REIBFIBB40Alt5NHHuodKQdV1nTEHKodKx2RWiHIdMYYE3JL0i9bRb5Ym8AyHXa34TiwRkgoKjwzVBsHEflZBL4D3cqs9lH1J8D7dykSFn973unSVH/QB3HpN2fYYHoa8x9V10wOWrDuSojrwLhZUbbblqlw4gUyKQCCQCicAhAknwD9HIfCKQCCQCDwyB8XhSPvro4/LLXy7Lf/zNb3DXeVe+/PIP5ezsjBNqIeKweePTV3ca4uBz4NWag6hiHaCbDnhUH3pI9XId5LouDuDcmvth2fEeFvwKXp//s2yu6xm11ht3f5doEs24DTlRl3Owov3QDbWsGFxwGJZTt55YFKgX4u+yxIXCkvj97h0wf+dPvgAAQABJREFUos8KX/xMiUAikAgkAu8jkAT/fUyyJBFIBBKBB4OAJPzo6Ki8+OhZ+fzzL8qnn35Snj59Wr766iVknjj4+L4PuWTyEm8J/3AA4ccxXqu+NL0fAeldCGhJ3zP5SvAbVJL9mjw0K1JnXB8MsOQ3Yq/ZvRNV74jFhV8L1BX9W0/z8aiLmqO4FRB/xzQZL8t4PKZ+FOMM333rMyUCiUAikAjsEEiCv4MiM4lAIpAIPEwE+m56HU7K6ZOT8uTJaVzHx8dshB3fIPgSb2PiS/Criw4F/N1g0deyPh5NwnLeUOrpNy8xb4y95YKQa7vfJ4sqD9+XutHWk3Orv39dFOiNY9INxz512bEfCf4aC777A05OTuI6mk5jQXJzoVHb5z0RSAQSgceMQBL8x/zr59wTgUTgUSCghX56NC3/4de/Jgb+okynx+XXv/4PZTQaB0GOg666CDha1SXiEeZSwh6bXytMFAfhjzeE4o+FhsHR4h8VZCuT35H/eA/9e3KvaDTtZCX24bPfdRLv3RIhWnHTNWfO+F+8eM71ovz1X/91efbsWVj0u67zkQgkAolAIgACSfDzn0EikAgkAg8cAa3e08kEP/xfheX7V7/6ZXn3Dh/8znpeqXa1uEeoSki25N1U3WfMVUIf7N96qxvJj6xuNsqZaias+8rsymvt4V1Sb+oeh1Vdnq8HEn0EjJzj5toplnvdjn72s58FwR/hrpMpEUgEEoFEYI9AEvw9FplLBBKBROBBIiDR1le9WrtH+OA/i5NtjWDTrO3S7EqypfidDz3EPDbfdgw9SH/La7QPIr8n84LX9O1J/Z9H8I3OY+SdWAZwc+PtABciowKdnp7wFcJ4+914H+Svl5NKBBKBROCHI8B5It9uN/nh6rJFIpAIJAKJwIeKgKEn/U++/9Vv/+lvRPzw/wSVuDOLW5b3Rt5386N+L3Irt3vdZWgWNH3X3Mxhvzcqbrwcttvre288N9rkSyKQCCQCjxeBJPiP97fPmScCiUAikAgkAolAIpAIPEAE0kXnAf6oOaVEIBFIBO4DgWZn94Cq9mXA597mfh+jyj4TgUQgEXh8CCTBf3y/ec44EUgEEoEfBQFPqjVKvudaSeyNbsm5WTuy/6N0mkoTgUQgEUgE3kMgCf57kGRBIpAIJAKJwA9FQHL/7npdrpel/PF8U8Zs4D0a98qnp73yZLIPoflD9aZ8IpAIJAKJwA9HIAn+D8csWyQCiUAikAjcQiAI/nwLyd+U//5yXU4g98+PeuV0wsFUY07BTT+dW4jlayKQCCQCPx4CGVvsx8M2NScCiUAi8GgQMBrO2WxTvrrYlP/3y2X5/16tyu/frcvVokbteTRA5EQTgUQgEfgAEEgL/gfwI+QQEoFEIBH4qSPgBtvzWSmvL0v57attuXqyiWj6V4vvGwrzp45Ajj8RSAQSgQ8HgbTgfzi/RY4kEUgEEoGfNAKS/A2m/OV6XZYrT531/Sc9pRx8IpAIJAI/SQSS4P8kf7YcdCKQCCQCHyYCRs/R356DczlhNiPofJi/Uo4qEUgEHjoCSfAf+i+c80sEEoFE4A4QcA/tCFLPntpyTNSc41GvTLlG/l8mN9jewS+QXSQCiUAisEcgffD3WGQuEUgEEoFE4E9EwJj3Pz8lYs6gX1Z/U4ieQxSd4355cZIRdP5ESLNZIpAIJAJ/MgJJ8P9k6LJhIpAIJAKJwCECR2MPuuqVXzwblCn/dzklVKYW/TTgH6KU+UQgEUgEfnwEelvSj99N9pAIJAKJQCLw0BGITbVMcu3OWli9Vv0Bt4yB/9B/+ZxfIpAIfGgIJMH/0H6RHE8ikAgkAolAIpAIJAKJQCLwZyCQm2z/DPCyaSKQCCQCiUAikAgkAolAIvChIZAE/0P7RXI8iUAikAgkAolAIpAIJAKJwJ+BQBL8PwO8bJoIJAKJQCKQCCQCiUAikAh8aAgkwf/QfpEcTyKQCCQCiUAikAgkAolAIvBnIJBhMv8M8LJpIpAIJALfB4Hbwcp6HvfakoHMDt9beT4TgUQgEUgEEoE/EYEk+H8icNksEUgEEoHvQmCz2ZTValUk9+ZNPf9I5hu/P4xSfEDybywAvrGTqqCpCd0H7Xf6D9saEPmwwWHdTzXPnLY9J9al7eEED8pbfXveqtqWWwVN7r3nof5WebNtv98vXv6G//bv2HTkMxFIBBKBf18EkuD/++KZ2hKBROCRIyChXy2X5ezsrPyv3/62vH37rlxeXgYqEr/BYBDXjm1v16VHuSkWAEEQe0ESt1vI4o6478llj9jyFitfE/KhIAr3xJLXbZOBhzbCuW8XnXY6Dh5N7UFRzUpmDyqDXB+8h1BHeA95b5e/IUnZochef8190/09ebA+JPj79dJ7kiy0Oo0+I39YUIuqTCunbJ8NgT1uPQ70YtGGgDLbzZqg//0yHA7LRx89L5999kmZTqflyZMn3zSNLEsEEoFE4EdHIAn+jw5xdpAIJAKPDQEt9rPZrHz11avy8uXL8g6yL1Fv1t0+JB9mGrD0epz92pF4joQq/QGUvDcI0t/rYQmOPwcIItsI/p7iKyeBV476Tp+s/5Dge/BUbVP79i0aRubg9q27s2S8h20bA25l7R2xg6xc2NSk6lslxzX//e5NZXsGwT6w4N8g5DcGgP7Kx3cdVau9mnbaOkLPe6eo+/BS2+zE6iw2HuYlwefPerOKRdtkMqFoA7E/LQPIfqZEIBFIBO4Lgfwv0H0hn/0mAonAg0QgyP1iUV6+flP+7//nv5Xf/tNvIfovy2QyhgRqwe/jurOBCEIQ4Yqe9Oofk5Z8bfHw+o6k72pCNqS4SeAribce+dp8h2e0sqyraIS/vu6Fd3K7ljWzl6jvO26rygNZ9da6QwllkAry29rX+sO21ojBjZbxcqMEKVrd+lIgdLTmcuVwW2utsf/DdPi6ZXG1laBHqs9Dwq+sBF6Z+NNEm0IENhB5h7DlC8xitS6T8bg8ffqk/Jf/8r+XJ09PWMz1ykcvXrQW+UwEEoFE4E4RSIJ/p3BnZ4lAIvDQEdhA/lYQvsur6/LVH1+WL//4VXn19evy4vnzcOGQxC+w7i9Xy+Cggz7/GYYoS76lquv1OupWyxWW4UoixayS6co0G1FXPtrhyhMfBCScCnsPfUqYjZfIf+OtKvzGqiisamr9Yb51+u0ta02QaUdWRxeD69rEQqfLxzjNH/bR1bVHaOjYuvkQbeP3patr8u8/IffduGvfldor1/SJtar8grJLrQ+ktnx12U2F/q75PcejUXn25Gn59LPPysXlFWR/sWuamUQgEUgE7hqBJPh3jXj2lwgkAg8bAQjfFmIuUd/guiEvHA1G5eT0BBI4xgWnX655LudziOY23iX5kkuNwtfXF2XBFwCv1RLf7mCwkk2t5TuHG6S7isg1S3qDFkWRKkF1DDt+2kR4Vi7s4mKvy+pavhe8UX0oyqAdd73t5W8WdKN2co4/2nurinRpaf3149PFoZ7389Eflvtow8tO326Qbe6327aBS/Crlirh+HznHvp6sRAbjYZlyO+2U0smcEKNaB/um3DPhR8TlmyqXvG7+RXnZh+3x5LviUAikAj8uAgkwf9x8U3tiUAi8MgQqFSRScMW2SJbxsNROZpOytOTp52bzoAnBH52FUSw39fvfhheKBFth0WBJHEuH21uJLJM3XZ2WHY5Gal/+/ZaU+Wu3UJASzMpLNb7xlUwyqO2seR9+W2OfGDI3gnFaLr+991H9W1yK4mPgQYxZiAhXxsFue7ab9yPoIZbY61zCtXdjQYURjOxCflOyfvCtc1Op0S+k40a9ajPv4yTRQY/Rxnzu5ycTA7auuGZvRH+AY8+PvbRNe3Wi2Us6KwtzCFcew676Eadj0QgEUgE7gqBJPh3hXT2kwgkAo8DAcijFt4xJPDpZFQuRgNcOvCUxzJf1uPSg/AfQ/4mkMUtftq69AyJwiIf3PBcQ9Z7kMfJeFJWQ/zrw52kWdkra+zoe8VTsto47nsIV1Z7Q/49mfcLbhJg1O/I8eGXgjqWaH07241pp9khNh0+mVM0Ue5W2skdlh+KdXpq+wOhpv+9CmUoPFB8Y3769zMO/6zJDtAzYUE2nR6VE674ctKN083REQkJ8u9G6NBs3dFxWfHFxi80x/1JGRkJqY0npPKWCCQCicDdIpAE/27xzt4SgUTggSOghdetskNI3hRCOHSj5uy6nL1eYxk2ROYQ6++o9CWVXNh794jg2mHs/AEW7ykuIqwAqOuY4kG0mF1ZRzwPyWuQ2Z3G2vagh13Nd2XC4H4ocEBWb+ryjUoeByKUSZf3KRYpCATH5hbDDgEt+zdb7hoeFjdllh2Um20Q3Jz37XIHuG9cvyg4vgNl0XHtaMBvN2Dz7HYxi70N+wUBrlSY77cQfPtVOtyxsOAP0D+m3QRf/CHkn6WAHWRKBBKBROBeEEiCfy+wZ6eJQCLwkBEIkg/ha37zbpbd4HPfX0H4B+syHK2YfiWAh+4rksaNZmQytr2xyXPHfPfIhXHfV5lmS8F620t91qJDMnuz/r23ED1U2klIkveMet+M4u/Sbp1Nu1s8vkF71aeclbcVtvd4inAn803jsW7XQdcwBmAFqgXusL6Z27uVjdq3/A7rPgeVKchflyID7i7f8KkChqp3zUJgzYZofljmxe+mroN1WXSYt0QgEUgE7hiBJPh3DHh2lwgkAg8bgdiIqesNlt4VTG8OObzWig8R7cMS++R7RNkxVYpY6yoq0EeswDLgIJkSy3DfYYGw3lu7ow8aqDP8vVWErAp1fjFbb2a67G41UMt25e31kCgfkmHr1R+6O+12EJ1YSbarq2/eu02wZpGLxUpVYMkudSPt3lHiGOJvXeDsBG9l6mLBITmeOjxFaBV38zfToZQ13bsPUj1XAG2BO7XufdhC7mdsniUFdBZ18pY1iNw3scCCbxjU4WZaNkHu1WUmUyKQCCQC94NAEvz7wT17TQQSgQeKgKTVPxsY4Aqy7rUMX3oIIhF0CHzPzCWiEkYZoyS1vlsmaZVJatlfYhnWtzus/GFdpq4jocoGwbc3uX+XJJ6NiB7wUcoO6XCtOaxv7WMEWKKbhVp9uhyZ+kMWLpJfkw+vWmXJjVTnpp5K1nd9OTiVkg6bWox01Xm7MqS5qcTLZGMu483XBQ8vnd6ob4KH8rWCu/0gH53SK+3iD09Po93pRLciIa84V6QorC+epLtkY22fRc2Ky90UobrJdk3ykQgkAonAXSKQBP8u0c6+EoFE4FEhIDfUqUMCHwbdIKAwP59W8jz0wZcT+q61PuLhr7Eg07BPGM3xeAi5thkNqXeDrn7fQUbd9MmfmkIispWc0qbLNJmQQM1eEvEYT/foxtcVxQysdw678bpgaAK7nmvGkUREGvpt64FOJEbZiLLtVeFVM5EL0SYTL1Ffhducopzx9BUEC0a3g7XTyKPq8+GU9kldFPhgdbQSb92oDG2K8BB3GzfU9nTFCSG1h3h33yuzB9dXXuZ3116E0kyJQCKQCNwtAknw7xbv7C0RSAQeCQJB9CR5HdGLU2p1v+lccIIJWt2RUMm3JNRNth6C1WLhf/LpJ+Xk+Kh8/vkXZR4HZK3KJQcpjdjMeUz5yckxzydxQq59rT0lV+UOoHViyY551kwnhUgIKhypLQZ80VUF2ks8fmzT5NfLRfDimBbzMG69pL921fXhPGwcpJsy23UuSU5whIXc5BeCFQuYsPCjIObPl46uMspVXEfnOHyxj1pSdUCscWFy34KuMpLz1qLW2wYZrm4N0KlXztSLhdTFxUWZXc/K+fkFX02IhsOptJNpv2DLZ8j0GaNwmWY77kww5miNPjnMy68AVSJm0tVHJ3lLBBKBRODOEUiCf+eQZ4eJQCLwGBCQAEpXvcLSLcsMgljJZvOqaVZs63Q12WJFdtPmcg6ZZgPnJy+elY8//qj8zX/+T+XlV6/K1dVVefXyZTnm4KyfcWrqz372s/LFFz8nrObYnlgg1BNyeel6M1Opp+Q4RsFYqqtNs8c72jq+xp9jLJTNr2bl9ZvXZcbi4t27N0GwtW6PCeNpWMgqVwmv+XiHbI/HRApiEaBW3YyMTDMkgtB4PA0dEvIVC4YVTwmy8seEpfSLhObwtTH8aRz02mcbGOw6FhWUufB48+ZNeXf2tlycn5crohXVkYAx/QXu3czq/HgJ6k0ffvXwwZ8xi47zwXm5vpTgc1DVysWMB5Q5v9py13+nQUQjOS5/TFk/qVuiUNvVR2neEoFEIBG4WwSS4N8t3tlbIpAIPHgEJHbfRO725VDCSHuprqQjiXJGCaX1uotIfrXYS3bX61VZLOdlakz9IMbjasU/msb7kkOyKp23i46GNnKMxshyq9buKuPd5Cj8oqA1euheAZ7v3r4r787fRu1iPqP/TYT7HOrCQoz/GsqTDcQQ6kHXRr47oi782SH1Kyz4Wu6dgwsDFxda9v1S4XxsewS5f/rsaSwEaN4tQJyxqbPgkzOKzYC+xWd2fV2WhLI8P3sXC5BLLPGBW4x/uNOljg2uOFUXJJwVQhwuRjhLsTXF4oRxVFl6rEBRY0lrqeQ3pJ2ICxx1xbLuGwSzKBFIBBKBu0EgCf7d4Jy9JAKJQCJwE4EgkLVoT/S79yCJTVyyyBZOLN0LrMuzxTzI7JTDmLTW66Ki0dtIMFq/+5zUtFfd7Mith/bsCGwTlJUepErWIe8SZdxm1rgNLQjzeXl5GRZ3Fx0S/H6YyOkPsj5kj8BwO2YMuhnh5rIx1j/x4NEh8fcMgGjH07no8w4FD4u39ZMpCxVcjiTvjlqCvaPVzRTPGCXPQ84RMP78JX0O/sBG5vWCLxuX5ezdu0rwkdPNJtyB6N/FjP018q+71IivD36J2PaOg/zTZWAoFPTeoeFS5QCbXZYMIiG1e5qxZCfU6chHIpAIJAJ3j0AS/LvHPHtMBBKBB4+AJK/SxCCB9XU36yjjrfJriCwZiWVQxo4f+r7Ct/zi6qIM3w3Ly6/fQO4h9JSPjrHWQ4pny1n5+t3XZfSvI8I06hJjm+raorbKi7veeLR+HVvtppVoebaku1goDHBhMZ29e1u+fvt10U99wYJCJQb5vMRn3X0CcPsg0PGVAVLt4sCNq4vlMoj4GOJub47XuuhGC76Tt3su+7rGGn+FTl15lHERsBNwXBbyt8/TRYBfAWZ8Ufga95wrrPir3povCsPSo7wi7yKh06C7Dx35HcDcwH4jh0Lj2Hvpy+8iwKralbl4tyyuqGyl3VOQu6tW+1s2PJXJlAgkAonA3SOQBP/uMc8eE4FE4NEjsGOKlVDewkMuGwmiPJvNIb6QX/3LtYRDoo+fnAR5DqINyX2NH/pwJDFm06iM29R4J5lGPGtFUy65rSWV0PqlwGRDCSrvENcF/es5NJ5McKF5VrlsWNENJ8mXBVh0WPBxyRlIsG0ns+YZlnOs+UHuWaxEuE90K68FfstiRPK/7kdwybLYrOw6yhyaG1z3yXE7LlVXHcvVIsi51v9nz5+X6fgoFg5K+m2gD15VAwTe/jtSr+V+OKh7BIyUI8YqrlZ+e4xB1KevpP1I3s/tS6ps3hOBRCARuG8EkuDf9y+Q/ScCicDDQqDy0OCINycmDWyXQvvUSqXYO7II4dSiPGOz7QDL9hWbXPV5Hw4m5Rg3HCU9Z/XCyDpY9jtm3OzSnfW+EuKqFNu17DgSz12+KwpnmTYSy2gLkR56sajQ5eXk5CTIt3X+NTVLvLy+HxtXDf1ZyxUJtyEWAqqvXwkohLib9zCw2FSLshW++DPcgFrq48rjEB1DHb9LgZYk69XKP2RR8eTpU3z4T0KHiwcrDZ/Z+tti3feDQG215QsAixPIv5OYg90FG5d7lxB8IhDtfPXp3D5M2vVr2/peFzD70YRgCNcW1hzUdo3ykQgkAonA3SGQBP/usM6eEoFE4JEhEAR1N+dG+9qz0UfIYCvaydbMGkv4Equ24SQX+JkP+3WjrWR4AxmV/Ae5hDBj7I8UZ+TK5XlzM6n+7VrQJbuSZjsL4iu/PaChGsuDxurigjJdYfRh/+Sjj8vPidTjJtiTo+No4ciN0y8ZjkRBJep1OMaT10VHK73JzbWOpyZdaLocJLy69BCtB/nLy/PQq37Df45YVGhpx4M+PGpcTIT1335jgtW9Jwz9NNJtx28CJr8kBK7xxibgAMoK8r1hbCR2w/DLV6/o1xCZ7C8QV78uOAD0xIeIyPPanlbdSla16sDWIbRJ3pLN10QgEUgE7gKBJPh3gXL2kQgkAo8Hgcb2GuPrZq57iv7zwf26aDkNlCYaNmNeQgU35WGjnICLdRkyej0/i5jyhq6Uyg4k8NbDd6XSttPZpSXs47jWsNkUK7cbU4ecRFuJbzeQymRD3CGFNb7Zq10IsDB48uSUGPyfl2dPnpbnT59DyPF/p0Ot7Uvcg3TDkdTWPuoCwhN4I5oPclrL3ZAbG2tx11mwSVhSb/nx8TFuPaPQ4Qbe11+/JvRlDfP5yScfs6iYsrdgUr9Q0I9/aqqLBEZYvztYFxdzYHzB7OlT7AJv2vVjsUF75AZssBUvzxwYTabln3/3e0KPvgo/fCt2XyUqMtEm3Iu63oPEo8fk/Ovqqhubq4raaSedj0QgEUgE7h6BJPh3j3n2mAgkAo8QAXlgtZJ/38k3wgh/7EzRwSXlk2Q0wEeEGuo81dbwlpXkS3YltlrHPe3WRUCNejOC5FtmFBlJqPpMynZMmS8DLBGwwCuj9V8r/hGWe8n4kydPgpxr5ZbQXyGzYYOqhPcIoqy7jNx2adQdiLoduCHWOPON9A9YrEjwteo/YdGglV7fd/sz1v7SdqTT0yflmH6n1M9ZFDjn4M20rwshMIjPFSG+p/5B7J0fBF9ZJ8lCw823flFQhy5HDIIxrvhS8DULHzcHI4+svXSwVMXfdW+C9pEpEUgEEoEPCIEk+B/Qj5FDSQQSgceDwDdRQsvCkn4Ig8SWCjeGngyPIanbcoJl21NWI+wkRNWyFSRWEly3q8JvId0DSK5E2mtgHHqIrT7tleBLdU28I8tf2m8iNv01XwikuQNcWSS+Q/rwkCr7Cws+CwAXCuGWE58ZHJ8y1uMa0y0o1C7BhzozB75grLS47xcdI+P7c2ld18ffy7E4n6PJUZmMJtHvfDWjA3CgD79IODY36G7ZZOuSwnI6KmuevT7/W2NRQ3FgyT2IfRwcht4g+Prgh49//fLgosP5RyUysQE4yH78IjvC79haalZ+9R8mRZqqw/LMJwKJQCJwlwgkwb9LtLOvRCAReFQIVHr4p09Zq/NmKZHdYM0+Kj//4otK2CHQG6zPcGwuToGFwLsAiOgysGkjxujSszasJuRZS7zkfOLCAHIr6d4i40mwnjKr//toAlVGId73nFj7tlyy8VQrvJtQLy+vIPmV6Otfr845MfmD2roAYQweMrV0HPHFAIJtYnxbrPnXWOCX4dKzKEvaryXjhNz01Ng+Cw9UxBiMFmTMfRc0lxf449O3/V5wwqxEuk9M/sGSPlgsEJC/bC6vWTywYKDfHsS/z9XotRhsUOSfzRaXoRlfBmgmAd+wiurjruSXBsNzxum/XaWLBwm6yYXG7qUWfePd8dMsUyKQCCQCHwwCSfA/mJ8iB5IIJAIPB4GO8QXp6/LNtPuNk0RG072paxOPWhJ348MfQfIn+I9Lelc9rNo0keBPILYefCVxL0Takdx72NRcwgxJlszqPnN8ZHhNLOq2XxC1JrqD0MJ9h1j7tc5r6Z/jbqOrzBodknlJvZtq9Y+3XB98FwaxqEBHjByWu6Hf5upTrd3OQsv9quqyDdLhqgR5XuqPryUeKf3hoy/6k1jrtmNseucnKGinXyTXNc4+A0J1Fx1HHLDCu1eByQaWoau2oh3fNVwUmLYc3MXG5c3KA7KcB/2EnJUxEzNduv0rtPL2tN6xec+UCCQCicCHg0AS/A/nt8iRJAKJwANCoJG+eHKrRPVwggeUsGUrl61sETKrL324gtDMaDJPTp6Etb4H+T0nLn64qWAsn4yOCBV5Gi4409NpEHyJ+Nn5uzK7vgriPxpNy/PnT1kcYKmnv/N355xOe4WOOQuBcwh+jXV/RPSa9elJWNhXHmQlsSeKj9b2OVZ4L8fkemTKgqC55TizjVFojDffWb7tB+GyJtqPenqQad2ENKMbIUhXoO0AfbaFXIdVH6IvGffU3nBBYsEy4hAvFxhS6a2LDuTVrWuN49pC2AtjHNDvYEg/EnW+JDAaJEnoc8NxrBW4RXx+xipGhhiNrySM23axzkIm+qIPc7dTLDSiHCmruUKee+3bH9IrUyKQCCQC94NAEvz7wT17TQQSgUTg2xGQn0JQdcEZQMj1hdfS/IooMy4UFpD2i3dvIL0QWwj+FNeb5588LZMjnx/znAT9vO7Ny3WB+GKjHsmIF5De+bJcX1yVr/7wVTl/e1bmbGyd4epyfHyED/y0PCVSjvH2PfxJUo4zD+wb+ippZ2ERm1EZuURYd5walUerOhZ5XH4k6Re412ywrpuM8jMmvKcLgZHuQfjcV0YMGR/zxSEIN/wc4q4VP1x06CvIN18TbLcj9zEWXHJ0safvLZuGV1sWHbE5F9ee6VWZxleKURkT1rOnRZ82kvAg4JEh9j3y9quLkhtt/dphDPxYuNTp2tO/kdRtOpCMLOV8JaCDqM1bIpAIJAL3gUAS/PtAPftMBBKBB4/AbXonwQzr7g+YufK60+ieI5l/d/Y2iPbs6rJcnZ9DSCuJHkFs59tlbEC9grBOjyew7374mEuU9cHXT312Pcdqv6DtVXnF6bczfOtXWLD1tV9zUO4Qcs6SoYxw96keLYwAkq2uWHBA0Mdw18ZjBxF9Bn92Fx1Y+6+vrsPyfnlxGaRcyRHjX6PPiDjuFdCCH3Z1OnC7rOuGcMUhI2bxpQNiHnsFWNzEpl4WJ3TBJR6MiacbYZcsemaMfcaiRUt8P4g6iwr6OaHfKYsW9xXo5++eBb8u6F7UR+8GHawRAl/1VZcifxxnFzP05UYKa/2Nklgn7Lm8E0BXTOSWXL4mAolAInCXCCTBv0u0s69EIBF4VAjI93YprMcQx2/mjjuxGxkU6FuuJVqC//bsXfizX7kBFjKNV3olvfN+uZLIQ2zPsbyPp2w4xfIdXdFvv4saM6V+gYvNjJNx351f1JjzkGTlZljP3by6LudlvMT3HV/9Ef7+PdoaFSci1fAcajl3kDwHbHo1Lk5Y7+ercs6XgAXW8WvGt2Gx4GSNd+/Ux0TF4QWrPTpVAEHHnh9+95jPyxaCrh5mCwE3RCd7Apx78GVPvK2X5brNYHPnEDBO+JXgxyZeCT5fBCDy7iPoMfYpexb67C2INn5y4ETbspbwO24/TJA38o6fBPxcsksxQ9665+7RypugbfbtWq49m1Q+E4FEIBG4awSS4N814tlfIpAIPB4EGqlnxi0riT3ghF15RxxhhpHjFnId4YXnBqmdX81x1YHYSoaDk2LhDkv0EBd0rOEuAjgMaxsMGj7tH9xttIZL8g1DadLdZjwmxvykWua1itcTXN3KashN2tK3Pu3w8Ih8M2cBcD1b7CzoLjr6a9xtGJtuNa+IvPP111/H4Vda17tlAJZzXH1YDPQ5sGow5oJ0O0f92D05dsViwvnojz9n469uP0Pm5HhWRBBipQAW+NVvtebTEMJu1J/las4XjbPyiku3I/sc80VhweIlLPzoceOxi5QJm4ZRF3OJefISMpT5rMsUablARyH5+lqf4eAT2f0NWSdyK4UW1ZjJlAgkAonAPSGQBP+egM9uE4FE4GEjII+XVPoMy/Qtxme5DLE+Oywso0D5HaWEcBpq3sOsRpDkIUR2hAXaMJdBTtHrKbW64dgFxeHLLomXY2KHx/8eH3j84McDI+1oscYGjj7l49KR3yUE/eous8KNR7933VrevXlb/gWlLg4iUg+iEUsfC79WdXvRh/3s/C37At7Gl4aImw/Bliu7YfbdxbC8u7oox+wbOPn6lPbV6i+517WnhquE4NNv+Orjp3/BybYjLf6MU0ckdequ42bjFeR+RQz8dxf0ySVpd8UzHEDwZ0jzesUXDk/THaJrDG5ONObEWMNq76LGfQ2cYHtJtKGFXzCYS7ju0F9N/gri0t4Pn7Uw6urtoFLkvTIlAolAInA/CCTBvx/cs9dEIBF4dAg00neb+Ekig17fRKRjlfqMS7z1xZ/ieiNp1lKv77wcUt/4I8JkDrFUa803Oo1+9xHaEjIr+R9yYJS+71NjxRsmE5LvFwBDUapfohtuLOrjzxwSfU2UnnDl+fptmV0Qbx6yPcbi369BcEIHyoMAr9FxDYGf4ZqjJX2E/v6GDhiLkX50fxlfTlmgTCPUZ6wqaLlhY6sbcyOkJ1Z4Cb8EXxebs+nbsOZrtRehIWXuRZD0b4lrv9nomnPJouCSkPjoigmNiHcvXkQWusQdaUkEIdqN3VPAvDbot8+6QZh3BN+eXZQr4uwbjccFU/xK3Cp93z/3OR2EAnru5rgOHjd/xHxLBBKBROB+EEiCfz+4Z6+JQCLwCBAIwhgm8r21PBjk7bnLSE3KHiSJbVidIckTCPrPv/h5WLJhxOXi/CwIun08f/asnBLaUlcckz7pWsYv4oCqURxwZaQdL63X+rZrqQ8Sj0++UW8mY4gwi4QTQnEaZeblq6+xyF+U3/2v33HQFZtmcZUZjrHkn+DSAuk2ruaWLwkogzD3ce3Rh7/b9Msk13MWDrjYbBYSanzi/XIA0Y/+mWZf8s/Fh4JwnVnrjrPGv5751BNy6UNcuEZjYv0TcWfIuCX50yl5pjo9YvNxYU/BfM1iZMXhWAOs9pWdM51yfOpeBDcYj3XzjwVEi9RjME0TSye+PlzEYV7h8791DE6wJX8Fx1rfu8eNnyrKvCHU5FrrfCYCiUAicB8IJMG/D9Szz0QgEXh8CATRP5x2MMLDgvfy4aoTpJENqViuT7BEDyGsy5mWZtpr3ScHx44FgP7mQzeQUq/XTd8490TXMWrMkPjwuKhDliW81fLuNtgezHe+umJTKptxeZ8euaEWi/8ZfJvQOl999Yfy5R++xO99jg89EXpO0W90yxEWcFvoquPFO0MM2uxe1sUZbjSQfLxpwk0mXF34/IBn/Y5a93Wx902T+gbL/QaffvLObXZNfPtg/2sWKINydIyzkQd2DbaE9JzwNWJYPvoEf/4exJ69CWfni/LmNbHt51r46RNVkwm6WFS40Xe9Miwm7kcLFjYsgNxnoKvQyZOnWPlr1KAIAUrjiOQDFgxPlG+kuizwvq8xF7L7ohtt8iURSAQSgbtGIAn+XSOe/SUCicCDR0Ce167dZFuBPjYdxd3VfVcmFgZSXje/ctgT7igePBWbbTVLUz/3ECpIK/ZyLO3DCHsZceSNZIO80W76RNohZiU+5iwC9Grv629P3Hl0GjtHi77vS9rEya9SVhm/pLznQgI53XkYfh8SrrF+g46eoSedk5cPbn3r+OrgPgHJ9lo2jaybf5EOUeXcL2CKpQUbDaTNdmmxfvURS5+O9PKha3RC0qkN332s+XPce3p9x1zj79eTaelDeZRpiPdrgCf7bjkBV1egpXsMmKOLG/2UJrz3uWqDrnPr3kuV2h8WO85uCofFmU8EEoFE4N4RSIJ/7z9BDiARSAQeJgKV/mmFl+VGZBtZp69M2OLb6ZBCRjUM1XCXxnFf4dt+dnYeBNpQlGfEwpeUS/CXMNprXG3CTx1rtafA6lPuRlX99UdXbjQdlaOrk3iaH+LDoiuPC4MFPu3b1QzyDNk9538L+KlfL4hGA4k+fXFanq2e4fIz4X1N++rCInGWmGsFj02zsnoXBZRK1UfT48JaI6L79HTncXJcEvKWWDcEFlb2cI0Z9ibhd98DnOnU02+NXU+fuuhMtcTztYLGAxYqPRYti9UoXGXEasBXhOkxI+ILB1CF7GBoGFEhoi1j6POVwk3KhhP1XNwe2B6dHpceXw886Aqfou7HQWH9AdpQo2D3++wyB9Vdtrplxc/yfmWWJAKJQCJwRwgkwb8joLObRCAReHwI3CbxckbJr6TTnMkFgKQw3iH0jTsqFy+USZm1Xl8SRtJ6eX1ffxtqJM5G2bkwPKR/0FUt7VjbbUv0nBUCa6LLLDZXpX+tLzvuMITPtL2y/f6k84Vn0+mbCyzgGxYJnH7L4VQ//9Uvy7NPn6ODUJQwcjf7Okpi1kDKzTlOZ+aXAAm+I6RfLObbGFz0QhEyMnrnGsDEaGMM0Zx2A6L9BBSIGkd/jRXfLxaDaGt7mtqdvXBzy0EPF51q7S/l46Vx9VkCKBRJGm/SEcgx2z8l/mWBoiZ98M/f4oPP4VxXnPBrf30WG6YqobhytZ1v8ZtF+xCLsbgvwUVPjL8W5z0RSAQSgXtDIAn+vUGfHScCicCDRUBWKcnkkhya4I1B/iSKvSgPoaj7tlu1BkOicXpXj64magwCHxZ0deuyo/uOlnF17lMQVDfBOgb6XOEq08MizlqBQ6G0bpPxr071JF1b5urR7QbyPh5Ny4uPB+X0oxN7jasPcZfA99gQy/eFGE80xuml9b5VH+2D4FuKm01PYk1fkYIFM5NYIMTootgY+JEYx0a3IJ40Bi9Q8z1eRaAl6lw0uGAQU4i5OlsSa2UN1Ql6fB1gMcMY3KzrJlubxSm4yy3ReBi//TTlbaydshhyV1ermkAtrMsVCX4l+SHfBpLPRCARSATuGIEk+HcMeHaXCCQCDx0BCWslrVLARgPrEzLoX1lmkNfvgYVMsbt0WVGBB0vpuqLvO7wW/iwZ5oKd2rdEOazJWOqHQfAhvfSrX7xpzS5YibpRY5TTrUVia/vwnSdvjPshrizTCS4sfiyQN/PpYA0ZdoWwYfNsI/j2iV8PV01Gzak9ScCVq29kkezm40hxjdGqb7mW9Xgqo7r2Yp3vXD4Ony6a/HIQCxUaDFwg0GEUV1EFInQojkzUY6+nywmx8W3rF4Lz8yti/Z+Xy9h4XAl+ax+ND25tSK2+ve9EbhTceNmJZCYRSAQSgbtAIAn+XaCcfSQCicCjRECK12he5CXekGmtvRtDyMAUJdXflTzoSYuz5Priko20kPvF9RWkVYt2Jfhukh1iNZdwj2GwhqTUd39M/Hs8UCh1IPULQPSlOsp19ZF7G0knhtENpbnheLjUCD8Yffsl6hvcYc7enZcFB1JdnOHOAtlnacDlXCTovqmb+UncIdRD/N4ntN/wVSCC4oSbuwsOBhBJizetmgtPaOBdwEysYKDu9Z1BWOwXEMViSWCHDi7+goe4kvx6oJ9+JMay4WCsEfsOJpwFMD16ESFBnbMbdXVXEjNViWko9x661WCGZOf1ZuZG2re6UZwviUAikAjcCwJJ8O8F9uw0EUgEHioCksIghh1RlLwadtGNqMZwlzxbpouLbi9GsdmnSi9tGjq4IR2XJHMLGd1wiNVKdxLahjcKCwAt+3rAS3iXEHsPpSpDJOyLjaiyeN1UjKyjkdtFxojQkC4C5KxBTqs/DO/QdAsZY3wVIPLMhnFbtGIPwOsvX2L1vij/+vsvCdd5He4z0mjnFZ8TlFNjH4s5IS2Pjj2I66isFxzANd9ywix+8ZDvWA40wszTcdlnXDEi3u1VMs/CwXvw+Gbxt1oAOvciK7diyWZfUbTK8J1x6i6N58tZOT46Kk8Ji9kb/Kfy7NkLvlK4yIDYY8mvX0BQ2WFfF14iY881+WZSJhYljrP+UPXpVxTru0vZTIlAIpAI3AcCSfDvA/XsMxFIBB40Ao3g+WypktNGUmWfWJqrsbmJvP9siqiReOtuEzyaQ6+CVwY/hTivyGAelx9LVN10ayz6sjaufMSLYfMpiwk2rkbEGwQ5lBaSjz7Iu8kFQDDTyNufY0Uh5Dd0UWDYy/n1vFyzGfXs3bsyJ5KP/vEuCIbE2m8EPyj2YInln70BjG07JSwlMfFnnDJ7fcmCwXFyRbz52lGQ98qlqbBfU5D7EIgBxcKIQbKk6eok/swxpkCp+wcYbBB8FhdhmWdwLh6MCrRankafSxZI4lEJPqrsKjr8PrcmWV2B4s3JcLWa76MlZRKBRCAR+DERSIL/Y6KbuhOBRODRIrCR8HEFmRUFrfiHF2ywEV2JrTT2dpI3rrGge8rr0XhaPv3FX+BaMixTTnEyZKSEUled6/l1ef3VV2V2dV1evnwVPvq6qqywbi9ZETgWT3BdXGNxh/COp+Py5MVH5ZNPPo3TbQ0xGWNlQMpdQNxnM8JnQoRdmAwg77bztFq/IqwIyTk/f0e/RO5Bt645Y9xwdNZxUEGeR6wwcM9Z4yZzTXz9Bdb7+axZ8J0p0ui0dcfetaXvOH3doKtYQ8bZxoxp0VZGug75vzEZvlhLshkjVn7nP+SgK1cfhvv01F5WP7g7jdhQOwuXIb2EHHuoRbWW/JaqX7/6ujJ/DFKMF7XNtcpSq6KWWzebeEaDvCUCiUAicA8IJMG/B9Czy0QgEXgMCAT1Y6IdRYQFGs5R67TRXMJiviOq34QHVBK2CL3HIr/mFNk+hPx5uJk8P30SvvFqluCfX56X67MzLOuX5eUf/kBce0JcskH2I0i88ffni0W5wm//3as3QaqPj4/Kz55/XF4cn5SnT5+F7FrLP7oWEHw36frFwI28RuiBI9fFCRlJuYsLFwWTFf8LoS589sPdRXpbCe94suELARta/b8MxW7oHY63ZcQGXS3xuglNxiw+DKcJX/eQqoqPnanEzxM+vYEXmIldRPxhrApFFJ7momMj5k2vFfEg+MwD/t7jSwKrjdhcO8LffsCiIM4XwEUpQob6ZSTmbF+1+5uZeMtbIpAIJAI/GQSS4P9kfqocaCKQCPzUEJCAN1uz1mWZrDx1A3OP2O1BXr9jVhDa6q4CsYWoDrCSS9zdKOrm19CPwsWCMDfoX+Njf3l5Eae1jpA5PTnBIj/Feo7FnTj55+dnEWlm61cBSL/bckeQ3FH4/WjshjTDq91UK+HVeO4Q7UfOHWPR6i3J59qEDz+EHTcf2zQDuLJa9PmLHDZ1XGdcrNjNkAOn5OQePDU95sCppQsJGiwg5xD3ric6dX4m7/aBAgk+besJuRJ87e8xspCkh/B8Ch0Q/JGHWzGGPgdebdhVPGRREYsRnyiS6MeeCDfxasn/jlTH8h0CUeUY2/VvyWZ9IpAIJAI/HgJJ8H88bFNzIpAIJALhh6Nf/BpL+Ba/cF1HdP/QxaNSV0GqJDVIJLdGJiWqjS9qxV7gWjKD5J5L9iWkwUm3RNfBgn+tW80Vcd2vOZQKP3TklvjcL4ge46m2tvXUWgmxm31nuOvMdMXBn3/FomGBtd4xuUFWNx2t+UGU0WPObwlxGq8EnZNlPQl34+mvLATc1BsbWjuGbx9D3IiM/tM3Os56xljxeUf/cMphWW7yxXp/8pS+F8TnZwOueha4/1Q0wAdCbv/23GPDbh9XHxcItvXQL7sSU3GhGxYk5DnkagPpD/ceysa46Ejwh0Mt+56IywLJy8hAuOq4b2AwGHdWfEYt2NGjo/hzknq8MiUCiUAicD8IJMG/H9yz10QgEXjgCFSKVwmjZNmcVvvDg5gkgVrmY7PpDg9JayX/FmlhdnOtVu4zotdcQ8zPzs539mbp93zBqa8Q28nJafnVX/0Gdxcs5pD4yWQKKcZn//iYDacjItocR1/jMRF0sPC/PmdhgDV/gC9NjI3+oPZRtsDCr9sODSIiTQSsgdyzCQBvlzF6R5Bnx4oIfY1GWPzjlTkhHAQ6LOa6+ECw3QTM14bxBlI9Ymss5Dss+RrP0esce7jwqCOwYj6SeAl7D5D8GqCbTw+C3pfIM7TtgkUD43URYcQeux+sXBxUkj8OCz7984FjxELChY1jDTefAJ4+fYqmCwN1eqEofOxVyGB8tOTYTLH4uVFTy/OeCCQCicCHgEAS/A/hV8gxJAKJwANDIBgic5It8jdII5RQ6z1kFJpKcaWI1dccAUhmV2ITGlUq2YcFR7QXCi/ZRBtWZhhoGJuxWuvPvoTorikYQtxffPoplm396UNL1G/Z7DqaToLoq2sMSe+z0fYa6/4K4/pgWd1rbKG1XmK/hJCb4tAsno7Gvjs6TEW1ePPA3QYCPZEsh1RZcwhWJc68U9/DGh+WfMeN7/4Aa7wbX+2vOTGxFgAn5CD86oGWMw6t9AgFYuiCjEednZLUKVnv4YJTjJrj2MWNaqBWnHouOoqnzXy3wN5ZNcWpwPxAddMslZbvLrKkOlIyVtVb6PEt3lsTm3fpINuK8pkIJAKJwJ0hkAT/zqDOjhKBROBxINDYHtSPrFZoN9QaoQV6CgSyzloXXJTyDVbyyj0bLVSHpF8y6gXF5PUKP3rdfVZawyXC+qWrTJ96sxD3J+PnYY1fQ149kCpOv7VL+4A9606jvzwsv8xg0Istvvi4wIQe7lDm6DnGbCl914uXGH/XJ/lWPoSwj6fo77HBlUktwnUHOccnCcei7wx1o3FzbRz2hd6NcevtjXIXBHXzqxt4GYfj1QVnxcUCJGCLsTgO5SnS6u+iydVBfE0gD56xH7cbn0Ouax0ypHqnT8OHsuEg/P4R2BF8BbiqHLp2OfMt7Si/Q+Gvv1eXuvYHwq0mn4lAIpAI3BkCSfDvDOrsKBFIBB4TApVUOmPpHyReEimXhdCGS46cUJI7kJRCGCW5twDyPSza4X6y4pCo6yDveqq7ObZGgMGHHcJvdJuwtmshp6M+rioriP9G3x4XGJDl2AcQhBRZ6yDjuqwMINeOKf5Ep5WQS6Kjzhra1ZCYjDdIOU/I+wh//MmUw6xO3BRbXYnWc2PyG5PeOULq5eeQcMm/ixrLxUf/exc2lhntkmkyJwg+EYO0sq+otD5c883Qn65CRd0ocaMsg2Dsuur4LYB5IqP+IP32A+YbFjJb8AAZNv+OSk93ovhNXCy538A3U/0NaBapPRvN3793AjceanARF93fqMmXRCARSATuGoEk+HeNePaXCCQCjwKBoIwyQq5KDCsBlLJqLYZ3wn0hnbilSKTjkmaa6VpsIK6GwQwfftjvk5OJHJIEscbMrU+5VnQ31QZjpiYOrkL/GsI/xFf9Cmu6J9jqA++Y+mvabcZBgKHjkGr936GlMm4T70bHcWXRow+t8uEmxLCMnDNkHEalQUlcEdmHDbND6lZrvgTIqLWqo8qxMSDaoz8KXOgwDicfnzZYOGh9lxV74C68neA57pWFvNMPMm6g3SKzkf0zrDIkjKftm27qwq+eOpY5MUenUvtEkfixkOgx50GP6EMQ/DH7EYzi47RdpCC0vyIbg62lB1UIRXJB0v1E3bx4dw6Ux1cNMv7JlAgkAonAfSGQBP++kM9+E4FE4BEhALWWKEoAyZiNFBxw99ZKd89aTT1tJNdHE8k2iwKKGrmX566MOIMlOoitEW3oaKMlHHK7miPAQVnLDZFo0Cw3H8JQR7j6DLnU1+e51dkdBVr1N7iu9IguI7E3QaGDrupGU119oK8SY6rl7n49cKy6IcVhUZr7TXZo4qlczF+vHGm4ImGO73R39dbeTm7Oja8eynjZ2In71/HTX/TP3QWBYUhDXkWxmECOryRa8GuYTMZrgxhnDETJXbJYN59IVkeygWlXUF8P7k3ioCiziUAikAjcCwJJ8O8F9uw0EUgEHjwCsD2pvL7s8Gc2jGJ5DqZLhUS5AyB8v31pBUEgG4mEzUKaDS/5FJ/5v/r552XCQU0jGOiKDbJr6tS9wkofEW9QM2ERMJ1ywivMdobP/u/+eVHevrkql4tZOSJ6jUFwJkTN6Q8X8FsWBbTdbAijSb2bcw1VOe9Py+DoSRmfPCuD49OIsiOxHxM+M9yCtJqzcZeduHB0vgOQXZFfEY7Tceih3id0TXxNwEzuQV3hf8+iwKg3ym/dNBDRbvjfENPsIbPFjz5CibKC2crAkesFeBB4mLvrDXXGoVfM235cxOi6EylWGxXMHpb6LePdWuZXEvpiBkA/YQ8C70YEClEV1csuFQ/yHwp5iV6qen9P3x2Yfdde1RuKbsjWFnlPBBKBROB+EEiCfz+4Z6+JQCLwCBDQmh0HWkFS3cwpDYShBoEMMimh3LNJKvdEMURlkBJY2o5gns9PT8sJ0W9OjoZlPruGX0vsIfuIVGLdK8ccHqWl3wgxlxfn5avf4fcyOy+rdy+Jd48VmxCXy9EUsjwJ4zYjhGwvynxJ/Hys+JccODWbPClH9Ds8OmK4SpDsgw2v8u2wvmvmhojrQrSE3Pexxke941Un9XDqaCehN8XsohpyjNyGkJm67PT5auDCwUWAjkRuEI62EG8Jf+H/VNrf5eGsRdBOOcWxWKBFWNujAcQ7Ni3QmQPlr/t4N9TpZ+8CZs3eA0/ndWFVfwPoOZnqWhPDvHlz0AcpXr0dzCkUObtQSJ31IXjQMLOJQCKQCNwhAknw7xDs7CoRSAQeIQIQQclk+N3z1Ev8T+F+Yem3LY09kXWLH3kfZ/QlRNYAMnDXqJsSJ34MWYYCY6GHCuMXv1nOOTF2DtGVkEOoJb/40HNnXNyJa7leXkJ8teBDgHGIX9NOao/hvibngGjw5mDsdZOtbi7uEVizI9YFTYizKHCcJkVtgzLc+nGdQcK1ge+2C4d7XXw6ku3CJIaERd8U7jda721CG/fXughQ/6brJ6zzXR+1I7CIjmlEeWDPICT4q3gyF3VzqTmG2o2Joqjz9dtSjOVGZWi4UZIviUAikAjcJwJJ8O8T/ew7EUgEHi4CHWFs5L49Jdm6z2jJ/8Ykiw2KWQm7MtLRxWpe3r17U9aLCdz8BF9yrd0decUCLuGVqm7YUDtfXMfJtV+/flXOOcxqNp/H6bTGnulD4HvR0tY0ik2vWMw59TY24rpS6DbtBgH2i0OMgWJ2v0qwtYpbxjojasIy7uKlI+lunN2w+HCmqzX7A5a49OivrwwHZG07lx2t/3UFoD7chtTqYgELuwdu6ZZjHyMXALr00C8w8KAQfYMJ7cXK+VPXx1LfY+yxWKB+625dCL0LD+P6L1i0eKrv2k8eEbqTrwKE+IlY+vrmqI0xurAhx+XTmfLGo+biNW+JQCKQCHzQCCTB/6B/nhxcIpAI/BQRaBQ9NqQG6YU8dnwxaC9stAeJDX9yfcqZZL1azllXRtmizFzMLsrvfvdP5YiY82e44BwdTWG0EHrENpDTiBpjK3zor68u8b+/Kl+/fVPO353hbz8qTz/9rJxi2Z9MOPBqclTGR6fRqXsDFui+ujwmHOW6DAlxeTU6LdPxKcR6wig8lbb+r2I9dHFQrfAeKmVoyxg4t80SMm6ITpj8cMLig3mtdI1BJy8MEvoOqWYLARthIc597PBbou4gYwjPBXISfL8ibHhHwB4qscbjSJLuu3o4o7db0EjATVJvLsk5l4Py68UQ7D0AzM3Blld3KRciRv0ZMq8x1yKwU0McDrb7Ccw0gm9e/fE3xlE38XZjssJEH+rJlAgkAonAfSOQBP++f4HsPxFIBB4eAvI9iWaQzVvTsxjeuA/PuKOn1XVF8eCL3lqMeiziEN/Ls/Oi44yhYk6OxjwhrkHyjRrTLSKw4F9eXJTZbFbeXZxxyi2beyXdkG9ZsW4yniQ7wpUnxoFf/UorvXXo6kN8B1yS4PB75y6NNcXBVJjve7r5UKR8TDPqJNCS6apHH/yg6Mg5diPbrBFe0reRetYSe94jqhD5OLwL2RgT73ZpLHyN8EvGGKNggaDfvvH2Qz+x7RXcdvK2cdSW1rFRQJK4S+7V7YohFiF8SfDAr6Fx8ZmvO3iVDoIeCmxJIq9LUWiq6qLY/vdl5hpKtf/QE5J5SwQSgUTg7hFIgn/3mGePiUAi8AgQqJSvI4bdfBs//Ka6BuoRZFEAACbsSURBVEnINAELIeexcRSSOoe0S4Qxl5fVzIgwkEkIuwZvSats28gxl5eXZY5bzvXVFXwWFxQ21xrtxlNwww0nDoqC7cp4zYffOyQY1VrT+xw0FbHvoejG6lcuhgSx9+AsCbt9aXGXM/MSm211slGcgTEgXGxopCVdVxkJtgdXhWsRq4MV5bE5VvU00XIvm67+9DxRFKE7EVoqq6sPY6PbqAsaHZZ+9FvukLj8KgIs9OO0xMYK5uaJuHaBXhdD/T6x8In0M+jPYjEgkXcc7SJ7IzmXfXIcTlT5OqZvbbhvlLlEIBFIBO4MgST4dwZ1dpQIJAKPAoHGEBshhAdivOaSqENA4wViSL3XdyeszRB0iWhvOy3z67OCI3lZSvTHSyLiQLH1d4d9BhGXpUJi9XsvmyluNvi20Gm4CtGXfvbzazbREhJzfvU2DowK/3TcY5bnRr3clhn+6dceWDVZlglk3j76hNXU2h7hJWGycaIt64Ie8fKpDYs8N4bGplzdcLCsx+KD4RivX99/rfdGx1nNmDcEP5YMMX+EJMsycv6P5Imz6vIkXv3kHT/ddPLSelm6iwZ0XpNFV+DITfE+bkj2rWr3BtTFBboU5dLCb2AeQ49WKQr5Tdom37DM27WXeIZUvJCPAfPMlAgkAonAh41AEvwP+/fJ0SUCicBPFgHIoMwz2GdwSAimRFLSank3sfb8tnnGgkBq2sdXHr/1Gdb7C6zORsvhBNmBTu0QZ7uR/sbps/jMu6AwFj1FdAUbhjRvsO67eRWve9ziVxBd5GlHVVlC/OcQ/avFsiw2c2LeQ/LdK8AXAl18JOQ+HXcsClho4G1DuXHwBxGdRlcZI/sQfh8DfiXFxsev7jHQafuTfIflHUW29j1M7jyZa9TpkqNPvvKSb+o3LDzCUg9p72ntl3t7i8UCY5Kwo3KxxB2JMceGXN2PkPWrh4uLCL/JnoNwGWpfI/yq4Ubc9jtVrbt7/E4ONTq0U1+iwMJIbSiKRH4n2yTymQgkAonA3SKQBP9u8c7eEoFE4JEgIF8MGtjxQXm6viMSVt06TF1V5L/tpsU/rP4I60+/uZ6X7fl1GWJV70HyS1jXIdGatOljODoifj0hNPUt1/rNQAyVqbvLaokVHZIv0V9AanWp0V2lx1eC+XyF9Z4NusTXX/Q4LAuib2z9CG2JdV2yrazdeLDWksVGcHhYteEqV0ti2jOJmF9vWUZsujVt5obeZK6uIkxGwyGJggm18RXCfQU6/cTBW+jvLXijbIBZnp4j8s0Wsq6rTbj20LDTGPOOPOsPvy64sZYumbekHr9/Nh43or/hVF/3Eqhry0Zfyb2KbO9YgpvzqMopiEILrKw2fd92fR/k+XWtypQIJAKJwL0jkAT/3n+CHEAikAg8JASCKEL/JNaN5FvmRs84lRUyLDuUCH9bqjoUg3xiJcfLJTxYdLFZLYhZzybauYQY6/1Kgg9JjQgwEMzRZFWmhowkTr4LCn3mJfebNQQe07o6tlx9SLQbX8MFBmv/xYzDrpC9Rq53csTQ2MqqZZ20jvaQeIk9hN3r6lrHG636LDS05HOrY8BVx8XDdaW7ug5JyvdzUqd10HYxkq2HRR8Sz6bXkJXEsxjRTWfAQqG3oI6VRY3ZD/lXmwpNzKERcw37LmBiSeBCAv20YpMuuHnyL3MDiVhsOIr4osICYCvhd+XiD4Z2a3ZKHSnFjrel1nW828Yrmt+oaeL5TAQSgUTgzhFIgn/nkGeHiUAi8KARkAd2l3QvLgigFmz5tO/hdsJLkPw9b3wPlkqLlcdQP+EE208/KqvjozLDoq6+NSS/J/tHqyRfVcshJ9Qi6+ZcG+qDvkVmQxQdN9qGO4qk30VB9Ggryo+NjrMtU3ROP3peTp49J9zlNKzglfC6yOiVp8+fQeQ35dOf/SLq+obGNEIP7kCxmOjGMoj52VKyHCOsCwDJcAdQEHUrZdCoiJUMbF1XH11ynLeji0zo8MVRa0mvBboQKaXvPNOiincuVdpYDBcSe0j+02fPyrPnL8qUE3pHuDG5P0D0gsDHuGxUr/iNonWnJ+rJd/XtVWlTe9a3vCcCiUAicL8IJMG/X/yz90QgEXjwCOxJo7RUJihxNfnosvH+TTeJpGEltchPnjwrwzHx77GW93G7ccOo/ukqjZNbVYBFfcNGU633leBr+UZJXLjcaLHm6mux3iU2xmJFD46NY/0RJH58fMoagRNtXZjo0M7dCDUnp09R1Ssff3YNCcfaL8GHLPdZdLipVSu+i4cgz0x0oFsPrV0UhDsMdTVJ0a3xQruLFTcix3Rq2MxabX1Fqcor3cg/Y3KunabYVOtQSWjjRgvG42m/frU4ffqE6ykhQifU1f4Dm9046lg6BfFQTZWpr7fvdWRthLdr8z0RSAQSgftBIAn+/eCevSYCicBjQwCiaVx3iackVmJYyWGjiO8DIpGWD0vwy2haTj4/CfJ89OmsrIl3L+GtrTuizCPs2x0nrv1AZLtqCXoQ6njXeaUm3Wiw+QfpxRzP1wJCSOrig/vPDN/84bCOe0jZx599Wp6wADjGGu6psBLsoZFr6EzCXzfU4qKDu40kf8BeAMl9bHSFZOvX74Bq3/VuW8c2in0DzIi/K+YXh165wOA95uAYu8nUNgM2Gqsf6z16l7Sxf2WsJxPiut9YPuVwsOnJMYd8TdkUTB2W/SWuO7E/YAcGrfid6vcNFw8tKaBOtWZKBBKBRODDRiAJ/of9++ToEoFE4KeGgAQ0rkoHK6HH21tyjVVd4hnkU8f1sFh3ZZDH9qdSSPUweeSMg380PSknJyehx02ia/3GJcskqXqjzLBdStTNnf7aBt3YERuct0rGptxorXQdgy1l06qolngy+MgbPUcC7sbejz75JOpefPIpfu34uzsf6rTTxyZgxqTFexSHSBHpB3chSf0SWQl4xPEXH5LE26x4qHs8Hkc/vi/ni5ANeYGINoy9k7dfFyEjLvtzQ+2MNmFtD9noYnfzC8OAhYjPieFDkTEqT2wUdt0Dl3cdFV3tWh1k6K8lf6cYCAXOJH5PIQ8Rbj4j31rkMxFIBBKBu0UgCf7d4p29JQKJwCNAQH7ZrtvTlRB+Y2qkcEcMVaLf+wB/caLa4FZydHQcpH3jVlFYeNvUuif4NNAyHUzVXpolG0pKWRBT9Evxq4VaHqobjQsBWW79AlDDSFart5ISeEnsGDKtZV5f/cloHATc4dYvA1jdR1rwGQ2XxFtCvSP4EHAXBG7YNQUO7gVAl8RYN58dwadygX43zIbF3xHHwsVWdU5GCOozFhcSKrPf0Wju9HkXAzM1OfZ6Si/zwBXILwuBAS5FfgEYsbhwrM5l1yrWTrzx1/LbaSd3UOE82nVQnNlEIBFIBO4cgST4dw55dpgIJAKPA4FKDuWZkkGvHVG88XITDYmnbSSqUu4jiP2To5PyyUcflxcvngfZhkYH+VVWzeGWE8SeEkiz0W60aK8WWrQrAXehsIXcBhkPf/c6Hon9kLohlm2TVnWj0ezGYQ5dEmbdccYQ8bDYw2TdVKsWSa39RLQdMi4QdNsZaDUPAs6GYN1ktNg7WOX9QxvHSTZ0OoYatlPdyqOLyxluItKOcsyn+/LheOsXiiZHAbpMa+Pdg0mQe/YJ+JXCdY/a4Pek2ofE/smTU76QTGMMnPYV+xnqxtsYaozTFrEbl0d04aQj6ct/kCi2ptUe1GQ2EUgEEoE7QyAJ/p1BnR0lAonAo0BAthdXJbCN7EmsvbQeR1m461RhyfPukqhL2Slzn+yUUJjH02F5/uSkPDs9DsK6wnd8tfGUWv9KikW2bhpdzpflmnCYs/WM55wNpuuwUE+wqOMIE0ReS/xk6um4lSBrwa5jrpZwo+VUEg8TRveaQ6f8SrBm4SCbl9vW+UTH0bdk2sVFROeJsWMRR4+Wc5VUK3pbRDhHyLedwrpj7h2hdzLKNpycGeq8e6PaMdV+XQQ4PutCxn4DX92MupVEtGGbsAsMxudG3MlkwvzZaEt6yrkBvz/9bXkzeVVEiOicgUubmb22hYF9tfJuOPt35OzRWRnPqI6WgkyJQCKQCNwDAknw7wH07DIRSAQePgJBDJmmT0mhPFd6C32tpDeIckcXD4WRqalapZdEy1mwOfXq+hI/9epGstSiruVboisZxgq9J7aVaOpbbij4NaTXCDtSTpYEEfvesJkSYl1mzKw4CGoLiZdomyTlWt5rhBpJPwSfujXW7UrMOxn6bUmu7d6AmDFqJOkx2xhiXdw4RoRCh30pEyf7IqnV3zj1LgosX4c1v9bHsFRHClcbkHSk4Q5kTjJfhw4ZrwsAN8qqW10SbjcA+4VhxTz9YkEonagL1yXbxtV1Ykemg1er96/7XMjlLRFIBBKBDwyBJPgf2A+Sw0kEEoGHhUAlsRDVIK6V6GodNzWauOOXXaHl8mPJ+Xw+K5eXF+X1m6/ZRDoPy3pEqwnWK+GtJDb813WLwaVnBeH1GKo1fS4kt+Ttw5vfDwYSfo6Xvb6qoS5hyghjo1cnf3uSawm+ri2MI6zh1AXBh+wr5Bx0wSGjZji23x1qe0vIRXIujrFeEGv6agsJNw+76dUUewog4bYLyz/lYhebeEWq/q3z5UU5vxa0rx0BBzINDwGsOPNUv+SehYxPiX7fE3IZ12LGVw5OCHZucRCZ/dsXF7PsLhclNcX4uvzth/2063ZdvicCiUAicJcIJMG/S7Szr0QgEXjwCHT2aQihFuTugiX3OXBK67N8uLqtCAXvHZlsT6QgtYadJJ499Pz12zMIeyn/7b//j3KMa4mkNwzWknKSFFdCPDo+wcI/Kk8/elEmhIGUvC4pn9PfEvI9X2xw91mW+TVuLNeLcn1xXs7evIHgzsJX3wNlIzGesNzLVB138G+pLikWABL0kGQhUH3bozLKakWMcUeJnaVzqoTdLwHqknYHHk48Svxi4WxqXfQdUrwHOLVPRV2kCJyuM7ZuqYrVki0vsahCwkVCfCEAM63+kxEuOmBp64uLy/L7L/+1fH0GFhD/qrHqiHvMuZv/rqOWERJGHNd+LLarGvZymUsEEoFE4C4RSIJ/l2hnX4lAIvDgEZCgxuUNmtfILaFqILQdyW8owAKtl8DGH9+xXA+J7DJBy2a+xTWHmPeQ0n/8x/9JxBhddPgTfuvVLm830tLR0TjCRj55/lGZHh/jYsOmWkh1+KkjL+Ec0b9Py67Pz8v5u7eEo5yHZXsQ42XskHrpLAbuYKnK97u6IPuSWVJ1sUFIAZl1LBBqncR6b/OmGmXVj71is5uvimxPsmVV3XVGRa3inUwnFl0pX2tbaRRYHKlpeF+qLr9c/AxZRJkMrfnVl1+Ws3dnjJGvG7hB+eXC3yEGFVL7/uPVgTpnk79dXGbN1+K8JwKJQCJwnwgkwb9P9LPvRCAReKAISDG7S8Yn8aNES3JsEu1mHVzQushUebNuMK0HSHGIE64zS1xLzs/Ow3e8UnTJcKXQ3uXWg/ko3GrwNimT4+u9Dz3W+0jIu3lWFr1F59X5Zbk85+sArjqGo5TuhiQysXRQNMZVCX4dVxWKkaJHQsvk4m9t3PUV5V3ezslGG0R9Rqs6aWsj7aTRa2qhPl0qsAaKNlHR3dQRpbuGvLoo4b1TocCN5BcVU1j30agOY/Nf4AI1J+KQn1f6nASs69A+1Ta1v1C/r8pcIpAIJAIfKAJJ8D/QHyaHlQgkAj99BCSFkvrBEFquFV0rvj46LQVrlOBX+tjCOrrBdQrJNLpNnLgK476A4Ac7pm2V5t4RVt1ewpcG3W9evqn+8+S1pNd0wHqR1cVnzeZdiX0cloVFP1R14n4RqAl63bFlq0KdqqKSu+OuL91zV7MrtiK+CHQlh7xe1YblNJmP8Xb9hRuSbegiSH7MuhtgtKg3tYdq3aFg+DuXGUW7qt0cLAsVLIpi4VMFapserk1HZcxpuobr1Mq/Wxsd9Hc7+/6IbkvkeyKQCCQCd49AEvy7xzx7TAQSgYeMAARVwhikUfYHK8YuXDC/46WjhRjyCMttpDMIJzxTNmqZdUNk8CGBfOOH74m16qs8OLjsTfhsbEehJKLFGBFHv/1I0dAXLsSiuGPZjIT+uIc7Sm2gpiFS8caiJFxrLCTV2DWVbkdBlDtu3mrzKO5aR74WOPhOyb60Gw/W8lDAqyLhG1TFq9pOMXXV5l4VRB+t366uhy/RlvBB7/VPfcMvuvC9W2cpLeZx+eVEPLrxIFU7s9Gt8UdRrc17IpAIJAIfHAJJ8D+4nyQHlAgkAj95BBrxbBOBDUpOKym08jY9rJS0o5PRSgkJr5b/EMdC3bJN7e7Z9Vc1Vy22j0WEi4NGVHcNqu5qkqdQU3U06LriJTguZaHNOpI2clPcvXWV3Xoh6rzVEexeyShc2x6WKhljjIkqAetuYiipeqpMFLeb8lHPrfv0YJVWd8NjClS0DXnKQzxKavcUtLdoR7+V4FMtyDEIJapUVcO9ZqqOuFOviB28X3kgl9lEIBFIBO4WgST4d4t39pYIJAKPBgGjwkBOcX/RDWVLFB1ddOSf4QteuWPwwpbdGY7B6AY5pyIoZEcwlW9tdgogmZVmcqcy6iWeQYB5i2IlaorFQhBTqvS9wcger4p2pDnaqEjLOI967xRY2dRZSb7VW2xRpGgPcafDJt6qDqS6oiZxQwN1O2235Hxtdbaxj/a+r4lG3U5hMZbMN7EYVcNBwfiBqEZO1Ju2KkI7u2mlVoKddYFhp0eJTIlAIpAI3CcCSfDvE/3sOxFIBB4oAsSMN+76alGWXHM2svb7HrREhBbdb4IlNup4G4KOTDdSb3UjlZ2bjkW71mRasWI3aHQn5KNZyg/bRfgdldnwoL8WMjOKuW3X3ZgsaCks3YfjQHNX39o10dAdg2glSCgUgvW5I9DdAJtLjS1ccEi4W9rtLYiyrgIF/olhUaTqSAd9xCJjV1GrY2Yqp7y2Jd+p7B5N8ECpRbU22h/qPMzXlnlPBBKBRODOEUiCf+eQZ4eJQCLwGBAIK/GNiUoIpYPYhc3GbU8TK8Os5R4atSOXEsbdC/kuHRZ1/DTEDsub7O55u3LHmisrbdXt2breiXWkvupjjE3QAvM2CFVQ7VZZVVfZJk9ZTB99MVPKg+B3bVyMtEWLqjW+H773WHCYVN1UmhPz9r7rPyS/5daErT4YZ836Bab1UJdN8ZtS1Mbsk8j6hBllIceG6CV7H3an635Ll1mcCCQCicBdIJAE/y5Qzj4SgUTg0SDgptU+EXAGHAI14uCp0WhcRsS1rzHw3cRpJJ1giUFG69FOjWlWQinP9Qpjf0OuK5OIBhlu5TzxAvrT0mG336ihE+iId6PUUUpZjHPXjtJuYHVx07V1SqRQcaCnikLIu7IQIx8RgZBvcfmjMZW7905tK69EvnYSOnWHsr8QqJnWbUhV0VYbz6jn1trsnmxwbonjwbpJWGIftZc1i7GVX2u4NhtOyj389NAa5zMRSAQSgTtGIAn+HQOe3SUCicDDRkAiPx6Py/Pnz8v/9he/CKvy06dPgvRLfN0IuuOYEtqAo1FKOKQF8cpNxtoJa9VvqRLo9nbAO/dFPzDX6d49Wl/1KQmPXAyWXFcdQ6rsuBVFvw57T5cPh7KbeRRWvepDurti30Lo7NpFX129RV3ftdZebF8rbFb3PKjSNg3d2j7aWB6gdop4N2Smb7Y/TKGLmlreLT5sHwW2oQFnCih3xMm4k/GEw8jG/MZEBmKhlykRSAQSgftCIAn+fSGf/SYCicCDREDL/RHx1L/44vPyX//P/1r+6q/+Y7m6utxbtxtj72Z/g1PuGCal/g2TdCd4QPBb9Jtd28pjvxXPm7T6QKwRcUmrxfvbgZDE14qOCLdxqJTiIORmO8u5ZZ3jzU5Hbb177TLROCzeQcYl2Y6jXSGFTNe4ri1sY4WF3v//9u7sx4oiiuN4I5vOjAwuoLIoGtAHNTH65p/vK8EHNca4izsguCKjgvan7j13ei4zOvGhyfT9lenbS506derbifxOdXXPfODM+nb9HHr7I15Gc68t4xn4M4ayG86y66+9CE3AM9GG937xTT+BP3tB2kIcvmf+7s6zsGbbX7u9dacX98e6zc3N7szZM936+lqf5B3lJCUEQiAEHgiBCPwHgj2dhkAITJWA2fXDh490a2tr3alTp7v1jfVua2urHy5FPJTaTUVuY2inO6/tOBuezN0sLi0Ott0Nj4a9Dq9XOE1Ut4reEV/bu7n57MK9pnhnJs2uvfw6E71NHM+U8bbA56sv891iP7vWX+2FtSUtrf+BwK/+twNpUnomvJuzmcfZ1dZF8+HF5oVYb/50Xm37Nv1x+wNX/VvE81B7+9m1WWLRX2//zdrdNTuvvXb9ch1Jg4TGOvuKTQJwpxf4lmJtbGx0myc2e3F/vD2xmUWW3xAIgRAYn0C/fLH+Nzd+5+kxBEIgBKZMwLrsmUAcjHIgUNvVofqe6daB8R6HA7t2OPSxR5N/MyFqF8Xh/J+FdjioaJd3+SfDpTbO8rNkU95rTxxv+2qNW8v2z9HcaGg7cztvsxyPgfXOKsFoY+nPd/rSRzOb2/I+66HZ9cct/tmlWWz9tcVyobm/Nps/76vC0M5fBPbehXctLM3a7JdkHen/GrEtJQRCIAQeBIEI/AdBPX2GQAisBIG5XpwrywM05BK694W8GNH9NTuqdpzcZ1sXFla9SP6vsrvJznbtbHfDhftZ9c52KmdCf2HWDpb9bbve2V7b9n5F//SGqLdMq853esxZCIRACIxDIAJ/HM7pJQRCIARCIARCIARCIARGIZDX/EfBnE5CIARCIARCIARCIARCYBwCEfjjcE4vIRACIRACIRACIRACITAKgQj8UTCnkxAIgRAIgRAIgRAIgRAYh0AE/jic00sIhEAIhEAIhEAIhEAIjEIgAn8UzOkkBEIgBEIgBEIgBEIgBMYhEIE/Duf0EgIhEAIhEAIhEAIhEAKjEIjAHwVzOgmBEAiBEAiBEAiBEAiBcQhE4I/DOb2EQAiEQAiEQAiEQAiEwCgEIvBHwZxOQiAEQiAEQiAEQiAEQmAcAhH443BOLyEQAiEQAiEQAiEQAiEwCoEI/FEwp5MQCIEQCIEQCIEQCIEQGIdABP44nNNLCIRACIRACIRACIRACIxCIAJ/FMzpJARCIARCIARCIARCIATGIRCBPw7n9BICIRACIRACIRACIRACoxCIwB8FczoJgRAIgRAIgRAIgRAIgXEIROCPwzm9hEAIhEAIhEAIhEAIhMAoBCLwR8GcTkIgBEIgBEIgBEIgBEJgHAIR+ONwTi8hEAIhEAIhEAIhEAIhMAqBI6P0kk5CIARCIARGIXDv3r3u77//XvR1+PDhxfF+Du7evdvaP/TQQ51tuagflkOHDnW1Vb9iqKJuNz9VX/tq61ybfyvlfz9+/81P6kIgBEJgqgQi8Kd6ZzOuEAiBlSFAHP/5558d4bu1tdUNRfrDDz/cHTlypCP0dxPE2rLX3v6PP/5oAv/o0aNdbdqW6K5+yq7EPd+VXNg71+7YsWPd8ePHd70XFXf1z5dYbfoeFjb86t9WtvwP4xu2qWNt9TWMteqyD4EQCIEpEojAn+JdzZhCIARWisBff/3V3bp1q/v999+777//vglggpbwffLJJ7uTJ092jz76aEfsE7lV2Gj722+/ddevX+/u3LnT/fTTT636kUceaW1OnTrVbWxsNNHN/ueff279/PDDD23PHzFvKyFNiOtrbW2t9f/444/vKsLZ37x5s/v111/bnrA/ceJEt7m52WnDZ8Urobh9+3Z37dq1FoM6duJbX19viUSNq/b827QTEx4SB3GlhEAIhMCUCUTgT/nuZmwhEAKTJkC8Er5Xr17t3n///SaSP//884XQJoKffvrp7uzZs90zzzzTXbx4sYl14l0h5n/88cfus88+6z744IMm9CUKCtEsMbh06dKiHaH/zTffdMT9u+++2924caOJZ08NSkDrk//Tp0+37dVXX22C2jUCW6mZ+G+//bZ77733ms+PP/64tTt37lz37LPPdq+99lpLMLSTeIhR3/r97rvvWsJhbG+88UZ3/vz51tfwSYFk5IsvvliMj7Bnb2NfiUMLKD8hEAIhMDECEfgTu6EZTgiEwGoQIJIJa7PvZrUJ9V9++WWxfp6Atak3S16z+QS4ZS3as9fOVkt7zKIrBDJhTfAT9JbFEMl88sHOcT0BUG/Wnm/JgXp9slku+paY6FeSYQa//HsK4SmBa3zpU2xsxWI8EhvFMVt7NgS+OrG7JhEQ+5dfftmeDEhQxKt+t7iW48x5CIRACBxUAhH4B/XOJe4QCIGVJkB8E7Bmtd9+++02k060vvjii20mnAgndolby3Zq1vvChQtNfGtv1lxyoM6yFTP2lsgohDaRrD2xbYmPWXX1hDeRbHmMpwdsJBGWzLATgzq2jz322CIZqBvGt9l/Tw0sDSLuPWXgVxGvcUkEbGw8mdBG0mCGXyHq2UkmJAJm+13j/8MPP+zeeuut1uarr75qTyLEc+bMmdY2PyEQAiEwZQIR+FO+uxlbCITAJAkQ1wQ1cf3JJ580EUu4W2//5ptvtpl0QpjdO++80wQ4ceycsDdrbnnMp59+2kQ84Uu8E+iWsChmzAnty5cvN1vHRLslN5bf6I+Q/uijj5pQJ7RfeOGFtnb+9ddfb2JbDLZ6KsCvGErgE95E+VNPPdW9/PLLTcwb09dff92SDvbEP4Fv9l5bycMrr7zSZuIt22Gv3uy9+Ky3l5DwXev1JQkSALFk5h7VlBAIgakTiMCf+h3O+EIgBCZHwDITS1OIXmLdrLmZacLbLHwtnyGIrb0nbr20qq7WtBPsZugViQE7S2vqBVRPAGxEs2SC0NafGXL+2Kpnz6flOfbO1ZmNV79cxFQvzPIluWAvdueW1BDikgBCXV/i1M642ItJPGyJd7Zs+GVHxLPzVMBe3OLil31KCIRACEydQAT+1O9wxhcCITApAgSspTcEvjX0xC1xbiPUCWL1hKw90U0QWypDdBPG2hHHBHWJ66ovWGbEJQSEdy3TqfXuJbTL1n6/M+MVvySlZtYrMZAQiJEQF6enDWbkCXf+jY2tTQxEO39scTBednx4KmB8kgRPKyLwh3crxyEQAlMnEIE/9Tuc8YVACEyKAEFLuNaMNUFL2NsIcvVm9YlxwpaYJ3iJYjZEM9FLOBPSZt7NchPXQ5Hu2DV1nhDwW4K7vlZDoNdGXBPttRHjuxX2fPFPdNvq5VxCXTtb2ZVoF79+2YqbDyLf2PhyLl52zsWszuy9sapX+E0JgRAIgakTiMCf+h3O+EIgBCZFgFC11Qw4MUvIDoUxAW9duvX51saXkLeMh1350FadzfFyqXrCWSGOCe4SyeVnt/2yrzovW+f8822r6/aKvX6qL7YV4/B6M57bq8eC8JcISB5K3A/jrjbZh0AIhMBUCUTgT/XOZlwhEAKTJjAUvMtiuM4tbTGD77wSAEtyzIRrT1jbq9+rENPqbdWmBP9ebfZ7vfyWb+3q2rKPva5Xm7KXrFR8w/FpnxICIRACq0Lg/jegVmXkGWcIhEAIHEACRKtZ6lqCQoB7YdZSFGKewPW99yeeeKJ9TtIaem18FcdnMX0S0/IeS1nMateSnZopHyJxjU+bmfBaIqP//1tKgPMtAbEsx7EYbYR4LfORULAvW/Zlq86x9nvNzqsr//833rQLgRAIgYNIIDP4B/GuJeYQCIGVJUDYEtoEvBdj63OZvpJDiNtbmkKEWz/v2FIdn5Mk7C1dqS/teDGVaPZJSS+lSgx8KlNRx7dPVlrPT3RXn54CKAR2bfudISfiPU2otfT8SjIqifB+AcEuAdGPRIaNdvpiW3EbT/EwTktznFcR0zC+/cZY7bMPgRAIgYNKIAL/oN65xB0CIbDSBAhggtxGgNsIZ9+7V4jZmsGuGW4CWHJADBPYfNSXZrQjnIlpxYy9pwJEtFn0ejKgD8dVhiKamN6PiNZeAiIG/XlnwFOIikW84hSfWIl6Ap+tcfq+vbE5VsrXMC7XKxb72obXHaeEQAiEwBQJROBP8a5mTCEQApMmQMiavT9//nwTvkS4l2mJZEtxiGM2Nte9cEsM+1ymL+nU9+EJasKeYL5y5UpLEMyYK7V0xyy+WX1PAy70f9xKQiFRUIhmop4gJ7grkShh3YyWfsywE+7i8NRAbL7640mBOv7sxerTn54a6M84xOIv1HrioA8JiXj48gKxhEEiUKViq6Sl4qv67EMgBEJgqgQi8Kd6ZzOuEAiBSROwfIWoJcgJectwzITbl8C2J7zNcBPTL730UluXTzhrR/BKFAhqApot8ay4ZrZeu4sXL7ZlPY5dU6foVxwEtr6IcYnA8lKZZjz4IfDZXrp0qc3KSzAsIRInYa8fyQsbcerPuf68RyCRIeQlHpIVdf4CbyUe1ZXZf/F4D0GxNEkSUPGXXfYhEAIhMDUCEfhTu6MZTwiEwEoQIFLN1BO6zz//fBuzWXoC3bp64p3oJnIJW0L+Qj8D79g1Ytl6fYLdTDc/luWYTeebCCeuiedz5841Ia+/oTjmg4CWaBD6BLn9fwl87QhtiYa194S9wj9xT6yLTQxsxeuaY08dnItXMiA2CYZrw9j4c83YnnvuOaeNQSUM7UJ+QiAEQmCiBCLwJ3pjM6wQCIHpEyCkbYQycUss2xPqlqUQ+GavCWHi2549caxY3kJUE/lKfT+fD8KdyCbwKxFYFtD88OG6BIKg5osQX7ZtHcx/tNNv+ZcUOLeJkWAnxMtPXZcISFzM3KtjZ+xiZbNchvGok1RkBn+ZUs5DIASmSOBQ/w9APg48xTubMYVACKwUAYKe+CXSLbUxc62YBbcRwHuJbv8MaMeHtfcKMW0rAd8uLv1op5/aE+76IL73W8zIi7depBWnfivpKD/6MD7Jizb6YSs5qISlbGuvTbVzTRu2e9lXu+xDIARC4KATiMA/6Hcw8YdACITAgEDN3NelmgXfS9yX3VCou1Zifb9imJD+rz6qr+G+RLj+tS8RPrQZHrPbr+2wXY5DIARCYJUIROCv0t3OWEMgBEIgBEIgBEIgBCZPYPt7YpMfagYYAiEQAiEQAiEQAiEQAtMnEIE//XucEYZACIRACIRACIRACKwQgQj8FbrZGWoIhEAIhEAIhEAIhMD0CUTgT/8eZ4QhEAIhEAIhEAIhEAIrRCACf4VudoYaAiEQAiEQAiEQAiEwfQIR+NO/xxlhCIRACIRACIRACITAChGIwF+hm52hhkAIhEAIhEAIhEAITJ/AP1MTXQhbaKbZAAAAAElFTkSuQmCC;" parent="1" vertex="1">
          <mxGeometry width="378.6" height="270" as="geometry" />
        </mxCell>
        <mxCell id="b2_v_rB7HseoIvOAP7tp-2" value="" style="endArrow=none;html=1;rounded=0;strokeWidth=3;curved=0;flowAnimation=0;strokeOpacity=50;fillOpacity=50;fillColor=#cce5ff;strokeColor=#3a88fe;entryX=1;entryY=0.5;entryDx=0;entryDy=0;" parent="1" target="b2_v_rB7HseoIvOAP7tp-16" edge="1">
          <mxGeometry width="50" height="50" relative="1" as="geometry">
            <mxPoint x="233" y="42" as="sourcePoint" />
            <mxPoint x="610" y="40" as="targetPoint" />
            <Array as="points">
              <mxPoint x="436" y="40" />
            </Array>
          </mxGeometry>
        </mxCell>
        <mxCell id="b2_v_rB7HseoIvOAP7tp-15" value="DAC connection" style="edgeLabel;html=1;align=center;verticalAlign=middle;resizable=0;points=[];" parent="b2_v_rB7HseoIvOAP7tp-2" vertex="1" connectable="0">
          <mxGeometry x="0.843" y="4" relative="1" as="geometry">
            <mxPoint x="47" y="-93" as="offset" />
          </mxGeometry>
        </mxCell>
        <mxCell id="b2_v_rB7HseoIvOAP7tp-4" value="" style="shape=image;verticalLabelPosition=bottom;labelBackgroundColor=default;verticalAlign=top;aspect=fixed;imageAspect=0;image=data:image/png,iVBORw0KGgoAAAANSUhEUgAAAHIAAACHCAYAAADKgg3XAAAK2GlDQ1BJQ0MgUHJvZmlsZQAASImVlwdUk1kWx9/3pYeEkkAEpITekU4AKaGHIkgHUQlJSEKJISGoiA0ZHMGxICICNnRERMHREZCxIBYsDIK9T5BBQV0HCzZU9gssYWb27O7Ze87L+52b++679+V93/kHAHIoWyzOhtUByBHlSWJC/OlJySl03BCAAAwIwA7YsTlSMTM6OgIgNjX/1d7fRqIRu2GnyPXv3/9Xo3B5Ug4AUCrC6VwpJwfhDmQ854gleQCgDiF+k8V5YgX3IqwpQQpE+HcF8yf5o4LTJxhNmoiJiwlAmA4AnsRmS/gAkGwRPz2fw0fykBQ9OIi4QhHChQj7cARsLsInEbbNyVmk4CGELZF4MQBk5HQAI/1POfl/yZ+uzM9m85U82deE4QOFUnE2e+n/eTT/23KyZVN7mCODJJCExij2Q87vbtaicCWL0udETbGQO1mTggWy0Pgp5kgDUqaYyw4MV67NnhMxxRnCYJYyTx4rbop50qDYKZYsilHulSEJYE4xWzKxLxFhuSwrXukX8FjK/AWCuMQpzhcmzJliaVZs+HRMgNIvkcUo6+eJQvyn9w1W9p4j/VO/QpZybZ4gLlTZO3u6fp6IOZ1TmqSsjcsLDJqOiVfGi/P8lXuJs6OV8bzsEKVfmh+rXJuHXM7ptdHKM8xkh0VPMRCCSMAGHLraFAGQx1uSp2gkYJF4qUTIF+TRmcjTxqOzRBx7W7qTg5MLAIpnd/I6vKVNPJMQ7cq0L7cDAI9SxMmf9rFNADjxFADq+2mfyRvkKm0C4FQvRybJn/ShFR8Y5NdTA5pABxgAE2CJvB2cgBvwAn4gCISBKBAHksECpFYByAESsBgUgtWgBJSBTWArqAa7wF5wABwGR0ErOAnOgovgKugFt8ADIAeD4AUYAe/BGARBOIgMUSEdyBAyg2wgJ4gB+UBBUAQUAyVDaRAfEkEyqBBaA5VB5VA1tAdqgH6CTkBnoctQH3QP6oeGoTfQZxgFk2BNWB82h2fBDJgJh8Nx8HyYD+fCBXAxvAGuguvgQ3ALfBa+Ct+C5fALeBQFUCooGsoIZYdioAJQUagUVAZKglqBKkVVoupQTah2VBfqBkqOeon6hMaiqWg62g7thQ5Fx6M56Fz0CvR6dDX6ALoFfR59A92PHkF/w5AxehgbjCeGhUnC8DGLMSWYSsx+zHHMBcwtzCDmPRaLpWEtsO7YUGwyNhO7DLseuwPbjO3A9mEHsKM4HE4HZ4PzxkXh2Lg8XAluO+4Q7gzuOm4Q9xGvgjfEO+GD8Sl4Eb4IX4k/iD+Nv45/hh8jqBPMCJ6EKAKXsJSwkbCP0E64RhgkjBE1iBZEb2IcMZO4mlhFbCJeID4kvlVRUTFW8VCZqyJUWaVSpXJE5ZJKv8onEoVkTQogpZJkpA2kelIH6R7pLZlMNif7kVPIeeQN5AbyOfJj8kdVqqq9KkuVq7pStUa1RfW66is1gpqZGlNtgVqBWqXaMbVrai/VCerm6gHqbPUV6jXqJ9TvqI9qUDUcNaI0cjTWaxzUuKwxRMFRzClBFC6lmLKXco4yQEVRTagBVA51DXUf9QJ1UBOraaHJ0szULNM8rNmjOaJF0XLRStBaolWjdUpLTkPRzGksWjZtI+0o7Tbt8wz9GcwZvBnrZjTNuD7jg/ZMbT9tnnapdrP2Le3POnSdIJ0snc06rTqPdNG61rpzdRfr7tS9oPtypuZMr5mcmaUzj868rwfrWevF6C3T26vXrTeqb6Afoi/W365/Tv+lAc3AzyDToMLgtMGwIdXQx1BoWGF4xvA5XYvOpGfTq+jn6SNGekahRjKjPUY9RmPGFsbxxkXGzcaPTIgmDJMMkwqTTpMRU0PTSNNC00bT+2YEM4aZwGybWZfZB3ML80Tzteat5kMW2hYsiwKLRouHlmRLX8tcyzrLm1ZYK4ZVltUOq15r2NrVWmBdY33NBrZxsxHa7LDps8XYetiKbOts79iR7Jh2+XaNdv32NPsI+yL7VvtXs0xnpczaPKtr1jcHV4dsh30ODxwpjmGORY7tjm+crJ04TjVON53JzsHOK53bnF+72LjwXHa63HWluka6rnXtdP3q5u4mcWtyG3Y3dU9zr3W/w9BkRDPWMy55YDz8PVZ6nPT45Onmmed51PMPLzuvLK+DXkOzLWbzZu+bPeBt7M323uMt96H7pPns9pH7Gvmyfet8n/iZ+HH99vs9Y1oxM5mHmK/8Hfwl/sf9PwR4BiwP6AhEBYYElgb2BFGC4oOqgx4HGwfzgxuDR0JcQ5aFdIRiQsNDN4feYemzOKwG1kiYe9jysPPhpPDY8OrwJxHWEZKI9kg4MixyS+TDOWZzRHNao0AUK2pL1KNoi+jc6F/mYudGz62Z+zTGMaYwpiuWGrsw9mDs+zj/uI1xD+It42XxnQlqCakJDQkfEgMTyxPlSbOSliddTdZNFia3peBSElL2p4zOC5q3dd5gqmtqSert+Rbzl8y/vEB3QfaCUwvVFrIXHkvDpCWmHUz7wo5i17FH01nptekjnADONs4Lrh+3gjvM8+aV855leGeUZwzxvflb+MMCX0Gl4KUwQFgtfJ0Zmrkr80NWVFZ91nh2YnZzDj4nLeeEiCLKEp1fZLBoyaI+sY24RCzP9czdmjsiCZfsl0LS+dK2PE1EJHXLLGXfyfrzffJr8j8uTlh8bInGEtGS7qXWS9ctfVYQXPDjMvQyzrLOQqPC1YX9y5nL96yAVqSv6FxpsrJ45eCqkFUHVhNXZ63+tcihqLzo3ZrENe3F+sWrige+C/musUS1RFJyZ63X2l3fo78Xft+zznnd9nXfSrmlV8ocyirLvqznrL/yg+MPVT+Mb8jY0LPRbePOTdhNok23N/tuPlCuUV5QPrAlcktLBb2itOLd1oVbL1e6VO7aRtwm2yaviqhq2266fdP2L9WC6ls1/jXNtXq162o/7ODuuL7Tb2fTLv1dZbs+7xbuvrsnZE9LnXld5V7s3vy9T/cl7Ov6kfFjw37d/WX7v9aL6uUHYg6cb3BvaDiod3BjI9woaxw+lHqo93Dg4bYmu6Y9zbTmsiPgiOzI85/Sfrp9NPxo5zHGsaafzX6uPU49XtoCtSxtGWkVtMrbktv6ToSd6Gz3aj/+i/0v9SeNTtac0jq18TTxdPHp8TMFZ0Y7xB0vz/LPDnQu7HxwLunczfNzz/dcCL9w6WLwxXNdzK4zl7wvnbzsefnEFcaV1qtuV1u6XbuP/+r66/Eet56Wa+7X2no9etv7Zvedvu57/eyNwBsXb7JuXr0151bf7fjbd++k3pHf5d4dupd97/X9/PtjD1Y9xDwsfaT+qPKx3uO636x+a5a7yU/1B/Z3P4l98mCAM/Did+nvXwaLn5KfVj4zfNYw5DR0cjh4uPf5vOeDL8Qvxl6W/EPjH7WvLF/9/IffH90jSSODryWvx9+sf6vztv6dy7vO0ejRx+9z3o99KP2o8/HAJ8anrs+Jn5+NLf6C+1L11epr+7fwbw/Hc8bHxWwJe0IKoJABZ2QA8KYe0cbJiHZAdDlx3qS2njBo8v/ABIH/xJP6e8LcAKj3AyB+FQARiEbZiQwzhEnIrJBEcX4AdnZWjn+ZNMPZaTIXCVGWmI/j42/1AcC1A/BVMj4+tmN8/Os+pNh7AHTkTmp6hWERLb+boqBugxXg7zap9//U499noKjABfx9/ideLhfkonZsxwAAAFZlWElmTU0AKgAAAAgAAYdpAAQAAAABAAAAGgAAAAAAA5KGAAcAAAASAAAARKACAAQAAAABAAAAcqADAAQAAAABAAAAhwAAAABBU0NJSQAAAFNjcmVlbnNob3R0d8pJAAAB1mlUWHRYTUw6Y29tLmFkb2JlLnhtcAAAAAAAPHg6eG1wbWV0YSB4bWxuczp4PSJhZG9iZTpuczptZXRhLyIgeDp4bXB0az0iWE1QIENvcmUgNi4wLjAiPgogICA8cmRmOlJERiB4bWxuczpyZGY9Imh0dHA6Ly93d3cudzMub3JnLzE5OTkvMDIvMjItcmRmLXN5bnRheC1ucyMiPgogICAgICA8cmRmOkRlc2NyaXB0aW9uIHJkZjphYm91dD0iIgogICAgICAgICAgICB4bWxuczpleGlmPSJodHRwOi8vbnMuYWRvYmUuY29tL2V4aWYvMS4wLyI+CiAgICAgICAgIDxleGlmOlBpeGVsWURpbWVuc2lvbj4xMzU8L2V4aWY6UGl4ZWxZRGltZW5zaW9uPgogICAgICAgICA8ZXhpZjpQaXhlbFhEaW1lbnNpb24+MTE0PC9leGlmOlBpeGVsWERpbWVuc2lvbj4KICAgICAgICAgPGV4aWY6VXNlckNvbW1lbnQ+U2NyZWVuc2hvdDwvZXhpZjpVc2VyQ29tbWVudD4KICAgICAgPC9yZGY6RGVzY3JpcHRpb24+CiAgIDwvcmRmOlJERj4KPC94OnhtcG1ldGE+CgkVGYEAADEhSURBVHgB7d3VkmS5tYDhbHvMzGzXmJkZ2+wwPYIv/RC+Oq/jcITDDjOPmZm5zcyMc/LT6b+s3pNVmV1Z3WfGM4pQSlpavLQk7Z3Z1WeuXpfVDeU674ErdrFgW6zPnDmzC5vrLc7l8N+Nrrfe/S8z/IZA/pcEdKetdZut27aObfQ3zO/vgRsycn8fXis43BDIa0UY9lfihq11fx9u5XA5bvU3ZOTWMFw3EM78+9//vnpeMbtcXJY4y/F1w/TT03L23+lx/Q+nXfhfsLXOAamvvdGNbrSax0TMY/PHlfViOW568D8W4Vo+uc3R2+zfZt42/ugPA1lgAOvXblKkuRlf//pYZl/8f9k/ttalcIodpdymoC7pr2/jbTvSvv64qIxM2DKIy3F4pxnQS+2IdL5U7VGL/lLJ28T3GltrSi3biDcFcBMs/OtDe6kX4s4ZuQzapnGwAjMHbzkXTu0uioR7XWyvDfZfIyNz5Kzcsj+P4S/H8ajdFsht9PG5rrbb7N9m1y7+GYGcs2vuJ2BmVH/ZhrupDXfTHNi//vWv1Y1vfOMxDZfhGd/Y9gUWr/pol2WmNxeN/szX+LpQZv036Wv+Ch9z8CKqRbipP8M2Mb8YWM6d2/rxEUgy//73v4/2Jje5yXj+7HxKH3TB0AaPj3mwcIxn+8O7NrVLG5a6mT/cWpeTl3N8s5vdbPXPf/7z0MGzczlctpr/29/+tjp37tzqD3/4w+rud7/76h73uMfqH//4x+oWt7jFCExBqmXgHDQ2zWN44V5Oey+FrFMJJGccV7bN53CZIXDaHH7FFVeMIP7+979fffGLX1x99KMfXf36179e3fWud109/OEPX93mNrcZ7c1vfvOhgqCirSR72c444V5b2226mj+zPmOuttorEdWCb+rPsJwUj2XbNraEN5556eMnC8vEH/3oR6tPfOITqw996EOrr3/96yMjb3rTm67ufOc7r+5whzusHvawh63uda97re53v/utHvSgBw3YX//615Xtt7OXLHzxd66mcwsnXS5Fm6yT8t629Zu/VgSSYzmdk8vKHGwrfetb37r6+Mc/PrbVP//5zytBtKUq8GXhPe95z9V973vf1QMe8IDVlVdeOTL2IQ95yOp2t7vdwBXQAomGLDLAN12YTur0S0FH3+OK+VMJ5LaM27YiCySncrAg/eUvf1l95StfWV111VUjG3/729+uVEXQKY8O/i1vecuVLdhFSFDvcpe7rO5///uPLfeOd7zj6tGPfvTqtre97erWt771YbajUwruGFyij2SdlP22hYb/ZQnktkCPFbXe9gRI+clPfrL62Mc+Ns5DZ2JBY5Agz5nECBmqwGtOYAX1Vre61eqRj3zk6j73uc8IrO3X+eqCJYho9nX0EH7Mx778twVy+G99Pl49Iya0ln5H9dN9W6DQwykzjec+PuZtm7/85S9X73znO1fvec97Vr/4xS/GeM6aggWGZqkb2LyNxleW2nIf+MAHji34wQ9+8Ojf6U53GnItBnTKJv3AlvB0GEQTHR3nkq0zbFN/tsV84zk+0TXX+Mx6hV89Cw6hFuI8H+HcctZxhSGUmQ3Hk+MKhsvJpz71qXEWvutd7xpB7JEkB5MRr+hlnn76mp/76QWWfJck5+lDH/rQcaYKqkcZQbU92xnSK145c4bjp9IPXjKimWXXP66NbtnO/l/O4Tf0uByBZKgtUdEnmGM4TCB+85vfjK30DW94w3jE+N3vfncYeIpzngofrefJzkO3VnB4Ag9uPnmz4WiVLktkC57HGFuu9t73vvfYhm9/+9sPPvHOmcNpaz7Jww9O8y265MJvDu5xJZplO9Mv5+J3WTJSEOaSsS40HP/6179+9eEPf3j1mc985jAA8FOaM/Q53hbpvJNBguisw8+8QAqgLfrnP//56qc//el45vzTn/60kvEc0qKAb4ynwLsMCabbrwz1GHNwcDAyFg2cgtqCQG9BWhhlbLblfLT1Zx9s6mfvsp3pl3PxuSyBJCxnM4zzOPc73/nO6r3vfe/qTW9603C4oFI0RwlMjncL9TjhouKRQsa4zJgXPIuCszNa4Lw4kN3f+973RmC9ERLkeMIlqypQdPCSwdZLpjNV9SZJoMtmuIoA4qelOzvxi7cxO3YpyyA1ziY8gtXG97IEkiI5L2Vk3zve8Y5ROU9gC3Y4nCPjHvGIR4wguqzgZSsWEH1BRCeIgslANIJswZBrDv/vf//7q29/+9sDDxwup+trc44ggdHLo41br0DaeulQ5pal9EAvYHRBq1bK1sZHtclftvhXlnPgYJctkJzD6YwXxNe97nWrL3zhC+PZkMM5rUByAuONOe35z3/+GMsuz5IcVkbgmdPKBIblTDwE1tkn+O9+97tXP/7xj8ciMIdmpjt0zPkAG1sUMtx5asuVrZ2nslawvSKkc3LxjNcciAE84mMZpMYzfbBarMyfyrvWI/Q6BOcwQZCFH/jAB8YzYgEQGMoUHEpyim3sOc95zgioLPRoInCchAY9nIzSxpNw4xbPz372s8Pt0oKQoeHnKLQFgwzzqgWgkP/HP/5xXMy8Ejw4f4baem37zlfPrWgqcz/YpWivYMRSmPESdpxwPFqBZZIs42xwzvbC+/3vf//heQgPnTnZyIlqssG9ifFWxsuBX/3qVyMoskOGKbIbvgsQ2mW2tguQ5fIjux/zmMeMs9k2TL6qpL9Fp6SLPhkFVmYqFoZ3wF4dunzZcr0e7I2SQLOrl/nxzVfZiVey9U9axveREWOuLNvmj2pn/BSknMohH/zgB8dDvtYFhDECrcDXz1E5VrA4Ix7h2MYE2LyskiFwBI0scy5DnV8yUoBdYPBoXmCVFt4YTB/pESgbG+OraF3avvvd745dxmI5WGeqc53+tmI3bIu6BSio+OO5lBP/i21PZWulGKU4VNEy0Ir0iu21r33tMFZWcdwcRM5XMsp8MA/utjM3VfOyYQ4sPgLoK66cw1mCreCjGnvnGg6+P/zhDw+314G8x0d2y/JvfOMbY/exiwios1lQBVhQLbLwBbH+HuIH6akEsvOK0ziWQaqLhUeLboqCUZBIZwRjwPTNVwRJAPGxdQqGV3aysO0KruAY0wGNimfbujMLH4FUnHcCCc+iOY2S3trOXs+wLlVgMtLlyNdt2qc+9anjLG3Rzj45qT6nEshWFYU46gc/+MEIoouNs0RmKuYZlgP1C6Z5fYFRBMfZY0sUlIP16i5D8bNFkyUgVrvzynYqiG1h5volgTMXPhnpkfwhcI8PMvGil1o/Ob4EcARY0PqPf/zjr3Ep2kP8ID2VQMrCDOj58Kr1109gnKtklCBy5uxQjgjGCcZoXWy8cVFklr4qS7WChJ8bo4DLBgvBAlAsBpkoiC0eWz56Muh0GmW5I7VA2KRPD7bwk8Wlrz1NHU4lkAyx2p0LtlItx3EUx+ozSM15DDE2VxA5tTG8bogyEQ4a2yQcFwkBstIFsa2T08pimdmi6Hy1sOiLlkNbaPsElF4KnQWLTPoaa1uAZNKzeTTm+WHfciqBdCGxjfrqyWNGylFQIDluNmxWOiPMt0IZfrDeStHJIIHjLNVZ2QLgqAIoYwWOs+Ch41QBFKxez+lbBGhtz+fWv0DoJj3rddI+vqpCH7pYWG7L9KY/3fSz/aSyZroRyBjWQpgFcbLKoZSkHKfLBmegby0E0RgdXAUOpaOfeeJjLNDwFHxlSd8VCgSZeCjwjNuiZJ8+/vig1+ILtyC61doxBBG9DPd2xryzVTC9cHDjRJ+j6Qg/m7ID73TOVvrBU9C1nbJHH0x1cYsm2xsP4mM+8E8GtLk/niNnQP1aBJQmVOEshRO+/OUvr97ylreMi43sKfPMw8NDZUAlGJ6zY6xUDna+CaSstKLhoIk/uXRR9QumsaCSBd8Zi0YLTyso5GrxToZbpUXozYxHpG9961sDX0BVvJc2ZI92nqMv3gIoE/XTn9wWW3QtiJnfso9+LvO4/k5bK2SVQQzzGOBS8773vW9kojlOS6kyJgPNoVWVVjk6hjPa2ffYxz52OFNQ0SQX32jhozevCgB5akGFg6ZgGita1fZrHi1bbLXeynjr41d6dPnsZz87dhs2kB3PbDTOPjBjeGyhv62UTmBeCcJhjxu9duYzlNvxgxwFD6XxToG0iiiN2PW596V+HOWtCYVzPMYpmQPMKXio4eoz+mB9HtrqtBzhVmnBKGRmOH5qRsSfzGCD6DydgM+LBs6sKzkqetlpTnbKoq997WuHwclZ6FXjYOnIFnTdri0Wsm3ntm26Wmj6aM0pfNUuNwAbPuAv7Vui7RRIRBRl9Je+9KXVG9/4xvGlrS2LwuZSTl+dnWycEwRRkBgtiN5NeuPRpcWcCp+Rcx9PJSfGc96ugrWY4OuDKzkUD46VOeywIOnkLPUwz9ZKtMZL2eYsALR4tZ2y0+NQz64WqCCrghif2mRtamcc8oxV/XTbKZCcKRi2Ku8VGYoBR6j6nEX5gpjTzYERzADVnJXfGw9fEpsvaLOiZOIdvTZ++MzyzClk4qXSSVboK+mFjvM52GKEp5xbX3y8CHcTF0z4ApVcvFUFD8VrN3xUuGTZtrtk3e1udxsBtuDgsCfadB6MjvmY8ZI/w3YKZEHCoC2BQhkfjBEKAXDRqW0djQW/X4e7YDijrFzbNp7wo9MXCC2eqj5ZcDhEq+T08NJPxnEuvIzXoqWLgMpIlxzPwN/85jcPt0N8CyQalb3R8oNAwiGfHAEkkx4yFI45NBamhWNOyYYx2PGDDtHrKzsFkuMqjG47xcwcZhTNwIylZLAMyfHeyugLIGdygDHecPEmi4MEJIPNVTIIrmoOPZn4oZNVzWvRZI+xwvGy8JOf/OT4FQE6suHSSalPD3TgtlJB1MezIOIH32+KfBmNX3y0sz7ZNYQc8YFXus79Gf0/EZqhi35KcBDltBhjWtHndEVfRbdU3Dzl/ezC2WhbdZYw1oUjJ2k5h0Nl5KyDOTwKsjk8VIEEz+FoBbgFB05/MNmBxtdrAunRw9jZjc8cAHpXLDyZppIN14Lx1Rie3VjLdjL5A54zMhsFHtx4UzGnmJ/x9OcxnJ0CCZHhHOQFNUUpnEPNVxKeMDTwOK/CMDfeecuxsq1eGRpfPMgNDx2HgeNr+8rZ3tyAWQycZQEIntoiQEcPdKqXGZ/+9KfHLxbwNdcugEYff3TJwZv9dIJDP7TOxBaSixsaY9kJJ/8JpoViXgFn71yaC9b8Et7Y/M6BRMRRlLDSGK0yJkHauZ8D4VE4wVai12K2Mi8VOid9d8cJnuNkEnw8tNFyhD5+FpOKnyBzvCzp8sH59BE0ePQwxtvznH/hJRONFUFnYwGCC6aAtVDaOfDD29dVfGK3EmQ0sltw9c0p7Q7a7BgTp/CxUyAZxFGqjPGAm2PpYL5qnONr0SmczyEqGENVX+9wgoB6heUiZOy2xwkChVblGLLwlhWChxcHFkg4+ugU8/C1HO/bfP9Ez67AHgEqgLPO8BVyLY4WMf5scEHyQkFA0Tsm6EuGQGrB0CkWkwCmV7LYs2/ZKZCEFChGKTmHMuaMM9w8PMYqDGV8ijM6fmACYns6t776uzF6u+IyZBsXzIODg8MzCS8l+eTgx0FWepVsi0RAk0fG5z//+fFjaA/8eJlHq+BFL3DVmH5luMUCV0AE0XYu6+0idoL4kCOICvr8QA881eZGZ88PMnYOZIIpUx8DhlOMsozPEW1rcAVR4Xzz6AoEuhyQ0Zzk/JI5ziSXIu9hD9YBlbGylUxBow/+tmrPfp5NOVym4SMI5u0in/vc58YPwCwU9OBk52i60Us1L8iqjIJHP0EkC2/0Fpr5mQdbBTYezWkLZn6Au2+h106BZBglVMpVMKAQWIERTEUgwSpwzeUk8IwxF5wMY9UWxGEf+chHxpYlSC5EMtV5yolgtjPZIRPQO2PJ91zaTx+dh6qzEc58gUr3dBIg8xaR1rwA4FkQBZguAtaijQ8aWcov6NiikJt92T4mTuFjp0CmiJZilKFIyhQ8+lDefMGFw0DFatbneDiV+OMTLXqFk/QFSYbaEr/61a+Ob0m8SPCOti0YrTNLkcEWggD7jtSlxhxeAqSQm+wBWH8IYlkIr0wk33tSW6ZAOfvMk8nGij6YnUA7F7Lwn/Hn+X361/g55Cyk/tzOilPMXCsxp2g5rDnBCIbeuAJucSjwBRMMnpbhitacljO9hRFUTvfNhZ97cCwHu/L7ntF569dyMlFA8Zu38XnhpJNtsosTWaqz1s6Ar0wjAzx954CBzfobB+On6NgErsBXGo/BhnHwZYvuGoGEFMPaYBTJ6ZxQ1lAkZQoqWtUYnnm06GSKNv765uExNMfEI97JxrPFIVO8yBc0WeD89Hhg3gO6LBIEvFXnKn7kpBdcMgVQtqlwyBdEN1Ay8RdEiyfbtOnHT0vdwRSy2N1CgoenOtPDxXNux2DLx05b66wsBVIC71kJeOHmCC1lGaKg5cRWprFgoBNQuMnQKrMMY7ziZ4xeMJyJKkcLOhh+HJjDyFHIatvE3wJw3ilwFQ/0ZbIgq/jGIz3DH0QbPtI/fGM8ttFtYHUkaKdAok55SqRIXFM05ZYKz3jm4OdYY9sZx5apZQi8gqYfbfzIU525isDgW7bBdy7jgb+CDxqtipZ8wYcPV9bKRAsEnQCr+CpkwIN/MYU8C0Gb/bUXw2cT7k6BJFjRLp0ZjMH6KiM5C65K2UrON64fzxwukM0JrnFyOLM+HH1lbvXDgS9QAjrjkymIzlXz0bBDFtqSbbFuxoIcf7bgQ1elBTIGWz7wQBcvfE6r7BzInEARzrFqGTUHi4KNC0ZKzwqjU81lDLp4yyz0ghgOfDABCbcsCm/GhaOACZRMwEMxZ2yrNFdQZKDnT9koyM7Eztt4xxcfQcRzhoEvi3n05JSR7M72Jf5JxjsFsiDWphjlKoLrFRsHcPC59VsaToHL0dHEY6Y1p5hTFfxUhcNUQVRzINxoBV8/ei0ZeOi37YJxJh1lXDLchN1KnYsC7MUDnBYOPeKPR3LAt5UZP3ktgIvhc5ycnQKZIjnHWEkJrX/T8OxnP3vAOMCDs18S+Imhd6kVtBwSj7kvQBXzVXCrGd+ylSPAZWkONqekV/2l3mWGFh9BtOgEzVYrCzncXA5P31oy4z86O3ygJTN98I7fDuTHouwUSBwS2MrPCSnlXxU/5SlPGe8xfRvgH6h6q+JfIgmmV24eEcDw4DxtxmgFhhzbXV8J4V8gW805GXyueKZPweJwOFoy1HC0gmfRyVIXGjuK/rxdo6eXFk24FlbfQYJbBL02JB9vus7y2GysKvRZluaW8OPGh4FcEs9j/cYUK6hg+qofUTH+3HpL9S7TvzjyFZUt6hnPeMZ4lvNzR3+YwWsyD/SM5gxZNTubEzhehZM8hiQvo+DSIx50UAoap9MZfyV8fFXBNycIdMEfDzRw8QXDBx4cb5S8IhR0b5C8abJALQT4aBU6oNW2oAQSTMmv+XYAN3xsm0cyJM6Ic38DzwGCkzIAxhwBpvUqTPV9o/eRZ8+eHUEVUD8+tuV64+LVmYdtuJznbOrCwYkch+dSp4IErnJOGYeuefQqB2vBBUIr48lE7yFfEVTyBE2rCgo8/MnxHtePqO0a+ID5psZLBwtjXijm0VXwM57tmfvhnaQ9zMiZeGau3zhFtHOhcHgcpp+RLhRugb4+soo5y1/JsJJlsSCeO//1lW2KM5RWbo4Ew5fsKpgCzkFqC4B82WFOIKrGAqXAxR+uRw6601eQ4IHLOnB6CeKV639i3is6NHYYLxPM20otFDzRzGX2HT3zYe2Me5L+YSAprtTWNw5GqL42BWoZbVUKzLOe9ayxpcpODuQ455AgmpcNfhvrHLWaH/WoR42zxlbs55YC6ispPBmtJUc/XfRzVvPDgPUHR8ITKMW8vpazzVkoLRYBp9t8prn8KOBkCZ6F6JFEAI1982JnwY+dyUFHhxbVUu98li3w9y2HW+vMVL+xloIpQ4m5UsDYBYdjbY1PfOITxxbrDzlYsVarqz0espAT/N05Z6YfPr3qVa86fHSRrbZeL71926Giyyk5K2c0pkd6pztnKmWKBcXh5pszxl8hAxxvOObYZCwz8aEXmKyFa2ex8NDiA0fb9myRGOMBR0332iF8z4/DQC755IzgxgRXwfXBbUdWqex63OMeNxzg8PdvKWSpYLz0pS8dzhCkrvdWvV/TyVDfOTJSoM1r/dE/+H6S4U0Lh8HlJHJzUHrQKb3BWoAcD7cgmdM3r3B2Ts7RZStZ+mwk34LUh4eHy5ysxCs9Cl76LX0HT0nXMdjz43BrjQ/mSwEpEk4thSir+E5QAJwXstCWpKAVsBe+8IUjM2WnG6uVzHhGO1f87Z0nPelJI9gCZyFwloVhS5Pptl20st+4QOGRc7T1ky8Q9IBfoGSbIhgCLWAKPFmlgKkWVOegsQuai5rtX2ZaZGyMDxn4kNHlyrjADubrD3qCn0YZX2NlOEOVTczBchLHhFcwGMS5Vqtsgi8bBVhQZZLbox9W+SMRnjtlrIzzwsDZI7j++JAiU2UpXpzHKV44OE+dtx5xVM7kIPPwClZO5FyOBc8GfVXJJgE1D18Fx5degsEGX2Krdh/13PqSZrcR+FlGOlhgyaGP7dkC7YaPDiwc8tNJC06P4GPyiI8LMnJJFIOMxYNxHKaYVyksiBRsVZp3FnKCr5YEkjM4jAGexcy/4hWvGC8KZCM8z2SMlgG2MY4UOJkIjr8/piDAV65vkBxqzksHusHVWmzktAjYUDbSzZijVDagqZ8f4Ntl3LoVWQdXMC0657lstBAtKpnKToUvyMYLb3Ts8U/zLWYLstsxm8Khw9xHr24rFwTyOGSKZLBgzAXcdkog5TxncSQ8K86lhlN8o88ZbnsCYDWXqYwRBBnthYFAcWJf6go8uMcY/G23HCxYZ9fPqbZbf9vOludmbOWjtytYTHSjp3YOKMdZiDkvpxlbRPS3qMhxFjon2XhwcDC+GRFUQXFk0MHbK4uqSx6ZnqW1AnnV+o9k+AvRHmU8U6P19ssvD/iLXL5Q6Lb09ez3uX/j17zmNf8zA/QJnUvjnPDmN795OKqVBPcFL3jBWIVWqOCo6DjNlsp4SqUsx1jVWplqi4XvxstxAicogmsLc6mAa/ziF794GOvGKxs4yEXL4ww6i0Ug6SCY9OQU+nOUTKFHrTl6Zg89zDkWLAIl55qDT4adQHCTZ9EJiCNDkAQQHb35wKJgq93L7sIW575qwVmg9KOL0oIjc1u5MLWOwMZI5QhGdEbmAMIFipKyggEMYYCzjjMEB9x2Co/zvclxxjGC43x7Imj4WuGcInOdp+it5rYv8xwhYFY3PuaMbXl08i+q6TA7osWYDUw2Dz88GSoAdg4Lk750QquaE4jOQPPgspCtdhPfY8q2Jz/5yWPnoV+7Fjvpb6EJqkcaC+u5z33uiABZSv4dgy0fFxXIDLVSWjUMYJC5AsVQq4yzBMzWSmlBgS9rrD5zDJJNtk34tl+Gco6MbYsEc7bIAturgNtCBVtGmBdojpcRMlhGeVlfyUHGHEcXemsVwVTob56eLTq0Flu2w2G3ebIsRvZZTPSxgNlkR/DDML/NtdvwC7vhWWQCb0HSAf90oEf9/A52VNkpkBHniIKYAOcaxbR+0cYw5wUnUtYbG4c/x1DOj6WcLehdWARZEDnHClUKgK/HBBc/eHgIkCBrBZazBJBcweVAjy0Wib82ktOzIwdp6SBocDhSy6l2DpmOLxheWsU8moIKJpB4gcFtkXZOO28tNlVQXerg27nc4vkWfzCFDDDtLmXnQBKAqZYD9CltbAVajZztGVDmcAKng3OsQAsyw/z9csZSlMG2ZZcXfM27xKAXFFmOthcH8GXCwfqyIXD+KAXH2NKdQd4m+UMOtkV6uFgoOSZHZUPjcNiUHhaf7Z8dbLA9dsESdNmEr0XIBy0CMIFW2MiObHBWykw8yTKPF5vKSDB6aRX6bCtDWsZo5xpxjM3ZSiiuTzhlKC7Lzq5vj4LlAmDMmVaiWxmY1WirRN8K1gqiec+QlLbVCrSs68yRjb0K80/hyKEXfPxs3wJpy3V+gXGals50bOHRfekcc0r8yMWHDlpnnm1cID1q2DE4XqAFsGzFgywy8BRQu5J5LXq2oYWXrnyl3wKIHr8CCn8ujeGOQCYYEmBFvxozYwoKospgrUzkXNudbYlSHO9W6TCnOBhZz3zmMwedsw4/joZra3Z7FUjZJhvB0AgIYwVKZtiayeYcRRBVMHpwvEVU8DI627TZTQcBzFZwdJwPrsVLVtlqLUaVTWxvQQlqtOhUtuEFxxwYm4z5Aw922mKjydd0TCf9Cj7LcgUg5NoZAXxZwHKOOWMKyCznkSD53hE/ARUQ26KV5jwT2H4VbiuWjbYwPGWd89CLAcGw6tHpcwg8Zx9Z0Rh3ibIYbGOcgy7dljYsx/AEK9v06UIPvPC0Y+Cvdm6SwekuK4JjEfEFuONCv8UAz9hiE0D26qPzMsStnCw4cOlSu9R30/iCM3JTpGOIGGM4hGmNFcpwtIC97W1vG4Y6t9xMrTTBxMe2QnljgZBNzh6rGk/Xdpcd5yBHyjzbo7HVXpZyUrrixwHGspYuHI1nz5hDyWM+4hUKWvJVvC0oeslIi0ZwwMmjt8CwH50A0Y+96QSmGBcotGyTjewCjxfaKpj+tjIyMuYzcoy0FBA0FW6r3dg8Qxhn72ewB3XnmO3Pued5yvnCQEahF8SnPe1po2/rtfrdbjmNgT0bCr5sQCOYtkxbr60OPw7Fk46c4rLEMXSRKeg4+LiSjXjos4sdFhI5+J5bb+kWVIuRbL7AW1BmH9l2BRyOLHUk0AOezINrTsUfH4Vcc0o6jcEOH4dn5DKYGKlKxtVSajaaMebA9J1zAis4XsP5S1me7WyDAsvxlJatnMP5LkKCwoGKbRkMX89e+OCn9FiAlmM4SMETD/y6UIyJLR90pTsf5FSLU/DwoUNZR5bdhBzyVDTowfASSLdYu4NFJah81iMTmCDS046Ch9KCwKOSnxsf1R6ekUchMKIgEUihjG2l21bgyLJwKcMADmCg89PlxnOhAB6sHx9kViuVUfqCzHnNyQD4sluG2e6sYjwFvayjm0zm5M4qNnEUHseVgggnp+qza94y8cr2nE0PdtMbjE9Utqj84Vy1m9DPzuReYGwePzjx1W+sxZN+28phRoa4XAGYgcUwIW1nDGcI5c0p8WjLjbexC45nP9nGII8NspRR6ARQsPBNljmGC7Y5GamFLyMFXna6lAhsWWqFz4FJj2XLiTnSXHboC1S2Givm8wcdyGE/negCf5ltMtCrQ3bbqtEVeDzpSQew7IYDrt1WRiBzWgZowWKCOeWsdNuGLQJzeMaMgDuXeZxiDNW3yjncZcTzpkuRh3eGCiRaeK1sdPDRcYhMpw8nKxwpeF2g6NTZaj6H6Ldg8Oa4ZBQYcpeFPgU7p8IL1wItiHQSRNuqAseCdZt3vDgywPDBE2/9WcdkoNdPTnRLuPEVrQIErTwE4BVGNrb3m6c4mBWY4xOILnx98wqDU1JQZDKHuw16NPFv/N1cD9bb7pXrV3d4dCt1E3XDtZhciGRl50y6cyBdOZEt8Gad6JBjwOEq4dQO4PQhOGzIDjziA2aLx8uCsu1bLMZ2EQvMz1zYpM+m+CQPr8rcB0tO89rogsEZGWmCgJhoq4RSEI6scAHwOoyynKpY1ea1DEBrzJn4Ng+m4gnPvDnVs6FboouNAHl2lKW2XUFztpBnC6WHRSFgzh2VPjJSC07OfJEwVmpnZwYbCBs+sifb2KSv0t2CFGx65Cu6WJR+1eCnImzCR6nVJ5suMwz8YssI5BxEiqUwZoRwOOfJGpeWvo7h2Nkozi0waPXNUzZn1ZKRMxmhgnGKIgN9SWvbFVTbrveTHGLVk2V3kA0WlsuQ80cQ6cWxgkqHueS49NjFiemEn4I2Xc0JmgCylV7mvfTw9dvBOhPpAqbuG7DZlrk/bq0CRUCBgEDpgiRTOMvLbtub7ZADzJd1+tUyDU7BwnPuk8cwNPGacSwcwXSB8ejhDxwJli+POQeNDBAoZ5CxLVppi7O1sWl2Xg6Fpz/LBttUyBAMBY1jQSCDC2R8yfIdpO3UwrKoyFD5RdGHl7+M0R9VZv2PwhmBhBhjwqrOQRcLL4n9DpVTKS8rrMRWnz76Ofh4MJaCWpXis8LG6GYDKcowcsyhI0d147X1uvV5JrVlyVJbGDzntUVHX+cR/V0ubMc5uha+YkzecYUe8OhARhlq6xZEvNhgbKH5duNgvdjQ0AGcrUpBy2Y4Su0YbPigw3HlgjMScyuPUKuO42SDtzSyUKCsdkzhpFxK5BwC4bQVMRxveAzJGHhg8QMXwOD4m+8yobWdusSo/f9TziGLSwZwmjPVovMiX8E/2QOw/jBWZp0HYMMHPbrUafHjB9lWQJzhT3/60w+DCF7Ak41PuiQmPRqftP2/Tf88NUEq41zhPR74bk9fUJw/HG1lUggMrjZYymMJR2l7QVug0GVEeGQrAqqYh9/iAuMgwbSwbPNe7zm7vQbzXaSWk/0AypwMNa7gWQ2WvMbL1jy7VLpYLHxBb3a7Lb/oRS86fE4Mn67w4p+d8TfOB8FO2p5ZO+pqTi2ACX37298+VrVzytnTlsKJKqPQwZe9HM4oFcxclUFgcHJiRsBplc9GFNRg6NDghabS2cVhLkHORTCBxpeuFhp6PPWr8aAbe/BXjQUfHlm2R3LVLlL42VaVV7/61ePrO/LNpx98MuEq2UTGPB6DHT/SsRaZ/uFLcwAGqBSwjRHsQsEhDOMUSjIaXoXBcAfDdb+gxnM2JgXA4mGFKwxWyag/Js5/gEWDXslpnJ3Oc6DYAmfW4Ty7w8biQ6+wF43CDotUARM4fPjDgrGd+gW9R6SyHk1FH1260p/9cwsX7LgCX4m2/gCe/7hga83JhFvhOVQfjBMpp87MKQqmRTMHlhxwtBk0K6CPP37xjQ8adTYguTM/dHDoaF41b5w+YM2TCV8BtzAtUtkETn/BwqNF0PEAV98W7mZ65frFRbzSVatkb/MDuP4wDlbb3Enba1x2MKY85zJGv1uXfo7iFEZxokxIOe1sCDw4leYaa4PleK0aHL2+OvMvYPEwj66FI9PggynG5my94Aoe4GWxVhayPT1a1OCy8uDgYHX27Nnx2AOfX/DTT2d8k6tvXqvUT4cB3PPjMJAzH45zC5wDaT5HUpBxAsgIBsBtG0IPRlGOUzN2DiqYUjsG64/ocoQx2fBU/DglffRzlvmcCU8Ba7458BzJFvrKNEHNDttlPOgtiL4wt536Kop+cC0MdFr46a+f3sHIBUNLJyU9xuCEHyOQGGUoPgz3HKZVWp0UBYPPcIYyUMsg25NWpjJMhUtpePXJSh5jc3SGMTSHg83OwcscfuHTEY4CppI184CfLHj4KHCcdy1KY3N2oQJLP9VXcGfXmejxBi808Ngbb7T6WjqkhzZbZtx0Hcrs8XEYyHgQIkhWHCVdAgTKI4gbbAFJWbgCzGh4jBJMwddXOUFQ0Wgpz2GMM6dVwNRKOMZwOAcMff0lPlzzVeNk6oefTDC86ME2Nsw1WV63+aWDlxEtInTsTLf4szPd0VfAlXiSGSyck7YXBJIASjGkr2KsOmNvR9zovCToal9QGQRHC2YLYqAMFUi0DFPJUOHBJy/nZpQWTmM8crxFo6DBY+Ybfvzg4aOA1R+A8x/44m/xsYHuCier5L3yla8c73zn7xHThw4WM/7B0CUrO5rDm93w6as13reMxw9MEkygygAKyjTnJeUE52B90Psph4Bq+0Wb+YKjj5ZjOEkrKywKDlMLeg7QossoYzqp6CvgFbjkwAkfD6WxvnlOo4t+utGJzhacc9JCbRfSCurLXvaysaWSpWYnvvr5y5hMcsDIUeGQGz08fTjhprM58Lk0nlt0Sr4wHhkJGCLh85jQHMm4DPYjKC8KZKc3QJwBl9IzPacFnxeHYMLlSIpwKh1m5fQZiV4/3WbDyTKvhhsfNPHIaebSh3x6W6xso6vFKqDs8960n26SEz94ZGnB8h0cfbLIUMzXzjrMNNkFNvdnnMFk/bEJhuYwkBBDmpnN/ZRzEbJaPRAz3Jbj2wq/TfEDKTSyDz5DtJwlkBy2zE7BDMZBGZ9OZbpxjtOGlwM4SknuGKw/6JgdYGRZSOgtUnaYJ8fu49uU5z3veeOGKqgtnGTOLX7pkQz6qPQpeHRSm0M3F/DKUTjNb2oPz8hZifoIZqYUTjkOEBiGM9bKFjyBVG27nMWJClp80elr1R5jOJehWvNaDlThVfAwP9ecMOuNl3Ey4bRI6EV3sukvswRR8Y2Ki41gsgs9XuTFr/6yNV/Jb1r853H9Gbe+1nxFf+YbfNmeWSvzH+nr2YgoWamfIeAZAUYYJ+kLKKf4LaofLPfr7Pi2nYavtQDKErQqGFxOz7B4aGf5eCjNz3PgHKmAWxQucnYUARJQ8sjxC/mXv/zlI0NzPhol3vrx11fMLSud05sMffLiq6+EMwbrj3aVGY534zIcfjqZG4HUCTgjpFyOihlD9Gs5XGlev3efWt8h+hZCcF2OWuH46svaAphTwSwKLTyVPrVLfdOVTnMNj5wuML6jtNVbPOQJqm9O/GDaz0uyDR8lHsf10cCLBm7+4HzyjbXqPF8//NqBtP7AN9jWQCJK4dpgKRdDY30tAZzRXAKNw3Ep8gW1IMpS265nUqVFUCALGrhAcrbsJKvtVou3Qt4sK90KuDFetlG//vPwLys5ExzMN/oCaDuFRxeF0+I9AFs+yKrkh3gYk1kgmoevvxzHR0uH5qMPrh30a+FXhzRP5igwToFDUa25WWk4SkaHMzsTvuxyKbKNnVv/iMuX1sYcB7cWH+MCB9/cHNxZFjyFDDX9tMFloZuoTMSHLn566fdAL3nJSy74rSlnqYqtEH6FbdVg+aIWfOYBHo1g6s8lWWDLOTB2BIdbP/uMz6wHG8/IGZyCwWqDYwQWvH5jyijGnI7OSwJvizjU/8shWwULXAsX3lzB4XMsPvrmZSz8tix4qiIQbtUuLrINLTx9N1OPF165wUvW7Fh98KPKcOIiMDNuTgerXzvLmWk29Zc0jeGORFs7YOdAIgp9buf+jFOfI2bBxgLB2foC6qcbvtH3Cz1ZimcBK7Nr0TYHzxaMj3ltfWeiW2lvZOjDeR43/OFDL8AFEd1xZZvDZ9s28WleO/c34W6CbaKLD3z6X1RGJoTzCh4Yx82ludohaG0Eh1AAPKeHY/sUHOepS5FzVGDbegvQ3OKBvkWBh6Aq8+3UdmrRyDrbq0uNxwy3V/zSYbZh7s9Om+H1twUaXjy09aPf1s400dai3TmQDJ2NPap/VEAJUubzAY+cCN5WKCjeFrkcCaRM9Zsct1/4gl0mpxc4GYJonmPdRGWkICoeAVxszp49uzo4OBiXHvSCb26fMjt1E585EOa34S95zPTR1sJl/04ZCbng1c4wfaU5jOfCyfOqhReu1lzBCG7s7BNAv4hr69U6R+EJ+liN61WubTFYGALYwsHLrdS/DPbbWOdj+OHM+l5sf7btONrZ+TPeUfBw5vn6tXD4YudAxhRRzj5ksnZk/bldBjTa2uY5M5615lLWpUaWqrK0RxgBVgQ0fE7NsWWa7xGf8IQnjN/A9oqQHHi222QOZif4SM+jSPHfhAO2CX4UH/Dwa8PdKZCIMnbZxmhulzjGM6zxDCOjgMoWBUyVaXC1tk+Xo140yFDnac+a8ZSRtlK/dfVP9/zGprMSfwFMHhnHlXgehbONfhNdtu1CO8sPvzbeOwcSQQy19cFjGqx2ptEvA/UraGVUPIJr8Wm+jAvPWegiBO5y5Hes59bPpgIsQG6qfo3ul+hXrn8g1eOFxYBHr82M4V/uYjfIlm2yZ39GU4tW/xqB3MR0ZjTPB59b/XkMn9IzTH9WpAwMZ5YhUEt444IgeC5HMtPrQHD/jMDPFF162mLRtSDSCWwXpyZz1m3uz/bMcP3l3HK8xF+Ok03PubBFsRD3CmRMC4RxQuc2BWZY/Wgaa+vHP5za5mvDcwPt1wi+arOVkr1pMUSj3RbIo3SKh8AcF5zj5uJxXJud+THcAjn0XyNd8EIgpLndhjIHEh38mWY2ZJ4LpzZabUrqzyXc5XwymjdWjaszn7kf7gyb+/vSp9vM82L62XRcIC/4YvlimM+4OWwJM6bEPJ9RMzzYTD8rPQct3OU8OJiKNxqt8XKhzXL00cZ3OWeMz3FlG/1xtKcxR79TC2QKYZpT5v4m2ExTP7zG2mXQwGa8cUZMGRg++eoSfwCmj5nXBL6gexzOcXMXMLmEg1MJJP1mY2bn1c8GeGBzO9OWfTMsWm1BCg8sXHxln3E3UbBo4G4q0W+aA9t3fumDo+ScFI7/qQSSobOy81h/Hs/KBtdWcvqmQIWjDS+5eAiicfy09Wfai+2fBo+LlXmx+BfeZy+WesLP2NppanRn+LK/HCMAm+HxW8LCK4ACXI3m+tDu9PixzRFlxRIveK35ub/EP2pcph01X/bGew42WPCj6LfNz/w28dhGv4nmYmDb5PPPqWytRymVAjn6KLxtcHzitQ130/w2+dvm28Y38QbbRn8UXfBtC2EX2y9pIFN033ZfR26j36bfNkdum9/Gf9958i9LIPc1dNuK7YZ6lEO2Zcy+gd6X3ta4b7lOBHLbQtg3UNscuU3+vkHYl/6yZeS+im7LyH35b8uobfK3zW/Tb9+Fgv5/Aadn24rOhqIuAAAAAElFTkSuQmCC;" parent="1" vertex="1">
          <mxGeometry x="276.99" y="200" width="59.11" height="70" as="geometry" />
        </mxCell>
        <mxCell id="b2_v_rB7HseoIvOAP7tp-5" value="" style="endArrow=none;html=1;rounded=0;strokeWidth=3;curved=0;flowAnimation=0;strokeOpacity=50;fillOpacity=50;fillColor=#cce5ff;strokeColor=#3a88fe;exitX=0;exitY=0.5;exitDx=0;exitDy=0;exitPerimeter=0;" parent="1" source="b2_v_rB7HseoIvOAP7tp-13" edge="1">
          <mxGeometry width="50" height="50" relative="1" as="geometry">
            <mxPoint x="306.43" y="192" as="sourcePoint" />
            <mxPoint x="306.43" y="202" as="targetPoint" />
            <Array as="points">
              <mxPoint x="306.43" y="202" />
            </Array>
          </mxGeometry>
        </mxCell>
        <mxCell id="b2_v_rB7HseoIvOAP7tp-10" value="PDC connection" style="endArrow=none;html=1;rounded=0;strokeWidth=3;curved=0;flowAnimation=0;strokeOpacity=50;fillOpacity=50;fillColor=#cce5ff;strokeColor=#3a88fe;" parent="1" edge="1">
          <mxGeometry x="0.7143" y="50" width="50" height="50" relative="1" as="geometry">
            <mxPoint x="306" y="40" as="sourcePoint" />
            <mxPoint x="306" y="110" as="targetPoint" />
            <Array as="points" />
            <mxPoint as="offset" />
          </mxGeometry>
        </mxCell>
        <mxCell id="b2_v_rB7HseoIvOAP7tp-12" value="" style="endArrow=none;html=1;rounded=0;strokeWidth=3;curved=0;flowAnimation=0;strokeOpacity=50;fillOpacity=50;fillColor=#cce5ff;strokeColor=#3a88fe;entryX=1;entryY=0.5;entryDx=0;entryDy=0;entryPerimeter=0;" parent="1" target="b2_v_rB7HseoIvOAP7tp-13" edge="1">
          <mxGeometry width="50" height="50" relative="1" as="geometry">
            <mxPoint x="306" y="110" as="sourcePoint" />
            <mxPoint x="306" y="120" as="targetPoint" />
            <Array as="points" />
          </mxGeometry>
        </mxCell>
        <mxCell id="b2_v_rB7HseoIvOAP7tp-13" value="" style="pointerEvents=1;verticalLabelPosition=bottom;shadow=0;dashed=0;align=center;html=1;verticalAlign=top;shape=mxgraph.electrical.resistors.resistor_1;direction=north;" parent="1" vertex="1">
          <mxGeometry x="303.55" y="160" width="6" height="30" as="geometry" />
        </mxCell>
        <mxCell id="b2_v_rB7HseoIvOAP7tp-14" value="" style="shape=image;verticalLabelPosition=bottom;verticalAlign=top;imageAspect=0;aspect=fixed;image=data:image/png,iVBORw0KGgoAAAANSUhEUgAAAkMAAAExCAYAAAB/O6bMAAAK2GlDQ1BJQ0MgUHJvZmlsZQAASImVlwdUk1kWx9/3pYeEkkAEpITekU4AKaGHIkgHUQlJSEKJISGoiA0ZHMGxICICNnRERMHREZCxIBYsDIK9T5BBQV0HCzZU9gssYWb27O7Ze87L+52b++679+V93/kHAHIoWyzOhtUByBHlSWJC/OlJySl03BCAAAwIwA7YsTlSMTM6OgIgNjX/1d7fRqIRu2GnyPXv3/9Xo3B5Ug4AUCrC6VwpJwfhDmQ854gleQCgDiF+k8V5YgX3IqwpQQpE+HcF8yf5o4LTJxhNmoiJiwlAmA4AnsRmS/gAkGwRPz2fw0fykBQ9OIi4QhHChQj7cARsLsInEbbNyVmk4CGELZF4MQBk5HQAI/1POfl/yZ+uzM9m85U82deE4QOFUnE2e+n/eTT/23KyZVN7mCODJJCExij2Q87vbtaicCWL0udETbGQO1mTggWy0Pgp5kgDUqaYyw4MV67NnhMxxRnCYJYyTx4rbop50qDYKZYsilHulSEJYE4xWzKxLxFhuSwrXukX8FjK/AWCuMQpzhcmzJliaVZs+HRMgNIvkcUo6+eJQvyn9w1W9p4j/VO/QpZybZ4gLlTZO3u6fp6IOZ1TmqSsjcsLDJqOiVfGi/P8lXuJs6OV8bzsEKVfmh+rXJuHXM7ptdHKM8xkh0VPMRCCSMAGHLraFAGQx1uSp2gkYJF4qUTIF+TRmcjTxqOzRBx7W7qTg5MLAIpnd/I6vKVNPJMQ7cq0L7cDAI9SxMmf9rFNADjxFADq+2mfyRvkKm0C4FQvRybJn/ShFR8Y5NdTA5pABxgAE2CJvB2cgBvwAn4gCISBKBAHksECpFYByAESsBgUgtWgBJSBTWArqAa7wF5wABwGR0ErOAnOgovgKugFt8ADIAeD4AUYAe/BGARBOIgMUSEdyBAyg2wgJ4gB+UBBUAQUAyVDaRAfEkEyqBBaA5VB5VA1tAdqgH6CTkBnoctQH3QP6oeGoTfQZxgFk2BNWB82h2fBDJgJh8Nx8HyYD+fCBXAxvAGuguvgQ3ALfBa+Ct+C5fALeBQFUCooGsoIZYdioAJQUagUVAZKglqBKkVVoupQTah2VBfqBkqOeon6hMaiqWg62g7thQ5Fx6M56Fz0CvR6dDX6ALoFfR59A92PHkF/w5AxehgbjCeGhUnC8DGLMSWYSsx+zHHMBcwtzCDmPRaLpWEtsO7YUGwyNhO7DLseuwPbjO3A9mEHsKM4HE4HZ4PzxkXh2Lg8XAluO+4Q7gzuOm4Q9xGvgjfEO+GD8Sl4Eb4IX4k/iD+Nv45/hh8jqBPMCJ6EKAKXsJSwkbCP0E64RhgkjBE1iBZEb2IcMZO4mlhFbCJeID4kvlVRUTFW8VCZqyJUWaVSpXJE5ZJKv8onEoVkTQogpZJkpA2kelIH6R7pLZlMNif7kVPIeeQN5AbyOfJj8kdVqqq9KkuVq7pStUa1RfW66is1gpqZGlNtgVqBWqXaMbVrai/VCerm6gHqbPUV6jXqJ9TvqI9qUDUcNaI0cjTWaxzUuKwxRMFRzClBFC6lmLKXco4yQEVRTagBVA51DXUf9QJ1UBOraaHJ0szULNM8rNmjOaJF0XLRStBaolWjdUpLTkPRzGksWjZtI+0o7Tbt8wz9GcwZvBnrZjTNuD7jg/ZMbT9tnnapdrP2Le3POnSdIJ0snc06rTqPdNG61rpzdRfr7tS9oPtypuZMr5mcmaUzj868rwfrWevF6C3T26vXrTeqb6Afoi/W365/Tv+lAc3AzyDToMLgtMGwIdXQx1BoWGF4xvA5XYvOpGfTq+jn6SNGekahRjKjPUY9RmPGFsbxxkXGzcaPTIgmDJMMkwqTTpMRU0PTSNNC00bT+2YEM4aZwGybWZfZB3ML80Tzteat5kMW2hYsiwKLRouHlmRLX8tcyzrLm1ZYK4ZVltUOq15r2NrVWmBdY33NBrZxsxHa7LDps8XYetiKbOts79iR7Jh2+XaNdv32NPsI+yL7VvtXs0xnpczaPKtr1jcHV4dsh30ODxwpjmGORY7tjm+crJ04TjVON53JzsHOK53bnF+72LjwXHa63HWluka6rnXtdP3q5u4mcWtyG3Y3dU9zr3W/w9BkRDPWMy55YDz8PVZ6nPT45Onmmed51PMPLzuvLK+DXkOzLWbzZu+bPeBt7M323uMt96H7pPns9pH7Gvmyfet8n/iZ+HH99vs9Y1oxM5mHmK/8Hfwl/sf9PwR4BiwP6AhEBYYElgb2BFGC4oOqgx4HGwfzgxuDR0JcQ5aFdIRiQsNDN4feYemzOKwG1kiYe9jysPPhpPDY8OrwJxHWEZKI9kg4MixyS+TDOWZzRHNao0AUK2pL1KNoi+jc6F/mYudGz62Z+zTGMaYwpiuWGrsw9mDs+zj/uI1xD+It42XxnQlqCakJDQkfEgMTyxPlSbOSliddTdZNFia3peBSElL2p4zOC5q3dd5gqmtqSert+Rbzl8y/vEB3QfaCUwvVFrIXHkvDpCWmHUz7wo5i17FH01nptekjnADONs4Lrh+3gjvM8+aV855leGeUZwzxvflb+MMCX0Gl4KUwQFgtfJ0Zmrkr80NWVFZ91nh2YnZzDj4nLeeEiCLKEp1fZLBoyaI+sY24RCzP9czdmjsiCZfsl0LS+dK2PE1EJHXLLGXfyfrzffJr8j8uTlh8bInGEtGS7qXWS9ctfVYQXPDjMvQyzrLOQqPC1YX9y5nL96yAVqSv6FxpsrJ45eCqkFUHVhNXZ63+tcihqLzo3ZrENe3F+sWrige+C/musUS1RFJyZ63X2l3fo78Xft+zznnd9nXfSrmlV8ocyirLvqznrL/yg+MPVT+Mb8jY0LPRbePOTdhNok23N/tuPlCuUV5QPrAlcktLBb2itOLd1oVbL1e6VO7aRtwm2yaviqhq2266fdP2L9WC6ls1/jXNtXq162o/7ODuuL7Tb2fTLv1dZbs+7xbuvrsnZE9LnXld5V7s3vy9T/cl7Ov6kfFjw37d/WX7v9aL6uUHYg6cb3BvaDiod3BjI9woaxw+lHqo93Dg4bYmu6Y9zbTmsiPgiOzI85/Sfrp9NPxo5zHGsaafzX6uPU49XtoCtSxtGWkVtMrbktv6ToSd6Gz3aj/+i/0v9SeNTtac0jq18TTxdPHp8TMFZ0Y7xB0vz/LPDnQu7HxwLunczfNzz/dcCL9w6WLwxXNdzK4zl7wvnbzsefnEFcaV1qtuV1u6XbuP/+r66/Eet56Wa+7X2no9etv7Zvedvu57/eyNwBsXb7JuXr0151bf7fjbd++k3pHf5d4dupd97/X9/PtjD1Y9xDwsfaT+qPKx3uO636x+a5a7yU/1B/Z3P4l98mCAM/Did+nvXwaLn5KfVj4zfNYw5DR0cjh4uPf5vOeDL8Qvxl6W/EPjH7WvLF/9/IffH90jSSODryWvx9+sf6vztv6dy7vO0ejRx+9z3o99KP2o8/HAJ8anrs+Jn5+NLf6C+1L11epr+7fwbw/Hc8bHxWwJe0IKoJABZ2QA8KYe0cbJiHZAdDlx3qS2njBo8v/ABIH/xJP6e8LcAKj3AyB+FQARiEbZiQwzhEnIrJBEcX4AdnZWjn+ZNMPZaTIXCVGWmI/j42/1AcC1A/BVMj4+tmN8/Os+pNh7AHTkTmp6hWERLb+boqBugxXg7zap9//U499noKjABfx9/ideLhfkonZsxwAAAFZlWElmTU0AKgAAAAgAAYdpAAQAAAABAAAAGgAAAAAAA5KGAAcAAAASAAAARKACAAQAAAABAAACQ6ADAAQAAAABAAABMQAAAABBU0NJSQAAAFNjcmVlbnNob3T+mxHeAAAB1mlUWHRYTUw6Y29tLmFkb2JlLnhtcAAAAAAAPHg6eG1wbWV0YSB4bWxuczp4PSJhZG9iZTpuczptZXRhLyIgeDp4bXB0az0iWE1QIENvcmUgNi4wLjAiPgogICA8cmRmOlJERiB4bWxuczpyZGY9Imh0dHA6Ly93d3cudzMub3JnLzE5OTkvMDIvMjItcmRmLXN5bnRheC1ucyMiPgogICAgICA8cmRmOkRlc2NyaXB0aW9uIHJkZjphYm91dD0iIgogICAgICAgICAgICB4bWxuczpleGlmPSJodHRwOi8vbnMuYWRvYmUuY29tL2V4aWYvMS4wLyI+CiAgICAgICAgIDxleGlmOlBpeGVsWURpbWVuc2lvbj4zMDU8L2V4aWY6UGl4ZWxZRGltZW5zaW9uPgogICAgICAgICA8ZXhpZjpQaXhlbFhEaW1lbnNpb24+NTc5PC9leGlmOlBpeGVsWERpbWVuc2lvbj4KICAgICAgICAgPGV4aWY6VXNlckNvbW1lbnQ+U2NyZWVuc2hvdDwvZXhpZjpVc2VyQ29tbWVudD4KICAgICAgPC9yZGY6RGVzY3JpcHRpb24+CiAgIDwvcmRmOlJERj4KPC94OnhtcG1ldGE+CnSEm70AAEAASURBVHgB7Z0HmBNV18cPLMvu0nuV3qVXQUCqHSuC/VOKosiLFURRUBFUBFGKIlZUbKhYUJrii9JsCCr1VaR3lraFZSnf/d9lZifZbDbJJpNJ8j/Pk82UO7f8Jps5OffccwqcUSIUEiABEiABEiABEohRAgVjdNwcNgmQAAmQAAmQAAloAlSG+EEgARIgARIgARKIaQJUhmL69nPwJEACJEACJEACVIb4GSABEiABEiABEohpAlSGYvr2c/AkQAIkQAIkQAJUhvgZIAESIAESIAESiGkCVIZi+vZz8CRAAiRAAiRAAlSG+BkgARIgARIgARKIaQJUhmL69nPwJEACJEACJEACVIb4GSABEiABEiABEohpAlSGYvr2c/AkQAIkQAIkQAJUhvgZIAESIAESIAESiGkCVIZi+vZz8CRAAiRAAiRAAlSG+BkgARIgARIgARKIaQJUhmL69nPwJEACJEACJEACVIb4GSABEiABEiABEohpAlSGYvr2c/AkQAIkQAIkQAJUhvgZIAESIAESIAESiGkCVIZi+vZz8CRAAiRAAiRAAlSG+BkgARIgARIgARKIaQJUhmL69nPwJEACJEACJEACVIb4GSABEiABEiABEohpAlSGYvr2c/AkQAIkQAIkQAJUhvgZIAESIAESIAESiGkCVIZi+vZz8CRAAiRAAiRAAlSG+BkgARIgARIgARKIaQJUhmL69nPwJEACJEACJEACVIb4GSABEiABEiABEohpAoWcPPrk5GSZMWOG2cUCBQqY28HcCFW9weyjp7rY75xUyCQ6mITyPoay7pz0g3eE/c7JkkxcmUQCjwYNGkiPHj1cO+6APUcrQx988IHMmTNHunTp4jOqSPgweBoM++1KhTxceYR6j7xDTTi7/lCyDmXd2SMI/hb7HXym3moMJe+86r7ttttkx44d3roXlnOOVoZApFevXjJo0J1hgcNGSYAESIAESIAEgkdg9uzZwassiDXRZyiIMFkVCZAACZAACZBA5BGgMhR594w9JgESIAESIAESCCIBKkNBhMmqSIAESIAESIAEIo8AlaHIu2fsMQmQAAmQAAmQQBAJOFoZyssrPYgcWBUJkAAJkAAJkECMEnC0MhSj94TDJgESIAESIAESsJEAlSEbYbMpEiABEiABEiAB5xGgMuS8e8IekQAJkAAJkAAJ2EiAypCNsNkUCZAACZAACZCA8whQGXLePWGPSIAESIAESIAEbCRAZchG2GyKBEiABEiABEjAeQSoDDnvnrBHJEACJEACJEACNhKgMmQjbDZFAiRAAiRAAiTgPAJUhpx3T9gjEiABEiABEiABGwlQGbIRNpsiARIgARIgARJwHgFHK0NMx+G8Dwx7RAIkQAIkQALRRqBQtA2I4wkxgTNn5PSpU3Lm5En9Hle4sBSMjw9uo6qNHFKggIj7cRzzV9zrwPXe6vG3vL/9YXkSIAESIIGwE6AyFPZbEDkdOHH4iCy49rocHU6qUF6K16olJWrXlhJ1akvZ5s0lsWyZHOV8OZCZkiLzr7zGpWiz+++VEnXrytJ7/uNyvPXjI6VKt64ux/La2TjzHdn0zntmsbiEBLls3lxz333j92efkx2LvjMPF69ZU7q++Zq5zw0SIAESIIHIJ0BlKPLvYdhHkL5vv+C176efdV8Klyghbcc8KWWaNgl739gBEiABEiABEsiLAJWhvAg59Dz8qQoXTpD4+EJSqFAhKVgwTk6fPiUn1fRVZuZJOXEiQ80qeZhusmE8J44elZ9GPCqdX54qxWpUt6FFNkECJEAC9hLA925h5SYQF5f1HYzW8f2LF75/Tyl3AkrkEKAyFDn3yuxpgpraKVasuPonjDOPZW3gnzNBb+If8dixY/qf0q1QcHeVUnZOzx5yYNUqOX4w2az7ZHq6bHh7prQZ/bh5LD8b8E0qWrWKSxVxSUku+9whARIggVATKFiwoPr+LSaJiTm/f+JN/8nikp6eJikpqepH6elQd4n1B4EAlaEgQLSziqJFi0rRosXybBKKUqlSpbRChH/KUAksVC0feVi2fjVX/pj0kkszqdu3u+xj53RmpqSo41CWilWrJphS80VK1K4lXd96w6VogRzKoEhmaqqk790rBdQXVtGqVX127oYV7di//ypfanVdtXOkoPrV54/oqcK9e6RIpUqSWK6cd6dsfypmWRIgAccQwPdq6dJllCU+74XYSUlF9I/TQ4eSldWeCpFjbmIuHfHvGz+XSnjYHgKwCPmiCFl7U7x4cWWuhdn2hPVw0LeTKlTIUeeZ09nTdBnJyfLnlGnar+jU8eNm2TKNG0vNq66QKj26K0Uk99VhhzZs9OpAfWzrVtnwxluyZ+kys244R1ft2V1qXXO1du42T7htQDn7ddSTgjogcAhv//xzWllzK+qye1qZw3d+u1j++Xi2HNuyxTwHC1aNK66QGr0uk0JFipjHuUECJBC5BPD9VLJkKZ8UIWOUUJ5wzeHDh8LmtmD0he/eCeSt3nq/nmdtIgCLRfHivllR3LuE67wpGu7lg7V/Mi1VV5Vx6JAsu+8B2b3kB7EqQjiZvHatrBr3rKyf8XrAze7+can8cMddLooQKjuVkSHbvp4nP951j+z/7TeP9Z9R04mrxj5jKkIoBCvPX5OneixvHIQi9NPwR2T1+OddFCGcT925S9ZNf1V+eWy0oByFBEgg8gkUKVJU+2f6OxJMnRXhjyJ/sdlensqQ7cgDa7BIkSS/fpFYW8Gvk8TEROshW7bjlVUKsvmTzyR1x06vbcK6cnTzZq9lPJ3E9NaaCS94VTqgkKx+9nk57cE6hnNHNv0vR9XJf62VM15M2zsWfSsHVq/OcZ31AM5vn7/AeojbJEACEUgAPybzo9BAkcIPWopzCfDuOPfeuPTMk7OeS4E8dhIS7FeGStarp3u1/9dfXXoXX7yYdJo6WTCNZYpSavYuX2nu+rpxZNMmyVSO4lYpUrmSNBzY33pIOXcflEPr1rscM3bilR8W/JesAqsSYh7lJru+/6/LKSh+F0x/WU3H1XI5vneF/2NyqYA7JEACYScAF4X8WNdxbWKi5fsu7CNiB9wJUBlyJ+LAffyigHUnP4JloKEUOEa7S1UVEBHWlaN//+Nyqvqll0jpcxvl8KeBwuKveLLqtHlitFTq0CFHVZ6mrOAoXaZZU6ndp3eO8t6+/FJ37HApX1yFEChZv54UqeK64u34Af/H5FIxd0iABMJOoFCh/EfZD0YdYQcRxR0I7RMyisHZObSCBXN3LPa1H76sfvC1LpdyyqKz+dPPZPd/f3A5XO+Wm6V82zYCn5wc8Y5yMRe7W3hcKsxl58RRV6sQikGJ8TTFVaBQToUSK9LajR0jW+d+nUsLng+rYbuKatOTZB476ulwwMd++ukn+c9/hprXn3POOfLZZ5/q/SeeeFK++eYb89xFF10kTz89xtz3ZaNTp87a2b6qcgKfM2eO10umTp0m77zzji4zceIE6dy5c67lVygL2b333uvxfK9el8uoUaNk4cKF8sMPP8jKlT+pWFmZco1yfL/mmmukRo0a8u6778qUKZ79uAYM6C971QrCuZZ7iFWX9ZVyeuutt0qnTp08tsuDJOArgeB8B3v+jvC1DywXWgJUhkLLNyi151AmAqg1GHV4ahb1rp32ij6lTcHly0uhokVk78qV0rD/7Z4uyfWYu3N1rgUtJwol5Zz+Q582qbQb7lJABaa0W05aVs4Fo+3jqr6tZ1e9ob7taiVciprOQ9yTlYq59dyBAwf8bnLbtm2SoaYIfRGskDHaS1ehErzJMaUUGmXdy2GpMpSlW2/9P31KK7PqHj7zzLMyYcJEWbz4OzmorIa5XV+9enVZt26ded64Hse+/PIrpWQtkKZNm7o3y30S8JlAML4/g1GHzx12cEGncqAy5OAPjdE1xKjAKz/WHURFDbXgQ56+b59upkK7ttqpGQ8md8Ey+8MbN+VwekYCWH+lprIe1LjyCvOyk2lp8scLL8qeZcvNY8aGp74Y5/L7jrhJGJO7dQuWsVAKPhd//PGndOjQXv73v5yO4EbbqSr+0mrl0I2VLQ0bNpQSlvhOO3fulB1q2q9mzZpGcZf3oyqi+MaNG+XIkaPSvHkzKa8UXn/FGtqhbdu2StEZZ1ZRTflrTZkyxdx/8MEHtWIze/ZsbSF6++23Vcys0ub5Sy+9VB588AFzv57yTZs/f765P3DgQGnVqqXcffdg/X8zXzmxUxky8XAjAAInT+b//9iO7+AAhsZLzhKgMhQhH4WMjOOCIF6BCsLDh0SUslPlgs6yR/2yt67W2vfzL7J93nypftmlOZrFSiy83AWBEv0VKDgFzvpD7f7hR72kPW3PXs/VqLKhEvhF/Xj3PTmqt8Ma9ccfa9RUUnVtIcrRAXVgvFr+P23aNIFVCQKFaMCAAfLkk0/IPqW8tm3bTqcOgF+ZewqBGTNmyNix48xrcX3Hjh3V9NhMbPosmPYypEqVyjmUk8MqCbAhhQvHS926dYxd2b9/v4qvVdTcr1evbo7rzZNqAz8afv45K08ejmOMFBLID4Gs78/i+anCZ4trvhrhxQET8P/pE3BTvDA/BNKUxSNQ86K22OQxjRFo36CMtFYpNxrfNShHFXuWr8hxzNuBuACX/yPq9K9PPKVfuSpC3hoO4blAx+RPl9as+UNZbjZ5vGSTWm03ceJErcxACalfv762tkyfPl0wJXbjjTeZClCvXr1crI/4JTtu3DP6WuRgatOmjW5j2bJlLr5JHht2O3jiRLYyhMCh6PNy9fk4pGJQQTDVZ0haWrr07NlT3n//fWXN+l0mTZqk/Jiyr8eU4C+//KLOrXFR0ozr+U4CwSaAHwnHj3ufCvbWJq51/6HhrTzP2U+AliH7mQfUIv6RMNWBB4G/kpJyLOTh4JMqVczRrdx8gBCVOb5Y9i9940KksvBXsELs5xEjdfBG41ooaFW6dZWdi783DmW9q2m8UElBZW1JKF0qR/XFVGqPUAssQ5i+8iR///23ebhPn77qc3BKoCBB4FNk9Q+aPv0VmTdvnvmlDT8dwxeoXbt2ctVVV8qvZ8MkHDmSbckxG/CykZmZHQH9448/1ooOipcuXVo++OB9l35MnjxZXnzxRV1bVZVS5ZtvvlYKXPb1zz77nPl5xv/DggULvLTMUyQQHAJQ2JH70V93BfzPWZX94PSGtQSbAJWhYBMNYX1pKqIzpjL8CaCIh5nxQAth1/SqMff6cwsyVuOKXnLuoDvci+t9b7F9PF2wT608QhRrq5Rq1FCqqeX77spQoJY1a925bZdq2EA6vjQpt9MhOY5UK0jGu3nzv/Lb2QjbmE6C0uxJ8vKZ8nbe2zlPbbkfc7fslCtXVv5WU4uwDL355lumAuZ+HfyZcD4zM9vnDavLDh8+rK/FQ4bKkDs17oeCAPzzjhw5rP3XfP1/wHcOpoBxLcXZBKgMOfv+5Ojd0aNH1IPjZJ45yvBPiIciFCg7xF8lBn369ckxLg7HFZT1ofpll/jV3RPKudddGt8zWOBI7S5n1C+0UMvGt2cKolcbAmtX84eynX2N48F4b9WqlSxZskR/0S5cuEhX2UzFTMLKrGALrERr164LuNomTRorh+a71XRXhmzZskUveb/99n66PiQStj5c4BwNJej99z/Q59F2N2XpQwRg+M51795dKX+rTOsRFEIKCdhBAL5vUOCxACGv2G0oi1WUdJy2487kvw0qQ/lnaHsNUHLgDJuUlKScYQvrf0o8TKAAnTyZqX1CYA2yc47a6jxtADkj3qelktUqKOQtMwTTZ/4qQ56yy8epKatsO4JRu8iZIKwIya7N89ZRZaU5sOp382SCmgYKlWBVFpQhiOEc3aJFy5AoQ1imjlegsmvXLmUJ+p++HKvBrIK+W62dcPDGZ9sq//67Rf75J2vKD/5LcLKmkEA4COA7Njn5oP7MYtoMSpGhGEHxwXlMP1unoMPRT7bpHwEqQ/7xckxpKDrWeWhDGQpXB6GIucuZU/6ZhkO+DF19UdktoRxT69attf+C1QTfsmWLkAyxUaNG0qdPH7WM/w9dP3yHsCTeV1mlFMRFZ1cQ1qxZU8qVK2e5FKkKXJUfy0m9uXz5chVvaLHevuyyy9xPc58EbCcAJd74EWJ742ww6AQcvZrMajoP+sijrEJPyoidQ/RkofFXEfDkVB3MMXhKGaIjVXtQ5ILVLvKwhUpKlCiuYwYZ9SNlS6ji6UB5Ka7G8vnnn+tXnTp1jWZ9evf2+UxSgTMxFm/i7Xpv1/EcCZAACfhCwNHKkC8DYBlnEMAUl7sgACHSXbifO4oVTkoBqXvTjS6XFFWpJYIhP97zHymqViG5i6epPChIf740RfyNceSuuGUcTNbNVe3R3aXZolWDMyaXSi07mCozBMEH85NZ26jHl3d/0xNUqFDBrNZ9+hYRqPGyilX5wY8irDqzivt56zlsI46SIdYpOOMY30mABEjASoDKkJUGtwMmULhkyRzXGv5AiEZtlQO/r5Zvb7xFpfF42XpYyjRp4rLvy07lLhfkKAYr1ZKBd+Y4nttS/y0qZcOaCS+4lIdy5C1GkPuYUpVPDMa06qmnXeopoxyHQyltVf43QzxNkVWpkq0UYmrLmj8MS4SRjduQuXPn6rxkxj4UEPjvQOCv8/vv2b5QSIHhjzRunM3h66+/kY8++ti8vHLlSiqqdfa02XvvzVLL6eeZ57FSrk6d2ub+888/Lx9++JG5v2hRlvO4cWDp0qVyxRVXGrvy119/mtvcIAESIAFPBKgMeaLCY34TSLI8zIyLscLslHIkRI6yOMtDF1NTRtoOo2xJFVW4TFP/laGM5EPiPkWH1BhJFbMtEUYbnla8FVTOuGUsD2qjbFEVHwixg3KTujdcL0kVyrucTlfJQq0Wi3gVA6faxRe6lAn2DuL/GNK8eU5/IcQfuvJsuhIoCX37Xq+Lt2zZUk+pzZnzmRk3ZcCAgabyg0JwVL7nnnt0+V27dpuru84991xBgEZ/pItSWnv37q0vQVJVxDOCtGjRXPWpr1x99dVmrCQEg9yzZ48+f/75HVQC1q+kX79+5pQg+oKcbLAYDRo0SNX1jS5r/FmrQi1gxQ/6/8ADD8gnn3xinOI7CZAACXgkQAdqj1h40F8CRdS0VNunn5JfHhvlcmnyn39J+Tatpe1TT8hqZX05rlIruEv51q2k5aMjtFLj7+L3IsqqULVnd9k+f6FZbREVALLliOHyw6DB5jFsZKaqJdwFC7gcwwO1ydAhsnTIUDF8iqBc1XObwnO5SO3Eqxg/56n8WqvGPiNHN292Py1Fz6kqrR9/TBIDyOOVozLLASgxCEIIadCggQ7CaezXrVtXT5MZ+7DsYHyINj18+HD5888/dcwpKDNNlBUOPkZYIvzbb78KFKWEhESBdQnpL6BIQEaMeFhuUIof8p8heCfabNasmT4PBcVYGZaXDxHamjZtqjz00IO6H1BWGjZsJK3VvTesT19++aWOKr1Z8Txz5rRKyVFX5RjLOo/4Sd9+u0jnX9uwYYMex/nnny+1atXS/bz//vvl//7v//S28adKlSpSuXJlY5fvEUgAnw1YL7Fq1t9gh8EcLhYpIL9eoJGk8X+I/ymMIz4ej13X76Fg9tVbXfixhtAscPy2psjxdk2snCug4ORcBuSQ0eNLHF/MgwblnPJwSBdjqhuI9nzIEkPHGHxZ9esegmXlmW5xf4qoFBBJZ/1F4FCdsm27HFEJRTNU0LziKnhecfUw01Yl9WUBQRkoUFaBlaaQWmp9ZFPW0mzjXLGaNSShlIr6rD7CB9XDer+KPQMLE5QrlD+oUj5YJVFZcpArLP2s1UGfU1NFZVVsHihpu5cuE8QtqqQesqgHkrJVZXFXD25D4pSzbymlEJii2k5Vlgr4QaXu3i1F1cO3eO1a2mfJXz8ks05ukAAJ6Fhq1px0TkCCx+Xhw4f8UiTwQ6BkyVLm8nsnjAN9QIon/MCxW3r06Kl/ENndbl7tURnKixDPkwAJkAAJ2EoACwGKFfO+wtDWDlkag5UIcYasIS0sp102YREqU6astsK6nHDIDoJC2pGhwDpcpypDnCaz3iVueyVw5513Cvw1KL4TwEqmTz6Z7fsFLEkCJKCCbuZcneoULJiug8XKl8jnmHqGZcipAoUTU2YOniCyDR2VIdtQR35D8Bv5999/I38gNo7ArqXuNg6JTZFASAkUKhTvaAUCg0fkaZG8p5gSE7NXa4YUWoCVG75MjJYtwtVkAX6IeBkJkAAJkEDwCeAB7XTx1Zk7t2TVThpfQeVHSRGhZYifAhKIIAKI9fPBBx+aPUaOrvLlK8jFF1+kl55jGvPFF1/U51u0aCE35bEqbsKECbJvX9YKv/Hjn9PXoY0sP4ICgqXtvsjUqdMES+IhY8Y85RK/yP36F154QS2d36sPP/vsMzrFh5GUFQdvuukmveR+1KjR2oSP5fc45k0effRRlRPqlPLPKKNXwHkr+80338h//7tEF7n99tsEq+vcxV8GWOo/ZcpUXU2hQnEybtw49yq97r/22mtqpZwKRqpk5MhH5fnnJ+jVS6VKlRSMLb/y119/ydGzixsQqNNYwZffenk9CUQLAUcrQ5HwCyFaPggcR2QQwLLzmTNn5ujs+PHj5b333lWKUXnzPB5+eSlDn3/+hV6ujgoNZeiee4aoIIv/6NUvO3fuyNGWpwNQMBAcEfK4CilgDeboXn7lyp/MBLPDhj2kt61jqqdW8tWqVVNeffVVfWnRoq4hEtzrwz4CNcLUX0OtUEQ4AG+yatUqk1HPnj08KkMGA/h77Nq101t1+tyBAwfMOjF2f5WhhQsXyQ8//KDreuCB+1VMp/cFCZmrVq0SFGUIiuWyZct0/QhCic8JhQRIIJuAo5Wh7G5yiwRIwJ1AnTp1VJyfSwRWGWTLfvbZZ2XWrFny2GOP6aL169dzvyTH/t1336VWxmSHDshRIAQHzrGkXdm9e49pETGa2rFjp8pwn2UlwbGaKoSCVeDs6f5DCQrQKZUYOK8cZ9Z6nLw9fPgwtXz7pI4j5d5PT+M3yng7Z5ThOwmQQE4C9BnKyYRHSCAiCGCqo02b7HQcUGpgoZg6dap+wdoAa8nEiRN1sMTWrdvINddcq7Yb6tcaFYdp1qz3zfKY5sK5LVu26PFDwcI+ptIgyDp/+eW9VDDEeipoY1PB6kL3VBi6YB5/qqm4UYbs2bNbKUObjF39DmuUMWWEA7D24CGPtv7zn6G6Tx07dlQBHIeZ5aZPf1WP491339OK4ciRI1VwyOYqqjWmCm/S12As77zzjktbL700WZdp0aKlPPLII3qqz8oAedSsDFwu9rKD/uM6vDp16qSDR4Ib+nLkyBG9LNtg2b59BzUO1xhaM2bM0OMxLGbr169Xyu5z0qVLV6ldu46KKn6Vth4ZXYAl6eKLL1FpS7ICVQ4dOlRgAcP9Rx9+/vlno6h07NhJhg0brvcXLlwo/fsP0HU2anSu3HzzzfLLL7/oc5dccqk5hgsvvFDfd3BfvPh7sy47NxBZvEuXLtKtWzc9fYq2MeWKY/fdd5/uCj6T2Le+EK8OQT5xDKlcDHnuuefU5+k/ehdTkUOGDDFOqajnc3X55OSsnIPmiSBu3HDDDXLdddepIKpZEdR37Nih93EMK9WQFBnb1tett96qe4D/aURfN/L8YVoX5fDZgoUR2xgzBBZG7ONeU3InQMtQ7mx4xo3AsmVLHbcEc+PGTWoa4RH1cDmjpibGSqNGjdx6HTu7sJZAgTmsAlpC8CUIhWn8+KwHQFxcIVm3bq06f0SfRyRaTKUZ5TG9A38STKcgIBvqw/4551TTStZtt92mv3yLq+jb8Cn64osvdQ6x339fpevz9Y+rZWi3sgL943Lp9u1QhrIVJChD7733nlZ+ULBmzZqyVQXDxHWrV6s8dyoyNcaAB39JlSMPD/7XX39D14n91avXmGNEGasg7QfSg0DZ+vjj2foBkxsD63V5bZ8+fcpsEywRYgEPuO++Wyz33nufIHEtcsVB4Oe0b98+lypxj3D/ihYtouo5Ipdddrm+J1jSjajhP/30k37B3wn3/P77H9DXl1JBSHG/kPsN+d2uu663vodoy3g4wpcMud5wn2+9NStqdxUVHBXXffvtdyoH3WqlEP2s+pv92cBnAf3HCw9h6/1x6XgId9A2HvToy4oVK7RSBGURkdWN5etQChBZGZ9VQ5AXD9GjcS2uu+yyywTHNm3aZFogoWgdPHjQuER2qwCqKA9lCPcnFDJnzhzdV/zfoU9Q9j/77DP9WcQU8caNG+XTTz9Vymp/s3lj+nnlypU6zUzTpk21EofPMcpOmzZN/W9s1dtTpkzR12HsOHfBBRfIRRddZNbFDVcCtAy58uCeFwL4wilUqJAjXvgHf+aZZ9Sv4YsFPih4AOKX7JgxT+tfjU7pJ/oRToESYQjyjBnpM4xj1veKFStqvyMjhQXuN/yQkI4DfI1foeXKlRNYCiB48Lg/yK11etquVq26eRjWixSVw84qO3fuNC0+6AOUJ8NahXJw0EZKEIiRYkTvnP1jTTOAvGfIT5abPKNSqjQ9mxMP/Sim8slhzAYDrBoyGORWR17H4dxu+GOhLBQRgyX2p0yZrBUWbHuStWv/0ooQziGlg2EFwT7Gb/hqYR+fN9wfCJQHKAXov9VJHGlR7rrrLqUMZFujhgz5j8kBSgF806zy3XffmgpH2bJlrads34Yis3jxYp2dAOM3PgtGR+rXr6+Uw/vNlzU5MRSpwYMH+/yjzvpZMuoP5nvDhg31WKCMY0zYtwr6+8Ybb5ivl19+2TyN/w1MiUNx80WsnzlfysdaGSpDsXbHo2C8MCt36tRZTSNM0w9jY0j4hQyTOM7BakFxJWDkG3M96tsept8MQX6y/Ih1muzHH380qzKWK6MtrH6CVFU572DdcpeEhKzcaTgOy4s3wYo7bxLqSMd4oOWVVsLXe9OpU0cX53SkKzIsfRgjHLcN6wH28T/hqyBAoCHwv7IK4mUZ98d6PBzbsHBAcfj++++1lax169Yu3fjiiy+0QgilEC+UM2TYsGE6D58x/Wgcz+091D9munfvrpMSr1u3TvcT+1aBkgRF1nhZp/JQtlKlSl6VfWtdUJ4ouRMI78/W3PvFMySQgwB8WjC3D98Vb4JfSvAdgDMxfvnD0ZiSPwLwvxky5B5dSalSpdX0QrZVwd+a8QWOhwwe1Dt37tKXJ6lccpgOQxJWPABgHYLgmLscOHBQTYmdMA/DShjL0rlzJzUNlDX9h7xZoQr02bx5c3XPMqVKlaphxQ1lCKEIkNgXPkzuiuR5552nwhOMNPuIqSTDKoLymOZD4mIk+s1NLrnkEn0K06yhFPQNK/teeeUVbemCfxmmuqwCXzZDrFPMUHphKerZs6dpyTTK4R0WMlgHDcsr/scouROgMpQ7G55xCAGYqvEFMWnSi6bjpC9dW7JkiXTt2k0wPXTfffdqvw1frmOZnAQQ66dixQrK8vCMuhcv+zzNkLMm0dMtmIZCbB5DkH0eLyhDVvGkDGEKJJbliit6mfGfSpcurf2koGA++uhIbS0NFZuvv54bqqr9qhcKBCxtH374oYwdO1bgeGwVsMD0uVXgF2YIVl1CkcLLmELD9Ch8dKCIw5IHfy1YUkI9JYi2unbtqpW7du3a5bAg4rzhNG303/oO6xCc3g3/IOs5KIwQQwmCrxkldwJUhnJnwzMOIIBplBEjRuRwsvW1a7AaTJo0STsm4ovzwgt7+nopy1kIYJXKunXrlZPxxzr2DawPWDEVqGCqzKoM1a5dW8cWcq/PkzKEaRE4IBsSKkuIUb/T3vfu3accgZfrbrVs2VI7/iL5JaYLMZ2CBKLuSqXTxpCf/kBJgQUFK75gJcJn0ir4EWSdbmrfvr1yWr/XLAKlACsur7nmGvPYjTfeqFfnXX755Urph+/ce9p/x46pJfR19uzZLn02OgblDCsDrWKs7jSOYWXZ119/bTrIQ6nq0aOH9qlEiAo4ZcOK9NFHH8n1119vXMZ3NwJUhtyAcNcZBOCUO3r0E/ofORg9wgqLW265RTsQP/30GO2UG4x6Y6UOrEQyokDjQXTiRGa+lCGsXBJZYeKrXTvLMmQeOLvhSRmClQ+rxbAyCIJf8bEkcGZHWAHIww8P11OGht8UVoWVKFEyKpWh6tWrK0f08XpaCdNcUISgGGOFIBQeCBQHrKyyChRtrIDEtYa/29VXX60+Q6+blphevXrppexLly7Vl2LJ/oABA6zVBH0bjv2YeqxSpYq6nw+Zigq2Yc3BdB+23QXWoiuvvNL0l8QPg3fffVdFVf+vHg+UOYwVkeiXL1+uHcwxnWYwcq+P+1kEqAzxk+AoApjbf/vtmTqAoJE+IJgdnDdvno54jKkWBBz05JwbzPYisS7DURYWBkxRgpE1XQZiGy1fnq3IBDJGq+8Drq9Vq7bUVEvm3cXTMZTJzDyhl0tj2/AHwXasCZKaHjuWYg4bCuvcuV+b+9G0AaUBDtAQTG8ZU1yYZjLE25SSca1R1l3ZueqqqwQvuwSrYQ2xxj8ytjEu69iMsnh3HycsWngZ0qpVqxwxtYxzfPdMoKDnwzxKAvYTQIwQLP2Gk3QoFCFjRPgVjSmzbt26mykKjHOR9A7HSGsMFGucFE/jQMyUpk2zlqR7Om8cM+qEMjRhwkRlgVmpf1kb519++RWXKS7juD/vmCazCn69wzrkLoZlyFDQcH7Xrl3mtAccsfFLODdBPCRYsgIVMEDOMTAIlcDnBdau3MS6Ogwrx849NzuWFpxvrQo9cr7l9gA16kcMG8Q7UgYGU/7552+XGDROz7ZudpwbJBAkArQMBQkkqwmcAL7gsSQYpl48fOwSRP3t3fs6ufbaa+WJJ0a7+KHY1Yf8tIOHKCIRQ7CiZvr0V3JUlzUdlXUYpn9fpE2b1jqgH8rC1L537x4dFM649t9//xW88iPVqmGaLFtq1aqp+cMx1pj2QpJSvCD41QslDCvQHn54hD6GP127dsmxmgh1YCoB/hbw/bDGWjIvzGMDlivkZ0MdTz/9tNx44w3SoUPWVEwel/p0Gg7pRr8GD85apZfbhZhKgdMwYurAhw6RpiEYJ6IqIziiIbkldX3jjdeVD0yWEgXl7s8//1LRmyeqHwXj9A+PN954U8WyeVNXgyklp67AxNSo4RhsjDmU7/hegkN2KAR1wxfPDoE1t0+fPnY0FbFtUBmK2FsXHR3HNMwXX3yuVyo99NCDYRsUYpNgVYbTnXHhIIu8VVZJTEwSrDCCTwV8rYzzCODWrVtXHfAPvhA4jwB9VisHpgqSk7Mj76JeTCFiZZcRTLFJkyY6yOLkyZNVgMsVylE3XUfwxVQVBNaJW265WTltdtf7VkuGPuDhDyKFG/2E1Qd+D1BgEETu0KFkfYV1JQ+iJi9YMF9bNBB1GueaN28m8P2APPjgA1pRgr8Mvvhh/cDqJ0TdRnTfgQMH6nJFixZTCkRDc4UNHvpIi4D4PRDj/s+c+bZWVgwLJRh4EzwwjfHA6RbxbYz9+vUbaOXC2EeEa0zxoK8LFixQD9uKanVYR1mzZrVuAiubEFgRfKGYwPLz4Ycf6HQKiDx9/PhxbeFDkln4CMEXDhYwxGZCWhHkpPvjjz90XYbVDOPCKirjXsPihhhOixYtVDF7vtdBNVEWyhWUPrQ5YMBA814YK5K8MbDjHBTUt956y46mdBsPP/xwyJQhLKd3XwkXqoHdfvvtVIbygFtA/fI5k0eZsJ3GFxq+kAcNujNsfWDDJBDpBO66626dVgBWN6RlwIMTigemmHbsyF7eHunjtPYfVjBEJoesWZOdjgOK1+7dWbGNrOW57RwC8fGFBSEDPMn8+fOVFfcJT6dCcgwr1fAjwl3w2Ny/3zWFinsZ7JcuXcZlGtNaBnGO3J29reeDuY3cZHCq9iSIRZSe7j1wqafrAj3WQ618hJXTaULLkNPuCPtDAkEmsHnzP+pLNyvOCpYVw4qBlTjWFBFBbjLs1SGYo7G8HJYqPNCQmqJlyxZh7xs7EDgBBEM0AiIGXoszrsRKL4pzCFAZcs69YE9IICQEYjFb9cSJE0LCkpVGHgHkWcPijN69e0de59lj2whQGbINNRsiARIgARKwkwAWAIwePVqHYUDwQcQWcoL/E5yn4ftk9YsLFZctW7Zox/t69eqFqomoqJfKUFTcRg6CBEiABEjAIIDwC3Cch1UIPjGQTz75RAcmRJJW5PMKpxgRohGFHUEjQyWJiYk6vx/S31C8E2CcIe98eJYESIAESCCCCGDVHEIRYEWdoQih+0jNAyUJS8yxCtEI4RCOoSG69OHDh2Xw4MEuscKC1RcsjsCKxrffflv7zmGFIsU7ASpD3vnwLAmQAAmQQAQQgJUFIRAQUBUBRnNbKA0l5JtvvtHhDhBSI1yCEAxY9bhs2TKpW7eumRokv/0pWbKkDjSKMATMReY7TSpDvrNiSRIgARIgAYcRgNLz1FNP6Txf69atE0Rmz0sQ3wyZ7LHC8MILL7Qt+KGnfiEe2MaNG2XIkCH5shIZ1iDEL/r+++9VHKsSnprjsVwIOFoZQiwUCgmQAAmQAAl4IoBI6AjgiXxeSCacmzXI07U4hgjQSHAKy8ysWbNyKxby44h/hem9lStX6mSy/k5rQfFB3CJkqb/xxhtD3t9obIAO1A69q/v375etW7eFNEeXQ4fObpEACYSZAFZc1apVM2TRl/M7PCg9iFYOKwiUoPwIUrwcOHBA++8gu/tXX32VLwtNfvqCFV/r16/XgSWnTp2qp/u81QdrUKlSpWTSpEk6Erm3sjznnQCVIe98bDuLEPuIrrp48WL1S2WJNuEi3xTMuf7+2rGt02yIBEggqglg6Xe7du10WhcEOzTSe4Rz0MgpiJViu3fvDqoTNFKvIN0JFBJklL/zzvBkPsCMyJNPPilIodGrVy/Ztm2bx6k/WIOaNWumlTcoRJT8EXD0NFn+hhYZVyNFwgcffCjt23dQaUfuko8++lgrQug9Vj8YGcQjYzTsJQmQQDQROHjwoMybN0/lWXtY50+bMWOG/oEWrjH27dtX5V6rr6eDQrEa7NSpU9oag1VesI7ZlUjVE0/kB0S+ueHDh+t4RIbbCByvoaTCcoTEvVSEPNHz/xgtQ/4zC9oVyLuGvFFYTWAIPuRYdtm+fXuVMLGD/pVCy5BBh+8kQAJ2EICVZNOmTXp5OpLJ/vzzz9o68fjjo1QC21nq9a7HnF2h7huS3MJyg+mhUAtcFaB4hFOgAD3++OPa0RtWIihHeD7MnTs31/xt4exvJLft6ESt+BUCj/9oTNSKpZ+XXnqZIDooBL92sCT02muvFTjTUUiABEjAKQTgZIxEn7ASQRDEb86cz5RfUa2gd9FbotagNxZghfiBmt9Erf42jTbhSnHppZf6e6nX8kzUmoWHT12vH5PQnITD3sCBd2hFCJr/vffeq7P4IrMwFaHQMGetJEACgRPo2rWrjs2DFBKIagx/ndtuuz2oPjuB9y42rsSzItiKUGyQ822UVIZ84xTUUlOmTDGnxrAiAvlz4CxNIQESIAEnE4BTL9Ja4EcbYuM8+eRTIejumRDUGdwq4evpmzh/LGfO+DoW30YcqaWoDNl85zZs2CATJ76gW0VcCCQRpJAACZBApBC4/PLLZdiwYbq77777rqxatSqoXYfl3Ol+kljl64v4Ws6XukJVJhL6GKqxW+ulMmSlYcP2+PHP69UY+GWFGBnhdtCzYchsggRIIMoIYOn3ueeeK7CQjBgxIqjKCxShtLQ0xxJD/1JT845yjQGkp6c7dhzoGJLEYgUdRYTKkI2fAmjgS5Ys0S1iiShiRFBIgARIINIIJCQkyEMPPaS7vWbNH7JmzZqgDiEtLVWHFglqpUGq7Nixoz4rEFA0UlKOBanl4FYDRdapfQvuSH2rjcqQb5yCUuqXX341g2fdcMMNQamTlZAACZBAOAj07t3bbHb+/AXmdjA2YH05fPiQzjp/6tTJYFSZrzqgOCAwLqJd490fgZXr0KFkOXnSt6k1f+oOpGyWgpai4ikd9FmpC6SdSLsm9MEaIo1ICPu7cuUKs3ZahUwU3CABEohAAoiAXL58ebXEfL+OQxSKIaSnp6mppjQxAg6Gog1f6syvDxNmBRBOBe4R4RyL0jHV1CanxTzdcypDnqiE6Njff/+jay5SpIjUrFkzRK2wWhIgARKwh0Dt2rW1MoTcXqGU/CojoeybP3X7vgrNn1ojq6xT7yWnyWz8HBlmUgQqC+evAxuHzKZIgASimECdOnX06GhtiOKbHCNDozIUhhtdoUKFMLTKJkmABEgguAQwTUYhgWggQGUoGu4ix0ACJEACJEACJBAwASpDAaPjhSRAAiRAAiRAAtFAgMpQNNxFjoEESIAESIAESCBgAlSGAkbHC0mABEiABEiABKKBAJWhaLiLHAMJkAAJkAAJkEDABKgMBYyOF5IACZAACZAACUQDAUcrQ4zFEw0fMY6BBEiABEiABJxNwNHKkLPRsXckQAIkQAIkQALRQIDKUDTcRY6BBEiABEiABEggYAJUhgJGxwtJgARIgARIgASigQCVoWi4ixwDCZAACZAACZBAwASoDAWMjheSAAmQAAmQAAlEA4FC0TAIjoEESIAESCD6CMTHF5bExEQpXLiwxMXFhW2Ap0+flhMnMiQtLU1Onjzpdz8KFiwoSUlJehyFCsVLuFZKnzlzRvc/PT1Njh8/7vc4ovkCKkPRfHc5NhIgARKIUAJFixaVokWLOaL3UGYSE5P068iRI5KR4bsiAeWnVKlSgjrCLVDC4uPj1aukJCQkypEjh8PdJce0H/674xgU7AgJkAAJkIATCEDxcIoi5M6jRIkSUqiQb3YEKEBOUYTcx5GQkOBYxu59tWOfypAdlNkGCZAACZCAzwQwpeRUgXXFV0UNU3xOsAjlxhLWNyf3L7d+h+I4laFQUGWdJEACJEACAREoWDBOT+UEdLFNF8GHyRcpXDjBl2JhLePrWMLaSRsad7QyFC4nMxu4swkSIAESIAEPBCLhex999KWfvpTxgMDWQwUKOFoNsI0FKdiGmg2RAAmQAAmQAAk4kQCVISfeFfaJBEiABEiABEjANgK+ucTb1h02RAIkQAIkQAKuBA4dOiQHDhyQGjVq6Fg9OIuYPzt37pSqVatKkSJFXC84u/fPP//oOEUoY8ju3bslJSVF7xYrVkyv9jIcto8ePSp79+7Vq8Vq1aqly+zfv18OHz4sJUuWlAoVKhjVhOx9z549kpqaKnXq1DHbMMZavXp1tSQ+yw/p77//ljJlyghiByUnJ7twwDmMyTpuszJueCRAy5BHLDxIAiRAAiTgFAIDBw6U+vXry/vvv292afny5frYDz/8YB6zbvzxxx9St25dadasmUuAwXvuuUcaNmwoTZo0kSpVqggUoptuuklfOmfOHF1ngwYNBIoR5Oabb9bHRo8erfdD+QeKzQUXXKD7vWrVKrMpjBHj37Rpk3msUaNGMmXKFK28NW/eXPcTJ999912pV6+eLFu2zCzLjbwJUBnKmxFLkAAJkAAJhIkALDVfffWVVK5cWV5//XWfe4GyuAZWpc8++8zlunbt2mkFCQEUv/nmG/nggw9k/fr1ugyWm0MpWbJkiS6zdOlSQWwhO+THH3+U//3vf7rfr776ap5NZmZmyrnnnivjxo2Tzz//XMaMGSP33nuvVu769u2b5/UskE2AylA2C26RAAmQAAk4jMDMmTP19NSECRO0tWPdunV59jA9PV3ee+89eeCBB6RTp07y2muvuVyDVBSbN28WTIFB+UEQxbJly+oymHJr3bq1LFq0SKAIYR+WJDvkrbfe0m0/9NBD2gpmWKdya9tYrTZ06FDp0aOHjBo1So9n6tSpuV3C47kQoDKUCxgeJgESIAESCC8BWGhg4bnhhhvk2muv1T4yvliHPv30U+0XdOutt8qAAQO0lQcWF0NWr16tp6IwjXbHHXfIO++84+IP1K1bN/n222/1q2PHjj4tozfqDvT92LFj8sknn+jpLvT7xIkTMmvWLJfqMKUHOXXqlLZeGTGCEDgRyhCkbdu2Urp0ab3NP74ToDLkOyuWJAESIAESsJEApqqgxMBXCH4xsOjAJyYjI8NrL6AwwWoC/5snn3xSKw5vvPGGeU2bNm1k7dq1cuGFF2qlAxYgq0AZwrQZps86d+5sPRWy7dmzZ2sFbtKkSdqahYbcp8rOOecc3T6m96AQGcoRrFxjx46VatWqCfye5s6dG7J+RmvFXE0WrXeW4yIBEiCBCCcApaZly5aCaSMIVlo9+OCD2j/GmNbasGGDaQmBpQTTXnA4fvjhh6Vp06b6Oky14QWfGgimxeBrA18iKEzz5s3TK7j0SfUH1iDUtW3bNq0MwWITasEUWffu3bUlC21BGXv66adl5cqVUrFiRd08+t+vXz8xpgpfeuklue+++2TQoEF6TFDq+vfvL3fffbcel12+TqFmY0f9VIbsoMw2SIAESIAE/CKA5eKY7nrqqafM1V6oAFNa8AEaMWKEru/+++8368VScqz+gsUE/jPGknkkS7388su1I7ZZWG2g3CuvvCLnn3++PPPMM3oVFs5DoYKT9e+//y6tWrWyXhKSbawSw+ov+DkZK9vgHA1rFqxDb775pgwZMkQ7ShsKHRQg9P3tt9/W03nggqX3L7/8sraigQ+2Kb4RoDLkGyeWIgESIAESsJFA8eLFdRwhvFsFSgP8aaDIHDx40HpKJx2F/8yjjz5qKkIocMkll+iySJx60UUXyenTp83rzjvvPH0O02o4f+WVV+pzsBadPHlS50lbuHChxMXFmdcEe6NmzZo6jpLVkhMfHy8bN27UfUXfsIweCh7GDCUPMZcg1113nVx11VXanwr7WIKPFXiYRqP4ToDKkO+sWJIESIAESMAmAlAGEFTQXWC1wQvi6bx7eexDQfJWFpYjQ4yghoY/Do5blRSjXDDfMSXnqX/uimD58uUFL6u4l8G5UPfX2n60bNOBOlruJMdBAiRAAiRAAiQQEAFahgLCxotIgARIgATsJoCpH8Onxo62+/Tpo6ehQtEWnJzhF2WHdO3aVTtV29FWpLZBZShS7xz7TQIkQAIxRgBxhz7++GPbRo0VZ/DJCYVg+fuOHTtCUXWOOhE4EsoXJXcCVIZyZ8MzJEACJEACDiIAR2IsP7dLjGStoWgPK9iQfNYOQR4zincCVIa88+FZEiABEiABhxDAiq7vvvvOIb3JXzc++uij/FXAq4NKgA7UQcXJykiABEiABEiABCKNAJWhSLtj7C8JkAAJkAAJkEBQCVAZCipOVkYCJEACJGAHgZEjR+pAiJg6M16IwJySkiIIYtihQwcdeBBBCitUqKAjUCNYI8oijcXAgQPN64zr8f7333+HpPtYOWZtx9jGdNmCBQv0uRkzZphtI8/YuHHjdM4xo6z1fdGiRTpytvUYtm+77TZdB2IXWc/BbwhJaSmeCdBnyDMXHiUBEiABEnAwAawsQyRmq+8NIkgjWOLUqVPliiuukBdffFHn+EpLS5Np06bp0RjRp4cOHSrXXHONzhSPvGVfffWVPl+5cuWQjRpto11EwTYEudf+/PNPHWn6kUce0X1CYEWMD6++fftKixYt5Mcff5TnnntOp+hArjIcw/mGDRvK+PHjjeoEKUkgaOvWW2/VL+Riu/POO80xmoW5YRJwtDKElQMUEiABEiABEvBEAJGl69SpY54yIi/36tVLECPoscce0xnuJ0yYoK1FsAwZ0qxZM8Hrr7/+0hnukbvMDoGiY+0zrFaGIP3HsGHDdL4x41i9evV0zrTU1FR9CKvpYPkyBAqgtT6rMtegQQPp0aOHVoygGBqpRoxr+Z5NgNNk2Sy4RQIkQAIkEEEEjh07Jpj+MV5G8lYMAXm8jh8/Lki1gSSnTpHHH3/c7C/6bQ28OHbsWJ2IdsmSJT53d9WqVS71zZkzx7wWyWeR5gNTZgMGDJD/+7//M89xw5WAoy1Drl3lHgmQAAmQAAlkE4AlaPXq1eYBaz6xZ599VuckO3TokE5y+uCDD5rlwrkBBeX66683u1C2bFlzu3fv3oKksIMHDxZkrfdF2rRp4xKIsly5cuZlt9xyi3Tp0kX7HrVu3VpPsZknw7SBqT0nCpUhJ94V9okESIAESCBPApgm8xQYEdGdZ82apafJkPkd1hhMg9WuXTvPOkNdANNknvqMduEaAt+mxo0bC6xevggSy+ZWH5ywoXgdPnxY7rrrLuncubP069fPl2pjrgynyWLulnPAJEACJBAdBPCQxxSQ8UI2+yNHjujUE23bttVTZVAuYDG6/fbbBT454ZZBgwaZ/UW/4extFSgwY8aMsR7yur18+XKX+uAv5S5wnoa/0AMPPCDbt293P819RYCWIX4MSIAESIAEIo4ALB1YMWYVWFYwvYT8ZXAqjo+PF1hiVq5cKXv37tVL7aE8WB2Qjakkaz2h2MaUHtp2F1h14ASNc8aUGXyc2rVrJwgVYAgcoVHG6iD92muv5bAgwUcKsnTpUoFiBQGXd999V9auXaunDvVB/nEhQGXIBQd3SIAESIAEIoEAFAWrsmDts9VvBscxPWZMkSH+kFWwFN1Yjm49HuxtLG93b9vahvUc4gNZ91EOipL7sSZNmlircNlu3769yz6UMffrXQrE+A6nyWL8A8DhkwAJkAAJkECsE6AyFOufAI6fBEiABEgghgk4c3WX3TeEypDdxNkeCZAACZBArgTOnDmd6zmnnEB0Z1+WiPtSJtxjMiJyh7sf4W6fylC47wDbJwESIAESMAng4ZyZmR0p2jzhoI2MjAyfepORcdyncuEqBNbWqNzh6ocT2nW0MsR0HE74iLAPJEACJGAvgbS0dHsb9KM1WHuQ68wXQQRsJ1te0tPTfbJw+TLWSC/jaGUo0uGy/yRAAiRAAv4TgEXF16CD/tce+BVQbI4cOayW6PsWrwiKEyJgnzp1KvBGQ3QlFLrU1JQQ1R551XJpfeTdM/aYBEiABKKeQHp6mp7CQWZ6LEtHtOlwCZSfEycyVdJX/y09uDY5+aCKJZSkgyPGxWEc4UlCnjUFmanGkuFzuo9wMbe7XSpDdhNneyRAAiRAAj4RgCKRkuJbWgqfKgxTIViIoNzhRXEmgfCp2s7kwV6RAAmQAAmQAAnEGAEqQzF2wzlcEiABEiABEiABVwJUhlx5cI8ESIAESIAESCDGCFAZirEbzuGSAAmQAAmQAAm4EqAy5MqDeyRAAiRAAiRAAjFGgMpQjN1wDpcESIAESIAESMCVAJUhVx7cIwESIAESIAESiDECVIZi7IZzuCRAAiRAAiRAAq4EqAy58uAeCZAACZAACZBAjBGgMhRjN5zDJQESIAESIAEScCVAZciVB/dIgARIgARIgARijACVoTDccCTLo5AACZBApBNwYjb2SGfK/oeHAJWhMHA/cOBAGFplkyRAAiQQXAK7d+/WFe7cuSu4FbM2ErCZALPW2wg8ISFRt7Z582bBL6q4uDgbW2dTJEACJBBcApmZmVKtWjWpXr16cCtmbSRgMwEqQzYCr1mzhm4tPT1d1q9fL02aNLGxdTZFAiRAAsElsGPHDtm+fbt07do1uBVbaitYsKAUKoRHVQHLUbs3z8jJkyclPy4OBQoU0D+A8R4uOXNG1A/xk3IGGxQXAlSGXHCEdqd9+/ZmA4sXL6YyZNLgBgmQQKQRSElJkbVr1+put2jRPOjdhxJUokQJKVw4Ieh1B1IhFIiMjAw5duyoX8oElJ+iRYtKUlIRCaciZIwZ4zh+/LikpBzzaxzG9dH6Tp8hG+/seeedJxUrVtRGug5aAAAedklEQVQtzpkzx8aW2RQJkAAJBJfA+++/r5UDWG0uvvjioFZesGCclClTxjGKEAYHRSYxMVFKlizp81hxTalSpaRIkaKOUISMcSQlJalxlPJ5HLFQkMqQjXcZXxr9+/fTLS5ZskRWrFhhY+tsigRIgASCQ+Do0aPy1FNP6cquvvpqKV++fHAqPlsLLClQiJwosFRBmfBFYA2Kjy/sS1HbyxQuXFhbq2xv2KENOloZcoJJMdj37Y477pDKlStr82T//v0FXyoUEiABEogUAphmGThwoOzcuVMrBSNGPBz0rickOGNqLLeBQcnxRXxVmnypKxRlihTxbRyhaNtpdTpaGXIarGD0B794nnvuWV3Vhg0b5KqrrpLU1NRgVM06SIAESCDkBB544AGZPXu2bmfUqFF6NVkwG42LK6SsQs5+NGU5dHsfNX7MO33FMPrn9D56pxy8s87+xAVvnI6qCfPrd955p+7Tf//7X+nevbts2rTJUX1kZ0iABEjASuDw4cPSt29fefHFF/XhPn36mNP+1nKxsh09MxfhW93mpM8KlaEw3Y3Ro0fJDTdcr1v/+eefpXHjxjJ8+HBhQMYw3RA2SwIk4JEALNfPPfec1K9f37QI4QfcpEkveCzPgyQQiQS4tD5Mdw1m1pdeekmaN28ho0ePlhMnTsjzzz8vEyZMkIYNG0qrVq2kUaNGevVZ9PwCCRNsNksCJOAXgWPHjsnq1avlr7/+0jHR0tLS9PX4LoLf46hRjyvH4Hi/6mRhEnAyASpDYb47/dXqsrZt2yhFaIIsWrRIB/VCQEa8KCRAAiQQDgI1a9aULVu2uDR9/vnny2OPjZTWrVu7HOdO6Agg0CP8p5zuQxU6AvbVzGky+1jn2lLTpk3lnXdmyo8//qh9iTp27KidErH0kUICJEACdhPAKiMoPf363a6nw77/frHMmfMZFSGbbgSCItarV09b3xDbCP5ZhgvF0KFDpVy5cvLrr7/q3mBFctmyZeXrr7+2qXfR2QwtQw66r3Xr1pExY54ye4QlrMwKbeLgBgmQgE0EsMKI0/M2wXZrBi4TUEavuOIKeeWVV/QzYPz48XLTTTfJggULVOToFDl48KDcfffdsnLlSj2bkJycLMgTRwmcAJWhwNmF/Ep8GfmyhDPkHWEDJEACJEACthCAiwTiE2FRTc+ePXWbe/bskdtvv11WrVql9xEFG5YhKEu33HKLLf2K9kaoDEX7Heb4SIAESIAEIobAY489pt0kxo0bZ/a5a9euenvv3r36vXnz5lK9enXlw/WYqTCZhbkREAH6DAWEjReRAAmQAAmQQPAJYIps//79LklU4RMEqVSpktngpEmTVO62woIgmJT8E6AylH+GrIEESIAESIAEgkLgkksuEfgAffzxx7o++BBhcQ0SvjZr1sxsA07UCIA5b9488xg3AidAZShwdrySBEiABEiABIJK4NZbb5XBgwdrh2n4DWE6DLGdPv/88xw+pHCqvuyyy4LafqxWRp+hWL3zHDcJkAAJRBgBrLDFiip3admypbambN261eUUckF27txZr7pCOhFDypcv7xIm4PTp07J8+XLZvHmzFCtWTC666CL9bpS38x2LZqZNm6ZXi/3000/ambpXr15SokQJ3Y0BAwYIgmIa8vrrr8vChQt1oF7jmJPfcQ+dKFSGnHhX2CcSIAESIIEcBBBq5NJLL81xHFaTxYsXy+TJk13ONWjQQJAQG341K1as0OECMN106NAhrfBAscI01DvvvKOtL2XKlNGJs6EsIW6PdVrKpWIbdpo0aSJ4uQvi0FmlcuXKctttt1kPcTsAApwmCwAaLyEBEiABErCfAKwmsOLgtWPHDqlataq0a9dOKzboDfaN83i3RvK/+uqrdcwe+ONMnz5dW1Og7MAahGkpWFcQv2fXrl0C6wuS0jLOm/33OFwt0jIULvJslwRIgARIwG8CiL+Wnp4u1157rU5TAasQ4vJAEJAQq6wMwRL0Hj166N0jR47Ib7/9pqfTcD1WYiFJ9nXXXaeVqAsvvFCXg3WoTp06snHjRh3L57zzzjOqC8n7xRdfrNsKReXr1q3TARxDUXe01UllKNruKMdDAiRAAlFMAD4n/fv3l7Vr1+pVVpgmMiQ1NVXgQ2PIDTfcYCpDy5Yt09tIX1GlShVZsmSJINUFIjdD+bFKt27d9C4UqFALLFHuvk7BatOp/jnBGl8w66EyFEyarIsESIAESCCkBMaMGaOXnX/66acCx2mrVKxYUWAN8SRYdTV79mxtCcJS9YSEBF2sWrVqenk6psSQhgRiKCfIDxZqGT58uJl3LNhtMb+l70SpDPnOiiVJgARIgATCSAAOz0888YTO24WVYosWLdK9qVu3rn7PyMgwj+FAfHy8GNGbsQ+fo5kzZ2rH6Jtvvlmnt8A02Ztvvim9e/eWIUOGyL///qunx+BjVKtWLVwWUsFSekr4CVAZCv89YA9IgARIgAR8IPDPP//o4IOw7OBlyKOPPqp9Y2Dduf76643DuiwcpIsXL24ulUdeL6w669evn0yYMEGntHj77bdl1KhR2hEbTthQinCOEjsECqg5RWcu+lf34K233tIrBgYNujN27ghHSgIkQAIxTCAurpAY6SfsxgDLEqxJBQvmvdB6//59Likz3PsKR+/y5Su4H3bcPlbQnTp10rZ+de3aLdepTNs64aEhR1uG8GGikAAJkAAJkIAdBAw/Ijvacm8Dithdd92lA0SePHlSR5a+77779FQdVrbBkmWVRo0aaWdx97hDKIPpRFjDKL4TcLQy5PswWJIESIAESIAEIpMAlB8oPN9//72MHDlSO3c/++yzOhgkjmOVHIJGYvoOgSQhcBbHxA6Ow7/JCCGAc3ScBgX/hMqQf7xYmgRIgARIgASCSgDKEGIiwcqDPGQQ7GO13HvvvWc6gbsrPQgsCcF1UJQogRPIe2I08Lp5JQmQAAmQAAmQQB4EsOQf8uGHH5oloQwhAOTOnTvNY0i7geX+eC1dutQ8/txzz5nHX3vtNfM4N3wnQMuQ76xYkgRIgARIgASCTsDwVYLfkCHY3rt3r9x///3GIbn99tvNfGVGOAGcRBRrJHOFQImi+E+AypD/zHgFCZAACZAACQSNQPv27fUKNuRMGz9+vE4oi9xrUHi+/PJLsx1Exrb6BhnTZC1atBBE26YEToDTZIGz45UkQAIkQAIkkG8C1atXl6FDh+rYRo0bN5YOHTroaS/kXzMsPvluhBV4JUDLkFc8PEkCJEACJEACoSeABLNwgl6+fLmkpaXJq6++KlCMEGLmnHPO0Qlo3dOD4Byu69y5c+g7GOUtUBmK8hvM4ZEACZAACUQGASSMdU8ai55XqFBBEHPIXaAMeTruXo77eRPgNFnejFiCBEiABEiABEggiglQGYrim8uhkQAJkAAJhIaAgzNZ+Tlgx2bk8nMc+SvuaGWI6Tjyd3N5NQmQAAlEGoHTp095zfnlhPEgIWxeAmXJ6QoT+ufLWPIaazScd7QyFA2AOQYSIAESIAHfCeABfeLECd8vCEPJ48fTfWrVGjfIpwtsLpSRcdzmFp3bHJUh594b9owESIAEYpJAamqKY60qsKRgtZcvkpJyTGDpcqJA6UTOM0oWASpD/CSQAAmQAAk4igBydR0+fEjw7iSBxerQoWSfFTUERTx06LCainLWOKDQYRycIsv+dHFpfTYLbpEACZAACTiEQGZmpiQnH5TExEQpVKiQircTvt/uUGagCAWinOHa5ORknYk+Pr6wjjQdLsRQfjCOzMwTPit04eqr3e1SGbKbONsjARIgARLwmcDx45Hv14IpKYwjGsbi842LsILhU7UjDBS7SwIkQAIkQAIkEJ0EqAxF533lqEiABEiABEiABHwkQGXIR1AsRgIkQAIkQAIkEJ0E6DMUBfe1YMGC2ikPKxfwopAACZAACdhDAMGB8R0Mwfcv/IMokUeAylDk3TPd4/j4eElKKqJWKBR2WWWRFbAsQ8fBwGoMSmAE4uLwrxFZ0VnxpRwXF6e/kCNJKcaDBCuFnLb8OLBPDq+KBQL4X8P3r7HSzTpmfO8imGF6ejoVIysYh29TGXL4DXLvHv4Jixcvrv4Jk9xP6X2cT0hI1C+sXDh27Cj/IT2SynkQCia4JiYmmAomlIq0tFRHf7ElJCToL+XChdHvAnpgWEKbkpKiv5RzjjT8R4zPaVJSkoA7BKyzVtykB7SEOfyjYg9igQD+z0qUKGFag9zHjM8zXkWKFJGjR486Ppq2e/9jdZ/KUATdeTxASpYsJYULF/ap1/jVEhdXUAUvO0yFKA9ieCgXL14iRylYLYoVK65jhDiRI/qMvrsLLEQlS5ZUSly8UoiPuZ8O+36pUqXUA8P1cwzWeIDghYBwtGyG/TaxA24E8MMD38G+SMGCcVKqVGkdPNLp6UV8GU+0l6EDdQTd4aJFi/msCBnDwgOnaNGixi7fPRBAQLfk5EOyfft2l7O///67/PLLL7J48WJ1bod6SDuH44EDB2TLlq2mIrRz5061v8Wl/+vXr5dNm/6nFTn8Ql29erUO/uZSKAw7Bw4clH379uuW9+7dK6tWrTJ7Ad5ff/21HDly1LRymSe5QQJhJIAfGCVKlPS7B7gGihHF2QSoDDn7/pi9wwMbv5gDETzEcT3FMwHwmThxokyePNmlQM+ePWXQoEEybdo06dKli5x//vmOeUCPHDlSunXrppSGI7rPr776qowdO9al//3795e2bduq6acz8tFHH8nFF18iCxYsdClj9w6sPy+++KJMnz5ddu/eLR06dJCVK1dqy+W+ffvk7rvvlpkzZ0qzZs3kmWeesbt7bI8EciUAC7ExDZ1rIQ8n8JmHawPF2QT4hHT2/TF7l1+rBJz94D9EyUkApu/c5KWXXpJKlSop35sMbXmBL0C4Td4HDx6UZcuWS7t27eS9996Te+65J7fuS+3atWXFihWq/DKpW7dOruXsOmFM8cJSdfnll0ufPn1k8ODBWqk799xztYIExl988YX89NNPdnWL7ZCAVwKwCnn7nvB6sTqJa7Eog4sE8iIVvvNUhsLH3q+W8/OPiIZwvQNdR/xiEIrC+KXn7dde3759tTMkFBA4JWOFyP79+0LRFZ/rhJXnyiuvlAsuuEBeeOEFr8pQjx495Ntvv5XfflslF154oc9thKogfiVDXn75Zf1r2fB3+uqrr7SlC4oQFND58+fr/VD1g/WSgD8E8vv9i7ZQR1qasxK2+sMg2stSGYqAO4wHiLcHti9DMOpgDAxXWuDhbRn6vHnzpEWLFjJlyhR54403tDO6aw327qG/s2bNUhaUPdqXCb5CP//8c66d6N69uwwYMEBgdSlSJKejda4XhuiEkSX7qquukscff1xPPV5//fVyzjnnaAUISmevXr20Fe7PP/8MUS9YLQn4RyAr1IZ/17iXpquCOxFn7VMZctb98Nib/CpCRqVYXYQVURRXApgCg8ydO1d27Niht4cNG6bfR4wYoRXR3377TZo2baqWfIc3dtOKFStVH07J5s3/SOnSZeSRRx6R1157TSpXrqyVoxtvvFH325g6a9iwoXag79SpoyPuPaYYodA1atRImjdvLv369dN+WXBSv+iii7RvVuPGjWXhwoUyatQoPZZo/JOmlNkilStF49CickxnI1bka2z8IZovfCG/uIC6QY4NlwlHym3btqkvyztDDsLJDUAZKl++Qr67iOkdB9/ufI8v0ApgNUtJSRWs0DKkXr16aiXWJh1LBMvAy5UrpwMaIuZQOAWrr1JTU7UvEPxv4By9a9cuKVOmjH43+larVi21Ymuf1KxZU/766y+1HLiEvg7TUigbTsFqMijmVatW1bGQNmzYIE2aNNGxkjZv3qzvQ4MG9bVvVrR+Xn8e+bi0GzsmnLeBbftBAM7TgS5gMZpJSTmmg+Ea+7H63rVrN1m3bp3jhk/LkONuSc4O4YFw8uTJfK0Ig0UjWh8sOYn5dwTTZKVKlZQaNWq4TEdiJZYh8BVyggN6xYoVjS5pZQFhE6BIQKpUqWKew0bZsmX1l2+NGtX1cSh1TpBy5cpqqxb6UqxYMWnTpo3ZLTh8Q5FDnKFo+7ymbN0mxdS9SN25S/YqC9+xrVuluPrMGe8mBG44jkAwYl5lZJxw3LjYoWwCVIayWTh66/jxdB38L9BOHj+eNRUU6PXRfh2mb5KTD6oppWLa0dGYmsSXYHp6mo6M7EQGsBJlZp7USoXhkwAlAukAEM053CvfcmN2+PAhzRkRv40VZlhpkxWB+rh2Vs/t2kg9vvr5iZKglO7CZ5XSv9//UDJVlPD0/fuly4zpkTqsmOj3iRMZ2rfQWADg76DxY5YryfylZm95RytDxgPJXiTObA2WCSyPxxJPfyVrFVSav5fFXHlwOno0K24PvvSgVESCdQJf1MnJGXpKD/3GF6/TBVwNxQd9xv+64Vzt9L4H2r+S9erKli++NC/fsehbvV398kvNY9xwJgF8XvHDI9B4QWlp/P515p3N7pWjlaHsbnIL/4x4UCO8u79KIvOT+f/58bbCzP/a7LkCfY7UfttDKDytpCs/ryQ1vQllyJOUVk7uEKOcpzLux+BzMferLMVqyH+Gyq8qcvfKlSukQYOGctXVV8vUKZP1FOm11/aWv//5W/5Ys0ZUEAlp1bq1lCtfXhbMn6erbKqCW1566WV6e+bbb+u8fIhptn79OrVgoJmcOn1Kn+vV6wr9Dp+uT2Z/rKO1o+5uarXilyom1IYN66WzCvWAqdivvvxS1ZOkHeLnq3buu/8Bmf3xx/Lvv5vl/I4dBVO936go41Daq1evIdepWFOo99NPZuvrht57r27LaX9gIUZibOQm80dg1ceL4mwCVIacfX9ceocpGwSrQ5JAXxUiKFBOnSpxGRx3SCCKCGQkJ0s8knmqyO+/PvGUtBzxcK7KUKkGDQT+RL+NHaeny84oC2XG4SOSWDZ3R/ftamHJp598oon17n2dLFywQBYtWig9VNT0iy6+WGapYJywItdXda9fu04+/3yOtGrVSubM+UwrJ7j2uj59pYxakWjId999q6db4WC/SK3m26LSu5QvV16fNpShsU+PkcOHDkmFChXkidGjpKuKgo661591iG3RoqXuF76f4IP3xeef6/Y+UYrONuUjdUqthGx/fgd5X4WHQNDQj1XMrMpVKsuePXu0EoXvuLtVEE7Em3KiIOI7fpD62j9YbZ2YGzCcbJ1qbWc6jnB+KgJoG74gcC7NS8ExfGAwFUEhARKwl8DRf7fIouuulzXKTwgO08sfHCYFVH4qKEdWiVOB+ArEF5IVDw2T1B075Y+Jk2RRnxvksMor54tA4cEKw3+3/CvFlfIFwQpcTOdAqdl/Ngccjrc7r72eisR0DwRBOM9r315vu/+B8/02paC5C6xLqPfcxk30NCcebGivgrL27FLjhGDVFZJE4zgE0587VcgKlNm9Z7c+hj+tWmc5ziPcBxSlmmrlI+rbr3yonCroH75/sTLM20MdFlpY5J2Y3NmpbMPdLypD4b4DAbQP8zIcUOHwi384mGDxiwrv2MdxnI8E35EAhs9LSMDxBMo2byZn1ANx27z52kkalqKVDz8i8W45quKLFZWVwx+R4weT5ZT64bL162/kpPIPLN+mtU9jRLDKXbt3aWUCK/Eg27Zt1dNVmO7at29vrvVMnPC8fK4sRZ6kTt26KsTBfknNJZTELbfcIh+qqS887I8pazUUmZ07d+iq4AOGvqAfkF27durvJ5TZqyxAngSKV5UqVfWp/SokhNMFPkAIxXHkyGHtS4Qfn3hB0cR378GDB3S0eqePg/3LJkBlKJtFxG1B2YFjNabO8GsF79inEhRxt5IdjiICmcdSZN0rr0qx6tVcRgWFKENNMVkFStBxN0vIKRUEdN30GWqqLO8AqbVq1ZbVq37XliCEWYDAyoI4TkWKFtGxpqztWbebNWuulJha1kPmNixD8P/Zvn27ecy6UVpZh9A22oJgSgxTXafPnNb7UKYMy9BWtzLiIbLd1q1b9HQZLkZ8rEiQM2qsCNiampqiFSAoQdiGUuTNahQJY4vFPlIZisW7zjGTAAmEjEB88WJSuXMnOW4J4ulPYwlK0ah4fnu1DD/vuFC1atdS6Vh+0o7IRhtQPtauXav9ePapKbTc5EIV8btFy5a5nRYoNJje8iRwoh7Yv79sUUoMZM5nn2kl4MBZxa5OnTrmtVu3ZClMKINpe/co+CdU/B0oUoYPlDdrlm6Mf0ggBASoDIUAKqskARKIbQJlWzSXLq/NkCpdLvALRMUO7aXL669KBeVc7IvAOgOn3moWKxSUoZ7KH6hjx04u/jeZmf4F/atbp66e3vLUj+3bd8iff/4hW5WTdb169aVf/wG6GHLlQaBIYeoeAutRpUqV5M5Bd+n93buz/IaM/iAFDnxsHh81Wi8M2Wfxc9IX8A8J2ECAypANkNkECZBA7BGAhaj16MelxfBhUjCP1VEFlCN00/uGSrunn/LJImTQrHXWTwhL1A2B8tFYOThXVf5EWMlk+P1geTuWy5cunWVxGjf2aXnj9deMy3K811bWHXcpqYJGIk3NN1/PlXOqVZPt27Yrx+gKSiGqp4siNQwEipQh8B2CD5FRxvAbQn+wKqtb925aCerYqZNezUbLkEGO73YScHRusnfeeUfwKyfWc5PZ+YFgWyRAAsElcExZT5bcoawiyvqRoHxxktSy9BPKv6+wUpZOph+XNGUpOa38TDpNmyylzsYcyqsHWEGGWECw/ixbtlQaNmykrEDIPSh6AUUTpQylqOjWmMZCQl/4FMKnqFGjc/Uii40bN+omKleqLA3Otvnbr7/qlD/xKuddwQIFdDygNX+s0e+4DgKfxFUqaTFWiLVR6Wo2qFVviSrfHRIFr1mzWoqrHF7paiFHp06d5YclS9QKugKSoOLylFRTfiizatVvZn8SExKlrlKiMHWGGESdO18gK1YslyIquGzzFi10e/wTfQS6dOmqPru+rZa0c/RUhuykzbZIgARijkC6mvY5o1KNJKpgh8bS+g1vviXlWrWUcnjoKw3m+MGDqswpHZwx5gBxwDFFwKnKkGvQi5i6JRwsCZAACYSeQFKFrMCFubakrDCJ5crleponSIAEQk+APkOhZ8wWSIAESIAESIAEHEyAypCDbw67RgIkQAIkQAIkEHoCnCYLPWO2QAIkQAIuBGpe0UsKnQ2S6HKCOyRAAmEhQGUoLNjZKAmQQCwTgDM1hQRIwDkEOE3mnHvBnpAACZAACZAACYSBAJWhMEBnkyRAAiRAAiRAAs4hQGXIOfeCPSEBEiABEiABEggDASpDYYDOJkmABEiABEiABJxDwPHKUAEVkIxCAiRAAiRAAiRAAqEi4HhlKFQDZ70kQAIkQAIkQAIkAAJUhvg5IAESIAESIAESiGkCVIZi+vZz8CRAAiRAAiRAAlSG+BkgARIgARIgARKIaQKOjkAdHx8vkydPlrlz54b8JtFR2xUxebjywB6ZkElOAjmP8HPiyoQ8XHlgL5aZHD16NCcQBxwpcEaJA/rhsQunTp2SvXv3ejzHgyRAAiRAAiRAApFFoFixYlKiRAnHddrRypDjaLFDJEACJEACJEACUUeAPkNRd0s5IBIgARIgARIgAX8IUBnyhxbLkgAJkAAJkAAJRB0BKkNRd0s5IBIgARIgARIgAX8IUBnyhxbLkgAJkAAJkAAJRB0BKkNRd0s5IBIgARIgARIgAX8IUBnyhxbLkgAJkAAJkAAJRB0BKkNRd0s5IBIgARIgARIgAX8IUBnyhxbLkgAJkAAJkAAJRB0BKkNRd0s5IBIgARIgARIgAX8IUBnyhxbLkgAJkAAJkAAJRB0BKkNRd0s5IBIgARIgARIgAX8IUBnyhxbLkgAJkAAJkAAJRB0BKkNRd0s5IBIgARIgARIgAX8IUBnyhxbLkgAJkAAJkAAJRB0BKkNRd0s5IBIgARIgARIgAX8IUBnyhxbLkgAJkAAJkAAJRB0BKkNRd0s5IBIgARIgARIgAX8IUBnyhxbLkgAJkAAJkAAJRB0BKkNRd0s5IBIgARIgARIgAX8IUBnyhxbLkgAJkAAJkAAJRB0BKkNRd0s5IBIgARIgARIgAX8IUBnyhxbLkgAJkAAJkAAJRB0BKkNRd0s5IBIgARIgARIgAX8IUBnyhxbLkgAJkAAJkAAJRB0BKkNRd0s5IBIgARIgARIgAX8IUBnyhxbLkgAJkAAJkAAJRB0BKkNRd0s5IBIgARIgARIgAX8IUBnyhxbLkgAJkAAJkAAJRB0BKkNRd0s5IBIgARIgARIgAX8IUBnyhxbLkgAJkAAJkAAJRB0BKkNRd0s5IBIgARIgARIgAX8IUBnyhxbLkgAJkAAJkAAJRB2B/wcuOS4Ly+V69wAAAABJRU5ErkJggg==" parent="1" vertex="1">
          <mxGeometry x="378.6" y="139.79" width="113.9" height="60" as="geometry" />
        </mxCell>
        <mxCell id="b2_v_rB7HseoIvOAP7tp-16" value="" style="shape=image;verticalLabelPosition=bottom;verticalAlign=top;imageAspect=0;aspect=fixed;image=data:image/png,iVBORw0KGgoAAAANSUhEUgAAASwAAAEsCAIAAAD2HxkiAAAABGdBTUEAALGPC/xhBQAAACBjSFJNAAB6JgAAgIQAAPoAAACA6AAAdTAAAOpgAAA6mAAAF3CculE8AAAABmJLR0QA/wD/AP+gvaeTAAAAB3RJTUUH5wMcADo4l1F1igAAgABJREFUeNrs/VmsZemVJoattf5hD2e6Q9y4ERkRycxkMjNJJqs4FFksF7u6hCp1S36oVgs2DLcFSPKDBeuxAcMGGu13WQ+2H2xZAtqADBVsy4YNw5LV1UPNM1kki0wmMzMiY8iY73zPsKf//9fyw3/OvudOkRGRkRyq9seL4Mlz9zlnn33/b6/1r+FbKCLQocPZ4HOep+79X+D7v6iz6dChw3OiI2GHDh0JO3T42w3dXYK/ARAGAGh394hLv5L4r7AwIREhdjfejoQdPjnTYjhN6TnbkIDDSfohzV8CAERIoOLLJQAidFTsSNjhmTGnDUeyYUvL+W+X6DedzdrHdV1ba9M01UojHh0WX9tRsSNhh2fGwcFh+3j/YL99PJlM2sez6REJffDr6+sXL15M09RaS0RaqY5+HQn/lsI5x8xJkhyzYATC4LznwEjYNE1d1975EP3LBcFc45qmAYD2eREREQ4MS1s+RERCJFz6A+vJZIKIa6trtamNNtZapZVWmlT3N+lI+LcJZVkmSSIi+/v7RVG1zxezQkQCBxFxzoUQnHPBB6WPKLJcUIGIuOR6Rr4hIDJGDp54CRJy4PF4DAC9vJckCTNroyEBDR0POxL+bUKSJJPJZGtra29vj48XWiAiEUU7BgCKlLIq2rT2ABERFgCIdI0cWyakoMw3iqdKoFoecmDnnA8+SRIA6HjYkfBvPkSkJYn3/tatW48fP86ybDhcaY+ZTCaKFBEhog8eFkEXEJAg7fuc5NWyMUSMH/SECsTIw8Y1ItK4Jk3TSOmOhx0J/4ajpUrw4Uc/+tHW1hYAMHMkTPDBeTc3SgCBA+KcDZEhy07o0ptyS8tl09cy8Dwqxg2nsFiwdV0bbZAwiGitkyRRav4Rx+M1n3b0pnv/joSfPkRkMpk8ePAgMjBJEkQ8ODjo9/rWWlgKtDzfm5/5+AnHO+/i47qumdkyx1Oy1rY87PATRkfCT5eBTdPcv3//gw8+SNM0Gr0QAojUdY2ESqvQhJ/wKUUeKq2Y2UtgDpHAJ3i47Et36Ej48wpE/OCDD27fvk1E0eCEEEIIg0F/Op0671ZWVn4qtwbnnWoUKyYJIRyFiay11NnDn/w66foJXziYmYicc5GBSiki0vrofmeMaR/nWR8WTukn+Vucfu0xZ5XjHlIBAOOcbxzC6tpaTI30+/3BYJDnuUJRpOZhVzyWGun+sp8SOkv44uGcM8bcvXv3/v373vs8z0MIRATHQynxceMaa6wi9Uk2h8+BmPqfTaeISErVdR0raTJrwEDkYfen7Ej484oQwr179+7cueOcS5IkWkWlzs4DeO8BIPIwpijOw3lpwOXfngeBI9oTAoskSaKVYmZSKt44ZkXhQ5A8zSEHAwCqS110JPy5RF3Xk8nkvffeq6pqNBoxMzOLSLSELXgpYd/y8Mm5vhcIQnRNA9YWs5m1NstzZq7r2jknwQFA5CGRXvZIO3Qk/JmGc05ErLX37t378Y9/LCKj0aj1QtM0PZN+LYTlTHf0tH17Gi9x2d2d/5mNBoDlT0BE71xMkxCRdy7L87IoKkDhaV25JEn6/dxaO68dkKep+e40Y57n/TsSvgAURZHnuYhsbW198MEHSqlo/Y5dfuYn0yaGcz5NY0jLi0BEePFBZVkKszYmy3N2vq7reb+iQgA44iF3vRefCjoSvgBEBt6/f//GjRtlWQ6HQ++99751Qc80X/PfyvwYDhwrSIOEo+eXXkhIAMBy9r6RlvjBx+64R88jagBA4vYXSAQAwXsWmU2nK6urSWqapql9BU6gZABAgMTYeDodDzsS/vRx1J1wnFf379//6KOPZrPZ6upqURRa62USPiWYmRR92jvD+OazomifqaqqaZpiNtvY2PjMKy9ra6umrus67gdJAHLQxhBhx8NPA12e8Jnpd3TtEJumMcYcHBx873vfq+vaGLPsdiKiUkop1bY7LNNy0R2PS5Qm7/1oZcSBnXexr6L1UUMIsWmQhTlwCIHFK1JKn0wnGJ3M+xK9N9bEIlXvfNMEABAWFjkc71ZlVdSFtTZ49iE0wTPz1asvffPr30iS5OBgP7UJM/fTLE3TwcoKIpKiJDFPuI2c83y3J3zS+3ckfDYStpcrhBAjMY8fP759+/b+/r73Xmu9TDNjDBERUVsC9gQSIqHRSQghMjm+KnbrWmN5HmY9IiEzi4QQHwUuyiPLVswqH7x33ntvrW2apizLpmmSJJ8T0nutEQC8eER0Ligia63SuqqKixcvfvWrX11bWTk8PFRKucaNRqMkSdI0TbPUaIN0XkVbR8KOhD9BEhZF0e/3p9Ppt7/97el0mmWZiCilYr4hIiYJl99kOVvYWr/2GWts4FAUhbD0+oPgQ9vmy8yBOXjvg2OeU6+sSmYOPgQO3h19LgvLgsHj8RQR490hPhdvHyurKyLBhdA0DTMbo5MkMaSRJQQ/Go1+4atf2djYeLS1FelHhHne6+e5tdYYdaK3uCNhR8KfAgkBYH9//913393b27PW5nlelqVSavmALMtOvMmTSQgAwrK9vR3LO5vaR5ey9T8BOLKamQMHRIzuqCI1nU6Xyd922Y/H42hsY3matTZJEmNU4BB8cOy9D+1JKIEsSb1zQrS2tvq5t9565bOvFkV5eHiYJMlwOMzTVCud5Ym19iwediR8nvfvAjPPxkNhQUJhKcri+vXr3vvRaDSbzQ4PD/M8Z+blutD5H/CJ4RlEdM7lWe68q+saEZ139+7dK2ZFtHeRVNZYAGhco5WOqx8JY2IjdkUgYYh0Impcw4F98My8srISXVDnHCkDII2rGgda6cY1AJAaq42u61oJGGOiaE2SJPfu3ZtVlbJ6c/NSr5eLyMHBQW2T4XDIMnd0FakYSfpJ/QX+ZvYfdiR8WsSVH1Pqzrsf/vCHh4eHWuvo3eV57r2PrRJPSb+IWGg6Ho+10UmSxDyH0SbLk5b5TdPEXt7zb9XzEu3TUApDYOfqWEPXPh9rVuOD2FtskBrvvWtMkoTg+ysjZv6zP/nTL33pS6+99lpd175uZt4DQN6b1x7Mc/0/UR7+DURHwmekIuHe3t7Dhw8fPXrU6/WYOYSgtY4J+vjvafbCWVUs8TEzO+eqqiJHZVE+uP+gaapeL4vcZvaB5+8PAFprAAZEicKhcpSHPFKdIQRgQAZgAN7b24s9HCdMtHOuJXbwIEbEEGmVmHw6mW5sbNR1HThY0u+986PZ4eSLX/zi2vpafLIsy/Z9jDEadMfDjoQ/IQQfZsXs9u3b77///vr6ujFmNpv1+/0YO+n1eiGE0zR7MoioKApSNJsV169/UFXVlSsvRaMaQmD2zOxcUErFIrjlwA/hsR7cM24Zi22bcw4Wff3xQ2PUFACstU3j66YGgH6/L4QuhFkx00rPDsd5vw8A169/YIx+4403tdLjydhafWoZRR52a6Qj4YtGDCcue5XXr1+/efNmbMaN4tbOuRh+dM6d6X+2VNRa13WttY7phizLZrNZMZ4AoQS+d/smBn95c0MDNj6QBgnMLrgQEBEFgvNGKaBlKUSWEFwIzCFNMwAgJA1SO9c0Lk1T3zRZ7yg4JIHruiKtsyyzpECbLMuCc6CFiEhjWc2CF2AOAMGHNE3ZexJQgH/91z8QkTfffOvCympRFE3lCBQwEgsBKAEBjUTwsUTEs6t5OhJ2OGfBINZ1Hcuvq6r60Y9+dO/evY2NjbYq7XSE8DxLSER1XSdJEl/b7/fH43Gsramq6saNG03TrK+vSeDCV1orYBERVMoQxgAmcwCjDR3/k7GmECUquB31khgLiw2bLDXOBxFljFFKIYrWGIKIuBDSNGWOZObWxT2B0Wj0ve99b3t7+5vf/GYMBZezmatrkR4AQAYWAGKatDOIz4juVvQxSJIk+nLvvffehx9+OBgMACCm3SIDY0HMk5l8sqLFmP39/f39fWNMMZ3ev3+/KorhcGi1CQtN0VhFjYhKHWNdvUDTOOd84z17zz4ACwAoRKBjn+VCaH8UYpIkkZxGKU3EHHjh36IACpAAIZIALdxbRmCEqqqUMTs7O9///vf39/eV0ojkvS9ns2lR1GXVeMfeMzN0Sa9nRGcJPwaIaIx55513bt68GXd9UagiUiuy8USp2pmPowB+LG2LNjB23N9/+HB/d3dzczPr9SaTibWWOdRl5UIwAMZaik5sdHRZrD6Kr2hrmVlC8MzBufnHsdSuaRpHpHzTzD1kQmABpYzRRCo4Rwu5DRcCVhURaa0AlPeyyIjystZTWRar6+vAcu/evaZp3nrrrYsXLyJiVRVlO38mkc4ediR8MaiqCgCUUsYYEfnwww9v374dl2asTYPjJWntC2Mh25nvGQOnRDSdTn1VSwiTw/HW1tZ4PF5ZWVHGBOdC8IhJ0zhrbW6tb5pZWfqmWVlZAUIiBQDTorBaJ1lqtYnbRSFUgsrasDgTIpWmKk3Twvs0zyWExnshRkRgYfaNdxhiUlH18xwIowfbeK9JPHPsxIdFvIdI5f1+XddGqSRJmsZ98MH1uq5fee21mEGJrVtpnrch36fjYZfc70h4Dow2cRQEM7/33ns3b95MkiRJkrIsrbXT6TRN01gcExMJT5MPDCF476uqquuaRBDx3r17W1tb6+tr1trgXCC02hTFLK7yVCsR0wNojHYhGNLR94V57YsHFlRKRBAp9r9rPJLNh4VrGllKRKf7GYNIfIkE9ooBQEJoF1AMSrWWUCF65mjJQ/Dbuzvxu3zuzde187EPYzKZRGXHePOKRbHdcupI+DyIQyDquo6pc2stMw8GA6VUWZa9Xi9Od4nZufld/4mI5iKuWkQMIo8fPtrf31sdjaw2TdOgUoholJLAEqJYm48csNpEE6SJrNaj0QgRFSIAeJ57jHJ8H6hkURSOhKgIUCEIIqKKHEOhZVFvFwIGH99QISrEEz2LzIHIoAiL1HXdNM1oNKrr+oc/+pG2+qVLl9I0Dc6VsxlzAABNBHEAW8fDp0AXmDkDMRe3tbX17rvvxrhL3M5lWba6ugoAsVw7xjnP4PDxZTfv35vNiqKI5uXOndsPHj0aDoer6+ue2TNLCDHcooyZlWWepuVsVlVl432MqYgIEMaNHDMfPTlX6aXjP4gLMzgvtT6r3vpIOT+ESH4RCec0TCJS+1ZEqqoq5pAkyXe+8+2PPvoofq+6ruuyqqqq8V7CYnBNF6f52Jt+V8B9Joqi+JM/+ZO6rmNDYFuzcibf4r9a6zZeCgCxKTY455yr67pqau9DCH42Kz766KPBoD8cDsfjcQy0xJedrq1pWRRzCRICLgVjl/92Mb4KAOPxeDRabQ8QEaU0c/A+WJtpRc7X0XtEJEGOuY225sYog4ieGQCMUnVdA0Csd3MhxCeXr4Axqq7ra9euff7zn9fWAkCapoPBwFprtca2l7KlNPJP0DZ0e8KfW0QnMwY/n/UmFZOBceWxc9ELjbUpmujgYLqzs7O5udnLsvF4LIExoWc6Mdc0SwTQbW7QWjuZzWCRHmwRAofQAEAI/vBw32gTILi6joQhJGZomkbF7mGloqFLlI4B1azXq+v64OAg7/eBRWsFAIgkS4NOlTEPHj3yzG+98UaSpcV0GpwbrowgzSxA55d2JHweeO9juOVEf+DToO2Cr+u6qWofO9yZjVKHh4eTycQY3fJkuaL6zKS/ah1LjtaSzHImkEVonqMfDoezsgSAXpY1i6kvgBCCd85rrTwzadKJTsk6bZgdAACRBGwAiEgZY4wxyrTsPUZm52LGUkQAjgoDXAhW67qu79y5fXh4+JWvfGVjY6Npmmkc2d3xsCPh8yHGPKMlfFYSZlnGzFVVTSYTYOGFzGBVVbv7+4i4srI6mUxC8MPhEJGivxfx8VaXZfl4ZYwGEmIiVVTz6b91XaM6sq6efcwjAjAQimgAQDWXxEdEBjBGJ8bGPL730ngngaOtq8saAFZWVsqyBJq7qTGfAQAizMHXIQChUnoymfz4xz+u6/qlS5eappl3OJ7kYbe+OhI+BWL/q4jEgPtkMol9QGERC4HjXl8bIPHeM3PTNOPxOGbYEdGFsLOz0zRNcC5GEfux2ZcFILSR1WUJqTb+iacqYKy1nnkehNRKAmtlFKLNs7quy1kxrir2vnaNJf3qq68myhRFUde10rppGvFNzcjMIYBRCpRSSo9GmVHKe5lOCxEhUu2opphvUEqLiGdm9gDQVtMgYAji6xoAtLXGmEePHhbTaVWVV69ebRqYTIRIEZGJW1lEgJ9kDKKbT/hzzsNYB6OUipVrTdPESOlpexUjMSEEZp7NZlVVVWXlgxdtAKAqiljqHefFBxH2oeWb4JEj2tIPFQGfu1jb7Eh8EDW/tz+60zTN/LO0abxbG64AwGuffaUqK+edd25ndysEDiAAihk1aWWMQowRl6Xvzu3XFBHvg/dhkbUnfX4+pqrKJElE5Pr7H0ynszdefz1P06qq4ktieUNnCTsSPjNiu4NSqqqqZe2zE4wNixxDWZZlWUYCs/fToiimU2O01Tr6cvMs9um/BNEir0BExMgiDPNpSiTEyAiEaZImSQIs06LY29mZTqdbW1t7Bwf94SBJkn7eW19dAxLnXG4TRDnY39fGWGu1UhfWLxRl6YQ5hGgMoy08RUKJJxGtn4QALCKMShmj6AmzYlgQKeb0P/roo36ea2vTNG1daLPQTezQkfDjIdKWUErMTzjnWj21E6uwqirnXFmWVVVx4Kj4BACzWXFwsI9I68PheDwmraNKYnRHOTApwuW8HCGRinaDAc40hlVReh+KYra9vb39eAsIsyx/7bXXPIdIwjRNi2KyeWEj2t5o0suiKMrSWh2z/6yUc47FtybuBNr4p4gE57wPSpHRmkgZpfw5auKkdXTjo7d88/ZtZn75lc+opcuVaNutro6Ez0bCuGfTWud5vru7a4yJXmXMTccdIwDUdR2p6JtGAke+jcfjJEnSNAsiqCgWSYtIWVUhVpnGjHaMAylCpKaZGaWyXu/oVFhAgXM+1gwA8K1btx8/fgQAo9WVXi+3WZokSb/XV1olSZIaK3KBhK02ZTmtmzgdURkTe/8psIPA6yvD6bS8++D+pUtXiFgCI2KaZsjMIt57QAocNCApIpQ8y733oW68SIzTNE2DiFVVta1eMdgbt5qxhO3h48dZlsHmnKIagL2QepZpT38L+g87En4MCeN43RgpjQVrsYk+bsl2dnZio5P3PgoTSmBtbcytDQZ9RHLOheCTJHHOx17bXpbNyrIsi6ZxRilUFIMr0QlUiEfFaCwAYLVm77NeryqKH/34R1VVpWk2GPT7eS/v9/NB7wQJFYiI3Pzgem8wCCEAQAgYNX+ZmdkF5q2treFw+JlXXtne2tWkUSmjDBH5xkGsC1/siqOmW13XRESKFKmiKLz3pMga62GePEzTNF60WFYe96vW2sb7clZYbWIroyaKzm63xjoSPi3aKhatdZqmZVnG5RgXd1VV3ntC8sHHUdhKUV3Xs8kkOBcDJJHMTeMQ0VqDiMoYGwJ7733Q1s4jMQBEKkGMqjPGGESKkydmZdnv9+u6vnXnzuHhYZZl6+trq6tr1tp+v9cfDdM0XSYhBH/v3r3YjuyEiedlMSIcAgsEAJgVE2P06oXNXi+vy+bMLx4rFnBRstP+qmkaEVEQZW9U7DnWWiESex8rWo3RIXgiappmd38vTVNtrVFKGWNVN5K7I+FToLWEy/8ZkxZVVR0cHMRITJZlrbhgjI4aYw8OdoNzeb8/LYpYlg1KjaeTPO9Fe3hwsA8AQNiLuQo6io5qrZyT4JwmIq1RkQTWWlVF8aMf/WhWlhcuXBgNhqPVlTRNY4HYytpar9/r9/pa6yRJEmMOdndu3/gw6+WzslSIXhHzkjQ4AgAkSbJ/cCDKXrt27e7d+xI4BPY+YFsULhJCUEoRoVIUW3g5cPBR6saFAI1rPHPs/ErT1BgirS1AvL8gOhEpy6Ku1bQotLVaK+usKNUZw46Ez4B2zHXs7s3zfDqdxjQgAETVwxg7JaI8z3e3t4vpNMuyJEnY+7jTkxBGo5XpdBqFQI/UyhTEqGlwro12aKI0z2OeAJFQ0/rq6ve///3d/f2rV68miRmujNbW1nu9fDQajUYrvWE/z/LInPXVVef8D3/wg2lRGKWzxKrElrOidpUxGjFGOUFEtNLC9daDh5trG5cubDx48DDRdjqbLZd6R687BonmRQvIMTwMELP5pLWKQsBJkhTTaZKlSmlR1EuS6XRmramqyvuwvroaej0ACMfvbs+ITvz3bzGWvTIiyrJsd3c36gjGIm9jzHA4PDg4KGdF1suTJClns6OqNEIA6Pf77P14PNZEsTMQ2xwdoQaSwAE8KG2UCnLULnzrzp3Hjx9vbGysraz0Br3V1ZWNjY08z/t5rzcYpHmWJInWenV1NTj3x7//Ozc//LCf9wCASLmFPL5zHsBHVsfsYpIkAP7Bw4evvfq6tbYoqjRN4xY38vB0tVDrnKtFY35d14g077SytmmcUZymqQTWRERKAtd1Xbsmbpi7tdSR8Hnod3Q/JIrdg4PBYDgc7u/vR+EmAMiybDqd7u7ueuZMJYjUBKdjkdgTboyLojYiBQQiwt5HHsKihqaczT66fVtb+9KlS2merV5YW11ZHa2t9nv9NEvzLE+SxFhjtBGRd975wR//yR9ZbbCHZVk0TWNzAwgAwTcOAFCRJqs0iUjseXr86PHL117p9XvTaaGP66aeICEStlVnWmkA8MErpTUREC7X0wGAZ0ZFmsiFUBSzuqyapvHckfAMdH75sxEy5gDzPL927VqsUIvyZUR0/fr1vb294XAoIlVR2EUHRhSVAIDpdOpCGA6HsS0w5uL9onomtgjFTWAIvjWDDx49EpFLFy+S1mmaRf4Ph8PBYDDoD/I8z7IsS1Ot1YfXb/z2b/92UcwU4u7+vrEWFoqjANB4V7umTQxqY6qyEpHGVffufzQcDPu9vg8hanbEOO0TLoXS85FsUXNAAo/H46ZprDXa2to1sfwNESWEuqxq17i2w7BDR8JPQsIWKysrn/3sZ+M8pl6v9+677xpjBoNBXddxwlFd18wBkeYhFsTBYBDLR+b7LhbPnKcpIolIVVUiTKTSNE3TrJ/ng17v8PBgf3dXJfbCpc2837v68rX1tfXV1dVe3kvTtN/vW2uNocD+x+/+6L/8L//P1awwxrrgjVJlUYbgmTlOlbHaJCYDUHVZTcdTZNFEzGyt3dnfH66tOG5QASoKCAzgghdEQWTCgIBGy0J5rd/ve+eKWRHVq+ZVplma9/ux06JViBOR2jXWWqM0IsYCgNDx8Dg6d/QZb1oLj7SqqitXrmxvb08mk4cPH8aJ2c45Swq0RqVI61jt5RljTH9+xYlitAYAFGJseiBSyphlKxED/duPt9I0vbC2prXe2NjIsmxlZSWSOc5d01rNiul3v/vdf/U7/2J3d3d9ZTVJklA3DbroOLaJ8bYCBiBmDqPRE6VUUczG44MkSVwIEk4OnzqNsigBIEkSpVUIPszL3NSJG9aZ79NZwjMWVXcJzsR55ZGtJYz5gMuXL5dlGYc9xIaDxjvPjIjG6CitHft6j7ErcOyRjxby7LujxtlsPD7cHw37Kyujfp5eWFsZ9nstA2NV2uRw8hd/+me/89/9cwB49dVXh8MeKQHiEJrgXQh1nGs4nyrqQ/tT1030oqP68HRapnkmwgCsUIBEYqkKLelizHUzMHBQWidJopWe+7eExuiOYB0Jf3L8RMRer7e/v3/58uUkSd56661Y3t3r9fio4UABQBAJwcdQZIto5WAxEyLKTwTnlowVeB+iGRwOh9baXq+vlO718jxNsxiKUerOrVv/6p//8z/8vd/PjO1nWWps0zQKMEmSENj5xrnAPsyH/Ab2zJ7D/Me7RRpQEyjfNHVZNY17miuglbbGIqIPPm5fY6lPtzaeD507egba0u2iKNppmMu3+eiORhHE0WgUQlhdXd3f3z+hp0Q0lyQcDoflbIZKJUlitQ6AhEjMBIiaIMoWKphrvSA7V4uIIPf7eZ4nvV566dJGr9/P8tRYvfP40cHBwd27H73//o1QN6+8/DIRlbOi8a6XZXVda8DVwQgJOIQgAuGEgVIAgKKCE5WgVmp9de1w/yBJksyYgBCPRyStj8RmgogIioAIJ0kSBwQvLhcvvim2KolJklRV1XgHLEctWkiymCLcNfh2JHyRiAVr0UdN8yQSeLFw50swNuNWRdFobZAgZruDl+BRKaMUoo5iZ8wCAMbQyupAXD4c9rJET6fTw8NDjVQUxY0bN6qq6qfZ2nBkjEEFk8kkSZKYi0uSxKD2wbmmCafkGFtZiva2orRmmReLeh/QnG3QFCIgRirGVqjgfWAmk7Rv2E1H60j4wvCEDWH7eDmfFvt3Yso+T9OiqkRYmTS2nB9NZSLCJHmKXBkBcONKpch7Nz7Y3378COhWWToilOCstZsbmyH41eGgKMtiUvTTPATfT/OqmgIyEkNgQBYJSs5oHQoIpHVA0ABGGxAiFStLvV7Mo59TFHHZYBEhAPoQZN7oiK34Wjz+KSOfHV07Er5gtJo0SiltrZTleX16cyou/WeSpRLYhRCdunZ1pmmWaDVp3GQ6GQ6GiArRpGmqAYOIMZo57O3t9/s9RAzBh8DGoNJ5Xdez2ZRIaW20nucPhGF5/68ENBHTnGmk5qMOvQ9PsyDiSG1EIuDYhSwhoCLvQ2wdDMcTpPOr1IVtOhI+E2Ktdjjecn4CsUoGEdM0bZom5garqurneV3XzrlBnvs4Ld47QCRSjXN5ngFACBxt6WxWaK2IlFFmuegkM3ntvfeyvrbRlAUTJEkijJ4ECeuyIdI6SzxDPowNUyUAECidWADihbsIomBuwUCLAgBQKADxpoGgAMBmaQBGxHzY4+VOYg4nDBYKAUAU/I7ud+BgNDXsjdIeQqxDiAXogQgAJrPZYDRkQkFARUAE8fHT2sKfZOywm1n/NwJ1XbPRLgRUqiorANBaaX1Uw4lITdMQkTEaluxDENHHJEMJhAAUCSCiRhJAUPMsAaFSipRSQKRQEDGAFgwx6DIXs1EqhGPxpDkJAQJB1LZBOjbrlwghDgdmFmG1pNrGc4t6pAMQRQZEmNS8xl0TRe9UQiCtKYTYyhzFI+ODboV0JHwqxFa69vERLZbW0HlGkr2HuYQuxYR41IyJrUCxXFNpRYhRhsw3NcKSxOhZsMoIERIhkhAiklYxwX8k2k3WSOQYi02UZ0btVeCwULRRcixRznj0jdrPZQ6RgfFmgUtXAEVEmOMF4PmExo+9jO2DE1L83Z6wI+HH4/QKe5pMdFSzjz11sXIFCQOHGNZHRO/ns+OFhZkbd9RNG46PbTAKEEBJfFtSaBC1EDEuqjuX9PARMTFHY7GddypwHNl5tBNjiekBiOZSqagLfoIP0QbOeavM8vOIKlIRtTqTgc8Um+nQkfBjGEhEbVXkUforjpJGjkQqyxIR+/1+zBnu7u7OJ6jNZgAwHA6rRfE0i8Q8eJblSZK0VWxaaeaAQARIRLw0j8UHrxZWzmitQInWQMg0r/PWbaOj1tHAAs5LcLQIhrgldNoY71zTOOedJjNXuAgcOIAmUAr0MTpZu0S8xiNilLRYanEia61IrDMPLBK97qZpYhiVmdM8t9bEl5x584rX8yc5laIj4c8ZeNFdvny/P7GYYgVpdFw5cHQOY7dhjNCUs9kTXK75/MPASum4yomoXjKMHNgQWWuC90ojUMyUg7AoRa00MBGhIkValEJFcXYNIhKLC14CK2O8r1XTaOfZuRAV/hU17M+b1rQ4AyEiJFSkIhXPJgkiLNQqop4VPsWsuA4dCT8GMe8XYw/nrVHvfVxqIYTAsf6LmDk4p4yxIo33iT738hptAKAOdUBAgIAQg4cqHDmQUdmtmI6ZFAAjBBFCg4vFj0pZpYiQgBTaBJWKgdY0TzCwDYGZlVLeJ7ppuHFVUzZNw40LwYODGC6JgR5YVHgfexwJTjGLeKYyIsLSdyQRpXQ7N0ad2hN25OxI+LRoozJPWDTtgN52TmgUNSrrZmQt2I9R14zLtK4hOMdqIQKjdTuGBREZlaAW1EGImRGZBOYucTSDMeZDCoi0MagItSZFeZp6Zh0CMygkRR5ROaIUgEhprZumOeqoOg+EKiYB1Ty4tPzdYREpXdYUjWkHVGp5bNNyDyF3Tb0dCZ8SaZpXZSOCde1aiQpE5LiwJPJTAyAAxyLsKHSPiIF8EFlbW83z3kcffZQkybx+DeYvLV2TJ0ns5U2SJMnSIBLDISJCWmMQzwxELojNclB6f2eLtE5zlRjNgZko4Dz1JyIiDIKCTEYniUmShEwS7wHIGLwnbZWxqlY1IjjVTF1RVb3BYOmuE7e+0XzFNIYCgMa7xCakNDMHPIoG+7pZHhK+zORYrwcxmGRM07j59yKKnoJqJxZ2aG933SU4E4goLE8+YH4FiZanOGmiEHzkGHsvwqgoDh1rpzjwAiH4xrtoSK02dt5xL9G8MIcgqBI7XF1j4bIoY0CFmWMVdGCOgt+nfUVEVMooa9bW16NohTaJtWnshV9fX3+qxUFq7p0u5WOWg1WkCBWhUkc/iKjmjfmaSNN8cnB01zvunYnOEr4AeO9jAbdSCowJzoXgVWxDQAIWFq+MAaWMUhKC56Uco0SrAwCAShkRB8Dex3puZoeohsOhc74sp0VZaKUJkZUKTIqARUgEhFHg6IeFNCXaaKWm0zLvDbM8L4uCULSmujZFWSyn6Y9P9z56GEcpMfNyvWsUC597pIvJGe1dILZKxJ6JgGegWy0dCT8RlgdZt507sEjc06IkJFaMueDTNI1KR03TJCJx1wdKsfdhUR4d2wujbGmCGN9nHu0QAQYJAYwZDocAPJ1N8ywLTIGZAgsyAHFgPDVlRSFqpbQxa2m/LIu69qQwz9MkGU0mh/tR+PTjgIvi7GirFaJfZBFjRhSODwyHE4OlFmfVuaAdCZ+dbCxIqI3Wi9DffAHFysmFeqRrnDZzV9M5l6apUqoqyrgHrIoybghjo70mSpIECJvGoSLwAQBQUWtkSOvaNUppY4xRqvHO+xBnM4XASqvRaJVI7+3tZlkujGyBSGtNgICBm6bJtRbnhRSQscoYRcASuHJNSYiDXs/75sGDB/v7u+6s5t05naANrhxxJiYPjwQLaR5QbakVSeaZrbWkFfvQBl2ZQ9uWccJzpvOFPjsSdjiHnHNLeGzVxvhEG6XQRD52JDAH5+IzSZL4pnEhGNLWGue8Qob5puvIksQJuBJCEwJpMoZEVGzIUEjKmOFwaIyZFbM4fc1ai4RRaSY475yLG1TvvPMumkcO0O/1mf14PN7b33n44OGsmAyHQwjH6CeL1sd2Ntvy3MLYJwHzzKSKvDpjMRFFvRxRskh1SGzqXb6AHToSPhuexok6Vl+qNSIyhxA8KmIOHsAYDWCZ2TkfdXJZUVy1p4u8orhLCBzZYIzhxiFopRQIrawkIjLxh+PxQeCQZ3me54gINJ9g4b0XrrXRkVRpmjvvDg72Hjx4sLe3o5Tq9fJYLnfkQy5/ESRUBIhuYaLb8zstnt2awfa7K6VjdJQ5nHetOr+0I+ELIyfSGcGGqIQLABI46/Wqqoz2sN/vzWaFbxrmkCQJ8bz6TC2JUkd3VGs0xszHeAYfd1gAEHxoXEMBVlZWVtdGZVHu7R8UZdE0Tb/f642GcTIUEYUgiZtnVu7de7C3u1eU06iPGutHY+Yv8NLA4Ha7G+0ns/detS6lMC7th8+bE9o+qZ6uJK1DR8InMIwB2p+j8APg0n4GiZEJNaJCVLHiRQQ9h+hVxiHbsXAMALwPvSxz1kZOxj6mE0iMFRFE7Vykx7z3h5G9OAAirYCkYY9CKkkvX7q8/PI4zil6pOPxgXMBkWbTKQBopYUltjJGSGBYzOtsGpfnPQCoqio2LYmwUhA4aEIEkBCQgBbSG0rNu0yIkGJslzCePHPgxY0py7LgHBBqOPo5KcPTLbaOhM/P03PC7pqoiXELQg0UFtFCZvYLme1lV2355biYGdYqwSyeJwDA2JS0HI2UozPxPgTmdtRMHCUT26bO3oktpyiWYpvCARYOqgKMuU0JKHA0SenkSCXCxFhrbWzLgK5TqSPhCyfbmY+Pr2daJowSDVFqDYW0jhVquMTDOi70GLpYipC00Z1W7m3x/JH4Uitntnw+IiIgSKhJe+/bY0REnaNE2LaGiIiSec+UOtZNBYgqalIBKs8eAMLpi4NzBpJWxFoTkVZEClyjEAPFDmQCwviDiISd/etI+OL4iXTSEhKpGPmMQZc2Uh8ThszsRJZLK5ctUivQEg8++iOdFb85RicEDRgwFsq0po9O3D6W85xn3mgQcflzDJEiJQCkOPLvNP9bBgKLpnk5uOosYUfCT4hoIowx1lrEefOrtTb4Y9Vbio76YltCaiKe1zGTiY1O3qOixvNR1D4G/eVk8CJuF0Upf5wtbV5RE/lFm5VCXGT856zQACAQdRPbuYKwyPI1jcvzvP2sqAgKCvO858qqaZo0TUlRCIhISikkRAEFKiAgslYWAMK8YzAQqbnO2iIK5ZnVkotutUmSpDio4pDg+JXj1A0Wpm4z2JHwk4OFF7XOQIooFkwiBZF5oQkLKCQiQZTAqKhdjnNqLTUNRSilRcSf0wU7X/EM0GphnNNeFN3f+blpFQNFT8B8GL0iFchHMQ5CRRSY6SyTliSJ96HxHgDSNIVFvWsso5lnC7WOMnBWm261dCT8pDhbGWVp/SulteJoDCX4udiRiCKliUP0MOfHhhMkJDr6E2ilvA/CoY2pLqwZLz04lglYHhQxZ/4ikPNxX4oEFjbKKBQNWhNzNIWgSEgJz+XWZGED2+/bNE5CsNZGFzSaQWVMm6+3WoDQ+xDruY9xvtsTdiR8eohIy7YnVHsQIi100LyXyIFWwzPu0p7wKUfJblKIHEemqZOnAQDAzAoJnhB+PBXzbMdLNI2z2py5LSRSmoImYiKmWC+jADHMs4ZwQvkwOOecmxfiLU6PtGoZqImcUgAQgn/K+RYdCTuchPc+yzLnXOvynehsMsYEH6J8EwBkWRYHRwMAsNSuWXLDgrbaWhtHIwGAAhQRDjx3UBFi4yxzQMI0MSnM2cKLbeTJIC0t3FGWZeIRqVbNKSJuCBEpqqGS1jHrYLWOI9wAABUx4eFsqrW257QjCx6jeq+XA0DjXfyaxui4CWwL3wyACwFYzLx6m9ppVrAs29OhI+GTwcyt7/SERYOIcUuFiCGOH/Tn9s4xR+1cQELguVmjpUro9uMA5gk7EVlkEAHpSJACgAVOdxIeq4uORxqlMPb+zWVp5lmTyA9e0MMYsyzl2CqFts1K8y/Fiw1qPEwrq83i/ed9TE4RMqNSUZOq/ekWVUfCZwYitgGY07+KD+LsaBUUImpHMXIYF19YLPuWg4ASd1qkYoxQYF7jhUQmvi8sDK8QA4DwMTOIiDE12M5yWvC2VeVQyzeO2EIlIVhtEJG0PqFx2kaDo0RV+3zsxI0PjnnjS7eXloFEikg9ITlxtLWmzgB2JHwROLFFjEYjNrwu+lnPvevHED8sWRiIox2WFa+XYjD4dAYkWiFYmNNjGY6WBoQxlLJ8/nGaTRxos6xTGCXkIO5Fl3oLMVa9EQJAy0BNXXqwI+Gnj2Oi8SwQxTYBRAIREIH3ITGWmemUzpoIx0y6Aojy8vNdHwAAxFG6AMQcAnsRabVtzqccihwbdQaxfPx4JU37W5skVVUhQ7R1ce93IvBbVRVRHLgrHNg5FvHW2DTNo4gOAAQfXFUH8AQqSWybnT/xlZ3zcRg4sKRpqj9O+aojYYdnRjt4EBb6n3MNFTli3ZFwxTnZeYD5OCReMIFIAURCPvvfMp4AHZuFdIy3iiCqqC10sufntxDtPUHLbJED9M6naUpIdV2XVaWJSFTcAc4r0U7px6h5I2/XTdGR8Hlx1N1D5w+vX6TOtdbRnRMRWQx+mXOM1BJXj/GwfRIWBWZaqxAYQBGp2N1/3unFTSYu5A9jpVvbiHTEb57zXxOJSJuiWEZUgjuymTDfr0bN+6OForWwsHAIPtWpB9AUd5ekook/TsKjEA4hUBS8UF04tCPhiwfNE+4UScjMgRAlso7OZPXSM0vVM3QUtED4GKG305gT4IkBj+UW/hMF4jEi2uoGxJpvRGyaRittrVV6LoNPSEppIlIiRNRK+uLSWEJ16oM6dCR8ZgRBQeUBgfRy5TQuh0kJOE5eJ6L5eIbgfK01BQTNwiyCjChZliJi7JQH0MzBQ8x2HClex2wktp0KLZ3kiKjHrJ8c8QpOmJ3lly+7psfk1RCRrDXsQ1FVCo+0c2LEllgQwSgNLOwcO6e10Vr5qh71ep4ZmeOsjnZghl+kcMJRhZ10w2GeBl3e5hMB5wKhzDxXo1BKaa2iuTh2oZ8iLn+mguinBE10ouqaSBmlY7oziHhmCUEpSpIkz/MoIbe2tuacGw6HFy5ciLWjLnhrrbVGjs+Ki9vFzhI+1d+iuwTnsuvjxH+X3bl5Rk5pAgiBATyAdq6hY+Us2AZc8BnrJ9v3efpxDvMtKJ0t+ElaxfpPIooyT2EpHa9jRYsx0YYHkazXO9jbA4BerzebTLz34/EEEU2iopBH3CDC0qxskTgsQLXlMtBlCM/843aX4JnJCQDHe/MiCSG2UxCpxb/MwvwTMQVPXNxnpu+IlITAi6IWmqtlH0NMk8xm0/3d3fF4vL6+zhxC4KIo9/f3rTUiMplMb3/00f37949NIOUQ9WnkifPGO0R0lvAZkCSJd84zB++1MbFyBQCMMcYoiaqkYa5luPzCpR75eVnM8uCX9rDlBdvWcMaAanR3ARb15KdYZ4wJIswBWFrRXmhFmRY9FtOiuHDhgoQwz+wtBpjCXE1fvGcRSdN0e3vn/v3706KoqsooNRwOE2MHg0HTNFtbWxcurP/Kr/xKVVVVVTx8/LiczaqqHPT6c4+apXBV1DVOjvGalvM63YrqSPjMmI9yDyEwq6eoP1bqecb9Ph+UMRQCIzrwc/tDGAtZ2oqZJEsb75um2d/djU+maRYbAtt8RuO9b5qqqpqmWVlb29y8VLumLiutVTSM29vbWitjzKNHj+q6ThKzsbFxZzotZ8WwPzgRd20jNx06Er4gEobQznJ58pFx+6eUXqxFbtV1z9OYeDKO9nVL2cXlrGP0LeNg0Nhca60xSrtwlLdkH8qyiO+ztbVFpHpZlvf7aysrpNVSXhGn05nW6vLmZpqmItI0DftweHhojSEBjZSn2eH+AQBMDg82L232816s2wbAU0I1HQk7Ej4XzjNZ87nvx0jIxw84msu3ZAmpVSL7lFBVlWcOwUvgoqqstUmSWGuWy9929nbruv7CW5//zKuvfvjhhw/v39/e3mYOdV0nkEQeJkkSiGazIsuyWVmOx+M4Etw5J8xJkgRmFun1erPZrN/vp6mdTWdE5PzJvsHOBj4lusDMuTDGnJ4opJQiEkAuy2mcTaa1YmbvuWmaqqraNEPc1DVNEwInSRI3gd4H7733XmsVD4jz34kwzzMijA9C8EpRnmfeu6qq0jTr9/uIlCQJkZpMpnfv3p1MJtPpLBaCpmlGWjMH57xnXl9dZe/Lstje3ilnhXO+LqtBrz+ZTIkUKvrhX/91VVWj0WhzcxOiK0skgeuyYt/Udak1uuD2th7fv/fRnVs3r7//3v7+LimcziZJYlYHw8PdPSUg3peTwpLZ29pNVeLrYEgrZbS2g6wfJUkxFhLNwdBl8E+hs4Rn49zp0PNKERJh5gDASuk4KR6QVVDLxS5pmsa6k8lkYoxuu35FpCzLJElia6wIO+eLoozDq6fTab/fL4qyLcQJwSOaEHxRuNu37372s68lSbK1tdU0zcWLF4lUVe0P+4Od6Wx1NHr77bettTdv3xqPx+WsiCkNY0zTNIg4Go2iG1nOZjFgY7UR4WY+SlEtxTNZa8xS60NAxPH4AGCY9/Isz3YnW8YoUimzz3vZeHIwnY03NjZiGam1OniPRE3TsPfH72PdTb8j4YsAUdRAmotfxPh+HIOiSDF7WGyEIq+std6Hopg9fPgIEZ1rYvXJYDAAAO99dB2JcDKZzGbF3t6u1sZay7yulM6y1DmnlI6W9vXXX//qV7/KHG7duv3w/v3Y3DAaDKdFkacpabW9vd14b7XZ3Lx0sLcXU+rKmLIsjdH9fm9aFNYaz6AQ2AfPTITO1RD7BlEEWZABMR/2etj3IdR1XU6mgOyaynk/qwsPIRDneV5NqvF4XDalk4a9BGSLliFoRbWratfMR4XG8oWuqbcj4YtCHDsLAM55WQRrAofAx9RYYsFaUZSTyWR3d2dra2t9fU0pPZtMVtfX424tTlZjltlstrW15X0wxh4eHoqI1irPc62V9yFJ2PswmxVraxi5V1XVysrK4WTM3kc3uDcYWGsns1ld103TaKLxeHzhwgUAsFofTKdJkkQbXtd1arMQgnOunM0uXFgNwTvno/Bhe/6zorDGhBCK2exgfKgU2eEwyzJrJ5PJZH9vP0mSpmmSJEnTtCwLpXVZkrUWFQ2Ncc4551EdZeq7XWJHwk8KvxgPprUJwccW3rjIQgha2YqbNLEhcAhx8qeE4Oq6LsuiKMq/83e+9fbbb5dleePGjbqunXPOORFRSofgJ5Op1uZXfvmbL129evv2revXr5dlFcvgRCSEQIRaK6PU9vZ2rClL83zQ69d1jYp61hJROZuNx2MRqes67/eTJCmqajAYlGWZZVlz2Dx+/OjixYvAEvWXxtPpZDabTqN4Pnkvs1mlELMk393fda5RSjnni2LmnK/6jEXVNM1gZbVu+P6jjy5cuPC5z73B3k9ms7sPHydJktosydIkMaRVmufD4TBqjcbkYRBRsRWzs4gdCV8IjqnQn5qACQDeO0TMslRkpWlclmXT6Wxvb3c4HMaoo1LaeyfCTdMwB63VytoqM2dZ/sorr25vb7d57RCYiNI0tdZ6ZuIgQZWzWV3XaZqmaSbC/bxnrW28q4ry5Vc+s766tr29vb29ba2NEjKoqKqqw/0Da1NENZuV0/HMKGOUmU5nImKMmZUle49IdR2qoqmqmgOrxA5Hq7v7U94Za62nM980fv3CpdHKyvbOZDqd1nXd6/XKkmfFVPYnIv7Vl6/2+3m3SDoSfiKCPaEhVU5O/qIz48y9Xl9EqqoEgDgbdG9vt65rCL4uZojY6+VCGbNEfZeyLB8/flwU5WAw0Fq1EVRiJcwaUCepLCZGCTIqKOti0OvnNtmfjJ1xWZpe3tis6xoRD/b2dra2G9fUdR077o3S48bt7Oz1+/3JZAYAzDIYDCeTcjotRNBojcbMqloRiSS1q10wRKR09tG97V6eI+q6CY0PVemUooPDbWM0i2ilPdccuGmaxjWhabI8u6y1AAWBE+5opzHTkfATghcMXEqUx+g7ozASqAAAjCgUXCBNWZYjUq+Xe+/u3NlOkqScjouiyPN8ZWVlUpQAYIzu9/vMXFVVCL4si8PDw+m0HPQo62WBG2AKzDHIyRyrBkLTNLu7u5ZsXdcB4e7Bvvch1UYbLYxlWX546+arr74GjEXT6MYnSUKkd3b2vAfXRE3H+sHjLe8YAFi4rlySJLsH+4oIUW9sXFgdXdDahuCu9UdJkotIWZSImKRuNBpVVRVNMSL5ugmhzrJ4McLhwXR9fbUb/9KR8LmJ5hUKcFAox6PqAoBRDSIghRCIhXhRD8MoggE0CwckATFIACgCSZIlmm7ful3MxhqHa6sXNjaUMaYs63b0NLOsjtYODg4AILXZynB12F/13gfnnAta6dWVtRs3blx66aU4fWVWVPu7u0mSVb62mDDLtCgODw9D3ShllEryPL2weVlI7Y3H3nnvxTvvPbvAj7Z3FkXnJLBoycXYUY/XXn5ltLqamGQ4HDKqJEl2d/ecc9HaD5IkjnAKzP1ef3XY18ZorYmon6fGmDS1xqj3P/jxZDybFbONjY2AJEAMFJBMFyDtSPgicEzYE4Qk1tGQsDCLZ2EARgSRMBevJvSOL790mXkDUTGza0JZVJ6j+C96LxK8TnVUvxeRpvEuBPaemV1TixEfvFL29u27/X6vruuDg4Ner9/v9wT0vQePiUiZpD9cK2YzY7MrL13RWh0eHt67+4AXm9XYlMwMMQsBMG//76+sWWvSNFNGj3p9bW2SpVoZIrW9vb039qFujMkABDAogf6gTxqtNihAhNqoJEmMNsHVAMDS1A1c3Fw/PCRjTgpqnDeqrSNhh5M4rUZxDKJBcP4DDgAAGdADeBFHJIDgnQ+LIm8MMC4LYwwRheC8ZwngmYEQBCAINw0AzKomfmjdjH1oYm2NBA4upGnqnA9CTRN29g+ttesXL4nQ7sG4ck1iswBhNtsNIFma9hJ9/c7d6WRSVlXaGxASEiqlrVKKyJACktFosLihADfOWmuy1Cgdeep8zcxEZBO92h9opePEKAAmgcFgALDQ+Wb2vp6Ox865EI4q1y5evFiWdj7/kBb/o/nknG6BdST8ZJgLTMQ7egAgnvujQSBO5sXgg4+V0wt9ClSmKGrmgEqBxEAOBRYOwXnfNE3wXoSIFGDgEHwIEkJ8n+AhTUNVVdba8axYWVnROt0/LIpZqY1BnVaOAVGZpGnqnf3DaVn3+v3B6nruvU6sVtZYoyimyyHRRmvqZfOaUuSjgrIAgIRKgSJUxEQw6CVpYifTMSIqAcAgKJNpDYHLqvS+GQ6HIda1C7OERc2qLcppXZciciJB36nfdyR8YWDhsiwReVbMogB+rIQui3J9fcOatCqbpmkQldYaEYuibuq6rMqqdtqkrmm8Dx6kKGYAwIFDEGYgitMiaL7oAQBoPJ4QlVorooCUHRyWAGVAqOsmYUiVTpJEW2vSBADqur548WK74gOI0cYmCQCQACBrQEBOUwvxToBo2slQmhTRaDSq6/rho0cro9FsVnx0++7u7u5wODzc211dW82yJEmS2WRKRMOVQZraLM8UKedctHLR4gHA1tYWABvTiax1JHzhQAYhEZ8k2hjjvLt793GU69WUFnU5GZcAMJ0WSFjXRVmUtWtYqPauruumcUmSKWMJ0XteWb3YNE1ZFkFc1GsraxdCGGR9nhOJ09gopLTWSkS01mmaG4OglVIqtwlpjWqu6pusrx2VnpPIXBdUicjG2lrtKl/VznkfagUcAAJA5L7SigI1nre3S1Jq2MsO93dv3ryJJG+8/tksy94vi52dnV4vG/YHsXGpmBZ5LxcW0hTlaaLDGW8r0ApDLqHL1HckfFE89EoLsghJVdcPH29Ppk2vlytlEWkyHR8eHk4mE6ON865pmiaEJEmyfr66vtHLB/mwPxquJUnivHNNU9d1UZZN04wPpyF47wOxkJoXA1A0prFIXCkkssYkSWISHYKL/isi2kTXtVFyNChqfr+I9jA0gODqsTSNr2vvfJKYyAVEVIrifhUAcpsi4sHBwaOHj6aH41dfvnrt2rXhcPjd735/1F8xpBFld3svz7PeYJDrJDQgKWhQWimZiwsTADD4uaGFOTdJUZeu6Ej4ohAFLAiEyqra2d3d3xuPD8sk6RmdVFXhnIv9hhX6JEvX1ldtng0Gg34/H6yu9Hv9h1uPaucfPHp89+5dZgaedyleunQ5TxKjDSkgBW0MNk9Saps1VDseGBWlSCwiyMLs+sMcAOq6LMvy6HZBSzMnHABBL7OYz0UnIjGIdNur5b179OjR1tZWURRf+8WvffFLb1dF+ad/+ifOyde+9rWimN65fSdJssPDw3p7r+4PsiwDRkRFpDx4WCh5i3QuaEfCTw0BCQD6+UpZFuTD7sH+eDYdDtcODqrBwDAYZejC6srm5mZd+6zfH41GKrF5mtau3N8/+PDmbYU4m9Xs/eXNzaqqUmNjPZrRhuYTXULWV6RQxdkSLMxRn3euRQgA7GRWFu1NAQUqUgoRFWgCojg2VylFWhtjNABIjJPOBeqPyOmDt8Ywc1EW3vm9vZ3Llze/8pWv1bPiX//rf3G4f6Bt+pVf/PLq6uDx4wf743323OsNppPx+++9lw3Sy9eupnlvPB4rfWy06XQyhShnvKSPysIkXYC0I+EnBgrVtSMyjvng4EAbk+f91dWVJMk2N1aZg83SNM289yJSNTV555tmVpYhuAtr6+zchZW12IJgCIwxaZoqY1xZkQKtFCAHLr0vq9obpeqygkW117JKUmI0wNznzGwSDWXcASpFrbjGnBPCOJ9HLwACjMvjYkTEOecad/vO7W9+85tZlt356Nb19248evTw6ktX/nvf+hYi/tmf/cmNGzcQcWVl3Vo1HPWv0UsffPCBIvXNb35TGx1COKqn5a5ztyPhp8lAAHC+VkSEWqnk7S9+qdcbrKxssJeirkMDdeXa5EScskS9REmw1vTz3vr6yuPHj60CbprEpiK+mh0wB+Kox+tFgigwViFi431MsrV6ZXETGJmGiHF4YT/rxcpMz6xpPqcFABghJlDm032pHX7YZvCRkJi5cU1RFv1e/wc//IGwFMXM+/D5tz//8rWX//qd79+/fz9JkosvXZxMptN6PGsmhNpDeP311/b2d27fubmyssLslVKn9f/jR3TWryPhi6YionNeG7158WIIoSim1tq6bFBRYgxpjej7eQ6ERLkmqppyOBiQwlBX777zfVfVo1H/9u3bAJAn2WCQp2laFpM8y0ajlSxPmuCJFBmllV62fpFpUchQIQJhjH/GLHsIXgN4ZpT5wYywLP67PGeGhQFAoWJhQorl1zs7O7du3/rG179x7dq1wWCwt7/3L/7FP+/1e2+99VbsYHTOzWYz733TeNe4ldXh+vpqVVVlWUapDsS5LkHgoxEX8JPVF+9I+DccgoxCMSfR13bYG7zz3rvWmrxn1i+u+dD009QY7ZxnLgBAkTZGa0U+zG7dun24f7CxsfH2l94kDluP7+/t7JTTg/09WVtdSxK7dvUlAGiaqj8aKq1JGSSMpgwW1GnPxDO39XMeHByfUnh0wsf13VpHsX2eA5MmAGBma+362vp0Nk0Ok29/+9tlVX7zm9+4evVqCOHOnTtJkjx+/Hg8Hn/2s58timo4HD588PDS5UuK5kkR51yepY1rAIADK5rrfXA3I60j4TOBFqM2z9VcQwYRAOO8n0ym29vbm5vrVT2djLmXZQyNZ2bwIqyt1SQu1LPJ7NHWVjkdv/rqZ772ta/PZrPf/Vf/UikajPp7e/sifnt/m4ic8MrKypUrl0UkCKMI8ItRRlreAZ53QNM0dV1fuHBhe3v7937v965du/aLv/CLSZLt7Ow8fPjw4salx4+2EdTFjUtN7Xt5bzweX37p8u7Ofr/fHwwGzJzneVEU1logQEKlFS3yFnGy2vLMxg4dCT9+yUbn6gkH1HW9t7eXKJVZ45uZTyBNVjKTxbnT/dW+1no2mxT7+48e3AOAV1959Ve/9auHh4fXb7xv0+TatWvW2r/6q786ODw4nMwA4HBSDofD/mi4urJKgh4ERJQcVXvh836X009GGyUiSMjCTdPENiVSJCIX1i+8/cVfSNP8+gfXkXA4HPb7w7Kss6zX7/e3t7eVMtakZVFnWZZn/bKsB327PEbqBLo2wo6Ez4Cn0WkXESR2vp5OD1kEEfO8/8ZnP8tBZVlPa+2916TEh9293Zsf3lRK/dqv/ZpI+P3f//1bN29po996861f+7Vfu3H7FmhFxpD1de1CVZZ1dePD21/+6lAxau+BkJ61xoTihAxWTyxDPxqKGKOj3sUOYGOMInXlypWVlZVoGIfDIaLa3d1NkqSu693d/QvrF7XR+3v7s2KytrbmvBv0B0qroizyLHfecZwAHvj5xI47EnY4ScjTl6xyjhJQKiD5jbWVpmzQk9G5UgDBh+ARwCTm8d72zvb2latXvvzlL3//+9+/f+/+nY/ujFbWf/1XfnUw6P+3/90/v3XnTtU0Lkia9wY9Usb0897Bwf7dOx9dvXpVjGnKZpDnhDSn0xM90/lcGqKYMXfB4+mwZGRFLCUFQAESqKp62Ov30uxgd983zYULF9bW1vt5ahTG7irvvXMu7/d7g/5kMlWWlNUmtxf7F5lZJPjQaJNaqwM7RBEIAoEUEEGWJUgSBQG6FdWR8BmI92R9vizPEMWzX1pYsTeibb2HKCSzuXkpSZLf/de/OytmWunPv/X5S1evbe/ufOc73yZSl166HELQ2gBAUxR37941o9EvfeMb+7vbdV3rZ98NImKr0v9knc+lHPpcl3E0Wtne3qnrOs/zqip3d/mrX/1a1dSPHj9ChDzPd/Z2B71+kiQuhOnBQXAuzXtKKSKKvRTz3iWl/EJxVCkFnSXsSPgcODHY5DQUKRHWRFmv10wZzlpkWZY75+u6vnHjxt27dzc3N/uDQd7v379/v5wVn/nMK7/+679+4/bNux/dNdaG4C9vbsZJRluPHl+4uJbmmdUmTVPXNG10UX2cayoi3odYEQoAYeEQLnPvRD+RJjImbZpmbW2118v39/fG43GSJOPx+ObNm9G5jQRLEtPrpXVdx2pTTQYWmUCtdQghdvFGDciF6sfR/KlOd/RMdBflDDzNnrBpGucdkRqNRucdMx6PAeDixYsrKysvXXlpdW11PB7fvXvXN821z7z8ta//0v2HD+7c+QgJV0ajvb39w/0Da+3aykqaZyLSNK5pmiAS+2Kfvic9VqLGr3BC6vM89aqoKJVl2RtvvLG6ulbXzebmpel09uGHH05nU+fdpUuXrLXD4bBpmjiQsC4rVPPGK1g4Du0It0i/jw3JduhI+MmuHREBjHp9Yw0RGWsAIIjw4ifm6w4PD513a6tr9+7d297dSdP08pUrVVG88847f/2978Wi0J3dnX6/J8J5vx/7Yuu6lhDaKYVR5Lul1unhu6dXeQjsnFfGRMV+Y/TcV0QU4ZaccTh2UZREikhtbl569dVXtre3Dw723377i6+99lo0aJPppNfv9bMsTZLMWKsU+xBqF61fbN1YPgfvfRSzat3RdphHR8gT6NzRT4ToazGzVlqRkuO9A6gIRUiRVtpaG3xYW1u/evVqOZsNh8M0TS+99NLewX5VVmmWrq+vl5MpsLjgACCWdJ9wHY+W8tKYNJhrgbslQs4nXgBAlBX23uV5nmX5smt6prMdgv/iF7+4v39w8+YtIrW5eREAenlvMpnEwVJ1XY9GI210rDg/MQUtMlYtTSn92JtFh46Ez4ljE3Z9SJKEFIUQ9FI2zGoDAFpppZVzbjgcrq6vb2xsbD3amhZF430/z5smDIejLE2d81nWr6oyamMnxrbVArEvMT6Ik4DD8paVj80/jDeHloqImKapSHKkb08IYWnWLyEEOc5D/ta3fvXGjRuHh4fe+/W1dQDIszzq9itSM5nFb82BrT2SzY+2+klJkVMGvENHwheDwGGpP2hpkdE8PKhIBR9eefWVoiyZw5d+8Re/85d/yUQuhPX1Ned8WVXGaGtNWRbOBa0RUR0N2VYkToSFEvL+aKh2lBVeDoHGJd46sQCwu7s3GPSTJGHm5dcuY5k2iDibTRHx1Vdfm82mznnnXAhheUZF3AbHdP+Z41JDCDFYuhyY6dCR8AUDEeu66vV6m5ubd+9sLXPgCLF9gfDw8GBlZVUrPVwZxWDp5uZLzKEsy7rxSqt+rz8rCtNLQoCqql566bJICIKNdy4Ej0SKdnZ31njN6qM/GZHy3i3s3lFePgTfDojvZRlzlMNBIgUARVHGjahz/sQ5i0g5cwAAisqyJFJJohJIIAZ7QmAEbXT7ZVFhu1PVWp/2dZWaD9mOe9rODHYk/HSxUBY7XmANgIhr6+uTyWRzc7MOzjlfFVUJZZ731tbWJ+VMWA4ODvqDQWCOszuJ1PXrN5IkWVkbra+vw/G5F+37K0QmigYnWrkTq5wI/cIDRMTlqb0nzrx9PFwZ7e3tN1XV6+X0XBqhp3ewHZ6MLjr6nDizEjKmBAiR2tij0orU5ubmaDRi5jzvJUmCSokE56qqKgCgLMtHjx/funlza+vRaDTo9fLbtz/88NZN0urSxYvLfuCpv97cuCHiwcH+ZDIpy8K55pMUfMcAjLU2jk980icv3OAns+70tOMOJ9BZwheAM/t0CJGjvDyH4XDoGnfhwgWTpffu3Rv0esw8nU7v3LndGwxY8OLFi9ODw6ZpBoP8/sP7Dx8/fvvtt69cfinNM0Qq6zPm3c/9vYUxtNbG3IYxljm0UZnYcwhPHZacj6kRGR8cklbLG04RgWdhUdc92JHwJ4c2MomIgICxW4cluqZ5lnvn446IGzfs9YpZhRqTVZvapHaurutRL7u4tlLOisn4QHzzhTc/d+Xll9n78cGhC2FjbW06mXrnm6axeV7XdZROnCv2hhAC13UdC2WIjgVvopCT0qSIYhuRUqQUOedFOIRQVWWcZygiWpu6rldWRnmeo6I2s3+U/WeZT70W0ESAxKSWOk4QEauq6vf7MWWCp9Ctlo6ELxLLkg1Li+zs23+/348ywXmWC+PBwYGI9Hq9gVV1XccGhXI6FZFXPvNKr98L3iNikqUJQFmUZVXWdT2ZTvZ3d6uqqqrKex9V1bwPzCFawphdjMpOSZIopZkDMweey4GLSFRVnEwmZVlGDxYAiFSvlw8Gg6hinNokze0SmSlGmZ7Moki8pmliRjGE0C2SjoTPieeWap+bQgAJHI47Y865JEnibDNr9dWrLzVNUxRFAAihrpsihLqfD1bXVldXRo+3Hq9trMch9XVdk6iyKCeTSVWVrnax9TYEHyfsxqExQEJExhiltFFGGWOttVpv724xsw+OQxiPp1Gun0UMkjEmSTKjtbE2+NCU1ZQl7fWaxhVVBQCxfwIWxW6LAA/FwtRFf+OT7FsbE+osYUfCTwW4FHg8WmQCMZ+uFMUB0fHgWIlGiuKglbqumVkbrYFLxFc+8xkASE2mld4/2B8MBnt7ByLC7EVkNp0VZTErZtba6eE4ktA5X1VNJKFn9r5uFXYVzv+sgkxxBIVGUipNbVR2s9ayq1gkmsmiOHSOEVXTNIfTSZLYCxfWkyRZuo+QPIU+hTEGAMKi2q7bE3Yk/KQEi8w5L9V8QqmlRViUriEAAVlrADg4R0qpNPXBRblBAABmZMl6fUTV7/WrqkLExjVN49M0H/Z6ZVkKyeNHO3Vd7+zuxGH0wBK8b5rGORZhozSkJkEk6qVpKiLFdLqytro4He6lGSKWZTGZTLXShDwrJnv7dVHMlAZAF7zPsn5dMQeNU1UV5WxW/eKXvjwr616WkVYwzyi2PCSFREAgAIRwqmc3TVPvfSsR0q2ljoSfJlEXsoIxXk9IRMR89sqLStuAgIRWWxFmphBYG62dLoqirEpFKk1To00xK+7du3f/wd293b3J9IDIxIJMay0JWKtGK31rLdFRaVsxKbS1MRkYK2liEv9wbz+mB51zdV1MppOyrkXk4PAwyyxgPaurSxevEtlhf7ixeuHBgwff/ou/ePUzn/k3fuM3iChuO9M0rarqWa9PZwk7Ej4/Po3xXSEwAETVo2UcHhwy83Q25cBZ1kN0169/+O6771qrffAhuNXVC4t4ifPB63mXLAT2gb2wONd4z4jmcPdgOi2aphkMeu37Tw73vHOHB9O9/X00YIzKsp4yhoX29meAQSe919/48v/4f/Tvra6s/d6//oNLV6597q23/vw7337jC59fX1/P8gwFimIW058ARwPoIe4Pn9gsv3wZO6vYkfDFo+1SJUXLYu9ngjnExLpGCs4FkRi3JICs3xORLMuyrPeDH/zgBz/4QVFMP/fG59LUbm1tRS3QNE1FfFmWRimR2GMoZVUF78uybGqPhOPDWVVVRDSdzVruu7IaDodZng2HPZvbjY2N4cpav9+/9dH9W7fuANhrV177+je+VTZ867s//Kvv/fXm5oV/4zd+syzLd9555zd/8zfrulYCVhvP/EyWjZ/x+I6EHT4pG6NbyMzLRUjRQwUAVtSULk2VVYmIIDiNCEqDgiYwBeynvVlRHuztffDujyaH+yLh+9//bpbZNE2LsohNUrNZZa3VSLt7e4rIOTc5mIhImqaHh/tJkmxcXKtLf2Ftw9cFkdJaKU2DK5c5dteLlHV97949s7O9Mlo7nM7q2q2OVrVKf+93/7gsy0GWA8CDBw8nk8nXvvb1H/zw+yGI96y10ta6xZCZeVJ0/vhcMxgPi9nRGBbu1klHwk+XhO3KW36+8d4CCLJzXhOpOVHD8ddSnAPRNM39+4+UMd6Hra0tk5jh8GpTh162Qor2dvfqKty4/l6e2qiEba3N0lQbMxwOe71MacizJPgm6ikhEaIAQJx40RRF4xzHzsOqflw9rirnqzLfvPbGG5+vynp9tKY0ff+733nzrdcP9w+Q5OrVq1VZ9fq9RKvZ0pinp0RnBjsS/kS59zQgrYCQOXgf1PGdkmeuXVOWhYgU02p794B0sjJaf+mlVzc2Ln3pS79Qzsr79+8HH/70z/7ggxs/EGLUQEoGq30fvEhTVVMAriry3tVNqaxSCKQQUXZ2tmDuOc/VuxEBMKCElWE/UWhIXXn1tRs3bly/8ePdrcfv+VKTDIfDqqq++OYbriy8UlmWlc/OwxNXqdsTdiT8VPDkZjmrtTImRiljTRkAMIcT85IAwDnfNI5AKaWClzRNfuHLX0+S7NKlK9/4+pf++nu3vvtXP/jiF7/47//7/9P/5D/9X3tfTiaHB84Ne30i6vV6PtR1XWutsl5mFF1a3UBFRumYYAjON00Tgp/NKuecd46IfF1mWe/evY/4T//w0ublN958M3/7TWW+8K1v/crlly79n/6z/+zll19pfJ3YFBFdXeMTJUw7dCT8KUBEiLAtmHTOOe9OrNSAEHxUnSBUGAQAWB3fHYkXRAzOAYDWipnX1tYGgwFzmEwm+3t7//f/+v+39fCRSPjRD/76W9/65W/80tf/H//P/yom3CezcS/Lxge1iLzx+uuD/mA46osIkY7VM8LiJXgfYqmaCE6n0/39/bIo0tQCcJri7s5Ht2/9qKp2/uP/+D8aDAaHhwf/r//6//bhB+9tXthI09Q5L4JGKQXQutHz8tH5Fzj7NlQUBQAYY7rdYEfCT52Kn/gdWNO8HdYzK6V7vd7Kysp0OkuS7Ac//KExOrXJK5957f5Hd/+b//b/s7N/t5fnvX4/1M1gbZ05bKyvXbt2LUmyWJIGAMLS+Kaua0QEovjOzGy0HQwGvV6vrut79z5qmqZpfO1maabuP7j9//1v/t+9Xv5nf/oXZVXVtUsSTQqlEQkMSvklmx+lDLu/fkfCnxoWM9mZnk5a9zQ+bv0yAKyvDi9evEzCPvjt7e13Z8Xmxsbde9sPH9yzSg/zPCRpmqZXX762PlopiqJpmlbfRcR7H7xzSCjzkWnBe1/XB7FsTURWVtZiAXfsn7h79+7+/o5nXllbS9N8ZdDPh4MYRsKnbjptlb+Xy2Xagr44oLRbP2dct+4S/JTBEuaJP9YE3rtZMTs43BtPDr7y1bf/rX/7N/r95PBw7+0vvPELv/CWsBuPxy54AlxfXf3iW5/XgHu7e96H2XRWzIqyKKuqcs6F4H3wTdO4qF7aNN57QoxSF7Ftd2VlZTAYWGsV0fra2mi0MuwP1tfWREIxi1JO/llNfTeE8DnQWcKnu1c99S08hBD1VM57p5McZAYOzEECZ71ekLA66E8m4+9+59tfeOvN3/zN37j+waZr3hj0zJ//2R/8+N13ppODS5c21lbXNi9tTiYzCIwgriyV1lopbYwiOphOASAO9w0MHAIJKFKitYh453wI0XICwGAwcM65prHWpGnalE0vyYumttb4EIgIAP3TiTUtB0JjN9Oy5FSHjoTPjJ9MPHChyESIGEKjNZImZj48PPy//vZvV1UxPTjMjP7Xv/svvvvd7zblLM+zLMustU3ThKZxzot4ADDMrLSIBFIxFckAHDgwiHAk5DzPTqQBPGKsuzFaA0Ds6FWKvBcR4aiVxkxkRJ7hOpwQbutWUUfC5yfGc//2PA7jSTn6+a+UMUYpq3UwpioaS9oqxb5ZHfQP9nb/8//D/1Eg9NJsd28riqMN8nSQZ1apalbUdT3/KyrFIjRXH+XhcFjXdVmUdV0nSSaCLOKbxgsjoiJCIpskcdASt2PlCRGplyfaGFCU5z1SCuQZbkYnUoLtXJ2jRq9uRGFHwhdIxRf2ByBCpVApImIOpEgpEAnMLsuTwK6q6929yf7+7mg0UloNh/1+vycih+OxUSqWpxEpRXNzKiLFrEDEXr8/WhlZk1ZVFQMwjXdaKTBGE7Xq9M45YeZY5EbkQ0CiEPhEZc/P7AXsSPg3EwEBiAJC6RqrLQAE4HbQXzQKjMAIgBDwjJUXg4FnpvJPDM1EgOCc9zWQJEmCKFEflMGnmS0K7uX5QVWurA6NwdFoqBJ9WExMo02ip9Op0loHRUT9/pCAi9mMENfWL5RFOR5PNy9e3N3f8yE0rhGEtdVVFolxmsFg4L1vmiZ4r7ROiBSQ1fZwOgEAYohecgAAYEAQwVhuDgBBkBbtlLRk3FBALWYe1mWlovYcAAEoARTALmTTkfCZoJ7rRm6tjfrT3nutn/XyRtIGUkSIwXsixRyMMdpQlqd5LwEAYQ4huEXjbERZlE3TXNy8+Pbbb29v7x7sH3zj618vy3J1fa0oozRGVVWVVirv9ZjZey8iSZL0er2D/f3KOSdBaTXfbXpJjQUAJBF+ToOGXUKiI+Fz41n9KEIKEuCJc0XbX0Xz+HG7LEZEH4Ixuqw8EQ0Gg7yXAQRSwsGFEGKPglq8rfMuSZL1tfV3333X6OQf/rv/7mDQv3H9xo2bHwZmrXWv1xuPx7AIV+ZZ5ryPwm2XLl8mIt80B/sHQISIgTiOo0EEWNoTPgevnk9BuCNhh2emYhzMAABN08T5E7TQxl6UjJ4b5Q8iKMvynvFVxMEppTmwtTbLMqN141yMcHrvvfdZli2/Txzr+cUvfvHNNz7/6PHjO7dv371712Yp13WUpWHmYjYLzMxc13WsvEmS5OGDB2++9dag10OkOx/dSZJECMuibK/D6VvGUd9z9EvPkULuVlFHwk8R1lpmHx9gnHO02Aq2o2qjptOJ/eGJBS2CwJhlGTYwPdiPT3IQY3TTNI1rRERbbYyx1jjvhQkAkThJkvatRISDXL169e/+3b/7eGvrX/7Lf1mW5crKypUrV+7cu3uwvz8ej2dFwcyTySSxWZZniMrY1LnQ1IU2yUd37q2vrg4HKyvDcVmWzH5ZBCAaRCJq9RxPTv9kgbmi4lyDtJhORcRqoxZTMTq1tY6Eny6WK0Xa2EyckRL3h8sj+069lgEAhYiMUnMdfR9cXLqkaNAfxLglhyBEAKAWY1hajEajl65c+d73vvfB9etXrlxNs/TRw0ePHj16+PjR9va2iKytr9+7d29nZ8e5oJVO0zTN0pcuv7R5aRMRDw8PJofjl166fO3ay/fu3SsP9tZW1058weX/DCJ6MZEXOqPXkfCnjucbgbJUWklACIRKq1hto7Qqy4IDKyKjTVt3Yq09bzM5GAzef/+98Xjc7/XH4/HDBw/H4/GDBw/uP3ronFtbXc3yXJittcFXSisA2Nvd3d/bf/z40euvv56mGQqUZZlmVimIEdSsj4ggAu3It4/9dmfOogA421/t0JHwU0dU/ov7w6eRo15QkBRRYBbhebqCGRASk+RZNh6Pj71GYgoAp7Op9+Hq1SuPHz++f//Go4ePHj9+rI3OsixJkrKq3nvvg/gRxloOfDg7jCNf9g8O/uIv/vLLX/7FzY3N2WzmQ7O+tj4rax88AAg/T7mMiISzXiUiCB0bOxI+BZQALbJebWqLjo3/jDrboASUgHMOEWM7wgkSWmuVUi0DjxuKuOk6egkpFSeKRikMbRQAKJ1qo7XSiFCVTTs8lAhXV9fG46kwjlaH4/E4y/Lt7b1HD7c+eP8DZgYhoxNGcI2z1ooQADjnnPNa6zTteS9KIYjKsvyHP/zx+Nrh5z73xmw2TpLkwoVV73zUMgago/yoACySN60juqTucWx2RRylmCSJtaZLVzwB3aX5tNDGSJ9vWq0ian/OeXNdVXUvz7MsK2ZVmuaK9PvvvffDH747Hk8RVX8wGB/Omjr0en2RuSnOsuzNN980Rp04Je/948ePt7e3rbXCgkRthfeTcaxtgo8eyDmWsFsYHQk/Lb4tP26NQ5uoCCGc3i5GveCo4dmqeh6RUOv250wGaq2884gKgOragdDW1s69ew+mk6LfG4WAisxXvvK19fWNsnTCwAzC8B/9z/7n/+Sf/JPV1fUTJ5Mkiffh7t27gUPjKmsMKXrKvqQTQamjd16SgewiNx0Jnx+yAD9FL/mJJRsT9DFA+jE0luU/hILjlrCV3F9mIAgR6ZhtR8SmcR98cN05t7o2bJpmb3dXG/O/+l/+L/7Nf/M3xuMDloCIj7e2+v1eHEqzTA9mtlZba4piFsu+0yzLs+zJDAzHh2OfSr2cnZLpcBrdnvAZ2HjerwhJUM5zOxGxnbZ7rKQmllmi0YhsfAgKIAZaAABoKaUhPjjnhtmQNSutqrJy3vfyhBmKokhSc/nSxQ8//HBv77GyBrWYTK1nK1k/ES3aYJYZIs7zIaL8b/7T/wRR1XWNqACAGRUpAPSeCQIA7OzsbF66OJlM5sk9QABss3+xqaJN37vgiZQ6JweI2A2p70j4KXPvzINPLLun2Q0iAZFSys6niwIgagQFyC3Lgw8x9R/5aQDG43GeD7TWWunxePzej3+sjREAY3RR1Ih4/fr7//gf/+OdnZ3AnCRJWZbGmLIstbb9Xr8oi+NfjUAAMIiIVoaDIGoAEpH2C53g2dku6NE3n1+K0FnCj0Pnjn4cQ55itt7TtMk9od2eSGutjNHn7aC00j54H7zWmgMnSbKxsUGKQvAxqXj37r1ZUa6MVrOsV5beu0Co8ry/vbVHqBKbh4BKKQ4wHKwkSTIrZnTO1xERpbX34cTZtqekjp+kOn5lWu99fgCh6oxhR8KfL4iwCAOGEwQWFg5MRM67PMuuXLmyvrbOzFrrsqj3dg8Umum0ONgfE6osGwCQNVnM8jOzMWY8Hq+urQKAa5on3GtERCvF3s/7tgRb8454BqOecG/q6NeR8PkREBhAEAKCLH6AMPYQLv+EU/2EzwpEFAlRkjB+YgBggDRLnQvOhTTNAUhrO50WMSs4nRY3btzMst5LFzdfvnI1SZLDgylqK6h7vWH8s2bpYH1tA4DqulZKOee01kUx/R/8D//h/+5//7+9cGFtVhTBB621tSbqZUQowEQbrXXUz0cBYSSaW+mAzCTxXyBBddIGtv8Zxy0uqkYpErjbInYk/BkGS5yd1i7laVnmWZZnWVmUQBhbE+u6jr7osD+YzWYwHxB/zGzGTejW1tarr77yX/zn/8Uv/dI32r6n8Xj81luf//Vf//WXX37ZGGWtibOytdLGKG1IazMcDufSbABW6RMKHSdY1OrWnLO4Oso9FbrAzMdgaZ/2nDesJzQZnsZiTStr0tI5ALA2DQCkE3Bc1j4PQDoB8N5LQPBN3SrNHH8f7vX7v/zNX/7yH3z5e9/7XlVVw+Hw3r17/+yf/bM///M/f//999M0NUalaWKtDkEAgUQBcK+Xxy9bFeXaxWFVu4Bzj3S+0yMUXiraFvDMZjmWe5yTqI7MYGcJOxL+LEHOZiaziAgjzKpy0B8BwGQ6SdMUCUEReJhMJoeHh5ZUnL/bNE1zfI9HBNbYLM///M///J/+03/6Z3/2J865PM+dc6PR6IMPPnj//fdHo74xaCxZC9oggAeIBXqESNZaa81kMtl86WpVu7gXnbMOMapJzXeJixmhzHyaYF07b0fCnyZOW79jIcS5YAQBgHdOG6O1H08bVKQU5f2+391Ke4Pt3b0kSZrG181UoQRmQppVjffswXvvkmQA7Hp5zwcfPzCAElIBIcmzg8PD/8tv/1ejfm84HAKAiPR6mVIGiRHFklVWaaOs1bHMLLNJfzAwRm9ubr76+ueAcDweqyQJVaNELWpHj0q024bDKL6vFl9cRIqqarzrISZJ0jYTAiF0lrAj4c8gksQWZeV9nSQJsytrVzQusfnWzu7K+vorr76ysbHhq3pWltsPH92/f7coxjv7+6uDYZ73qkXz+6A/mFUlAAgQAMQamiRJ0jxLjY5TzbIs874JwSEDKbBWG0NJZowxWkMQyZM0z5NZOfu1X/v1qvbKJKRNXddpmnnnW6s2Fy893r015+FxjnXR0ae9ZXeX4BPiaVrszjsmhADIskhILOf10zT9yle+9vrrbxqdmKwXXMh6+ZUr16xNDw4Oi6Ym0vlw0BsNUUvWT2IDhtZKoYp7MG1tmqZN4wf90aA/ahqvtU2SJE50SjKTJMYYRSRJYqzV1ipr7Wuf/eyFjY3JZOKcW5wLA/Lp+lg42UJxUufiWGKDEJG6NqaOhC8ST66keRo1hyjKFgOeSZLEKtAkSXKb1bV7/bXPsUieZf/OP/x3vvnNX54UxePHO1XjNy5e8g2Xs3Lv8MA5R0T9weD11z+ntY5C+NpqGymFyMxZmsZEf57lo9Go3x/mvbzf6xllWp8ZlTLKoDJKmb//9//t2jUmSy9cuOCCS5Kkqqonx5aO5R74nMvCXd3Muejc0bNW1VP0E8aibg1aHyuqwWOVa0JHQqXHKAqIqDQKKxApptM0T/p5yr5RiEqpz1x5Oc97zawi0n/x59/5q7/8y2paWpv+h//Bf/D7v/t74/F4d39fGXXtpctKA4zhK1/58oPH23fu3On1+9YYH0IsiGGRRJFSJur9aq2UQgAIoUHtSQEI5mlaOt/rDXu94Te+/vWVtfXpdHbt2jWtjbJWEPI8Z2ZABhEOcrI0jzBOfgoAyhgJQVs7295eTAU+yu+LMIjqjGFHwheG85oq2lrnJ5jBxjWwCN4QS97vV1WRJEm/30+M3d0/TNPUaLs32f/j3/+D0Wi0urL+b/39//4P33nn+99/58KFC71+D4HH4/Hdu3evXNl87dXXbt26/YUvvlmW01lRjFZWJ5MpIipFiGhQKa2MNqRIERRlCQB5nogAzkW49framvfymZdf+do3fjU1lpmsTZsQWteSiM78vm152nJP/RMuS4eOhJ8KTldst82E57GQAyMiA8dyGURtlALCrJdfvXp1UlSzYra5eXltZbVs6pcuX/7D3/+DNNHjw9nrr39OKamqyqZJWU6ZsGjqy/38cHZ47dq1z73x2e3tx4eHh5cuXdjb3+PgkyQ1mojQGCRC9mF9YwUAqqJM897u7u5rr30utdnhpPzqV7/6D/7BP3CNn80KIUXG4FHpOcNCWzXybVmIDeDIGJ4Edc2ET4VuT/jJr96xaxhbB5d7CE/XlJAipZVSSsfxD02T9XpN4wDgc2+++eprrwUfkiT5tb/7a9/61rfu37+/vbP9o3d+tLIy+IVf+MLu3rZrakQcrqxwkK3Hu9Pp7O23397d3bNWv/2lL2xeujCe7A+HvbX1VaXJKNAajQKlBJUU08NiegjEWZZ985u/mph0Oq1+6Zd++Vu/+ne0Suqy2dvbjRVnSj3d2lhK3Itw9MlDN6XwWdBZwjMgIlEYBhHbyYTn3M4JoFVbIgAyxrS+qA8NAMxHryzFNpLExDoyABC0ANA0Pk1zo1TTNF/4wufv3Lm9t7tTlrM/+qM/fLj1+Fd+5Ve00r/09a/evnPjj//4D1dWh4gIYHzTNI27d/fx5z//xle+8uUPPnhva+vxlStXRqPVw8P9echHHbElOJdk6cWLFzc3L9Wl29naHfRX//7f+623f/Gr02k5PpikaZ7aDBida0JgZVR7QWAutyZRx3GpfR4QSYhRUAIvlI5D1NiHRSvTXFSus4gdCV8c5t13y2sUzhHhXJ4gvfzbxcFHCqJlWYbA+bD/ta997Xd+53e+8+3vvPHGm7/1W7+1t70/KybvvPODmzdvrq6OhsPh+vrqcLiyMlxNkmR1NBoO+6PV4Re/+Au/93v/6oMP3suybGPjknN+MBhURdHmPgaDgSZyIWw92kuS5Bvf+OYXv/Dlzc3Lrg4oCoCdCysra1VVPIcDiYguBE0kIhL4WBthV0TakfA5EG/2T1iLhMQQ4KlDDssxDGOM9/5kqVfsgiWs63ptde0f/aN/9Ed/9Efeu62trevvffDj9378+c+/+Vu/9VujlQGzd85xgAtrG8BY13VZTg8PJ6PhhX/vf/If3rp9+913371961ZZlpNxZdXRn7guuCG5sH7h829c/qVf+vra2gVCs7Ozp0yCqEFU3ZRpnroQlBejzJlMO32XQUQAEgjMwQMghzjZN1bbqlZYFQAEOmPYkfDTYuyJB08DXBIOjLTWyqrAs7oEgDzJ/97f+3uzuupl2ZtvvXnhwoVXXn1ZKVXXJYuPg3Unkwl7FhEiE8eQNU248tK1z772uaqqPvrozr1796pZ0X7iaDRaW13dvHRpZWUl+PD48Y5rfJpm4p3WCgCaxjNPy9nMKJWmKYM8xbeg9vwlsCCdllrrAjMdCZ8ZTOhBoir20lywk/kxAAoiYUkDSkSIEJBjcjDKVSxnuufSLM7hkmjE0W8BhDBJjPceETlwZnRwTZ7l2dUsDoFBAQUaEEAgsAcEBBJhAQ6BQ1TsFQCAa9c+c+3aZyIlQhyP4b2IeObtvX0AQGVMZgLAIMuK2hVlUbt6pT9cSzcBoHbeGuslisWxMQbmulXRu1ZRKSDWcwMCAKkkBYCAFASAFKACUhwfoBbo9oQdCT81tIEKYXnK/c+ZNtMYAwAsZIwR/gTnE45eHOk3Z47WVVFMZrOqKl+6dLk9ZlZXMY4SQyntDYIREJBIHa9ZIyKqXePqummaC6vri+dxefzbsQqGbk/YkfB5wOfuCecz+4iYkZ56eT394JS4lMNyndfCtMbfL58lAAie5KtbUlicSw+yAACLt9auWwuwejQighfbX3UUCl6+uRARkfY+nHf7aP1qo40PPoQQfNBq/j+t9NExDJ0Sd0fCFwpRAAxAwnOhh3Zwyuk1Ck+xY5zXTM9JRR/Haj6jIDPWyZ0lc3qkWq/Uco0LGSKYT25jYUWqPecAEmdLEdESCTkEttqkNgEAjPY/VqhpFSdYxH9PX4EOHQmfH2dGBQHmvbnWpt57EGWs0frEWD84pj52+p1puc/whPWD0+yV437qSWIHObn027IVPnoHkaOACjPLkXSaWpA/fl8QAecCQGhvCu2MN5GT5xP8XEcj9lItjyVc+KXdUupI+KmDOByt9ydbgGVizy0Pn7RgHytEf+ZHWGtDK9fbElUddR4de37xQS/EXrVFCB06En6KmI+tRZTFIInl3wYObXI8LuvlRXlCojP+P5zjqZ4uj156H4q8glOTMAAgiJwmlYTAS5RWxiy9Fs88w/Men3dfiFY9bizndpC6qExHwk8LDFGacL40eWH9WOSkNYtFpHpprsuyIYqbsfh4EcOYH/ME6xSdQKVO/vli39Cy6gy2EkyEhJ3oS0fCn3MsWwDPIcsy72tAVoans4nzQxFxzi2a3HWsQWXmuq6bplELLLugpyefLRRo5sPg4YTP+cR9VSxViVZufrdYNEMQqScHe07ve+WJR55+DADWWGZuztIX7tCR8AXDWuuaxnlnjH3zjc89ePjAWhN8ZKav63o2mx0cHBBRkiR5nldVZRZYtoqnpzs8/d7saQp0ushkR8K/wWhdUNi8tGmtLcoCAO7du9cu/RhIJCJEHAwGFIdOKLXsgn4MbebpNQSYx3uO9D+fTsbz+DEnj1dzXe1lZh89pKchsBz7LIEjNUTstEY7En6qaJomyzJEdK4pAm9sbACA8+7SpUvLK09rHd3RNE2Z2XvfNE0sTAEAkOep5IobQuw2eB0J/1Zh2VFsH3vvvA+9Xl9CaLMLwUtrHZIk4QAAlNhMGBGUthoAOA6dVwQAy8Wpsf5mObQzZ9pc6Cam0QHnJ6CeRlNw2codGzZKMR2/uBe0NnPp+JjnoFM7wBPa+MtXqcVympCQulGFHQl/UlzlU9IPn9od4WcTZyZUOnQkfC4QPt940CPF+IUYlDqlBv8xSfwnJtYUzluJnzDk6DxLFYOjp2ObwnjONcDzmLb0YccZCB0DOxL+tDGn4t/WAq12OkWHjoTPjGN2j5FAMSPiieuzXPtCwiiCiIqZQQgArTW8iJq05iLA2YmHhWL12fWoi485GYMJyCqxELdzck6+7ri8xtLTCmBuu47ZWzr3osDTFd8tX0YWnk1nS21MxMLCi67DDqfQlfm9aDL/7Zaa7sIvz4HOEp67mJ41wBCDgafX4s/auly2gdFtDud0ED/rmUdt0hPPdGvp469bdwl+KliWpXnOcKLQizzsRTG8i44+OzpLeAaMMWdOvTwBXqw2s1Sraa2FRbD09HJkBBEhOeIhL207aX54gCdYoWOkWo67nhMpxaNWwNOHzEtxPom9Yj7GQBYRaZpmMBhYa7s84dOgs4RnwDnnnPPeLY0He2H4KS5GYy0p5UOo6xqJ8EU0/p12ODtL+KzoLOELACNoRaiUILYtEHJWF8Iil7jMQ15ev8/4ycsbsJ8at2P8c/kLHv1KdXf5joTPheiOam2e4Ke1PYHP1JMu80Kwo7fln6DdcE0DAFoprZREfd4X1AW/zMMOHQmfE8drIINzLlJx+Rg+2d4AAYARaEGk4L3SJy/p8VfhqeWLLRUX1ZvxQ4/IGSCct/iP3vnYs3zyRJdvBEtnsqgFf5HLoCor511bpN6KQXZ5QvjYv2KHZ8KiUDnqJD0bOGotdegAAJ0lfG4s+tCJCBmAiZAwMDzZM8WFdsXSU3H635ydz0rn5fd+imM+9XvuiULZo8RppzRzPjpL+PONtnXoaVnLnzg/2eFFo7OEzwBaNmCLB0EAESlWmp4fyIld9nJOhx6cSi2e7v1rDzvx4GPPeol+0vJw0bt49Ph5bwOLj0GKvcvT2VREtNFGL/Q8rIktH50Cd0fCnyccI96ZByzpXMBT69O0sdxlKr5AdAa2I+FPhB7HRXs/dt2fUUd61jJFRDiV7ZjPiEc4M/zzHDK7iMfmZ7zwygF8mhbEDh0Jf/YRh6vEB0hY+7MLd07YMf4ZaOAQkb/lfSQdCV8MUIAWP/Nnogt3SoU6el9EhDQvjjxDuSn2DfJyJvDoGF70ChIz4GKnh+ACswghsrBaqhFdbl3H4x3xZwo/CfARY4VYZLkLMe5tz+3Efz4Sdu7oM6LbJv+sIOAZNPi5SyeycFc686zoLOEz47Ti2JNBT2dbEAmE8WkPXtrX0WI+6ccdCYAnBNrw0xnecmIWU7dmPmaFdJegwwtE544+BzpL+DFYvpHPt4gxGTBfdEACcSg7AcqzhweXN3LyjOeznMY4ryRF5NTQ0hdk/WTpOiy7oFVVLfUQzvsJCbsm+3PRXZgOHX7K6CzhzzgY4HgnRFTLPqUTE23RGR2MP42Rncen83Z7wo6EP9sQPnss9s/3l1qeAdylDTsSfkpYrphpNz+f9D3nrX48L+l8EnUF2nkST0wJCJ/8LZ4zOfj5MLfAIgBQVVWWZcWsYGZjbVtvEPMWxKrbFnYk/FnEMeu3NED75xGTyQQAAoenma3doSPhzwuiHVuKoeLy7F488fxZLP/pWB/qVNae/lp1l+DnGj9TO67BYJBlmSLFoSuaeQZ0lvDjVvlSi9BCpfOoi0IAhZBFAoiACAieIgU9sdVo+fiz+PSk/Zt3jdJKoSIiH9g7L4TGmDgMOAQfAienNG/ix8inELTMezkiVlXVKo52ecKnQXdhfp7/eGqenGBmRXFWGkYGxr5BrVVXyfmzj84SfgyOqaScaapOKG2etnVPVIZHwuhSPlMAI5oVUhTHHXn21mqlkYisprp2hIhEICTyk9ClX9YHYGFEJEVERIpIddvCjoR/c0FEwODZc+CbN2+GEJRS1lprLRFprYmo3xt+rL/T3iaeSUO1Q0fCTwsiwiBh8UOLHaCcPWPwmMCEWhrTe2KVw1nFzfPtJWEbyUDEGAtl5jRNp7NxlmZE5LzTStd1jYRGmyRJfPD72zuPHz++dff2dDr1TeOc33zpYpqmiTZEZIxRqEXk4sVLFy9eTJJERFwI8WMYJSwsO6JqnMuyrGnc0y+IVm8OlmpH4yyK00ciYjyk2xl2JPy5gbX28PBwfX11Mpn44Pu9fhPDMKS00dvb2zdu3Lh186YEZuJer5fbRESssYk2dV0TETMTOef4/l9/b9DrXfvMy2+88XkiVVVlE4JO7HKCIx7fXfaOhD+LaM0aEZ65Sk+rwpwu12zLVvBUOx8JxE3UCVfQe5/38lkx00bPjZhzeZbv7O7c/eju3bt3q6rKs2w4HA5GfUTc29kSkaoojUISVgIkrIQ8SpLog/H+1re3th49/oUvf3k4HEpVLlurENgY45zTWsNz5Tzm9avA7VyAeZrwePloJ8LdkfAF47y29xOVYs9dQk1I8Y3qus7yLEuzGzdu/PjHP67rOu/lr21+BhEvXboMJFtbW03TGGMaV4lk0aYRM4D3vhmNVpIk2dra+vH7P65d9YUvfGHz8pWydgv5jKjQYTpL2JHwZwUnusKXDdSypAuDAIKXRb8eAiIIiJZTY9zPMYPxV7z0ubDUJh9CaFwz6A9CCDpRs8Pxe++9f/P2rbWVlQurq4PBYDQajYZ9Rer2ndvv/PX3rl69WkyLAH4ymVilETEEj0je+yIwAIz6PeTw4Qfvs2sGg0E+XDuczrxz1hgmCiEYY+R09+FTXK6juwYQABweHKZZesoeAtJxNfAOR9etw/PivNC/HMfz3AgIA4d+r19VVXzm9u07169/MOj1h8PhxYsXL168uLK2ZrR5550f/vEf/SEiVkWJzIYUBG6axnvnffChzjKTZgaJ66Yg4jQzOzuPv/e9v3KuIVJKqS4u+lNHZwnPocHRiqR5iabgck3LXBGUMIRjr8In7nrOcE3nI8pOvipLsxBCCIGZb7z/4x+///7FixevXr1qjLp48WLe75ez2V/++V/cvnNrMOgH5mI6TpJEoRXw4hkY2TdKKUhTaywATCYTltDrZXVd37x58+XX3lq/uImomAMLM5NSHQl/Ougs4ZPwU+wAqOsyy5JeP/vg+nvvffDehQtrL7/ycpqnl69cyXq9O7du/c7v/M79+/eyLIvnWZYlMxME8SzCkb/e+6aqkTBJkixNtdbOOUQU8O+9+w4JW2sRibgzhj9NdJbwTLAga60AABG9cwCQJImwb49AJG2Ua7z3Pu59tD77jvbkwMxySSUd7cgCKgRx199/9/7dW6urwytXLq2tjRBxPD64devmvXv3QuBev+ed9wQQWFvrgldeEwshIRIIIDAzH+4dWGuG/YFzvq4cs7dkHj34aLK/s7p+IbNJUZcKURBBFKOH41M3nuWqsfNORJIkMYthFNro6JVjlyTsSPgciCYlEsmH8JOMrw9XBjdv3nj48F6a2vX1deebmzdvHB4eOsfModfrW2tcWdVYC3hEBBb2IdQOtGp1DYUpBCYKzIqZlVakyAdEEfFuPDlYvbDG4nEeM1HdIM+OhD9DaNex994Yg4jMDPMJ7LGjT4HQUaMAxX9f2L5qOp1dv379/v37K6urt27fNlrHXWiWZUhGmBtXp4lBEiRArEPduOABIFWpMKMCRBJhCqIQRGEgSGyOMBOpAaAJsrOz88prnw0+zOPAAIDhWc/zyZWxHToSvgAw86LqinFOwk/LqRIJuFDFf/To4f7BwWg06uW5NSaGaABARBJjRER8CMxEKkksIlbMLngXPDWNMYYAhAQAJLBDr1gjk4horZWjwEFExuMxzPe9zyZnfM7Jd1R8TnRO+jnXhZQySmszHh+U5QwAwoKNrZyMCL/wldc0TZIkSZI8ePAgS1NjjA8BAitAS8qSUgK+rsWHJEmIRULwPsRtWJqmRKrxLt47JDAAeGYJXNd1VZRN08RBThxYRKaTSfDBe//cFGpbK2PzRDz/xjXd+nkmdJbwzLVFqMhaa5LaWuucc01jjFn8PhqrT+XGrwiZfVUVk8k0SRLvPYew7OL2+v0QvHM+BK+MRiYgUorEBUgijecjnEQEAqM6+hMTorW2cda5QkSMSQEI8cVk0LvgakfCF0tCNEqJsU2SpHkym8wqwrXeeu0DnNoFHWshJ4RPoDdBpBHFex6PxyIMQEgkS4lIQizL0midpqkiEh9c8P//9s79OZLquuPnnvvqx0w/5qXVrljAUGCDYxfgShVlnOLHOP7XzA8u/2S7iH+JF6hK4QoLJsExDhUwm9jY2KmKiRPCArsSK2kkTU/3TL/uvfnhjnpHWmlf2l1wqk+ptF2j0cxsqz99zr3nnO+hSqm6Lk3BAYyjDFFqaWnHQCy/hZSyKLgxRmnt+O4dUIjb74dsrYXwjnO4cIa+6yZJYtNr9+B9EVGpKstmZVkR5BTRaN14XW1M4PvaGK210pohCsIBCSISgAIKqpiUUFX18msuF+4YY5AipYIR8L2uEAIA67tQNdrU37VrxRbC2zFKiAHgBA1lrttZGZJPPvkky9JOJ0ynU8fBWitKqDEGjWbEEAJoNAVCNCyrSRyXITwwT2KpntKAAkJc1/lsc30+Tyl1mesgBdfxm+fUShFCOGeIlBCq6hprY7QRDiMUSAF5rjhnzbsYAhoJIaAIMACtFGeO5ynkstfrVUoTiqCvlsXeUobQGKOUqlWNiFmaxb2YkIVjRMRFa0Ur+tRCeBvW1G1TSl3XzbIsDMM0zTh3pJRw93YCtYH9HIf1dYcivWZPqKpqRI1EAwDnTAiR53NCFGVUSmk9IVKbN2HGGEQrBqU4ZwwoUIFGhWEIAGVZGaQnOVeIOJ/P/Y6vavXrf/81UmSUMcpabYsWwpNyaIubPY8LITzP3d7ens1mw+EwzzNjFBA8cm/mTs1+UFprrWpVG2NqcjW8pBQRqZSSEOI4Xl1VRVEURcUYR6RAK8DK0HpRlg0gKavqWmsFAForKSUyZGUV9fqD0UpdK60VwUVtEEAjQHyzVtWV4KIX92bz2Ws/e+3jix8/8OADnW6HMkopZZRRRqG161qbojgWQtj3PJ7nci6EEJO9PUS0SfCrtNw5r7j8sloprbTW2qYTGivLygLGGK2ryhjDOHc913N91/Vd1+90Op7rOo4jpRSca2OMJkpBnudKaavZb4xZW1sTQmitKWUn0fA32pRVWav6l7/85bvvviulzPOcIrVfSLGVOryhtZ7wSBgWyjGMsXlRSSk9z62qYGtra339035/4LqeMQZA7z/z6OusqqrmeCnDcYO3NsY4QuZ53g28qqqEEEVRMEallJQyGycbY+paaaUoo9yRjHFEQgw6WgPoLEuLoiiKQhnturykaj6fWZjt5moURWtra7PZXAEeihdvhkYb55ZVpZVyPZcQ8vrrr7/11lvD4bDT7fTinud7rucKqwBHCCK2MWkL4e0bIYRSZlPhruulaRpF0QHqtAF67MXaXNZm0bKE130vBG2M0YPBgBAynU6llIiUATPaVFVttKGMNZyEUQgANh3hSg8A7D4nYzTP86Io5vPc1Hr/NoGEQJqmvV68urrKOVfGUEpv75wkScI4931flcWbb775xhtvjEajKIq63W6n23Ecx3VdKSVllBBCsR0F00J4AkMkiNRx3Kqqg6BK03Q6TaMoOk4M4kCn+TWX+PX9DKHxvlk9AAAPk0lEQVSo69oYs7K6OhwOt8ebAIBIBQrOOWVMG7P8ipRSgAXWQggAQDAAII1kTDKWI9AknVZGKQI1mCovOh2vv7KysrKiDNEHuxhvbk2oAaCsasZprxdVVfXOv1145ZVXTp853e12e3EvDMNOpxNHsed6Ukq7Jmzd4A2usfYUXN8aWWvrDHu9eHt7uyyXKrOO15M/VOZ2Q2uuViH42toa50zbirM8L4qiLEu1n7i3FXNZmhVFAQC2xLwxW/gmBLcRbFM/wDn3/e7ambO9wegk50Rr5ft+VVUXLlx46cWXzqydGY1G/V4/CIIwDF3X7XQ71g0iYusGWwhvH7z9IhgKAIiEc8YYpZwLIXZ2xo7jNORorRijlDK7CdnYcpb8ZlBUxhBKjVF1rR596BFf+lVeCxRKqaIo5vN5ns8tikppY4zWSuu6UlWt61prZMzGgZQL6XpMOIQJ1+9opOlsXindj4ePf+Vrg+FqWdYAiOZwHv+Y1IsG0JRCkk4oRaVqm6h87733Xnjh3HA4DILAddwojoIg6Ha7g8GAc+66ruCCc47t5mgL4YmBBDsElFIWBEHQ6TqOk+f5bJbZPRJlDOeiLKuyLDkXJ+ffbreORquPP/YX3W4ohEMp1wrKsi4LVVdKK6M1aGWUAq1Aa2OU0XW9XOAGALahFgCQoOBiOBx+/etP9fsr87yoq1tOoDPGe1GktWGMh2H029/+9ty5c8PhsD/oR2EU9+J+r9/r9waDQRAEdm+Wc05ZG4m2EN4ZCAkAUIqe5/u+1+n4ADAe7wAAIppbqQi5vj80iy8EwEmWPvToV9buu3+SpAYQGa80zKu6KCqlwGiiNbUo6tpUylTKSqUhIZRRhoiUUs65EMLzvVOrpx5++OHBytAgaKU1gVv9zFrroiiUqX3f/dOf/nju3N+5rpCStwSe3NqNmZvkEAkBrRWlrNvt1rXa3NzsdjuUMqXqqiodx6GUVVVJqTj5OxoAAOx63te+9sQsL3fHY2MMp1jXqigKKSWlSAjR2iiNoDRVyvY0odJ2DAvUAACccd/zfc8PgiCKoul0KoRwPLdW6laLfhDRJvr/84M//ugHP5BSRlE8XBnF4YLAXty7SiBrCbyVC6ytr72+qf3TYwxoraqqTtM0SZKPP/7Y7sjboFRKuWjVW/KLR05lOHSM1xtdhkKI6XT6+z/8fmN9I8/zKp87PqXUSCk9z+8FISIHisgZEuF7Xc/3rFy33RFRWknp2i3KJul/QD2VHP5UtnZ0/5EDn00IcfHih88//zwAhGE4Gq2EcTSI+v1+P45juyCUUgohOGuXgi2EdwFCANDa1HWd5/l0Ot3ZGe/s7MZxxIRg1kssrju8ExBipWqkVNV1EASgzUcXP7p06fKnn15UVW6gNAQYY6dPrUqro+b4nLmcS845IhpjHMfxPR8pEkKNnWCoF3O2bw/CKAo/+OC/nn/+R2VdDYfDXhSNRqMwDPvxwBLoe75N0LcE3qq14eit3LEIoRSFEFLKOO7t7OwmSeL7HXAdtr8yxNuqHd1v/Lk6D9h1u0rVeZ7P5nOj8UsPPXJq5VS/17t0+ZMsm2ZZBoZM9nIpjSx04YDvo1JGa42IruNSpABAkVaV0lrbtnckaIyB6+cq7a3BTia2YTESAPjwww9ffPGFoih6vbjrd1zft18Nga0PvP3rqvWE1zd18PQsO8PJZLKxsW6MWV093YSjnMvmyTfvCa+FUNWGEHQ9MZ/PCTDGaJnP4jie5/Pdnd29vZ1slmmlbZsCo8wY4/lex18k6K7ObDPYvL4t41welH2tJ6SwDKFqIPzud58bj7fjfjwajXpRFIbhaDQK43gYDyyBlFHP9VoCWwjvrhkNxoDSqiqroij2JntXrlzZ3NycZbMHHnxg9dQqFzxLM6TIGW8a8I8L/wghaOC4Deqm2lKbI+b42qDRLP1IKXVovbf8Ogfgv2aI4kJpbTkoRQIARVE4jlPr+vvf+16SJK7vDwaDfhzHca/f78X9fhiGoRdYHyilRFx+l/Z6uVlrT9Ut3rSIbWRHKaXv+b24F8cxF/z9999///33tdZBENx8z6E+2Q6iJid9hetbp9M1xjz33HObm5tHEtjpdBoC2+3Q27Z2TXgrBCIYDYQQyijUIKX0fK/X63U6nbqqr1y58va/vv3444+HYXit6tG+97t6bG25v0B/AaIS683sJyyK4oc//OHly5cfvP/+MI6PJpC1BJ74nLen4JZRJIAErZq1lNLzPELI2fvPjkajNE0vXLjw6aefaqPvWTOr3XQ5ybKiSccv3y8A4Mc//tuPP774yMMPD4fDhkBbIGoJ5JS2BJ7cWk94C9ZkExAJaFyEndogQUaZGRnK6Obm5m/e+82j00cfe+wx2+HKuJ0WqGFfLBEPaMwsz/c7wuwcz0MSb824eVvuWdQ3pUN17WrQGqVoP15VlVqbfr8/mUx+8pOffPCnD2yDUhAEURT3enEYhmEc+64rGHOE5JwhEtOKyLQQfi6GSACo5RDpAXwEF3/4jz9sfLbxrWe+FcXRzt5et9tVd03v6IQDBpsbBAAg0k7Hm06nL7/88nvvvffQQw+4vk85D4Kg14ujKArjOOh0pesIxoQQViSqtRbCz59DurQxb9vJHdcZj8dv/PyNp59++pEvf/nKlc9sv19z3S8dL/cH60No3TxIJ2FYa2X73xFJXs5ffvnv33nn7TNnVqNez3GcXhRFvd5VAqWUXBCKhCK242NaCL8gHBJBPPDsI5RRG5QSQnbGO7/4519c/OSTZ599NsvSL+z/QmuFSBENIp7/h1ff/tWvhsPh2tpapdRgMDh96pTr+w2ByOhJNGlaayE8kS07rUPrQ8aZYxwAkFJmswwRbSkzAPzvf//PLE2ffvrpbrc7Lworl6ZUDQCUsuMcXnOVm6PyhHaJaIwxWhM72cyYGwq5WIkN24tvq9u0rjzPT5Lc7/pS8p/+9OXf/e53g15/MOgTQk6fOtWPY9f1wjAMw1BKKRjnnEkuAEDbRWy7tXdia0/hnTiJSChSIYTtqfU9v9PpRFG0srJyZu1M3IuzNDt//vx4PPZ9n1JmOw85F7Yv/nMx24zvul6SJHEccE5//vPXX331PCAMBv0gCAaDwWg0iqI4jCOb/LQEUtreuO+wtRUzt2nXbglqbZRWADCfzefzeTbLqqpKp+neZG8ymSRJsrG+8dRffuOb33ymqqokSeywweO6Lsz+DxZlN0v9782B9YTX/u4Rf+ajKmZ8z0uzKSIORv2fvfrKuRfPnTmzGgRxEATD/ugQgV2/Ywlk2N6477C1d7U7ZnZ9iEjAc+0j2SzzOz7jzHXcoijuf+D+d959dzqdPvnkk2EYVVV12/2Hx0tR3IIlSeL5ruM4//T6P77w0kv9/iDoREEQDPuD0WjkdToNgZxSSyC2BN4Faz3hHTBzwJstDqq6StO0KAorx5RmaZIkVz67sj3eJoR852++c/b+s/k8n6SZEIJzbrSu6vraP4fR2lhdp4OLw2X1mqt/zv1KF0YpZYwiNsrBACCEsLo0WmshBCEkDLvnz59/7bVXHMc5c2ZVus5osBL3+3ZH1BJoFa4WyRhb3r3U49RC2UL4hYNwGUU7MbOqqqIokiSZzWZpmk4mk4sfXZzNZ89885mvfvWrmmCe51opyhgAXKuk2EB4iL2Db3cgNGWcw1E7Ot1utwFV1bXjOP/y1psvvviS58m43/d9Z9gfrJ657wgCuVgWlcMbFRi01kL4+UNoObRC9lYofpbNZvNZlmZplmZZtn55fbwzvu+++575q2eDIMjSdJ7nUkqtD0//NfrYqrTlHVS9FKA6joP7WQQhRFXXZVlWVbW7u5skyXg8TpJkc3NzY319kuz2+wPGSNzv+747GPRHg5VrCWSI9dLgjRbCO2vtmvAuGhIEBECQKI02iMgoswpoD37pQSnlxY8uXrr8wl9/+9tnz55VWptrytOORA4OFqBdG45maZpm2d7ubpplG+vraZaNx+MsTZMkUVrXVaW0FkLEUeT7HSnlYNR3HOf06VOO4zQEckobAi14Gtr79V2x1hPeI5tleVmWVV2VZTmdTtNpOp1Ot7a2dnZ3ZtnsqW889eSTTxJC0mlq508cyhMCgO3f9VxPm321GKXTLN3b3Uuz9PLly0mS7Ix3kiSZTCbzfD6bzTjjSNHCjxSt4AWli1EtvudzwT3Xcz0Z7Fu/35dSSuE6juM48uiLpnV/d9RaT3iPjAuOiFhZMbT9iUUUPd/7bOOzCxcuXLp06dlnnw3DcGe8Y/0h48wKRlR1led5mqZ5nu+Md/Yme9tb23uTva2tLSsKXJblLJvZQWRIUQjR6XT6/b6dA9GAR9niu/0Mnu8JIVzX9TzHEuj7/iIKlYudmNbugbWe8B6Zqg0hpFa1ldCfz+fT6dS6xK2trbIsNzc3gyB44oknHvzSg3t7e1rpnd2djfWNnd2d3Z3dJEm2x9tJkmTZzDJkAZNSup5rxxU2yEkpBRdNtSoiWvxcz228IiL1fU9w4XouIlgCOeeLdaBwkcJx7RGtJ2wh/PMzq4tBCBBc0FgUxWw+S6fpPJ9PJhNVq/WN9UuXLnX8DmV0Y31je7xdVVVZlnVVWxfHOGOMEUJsaY4QwmhjpTTsgF5YWh8yyoQQ9nFEm61Aq8W2DyH6vm8hBNCdTodSSgjxPK/Ry2khvDfWhqP3wsh+Zs1oQCTGAOPMA68RCJ1MJr2457ruNJlub2+7nts3faWVqpXSSkrJGLOwqVo1ns1xnAZCAKBIGWcUKRe8CT7tcxYx8FI4CgBSStdxbbvj1edL5zr43chu5tdaglsIvwhMEqBIgYPv+VYxTQgRRdHW9pZdpGWzLEszC6HW2gpqWNiWvZkQwvo3SqkQooGQEGIHx9vV4OJg+fGFMBy3BFrVHPvPjSQRW7sL10Mbjt4bOzKhr7SiSPM8z2ZZmqYUqd3b3NndAQC9GJitrKihDUcFFw1g1r8xzmzw2QScVn2UMooEG/CafIb1ePZ4IYVoETyQ6rjuRXOsM2s9YQvhnxWEsF9Yo7Sqq7qqq+l0aucQzmazsiy10rWqtdZSSjvdpWHPHlh+7OPNMSKWVWmfQ/ZVm+wTbB7STs9dAEGW8403fdG0ELYQ/n8CcplD+302n+V5ruoDc86aMHJZSsP3/Oa4ySiQ/fiy6fc/OCPxhiCdxFoIWwj/DCFc5lBrrZW2KNaqXkZo2fs1ZpMQy3UzjWe7oVtrIWwhbCE8gkNj9me3KN1wZYtj7NLOLt7gcKnabf3hWwhbCFsIj+QQjupRKssSFyU25Dh4bjWp0EL4xbH/A91+yfMeFYLtAAAAJXRFWHRkYXRlOmNyZWF0ZQAyMDIzLTAzLTI4VDAwOjU4OjU2KzAwOjAweC2VewAAACV0RVh0ZGF0ZTptb2RpZnkAMjAyMy0wMy0yOFQwMDo1ODo1NiswMDowMAlwLccAAAAZdEVYdFNvZnR3YXJlAEFkb2JlIEltYWdlUmVhZHlxyWU8AAAAAElFTkSuQmCC;clipPath=inset(0.67% 28% 0.67% 27%);direction=north;" parent="1" vertex="1">
          <mxGeometry x="384.6700000000001" y="223.58" width="101.77" height="46.42" as="geometry" />
        </mxCell>
      </root>
    </mxGraphModel>
  </diagram>
</mxfile>
